<svg width="2569" height="2119" viewBox="0 0 2569 2119" fill="none" xmlns="http://www.w3.org/2000/svg">
<path d="M1175 0C1180.6 0.427221 1183.62 1.69491 1188 5.1875C1188.55 5.62167 1189.09 6.05584 1189.66 6.50317C1196.22 11.8225 1202.3 17.6899 1208.42 23.5083C1212.45 27.3091 1216.65 30.8885 1220.92 34.4141C1228.18 40.4659 1234.89 46.862 1241.5 53.625C1253.64 65.8998 1266.23 73.9869 1281.59 81.8293C1293.81 88.163 1304.14 95.3229 1308.81 108.75C1310.64 114.716 1311.19 120.331 1311.19 126.562C1311.19 127.452 1311.19 128.342 1311.19 129.259C1311.11 139.848 1310.42 150.414 1309.71 160.977C1308.08 186.104 1309.23 211.26 1310.21 236.391C1310.31 239.034 1310.41 241.676 1310.51 244.319C1311.6 272.939 1312.83 301.551 1314.18 330.159C1315.27 353.422 1316.23 376.645 1316.25 399.938C1316.25 401.064 1316.25 402.191 1316.25 403.352C1316.24 460.346 1316.24 460.346 1304 474C1299.81 477.788 1295.31 478.766 1289.74 478.504C1280.78 476.855 1273.93 471.495 1267.49 465.355C1264.94 462.941 1262.29 460.715 1259.56 458.5C1258.64 457.75 1257.72 457 1256.77 456.227C1254.99 454.792 1253.19 453.369 1251.39 451.961C1238.75 441.962 1227.41 430.821 1219 417C1218.59 416.337 1218.19 415.674 1217.77 414.991C1212.73 406.696 1207.98 398.285 1203.57 389.637C1201.35 385.792 1201.35 385.792 1198 383C1190.01 382.285 1182.36 385.758 1175.06 388.562C1172.85 389.401 1170.63 390.236 1168.41 391.066C1167.44 391.437 1166.47 391.808 1165.48 392.19C1163 393 1163 393 1160 393C1158.35 460.223 1158.95 527.422 1159.9 594.651C1159.99 600.875 1160.06 607.098 1160.14 613.321C1160.21 619.401 1160.3 625.481 1160.39 631.561C1160.42 633.973 1160.45 636.385 1160.48 638.797C1160.18 659.655 1160.18 659.655 1164 680C1164.72 679.636 1165.43 679.273 1166.17 678.898C1169.4 677.261 1172.64 675.631 1175.88 674C1177 673.428 1178.13 672.855 1179.29 672.266C1180.37 671.724 1181.45 671.183 1182.55 670.625C1183.55 670.122 1184.54 669.62 1185.57 669.102C1188 668 1188 668 1190 668C1189.98 667.291 1189.95 666.582 1189.93 665.852C1189.47 638.466 1190.17 603.667 1209.96 582.499C1230.37 561.758 1256.76 549.71 1282.8 537.743C1289.43 534.692 1295.97 531.537 1302.43 528.149C1306.38 526.383 1308.73 526.264 1313 527C1318.56 529.617 1321.35 533.623 1324 539C1324.93 542.18 1325.4 545.342 1325.81 548.625C1325.93 549.445 1326.05 550.265 1326.18 551.109C1326.79 555.437 1327.13 559.62 1327 564C1327.93 563.368 1327.93 563.368 1328.87 562.723C1334.48 559.093 1339.18 556.239 1346 557C1362.69 560.852 1376.26 571.83 1389.18 582.515C1391.54 584.44 1393.95 586.292 1396.37 588.147C1403.35 593.521 1409.83 599.299 1416.22 605.351C1418.36 607.336 1420.54 609.268 1422.72 611.207C1428.23 616.148 1433.47 621.322 1438.69 626.562C1439.59 627.456 1440.48 628.35 1441.41 629.271C1445.88 633.751 1450.18 638.295 1454.3 643.099C1456.73 645.813 1459.33 648.312 1461.95 650.834C1472.38 660.902 1480.34 670.051 1482 685C1482.04 687.846 1481.9 690.667 1481.73 693.508C1481.69 694.329 1481.64 695.151 1481.59 695.997C1481 705.299 1479.84 714.527 1478.66 723.77C1476.28 742.517 1474.18 761.283 1472.32 780.09C1472.22 781.175 1472.11 782.261 1472 783.38C1471.45 788.946 1470.9 794.513 1470.36 800.081C1466.98 834.598 1463.48 869.098 1459.34 903.533C1459.07 905.836 1458.79 908.139 1458.52 910.442C1451.46 969.685 1451.46 969.685 1439.96 982.816C1430.79 989.577 1418.66 992.058 1407.81 995.062C1406.99 995.291 1406.17 995.52 1405.33 995.755C1391.36 999.641 1377.34 1003.34 1363.28 1006.88C1361.16 1007.41 1359.04 1007.95 1356.92 1008.5C1326.4 1016.37 1326.4 1016.37 1316.31 1010.94C1314.54 1009.53 1314.54 1009.53 1313 1008C1312.51 1007.52 1312.03 1007.03 1311.52 1006.53C1304.59 998.262 1304.39 985.436 1303.47 975.184C1303.35 973.885 1303.23 972.587 1303.1 971.249C1302.72 967.167 1302.36 963.084 1302 959C1301.89 957.717 1301.77 956.434 1301.66 955.112C1300.99 947.398 1300.36 939.682 1299.75 931.963C1299.44 928.094 1299.12 924.226 1298.81 920.357C1298.21 912.938 1297.66 905.516 1297.15 898.09C1297 896.028 1296.85 893.967 1296.7 891.906C1294.35 858.824 1294.69 825.657 1294.74 792.512C1294.75 787.714 1294.75 782.917 1294.76 778.119C1294.78 728.726 1295.28 679.367 1297 630C1296.21 630.408 1295.43 630.817 1294.62 631.237C1280.56 638.534 1266.51 645.818 1252.31 652.828C1232.18 662.579 1232.19 662.579 1213 674C1211.98 678.155 1211.83 682.291 1211.7 686.557C1211.64 688.5 1211.64 688.5 1211.58 690.483C1211.54 691.897 1211.5 693.312 1211.46 694.727C1211.42 696.21 1211.38 697.694 1211.33 699.177C1211.19 703.993 1211.06 708.809 1210.94 713.625C1210.92 714.453 1210.89 715.28 1210.87 716.133C1208.75 796.459 1211.08 876.668 1216.64 956.827C1221.02 1019.93 1225.27 1083.04 1228.88 1146.19C1228.91 1146.89 1228.95 1147.59 1229 1148.31C1232.97 1217.81 1236.45 1287.35 1239.96 1356.88C1243.14 1420.16 1246.37 1483.43 1250.38 1546.66C1253.24 1591.87 1255.92 1637.09 1258.3 1682.33C1258.5 1686.02 1258.7 1689.71 1258.89 1693.4C1259.2 1699.18 1259.51 1704.97 1259.8 1710.75C1259.91 1712.84 1260.02 1714.93 1260.13 1717.02C1260.73 1728.15 1261.09 1739.26 1261.11 1750.42C1261.11 1751.97 1261.11 1751.97 1261.12 1753.55C1261.07 1769.36 1259.82 1783.98 1248.35 1795.78C1238.07 1805.48 1226.22 1809.51 1212.75 1813.19C1210.91 1813.7 1210.91 1813.7 1209.03 1814.22C1206.75 1814.86 1204.47 1815.49 1202.19 1816.12C1198.79 1817.06 1195.39 1818.03 1192 1819C1192.09 1819.95 1192.09 1819.95 1192.17 1820.93C1192.95 1829.6 1193.73 1838.27 1194.5 1846.94C1194.56 1847.67 1194.63 1848.39 1194.7 1849.14C1196.57 1870.16 1198.36 1891.17 1200.07 1912.2C1200.21 1913.81 1200.21 1913.81 1200.34 1915.45C1201.13 1925.12 1201.92 1934.78 1202.7 1944.45C1204.85 1971.88 1204.85 1971.88 1207.61 1999.25C1207.72 2000.23 1207.83 2001.21 1207.95 2002.23C1209.11 2011.85 1210.47 2022.32 1215 2031C1216.28 2030.93 1217.56 2030.86 1218.88 2030.78C1223.42 2030.53 1227.95 2030.32 1232.49 2030.12C1234.49 2030.02 1236.5 2029.91 1238.5 2029.79C1253.31 2029.28 1268.23 2032.66 1282.77 2035.16C1284.37 2035.43 1284.37 2035.43 1286.01 2035.71C1288.03 2036.06 1290.04 2036.42 1292.05 2036.78C1297.79 2037.79 1303.17 2038.17 1309 2038C1315.03 2018.59 1313.03 1997.45 1312.4 1977.41C1312 1964.56 1311.72 1951.72 1311.5 1938.88C1311.48 1937.7 1311.46 1936.52 1311.44 1935.3C1311.14 1918.18 1310.94 1901.06 1310.79 1883.94C1310.78 1882.97 1310.77 1881.99 1310.76 1880.98C1310.72 1876.93 1310.68 1872.88 1310.65 1868.83C1310.62 1865.7 1310.59 1862.57 1310.56 1859.44C1310.55 1858.39 1310.54 1857.35 1310.53 1856.28C1310.18 1817.31 1309.51 1778.36 1308.73 1739.4C1308.64 1735.04 1308.56 1730.68 1308.47 1726.32C1308.45 1725.26 1308.43 1724.2 1308.4 1723.11C1308.02 1703.82 1307.74 1684.54 1307.5 1665.25C1307.26 1645.94 1306.95 1626.62 1306.53 1607.31C1306.51 1606.32 1306.49 1605.33 1306.47 1604.31C1306.25 1594.56 1306.04 1584.81 1305.81 1575.06C1304.4 1514.47 1303.73 1453.88 1303.69 1393.28C1303.69 1390.66 1303.69 1388.04 1303.68 1385.42C1303.65 1333.77 1304.36 1282.3 1307.14 1230.72C1308.27 1209.65 1309.06 1188.57 1309.87 1167.48C1310.12 1160.93 1310.38 1154.39 1310.64 1147.84C1311.36 1129.44 1312.06 1111.03 1312.62 1092.62C1312.67 1091.18 1312.72 1089.73 1312.76 1088.28C1312.96 1081.89 1313.15 1075.5 1313.32 1069.11C1313.38 1066.94 1313.44 1064.78 1313.51 1062.61C1313.53 1061.68 1313.55 1060.75 1313.57 1059.79C1313.9 1049.24 1314.8 1037.75 1322.75 1030C1337.86 1018.25 1363.89 1007.26 1383.06 1007.62C1387.54 1008.2 1390.78 1009.85 1394 1013C1401.96 1023.67 1402.87 1039.01 1404.5 1051.94C1404.65 1053.15 1404.65 1053.15 1404.81 1054.38C1411.58 1107.66 1413.49 1161.59 1415.74 1215.22C1415.77 1215.91 1415.8 1216.6 1415.83 1217.31C1415.98 1220.77 1416.12 1224.24 1416.27 1227.7C1416.31 1228.72 1416.31 1228.72 1416.35 1229.76C1416.41 1231.12 1416.47 1232.49 1416.52 1233.85C1418.07 1270.94 1420.53 1307.97 1423 1345C1423.26 1328.89 1423.52 1312.78 1423.78 1296.67C1423.9 1289.19 1424.02 1281.7 1424.15 1274.22C1424.25 1267.69 1424.36 1261.15 1424.46 1254.61C1424.52 1251.17 1424.57 1247.72 1424.63 1244.27C1425.01 1221.08 1425.26 1197.91 1424.58 1174.73C1423.9 1150.61 1423.81 1126.5 1423.81 1102.38C1423.81 1097.76 1423.81 1093.15 1423.79 1088.54C1423.67 1044.28 1423.67 1044.28 1424.82 1027.84C1424.93 1026.32 1424.93 1026.32 1425.03 1024.77C1425.66 1017.55 1426.85 1009.62 1431.88 1004.06C1432.35 1003.52 1432.82 1002.97 1433.3 1002.41C1437.87 998.617 1442.92 998.576 1448.6 998.679C1454.16 999.204 1459.35 1000.77 1464.67 1002.45C1467.37 1003.3 1470.08 1004.11 1472.79 1004.92C1474.18 1005.34 1475.56 1005.76 1476.95 1006.18C1483.5 1008.17 1490.08 1010.02 1496.69 1011.81C1497.75 1012.1 1498.8 1012.39 1499.89 1012.68C1506.49 1014.43 1513.1 1015.87 1519.81 1017.12C1534.93 1019.97 1547.81 1025.03 1557 1038C1573.44 1070.04 1560.56 1134.72 1558.81 1169.49C1558.75 1170.59 1558.7 1171.69 1558.64 1172.81C1558.42 1177.33 1558.19 1181.85 1557.96 1186.36C1555.66 1232.16 1554.53 1277.84 1554.62 1323.69C1554.63 1324.94 1554.63 1326.19 1554.63 1327.48C1554.69 1358.66 1555.12 1389.83 1555.82 1421.01C1556.12 1434.13 1556.32 1447.25 1556.5 1460.38C1556.52 1461.79 1556.54 1463.2 1556.56 1464.61C1557.04 1498.14 1557.29 1531.68 1557.56 1565.22C1557.84 1601.08 1557.84 1601.08 1558.32 1636.94C1558.33 1637.75 1558.35 1638.56 1558.36 1639.4C1558.47 1646.04 1558.57 1652.67 1558.71 1659.31C1559.69 1709.08 1559.69 1709.08 1549 1721C1544.05 1725.7 1538.58 1728.48 1532.44 1731.38C1530.91 1732.1 1530.91 1732.1 1529.35 1732.83C1517.53 1738.3 1505.41 1742.31 1492.83 1745.66C1479.94 1749.11 1467.94 1753.1 1455.96 1759.03C1454.16 1759.92 1452.34 1760.75 1450.51 1761.58C1447.69 1762.8 1447.69 1762.8 1447 1766C1446.85 1768.58 1446.74 1771.14 1446.68 1773.73C1446.65 1774.86 1446.65 1774.86 1446.62 1776C1446.56 1778.4 1446.5 1780.79 1446.44 1783.19C1446.39 1784.81 1446.35 1786.44 1446.31 1788.06C1446.2 1792.04 1446.1 1796.02 1446 1800C1446.33 1799.46 1446.65 1798.92 1446.99 1798.36C1447.42 1797.65 1447.86 1796.93 1448.31 1796.2C1448.74 1795.49 1449.17 1794.79 1449.61 1794.06C1454.77 1786.43 1463.27 1782.4 1472.11 1780.56C1477.11 1779.69 1482.14 1779.05 1487.16 1778.39C1492.21 1777.7 1497.23 1776.84 1502.25 1776C1503.27 1775.83 1504.28 1775.66 1505.33 1775.49C1510.48 1774.63 1515.6 1773.7 1520.71 1772.65C1532.24 1770.32 1544.44 1768.93 1555 1775.18C1564.39 1782.32 1566.36 1793.98 1568 1805C1568.76 1811.44 1569.18 1817.91 1569.62 1824.38C1569.75 1826.04 1569.87 1827.71 1569.99 1829.38C1570.29 1833.48 1570.57 1837.59 1570.85 1841.69C1570.99 1843.83 1571.14 1845.98 1571.29 1848.12C1572.08 1859.72 1572.23 1871.32 1572.39 1882.94C1572.55 1894.3 1572.78 1905.65 1573 1917C1573.02 1918.12 1573.04 1919.24 1573.06 1920.4C1573.93 1965.31 1577.45 2010.02 1580.98 2054.78C1581.05 2055.66 1581.12 2056.53 1581.19 2057.43C1581.32 2059.05 1581.45 2060.67 1581.58 2062.29C1581.81 2065.21 1582 2068.08 1582 2071C1583.16 2070.99 1584.31 2070.99 1585.51 2070.98C1637.47 2070.77 1637.47 2070.77 1654 2073C1654.85 2062.95 1655.18 2052.96 1655.2 2042.87C1655.21 2041.28 1655.22 2039.7 1655.22 2038.11C1655.24 2032.89 1655.25 2027.66 1655.25 2022.44C1655.25 2021.54 1655.25 2020.63 1655.25 2019.7C1655.28 1985.31 1654.59 1950.94 1653.62 1916.56C1653.59 1915.41 1653.56 1914.25 1653.53 1913.06C1652.89 1889.94 1652.19 1866.82 1650.99 1843.72C1650.93 1842.58 1650.93 1842.58 1650.87 1841.42C1651.12 1811.47 1651.12 1811.47 1642.18 1784.73C1634.86 1778.92 1623.2 1778.83 1614.28 1777.63C1603.99 1776.12 1594.64 1773.73 1587.88 1765.38C1583.85 1758.14 1582.51 1750.39 1581.91 1742.22C1581.8 1740.76 1581.8 1740.76 1581.68 1739.28C1580.49 1723.38 1579.96 1707.43 1579.38 1691.5C1579.34 1690.63 1579.31 1689.76 1579.28 1688.86C1577.4 1638.4 1577.36 1588.09 1579.78 1537.65C1579.99 1533.28 1580.19 1528.92 1580.39 1524.55C1581.01 1511.42 1581.64 1498.29 1582.28 1485.16C1582.44 1481.86 1582.59 1478.57 1582.75 1475.27C1583.74 1454.68 1584.74 1434.1 1586.57 1413.56C1586.64 1412.87 1586.7 1412.18 1586.76 1411.47C1589.46 1381.68 1598.64 1361.38 1615.91 1337.34C1619.13 1332.84 1622.26 1328.27 1625.38 1323.69C1639.9 1302.39 1654.83 1281.46 1670.75 1261.16C1673.22 1258.01 1675.66 1254.83 1678.07 1251.63C1693.55 1231.24 1693.55 1231.24 1701.38 1229.06C1705.76 1228.99 1708.19 1229.84 1712 1232C1719.91 1240.12 1719.16 1250.61 1719.17 1261.21C1719.17 1262.45 1719.18 1263.68 1719.18 1264.95C1719.19 1268.37 1719.19 1271.79 1719.19 1275.21C1719.19 1277.39 1719.19 1279.56 1719.19 1281.74C1719.19 1319.27 1718.21 1356.78 1717.27 1394.3C1715.89 1448.85 1714.91 1503.38 1714.88 1557.95C1714.88 1560.99 1714.87 1564.04 1714.87 1567.08C1714.82 1609.57 1715.79 1652 1717.28 1694.46C1717.41 1698.22 1717.54 1701.98 1717.67 1705.74C1718.36 1726.1 1719.08 1746.46 1719.83 1766.81C1722.5 1840.07 1722.5 1840.07 1723 1874C1723.02 1875.4 1723.04 1876.79 1723.06 1878.19C1723.23 1888.93 1723.38 1899.67 1723.53 1910.41C1723.55 1912.08 1723.57 1913.74 1723.6 1915.4C1723.9 1937.27 1724.07 1959.13 1724 1981C1724.91 1980.8 1724.91 1980.8 1725.84 1980.6C1731.88 1979.32 1737.85 1978.5 1744 1978C1744.21 1945.9 1744.26 1913.84 1743.14 1881.76C1740.09 1793.55 1741.61 1705.18 1745 1617C1745.03 1616.2 1745.06 1615.39 1745.09 1614.56C1745.29 1609.56 1745.49 1604.56 1745.69 1599.56C1745.76 1597.89 1745.76 1597.89 1745.83 1596.18C1746.94 1570.41 1748.57 1544.67 1750.16 1518.93C1750.22 1518.09 1750.27 1517.25 1750.32 1516.38C1752.91 1474.69 1756.07 1433.05 1759.31 1391.41C1760.08 1381.54 1760.84 1371.68 1761.6 1361.81C1762.27 1353.06 1762.95 1344.31 1763.62 1335.57C1763.7 1334.61 1763.77 1333.66 1763.85 1332.68C1764.36 1326.1 1764.86 1319.51 1765.37 1312.93C1765.44 1312.02 1765.51 1311.11 1765.59 1310.18C1766.45 1299.01 1767.33 1287.84 1768.22 1276.68C1771.42 1236.58 1773.98 1196.47 1776.31 1156.32C1776.7 1149.57 1777.1 1142.83 1777.51 1136.09C1777.95 1128.61 1778.39 1121.13 1778.83 1113.65C1779.01 1110.54 1779.2 1107.44 1779.38 1104.33C1780.55 1084.56 1781.46 1064.8 1782 1045C1782.04 1043.68 1782.04 1043.68 1782.07 1042.34C1782.31 1033.14 1782.46 1023.94 1782.61 1014.74C1782.66 1011.78 1782.72 1008.83 1782.78 1005.87C1783.69 974.772 1783.69 974.772 1780 944C1779.52 939.48 1779.59 935.975 1781.38 931.75C1789.15 923.6 1800.03 922.23 1810.84 921.873C1814.21 921.881 1817.57 921.938 1820.94 922.057C1823 922.125 1825.06 922.161 1827.12 922.195C1838.96 922.498 1851.37 924.187 1860 933C1867.48 941.458 1872.24 950.868 1877 961C1877.66 962.335 1878.33 963.669 1879 965C1879.11 963.921 1879.21 962.842 1879.32 961.73C1879.72 957.696 1880.13 953.664 1880.54 949.631C1880.72 947.892 1880.9 946.152 1881.06 944.412C1881.31 941.898 1881.57 939.387 1881.83 936.875C1881.9 936.107 1881.98 935.339 1882.05 934.548C1882.73 928.283 1883.92 922.307 1888.25 917.5C1891.75 915.588 1894.06 915.562 1898 916C1898.99 916.66 1899.98 917.32 1901 918C1903.32 918.129 1903.32 918.129 1905.81 917.938C1910.33 917.859 1913.21 918.322 1917 921C1920.02 925.011 1920.36 927.926 1920.27 932.891C1920.25 933.549 1920.24 934.206 1920.23 934.884C1920.06 941.866 1919.43 948.802 1918.75 955.75C1918.47 958.765 1918.19 961.781 1917.92 964.797C1917.84 965.601 1917.77 966.406 1917.69 967.235C1914.4 1003.43 1911.98 1039.7 1909.54 1075.96C1909.17 1081.47 1908.8 1086.97 1908.42 1092.48C1905.68 1132.22 1903.2 1171.96 1900.96 1211.73C1899.81 1232.3 1898.58 1252.87 1897.18 1273.44C1895.38 1300.03 1894.04 1326.63 1892.81 1353.25C1892.77 1354.18 1892.73 1355.11 1892.68 1356.06C1892.17 1367.28 1891.67 1378.5 1891.19 1389.72C1891.03 1393.32 1890.87 1396.92 1890.7 1400.53C1890.41 1407.02 1890.19 1413.51 1890 1420C1889.98 1420.72 1889.96 1421.44 1889.93 1422.18C1888.59 1467.46 1888.81 1512.77 1888.81 1558.06C1888.81 1565.65 1888.81 1573.24 1888.79 1580.83C1888.73 1623.59 1888.74 1666.32 1889.95 1709.07C1889.97 1709.86 1889.99 1710.66 1890.02 1711.48C1890.22 1718.42 1890.42 1725.37 1890.63 1732.32C1892.22 1785.48 1892.01 1838.6 1891.68 1891.77C1891.64 1899.35 1891.6 1906.93 1891.56 1914.51C1891.12 2001.17 1891.12 2001.17 1890.26 2036.71C1890.07 2044.43 1889.95 2052.15 1889.94 2059.87C1889.94 2060.69 1889.94 2061.51 1889.93 2062.35C1889.94 2068.27 1890.24 2074.12 1891 2080C1895.21 2080.79 1899.22 2081.16 1903.5 2081.19C1905.12 2081.21 1905.12 2081.21 1906.78 2081.23C1910.65 2081.13 1914.43 2080.55 1918.26 2079.99C1919.53 2079.8 1920.79 2079.62 1922.09 2079.43C1923.05 2079.29 1924.01 2079.15 1925 2079C1924.93 2078.2 1924.86 2077.39 1924.79 2076.57C1921.03 2032.28 1917.75 1988.04 1916.26 1943.61C1916.08 1938.29 1915.89 1932.97 1915.7 1927.65C1912.28 1833.95 1912.29 1740.2 1914.8 1537C1914.99 1528.37 1915.17 1519.75 1915.33 1511.12C1916.18 1467.48 1917.68 1423.87 1919.59 1380.26C1920.7 1354.84 1921.52 1329.44 1922 1304C1922.02 1302.69 1922.05 1301.37 1922.07 1300.02C1922.45 1280.13 1922.8 1260.25 1923.15 1240.36C1923.51 1219.9 1923.87 1199.44 1924.24 1178.98C1924.27 1177.62 1924.27 1177.62 1924.29 1176.22C1924.95 1139.88 1925.7 1103.54 1926.59 1067.2C1926.91 1054.37 1927.18 1041.54 1927.43 1028.71C1927.56 1022.52 1927.69 1016.33 1927.82 1010.13C1927.94 1004.24 1928.05 998.353 1928.16 992.462C1928.23 988.863 1928.31 985.264 1928.38 981.665C1928.42 980.003 1928.45 978.341 1928.48 976.678C1928.91 951.719 1928.91 951.719 1936 944C1952 932.824 1982.87 939.157 2000.79 942.112C2018.14 945.376 2034.42 952.581 2050.31 960.062C2051.82 960.767 2051.82 960.767 2053.36 961.486C2068.15 968.653 2084.77 980.084 2090.71 996.121C2093.02 1004.42 2092.35 1013.22 2092.25 1021.75C2092.24 1023.65 2092.23 1025.54 2092.22 1027.44C2092.09 1045.96 2091.61 1064.48 2091 1083C2091.8 1082.88 2092.61 1082.76 2093.44 1082.63C2133.13 1076.74 2133.13 1076.74 2145 1080C2145.04 1078.85 2145.07 1077.7 2145.11 1076.52C2146.2 1048.96 2146.2 1048.96 2155.62 1039.31C2164.79 1032.4 2177.31 1030.92 2188.25 1028.56C2190.21 1028.13 2192.18 1027.71 2194.14 1027.28C2199.58 1026.09 2205.02 1024.93 2210.46 1023.76C2214.1 1022.98 2217.74 1022.19 2221.38 1021.4C2250.58 1015.06 2279.76 1009 2309.32 1004.53C2318.97 1003.07 2328.39 1001.35 2337.82 998.827C2347.23 996.379 2352.92 998.976 2361.25 1003.47C2373.69 1010.17 2386.47 1016.14 2399.3 1022.04C2403.84 1024.12 2408.37 1026.22 2412.91 1028.32C2413.79 1028.73 2414.68 1029.14 2415.59 1029.56C2422.4 1032.71 2429.18 1035.92 2435.94 1039.19C2445.54 1043.83 2455.17 1048.4 2464.81 1052.94C2465.54 1053.28 2466.26 1053.62 2467.01 1053.97C2474.5 1057.5 2482.01 1061.02 2489.55 1064.45C2512.17 1074.78 2533.95 1086.03 2554.31 1100.38C2555.07 1100.89 2555.83 1101.4 2556.61 1101.93C2561.87 1105.65 2566.51 1109.92 2569 1116C2568.65 1118.77 2568.65 1118.77 2568 1121C2566.72 1121.4 2565.42 1121.77 2564.12 1122.12C2563.41 1122.33 2562.69 1122.54 2561.95 1122.76C2542.65 1124.34 2519.82 1110.92 2503.22 1102.6C2499 1100.5 2494.76 1098.47 2490.51 1096.44C2476.63 1089.78 2462.81 1083 2448.99 1076.22C2440.28 1071.94 2431.57 1067.67 2422.86 1063.4C2420.25 1062.12 2417.65 1060.85 2415.04 1059.57C2410.95 1057.56 2406.85 1055.56 2402.75 1053.56C2402.14 1053.26 2401.53 1052.97 2400.89 1052.66C2392 1048.34 2383 1044.36 2373.89 1040.51C2366.27 1037.23 2359.08 1033.38 2351.91 1029.23C2351.25 1028.86 2350.6 1028.49 2349.92 1028.11C2348.66 1027.38 2347.42 1026.61 2346.2 1025.79C2339.76 1021.83 2333.55 1023.03 2326.31 1023.94C2324.97 1024.09 2323.63 1024.25 2322.29 1024.4C2318.18 1024.89 2314.09 1025.43 2310 1026C2308.83 1026.16 2307.65 1026.32 2306.44 1026.49C2284.6 1029.63 2263.21 1034.99 2241.81 1040.3C2238.97 1041.01 2236.13 1041.71 2233.29 1042.4C2207.45 1048.7 2207.45 1048.7 2181.94 1056.19C2181.02 1056.46 2180.11 1056.73 2179.16 1057.01C2178.36 1057.29 2177.55 1057.57 2176.71 1057.86C2176.04 1058.08 2175.36 1058.3 2174.66 1058.53C2171.34 1061.47 2171.15 1066.21 2170.8 1070.41C2170.68 1073.08 2170.62 1075.74 2170.59 1078.41C2170.57 1079.37 2170.55 1080.34 2170.53 1081.33C2170.47 1084.39 2170.42 1087.44 2170.38 1090.5C2170.34 1092.58 2170.3 1094.67 2170.26 1096.75C2170.16 1101.83 2170.08 1106.92 2170 1112C2180.76 1108.28 2191.48 1104.51 2202.06 1100.31C2227.96 1090.26 2254.34 1081.91 2280.91 1073.84C2298.36 1068.53 2315.75 1063.1 2332.54 1055.91C2336.06 1054.61 2339.34 1054.3 2343 1055C2346.18 1056.69 2348.38 1058.94 2350.21 1062.07C2351.38 1066.4 2350.74 1070.3 2350.24 1074.73C2349.28 1084.34 2348.59 1093.96 2348.07 1103.61C2348.01 1104.65 2348.01 1104.65 2347.96 1105.72C2347.71 1110.16 2347.48 1114.61 2347.25 1119.05C2347.08 1122.25 2346.91 1125.45 2346.74 1128.64C2346.34 1136.25 2345.94 1143.87 2345.54 1151.48C2345.19 1158.29 2344.83 1165.1 2344.46 1171.92C2340.77 1240.54 2338.66 1308.91 2338.96 1377.63C2339 1386.53 2339.03 1395.43 2339.06 1404.32C2339.06 1405.04 2339.06 1405.76 2339.06 1406.5C2339.07 1409.47 2339.08 1412.44 2339.09 1415.41C2339.19 1443.2 2339.29 1470.99 2339.39 1498.77C2339.4 1501.33 2339.41 1503.89 2339.42 1506.45C2339.5 1526.41 2339.58 1546.36 2339.66 1566.32C2339.72 1580.86 2339.77 1595.4 2339.83 1609.93C2339.85 1618.01 2339.88 1626.08 2339.92 1634.16C2340.11 1676.49 2340.07 1718.69 2337.06 1760.94C2336.89 1763.46 2336.72 1765.98 2336.55 1768.51C2336.14 1774.53 2335.7 1780.56 2335.25 1786.59C2335.08 1788.85 2334.92 1791.12 2334.76 1793.39C2334.54 1796.55 2334.3 1799.71 2334.06 1802.88C2334 1803.81 2333.93 1804.73 2333.87 1805.69C2333.43 1811.07 2332.42 1815.16 2330 1820C2328.68 1820 2327.36 1820 2326 1820C2326.35 1812.14 2326.71 1804.28 2327.07 1796.42C2327.24 1792.76 2327.4 1789.11 2327.57 1785.46C2328.28 1769.43 2329.13 1753.44 2330.32 1737.44C2330.97 1728.71 2331.41 1720 2331.62 1711.25C2331.68 1709.38 2331.68 1709.38 2331.74 1707.47C2332.29 1688.03 2332.02 1668.58 2331.66 1649.13C2331.6 1645.62 2331.53 1642.1 2331.47 1638.58C2331.38 1633.53 2331.29 1628.48 2331.2 1623.42C2330.96 1610.03 2330.73 1596.64 2330.5 1583.25C2330.49 1582.58 2330.48 1581.91 2330.47 1581.22C2330.07 1557.63 2329.78 1534.04 2329.55 1510.46C2329.27 1480.9 2328.85 1451.36 2328.12 1421.81C2328.1 1420.98 2328.08 1420.15 2328.06 1419.3C2327.62 1401.37 2327.08 1383.45 2326.2 1365.54C2326.17 1364.84 2326.13 1364.13 2326.1 1363.41C2326 1361.28 2325.89 1359.15 2325.79 1357.02C2322.44 1288.43 2323.97 1219.78 2324.9 1151.14C2324.94 1148.68 2324.97 1146.23 2325 1143.77C2325.13 1134.39 2325.26 1125.01 2325.4 1115.63C2325.44 1112.73 2325.48 1109.83 2325.52 1106.94C2325.58 1102.95 2325.64 1098.96 2325.7 1094.98C2325.72 1093.8 2325.73 1092.62 2325.75 1091.41C2325.77 1090.34 2325.78 1089.26 2325.8 1088.16C2325.82 1087.23 2325.83 1086.3 2325.85 1085.34C2326 1083 2326 1083 2327 1080C2326.15 1080.28 2325.31 1080.56 2324.43 1080.85C2309.09 1085.92 2293.74 1090.89 2278.17 1095.22C2250.31 1102.99 2222.49 1111.48 2195.73 1122.54C2179.78 1129.11 2179.78 1129.11 2171 1129C2171.03 1129.91 2171.06 1130.82 2171.08 1131.76C2171.83 1156.64 2172.21 1181.51 2172.38 1206.4C2172.43 1212.86 2172.48 1219.33 2172.53 1225.79C2172.55 1228.06 2172.57 1230.33 2172.59 1232.61C2172.6 1234.31 2172.6 1234.31 2172.62 1236.06C2172.65 1239.56 2172.67 1243.06 2172.7 1246.56C2173.29 1320.49 2173.96 1394.42 2175.3 1468.34C2175.39 1473.32 2175.48 1478.31 2175.56 1483.29C2176.17 1518.65 2177.08 1553.98 2178.5 1589.32C2178.54 1590.1 2178.57 1590.89 2178.6 1591.69C2179.41 1611.78 2180.37 1631.86 2181.5 1651.94C2181.63 1654.25 2181.76 1656.56 2181.89 1658.87C2181.95 1659.96 2182.01 1661.05 2182.08 1662.17C2184.21 1700.15 2186.27 1738.15 2186.31 1776.19C2186.32 1777.25 2186.32 1778.32 2186.32 1779.42C2186.33 1782.4 2186.32 1785.38 2186.3 1788.36C2186.3 1789.64 2186.3 1789.64 2186.3 1790.94C2186.23 1797.35 2185.91 1804.1 2182.31 1809.56C2178.93 1811.67 2176.91 1811.69 2173 1811C2167.86 1806.13 2166.11 1800.6 2164.06 1793.94C2163.55 1792.29 2163.55 1792.29 2163.03 1790.6C2159.11 1777.58 2156.35 1764.38 2154 1751C2153.88 1750.3 2153.75 1749.6 2153.62 1748.88C2142.67 1686.66 2138.8 1621.91 2138.87 1558.77C2138.87 1556.66 2138.87 1554.56 2138.87 1552.45C2138.86 1546.78 2138.86 1541.11 2138.87 1535.44C2138.87 1529.37 2138.87 1523.3 2138.86 1517.22C2138.86 1506.94 2138.86 1496.66 2138.87 1486.37C2138.87 1476.06 2138.87 1465.76 2138.87 1455.45C2138.84 1400.61 2138.94 1345.77 2139.48 1290.93C2139.49 1289.81 2139.5 1288.69 2139.51 1287.54C2139.88 1249.02 2140.31 1210.5 2141.5 1171.99C2141.64 1167.41 2141.77 1162.84 2141.9 1158.26C2141.96 1156.22 2142.03 1154.19 2142.11 1152.15C2142.62 1138.42 2140.6 1125.47 2138 1112C2128.26 1111.48 2119.28 1112.3 2109.69 1114C2080.44 1119.03 2080.44 1119.03 2069.95 1112.55C2063.86 1107.7 2060.71 1102.9 2059.57 1095.05C2059 1087.1 2059.01 1079.3 2059.34 1071.34C2059.39 1070.08 2059.43 1068.82 2059.48 1067.51C2059.6 1064.18 2059.73 1060.85 2059.86 1057.52C2060.28 1046.68 2060.67 1035.84 2061 1025C2061.05 1023.38 2061.05 1023.38 2061.11 1021.74C2061.2 1018.83 2061.26 1015.93 2061.32 1013.03C2061.36 1011.79 2061.36 1011.79 2061.41 1010.53C2061.47 1004 2059.61 999.913 2055.2 994.988C2043.17 985.252 2028.59 978.483 2014.62 972C2013.89 971.651 2013.16 971.302 2012.4 970.942C1998.19 964.564 1982.8 962.97 1967.5 961.25C1965.6 961.028 1963.7 960.806 1961.79 960.582C1957.2 960.044 1952.6 959.518 1948 959C1948 959.621 1948.01 960.242 1948.01 960.882C1948.36 1012.51 1947.45 1064.09 1946.33 1115.7C1946.09 1126.87 1945.85 1138.05 1945.62 1149.23C1941.42 1350.86 1941.42 1350.86 1938.73 1412.23C1937.77 1434.52 1937.46 1456.83 1937.06 1479.13C1936.98 1483.59 1936.9 1488.05 1936.81 1492.51C1936.54 1506.69 1936.3 1520.87 1936.07 1535.05C1936.02 1537.72 1935.98 1540.39 1935.93 1543.06C1935.1 1592.13 1934.84 1641.18 1934.87 1690.24C1934.88 1696.73 1934.87 1703.21 1934.87 1709.7C1934.84 1763.65 1934.83 1817.62 1936.75 1871.55C1937.06 1880.95 1937.18 1890.35 1937.32 1899.76C1938.09 1949.63 1939.86 1999.29 1944.56 2048.96C1946.35 2067.87 1946.35 2067.87 1946.31 2076.94C1946.33 2077.83 1946.34 2078.72 1946.36 2079.64C1946.37 2086.5 1945.07 2091.06 1941.06 2096.75C1931.54 2103.74 1917.05 2103.21 1905.69 2103.31C1904.62 2103.34 1903.56 2103.37 1902.46 2103.4C1892.79 2103.48 1883.65 2101.54 1876.43 2094.71C1869.77 2086.77 1869.81 2077.89 1869.81 2068C1869.81 2066.76 1869.81 2065.53 1869.81 2064.25C1869.88 2054.52 1870.31 2044.84 1870.88 2035.12C1872.3 2010.43 1873.29 1985.73 1874 1961C1874.02 1960.21 1874.05 1959.42 1874.07 1958.61C1875.72 1900.99 1876.19 1843.37 1876.19 1785.73C1876.19 1783.33 1876.19 1780.94 1876.19 1778.55C1876.2 1748.21 1876.2 1717.87 1875.49 1687.54C1874.28 1635.41 1875.15 1583.31 1876.28 1531.19C1876.46 1522.99 1876.63 1514.79 1876.8 1506.59C1878.62 1417.97 1878.62 1417.97 1880.19 1389.19C1880.31 1386.82 1880.44 1384.45 1880.56 1382.09C1881.99 1355.27 1883.58 1328.46 1885.14 1301.65C1887.73 1256.98 1887.73 1256.98 1890.19 1212.31C1890.23 1211.56 1890.27 1210.8 1890.31 1210.02C1891.57 1186.51 1892.63 1162.98 1893.61 1139.45C1894.73 1112.44 1896.18 1085.45 1897.66 1058.45C1899.19 1030.7 1900.62 1002.95 1901.81 975.188C1901.84 974.449 1901.88 973.711 1901.91 972.951C1902.28 964.301 1902.65 955.651 1903 947C1902.96 947.589 1902.91 948.179 1902.87 948.786C1902.41 954.969 1901.94 961.15 1901.46 967.331C1901.28 969.632 1901.1 971.933 1900.94 974.235C1900.69 977.56 1900.43 980.883 1900.17 984.207C1900.06 985.73 1900.06 985.73 1899.95 987.283C1899.22 996.205 1898.09 1006.04 1892 1013C1888.6 1015.39 1886.03 1016.25 1881.94 1016C1877.64 1015.21 1875.65 1013.53 1873 1010C1869.81 1003.92 1867.74 997.412 1865.6 990.911C1862.2 980.573 1858.65 970.435 1853.75 960.688C1853.17 959.527 1853.17 959.527 1852.58 958.343C1847.04 947.638 1847.04 947.638 1837.22 941.473C1831.57 940.27 1826.09 939.879 1820.32 939.902C1819.62 939.904 1818.92 939.905 1818.19 939.907C1815.98 939.912 1813.77 939.925 1811.56 939.938C1810.05 939.943 1808.54 939.947 1807.03 939.951C1803.36 939.961 1799.68 939.98 1796 940C1796 940.652 1796.01 941.304 1796.01 941.975C1796.08 960.176 1795.85 978.362 1795.46 996.559C1795.4 999.511 1795.34 1002.46 1795.27 1005.42C1795.13 1012.42 1794.98 1019.43 1794.83 1026.43C1794.69 1032.74 1794.56 1039.04 1794.43 1045.35C1793.81 1075.89 1793.19 1106.42 1791.67 1136.94C1790.96 1151.11 1790.64 1165.25 1790.5 1179.44C1790.14 1216.28 1788.13 1253.03 1785.63 1289.78C1778.35 1397.07 1773.54 1504.44 1770.81 1611.94C1770.79 1612.67 1770.77 1613.41 1770.76 1614.17C1770.51 1623.94 1770.3 1633.71 1770.11 1643.49C1770.03 1647.35 1769.95 1651.21 1769.87 1655.07C1769.06 1691.92 1768.94 1728.76 1769 1765.61C1769.01 1769.35 1769.01 1773.09 1769.02 1776.83C1769.06 1800.02 1769.1 1823.21 1769.17 1846.39C1769.21 1857.97 1769.23 1869.54 1769.24 1881.12C1769.25 1887.18 1769.26 1893.24 1769.29 1899.3C1769.63 1981.48 1769.63 1981.48 1759 1993C1747.84 2000.87 1729.2 2002.63 1716 2001C1711.07 1998.71 1708.6 1995.73 1706 1991C1705.09 1987.42 1704.86 1984.04 1704.8 1980.35C1704.78 1979.21 1704.76 1978.07 1704.73 1976.89C1704.72 1975.62 1704.7 1974.35 1704.68 1973.05C1704.62 1970.18 1704.56 1967.3 1704.51 1964.43C1704.48 1963.27 1704.48 1963.27 1704.46 1962.09C1703.69 1922.83 1702.14 1883.61 1700.42 1844.38C1700.19 1839.27 1699.97 1834.15 1699.75 1829.03C1698.44 1798.61 1696.95 1768.21 1695.06 1737.82C1692.01 1688.71 1690.66 1639.85 1690.74 1590.66C1690.75 1585.75 1690.75 1580.85 1690.76 1575.94C1690.79 1525.96 1691.39 1476.03 1692.76 1426.07C1693.11 1413.11 1693.4 1400.15 1693.62 1387.19C1693.65 1386.08 1693.67 1384.96 1693.69 1383.82C1694.38 1343.22 1694.09 1302.6 1694 1262C1693.39 1262.74 1692.78 1263.49 1692.16 1264.25C1691.36 1265.23 1690.55 1266.22 1689.73 1267.23C1688.93 1268.2 1688.14 1269.17 1687.32 1270.17C1685.35 1272.58 1683.37 1274.98 1681.38 1277.37C1674.68 1285.43 1668.21 1293.56 1662 1302C1661.08 1303.22 1660.16 1304.44 1659.24 1305.66C1648.32 1320.12 1637.67 1334.77 1627.51 1349.78C1625.82 1352.27 1624.12 1354.74 1622.41 1357.21C1602.77 1385.93 1602.03 1413.56 1601.07 1447.68C1601.02 1449.24 1600.98 1450.8 1600.93 1452.35C1598.91 1520.72 1597.99 1589.71 1601.84 1658.02C1602.01 1661.23 1602.18 1664.44 1602.34 1667.65C1603.56 1708.55 1603.56 1708.55 1609 1749C1609.71 1749.07 1610.42 1749.14 1611.15 1749.21C1652.66 1753.4 1652.66 1753.4 1665.21 1766.78C1677.67 1782.26 1677.06 1806.27 1678.38 1825.31C1678.43 1826.17 1678.49 1827.02 1678.56 1827.91C1679.99 1848.68 1680.98 1869.47 1681.99 1890.26C1682.12 1892.96 1682.25 1895.65 1682.39 1898.34C1684.05 1932.42 1685.19 1966.47 1685.19 2000.6C1685.19 2003.64 1685.19 2006.67 1685.21 2009.7C1685.5 2077.38 1685.5 2077.38 1672.59 2091.54C1666.2 2097.35 1659.94 2098.46 1651.69 2098.25C1650.92 2098.24 1650.14 2098.24 1649.35 2098.23C1643.75 2098.16 1638.17 2097.84 1632.58 2097.51C1626.08 2097.13 1619.6 2096.88 1613.1 2096.75C1612.27 2096.74 1611.45 2096.72 1610.6 2096.7C1607.23 2096.64 1603.87 2096.57 1600.5 2096.52C1572.54 2096.08 1572.54 2096.08 1564 2088C1559.65 2081.84 1558.93 2075.32 1558.49 2067.93C1558.45 2067.24 1558.41 2066.54 1558.36 2065.82C1558.22 2063.5 1558.09 2061.18 1557.95 2058.87C1557.85 2057.22 1557.75 2055.58 1557.65 2053.93C1557.44 2050.42 1557.23 2046.9 1557.02 2043.39C1556.46 2034.08 1555.89 2024.77 1555.32 2015.46C1555.27 2014.53 1555.21 2013.6 1555.15 2012.64C1554.1 1995.42 1552.96 1978.21 1551.76 1961C1550.71 1945.76 1549.71 1930.52 1548.78 1915.27C1548.68 1913.54 1548.57 1911.81 1548.46 1910.07C1548.41 1909.21 1548.36 1908.35 1548.3 1907.46C1545.85 1867.02 1545.85 1867.02 1542.81 1826.62C1542.69 1825.17 1542.69 1825.17 1542.57 1823.69C1541.84 1814.67 1541.07 1805.83 1539 1797C1530.48 1796.53 1522.7 1797.42 1514.31 1798.88C1504.17 1800.63 1494.13 1801.7 1483.85 1802.32C1477.42 1802.72 1471.28 1803.55 1465 1805C1464.68 1808.73 1464.37 1812.46 1464.06 1816.19C1463.98 1817.2 1463.89 1818.22 1463.8 1819.27C1462.34 1837.09 1461.85 1854.88 1461.9 1872.76C1461.9 1874.85 1461.91 1876.93 1461.91 1879.01C1461.91 1883.45 1461.92 1887.89 1461.92 1892.33C1461.94 1899.36 1461.94 1906.39 1461.95 1913.42C1461.96 1928.32 1461.98 1943.22 1462 1958.12C1462.02 1974.26 1462.04 1990.39 1462.05 2006.52C1462.06 2013.49 1462.07 2020.47 1462.08 2027.45C1462.09 2031.79 1462.09 2036.14 1462.09 2040.48C1462.1 2042.48 1462.1 2044.49 1462.11 2046.49C1462.18 2076.15 1462.18 2076.15 1457 2083C1454.19 2085.79 1452.6 2086.9 1448.66 2087.53C1436.42 2087.43 1436.42 2087.43 1432 2083C1427.54 2077 1427.83 2070.57 1427.72 2063.4C1427.7 2062.45 1427.68 2061.5 1427.66 2060.52C1427.6 2057.47 1427.55 2054.42 1427.5 2051.38C1427.43 2047.42 1427.36 2043.47 1427.28 2039.52C1427.26 2038.5 1427.24 2037.47 1427.22 2036.41C1427.1 2030.38 1426.91 2024.35 1426.66 2018.32C1426.07 2004.15 1425.78 1989.99 1425.54 1975.82C1425.51 1974.16 1425.51 1974.16 1425.48 1972.47C1425.3 1962.05 1425.12 1951.64 1424.95 1941.23C1424.45 1910.42 1423.6 1879.64 1422.35 1848.85C1421.83 1835.89 1421.4 1822.93 1420.99 1809.96C1420.89 1806.71 1420.79 1803.46 1420.68 1800.21C1419.2 1755.2 1419.2 1755.2 1427 1746C1433.79 1740.52 1441.13 1736.78 1449.12 1733.38C1450.23 1732.9 1451.34 1732.42 1452.49 1731.93C1463.05 1727.44 1473.6 1724.09 1484.73 1721.32C1497.73 1718.04 1510.29 1714.49 1522.69 1709.31C1524.33 1708.64 1524.33 1708.64 1526.02 1707.94C1527.02 1707.51 1528.03 1707.07 1529.07 1706.61C1529.96 1706.23 1530.84 1705.85 1531.75 1705.45C1535.1 1703.29 1536.53 1700.66 1537.6 1696.87C1537.95 1694.46 1538.3 1692.04 1538.62 1689.62C1538.75 1688.84 1538.87 1688.05 1538.99 1687.24C1541.7 1667.8 1541.15 1647.81 1541.13 1628.23C1541.13 1625.68 1541.14 1623.14 1541.14 1620.59C1541.14 1613.85 1541.14 1607.1 1541.13 1600.36C1541.13 1596.87 1541.12 1593.37 1541.12 1589.88C1541.09 1530.04 1540.65 1470.25 1538.6 1410.45C1538.56 1409.22 1538.52 1407.99 1538.47 1406.72C1538.25 1400.04 1538.02 1393.36 1537.76 1386.69C1536.26 1347.39 1535.7 1308.16 1535.8 1268.83C1535.81 1263.72 1535.82 1258.6 1535.81 1253.49C1535.81 1197.78 1535.81 1197.78 1536.64 1173.82C1537.15 1158.64 1537.19 1143.46 1537.19 1128.27C1537.19 1125 1537.19 1121.73 1537.21 1118.46C1537.28 1101.09 1537.13 1083.77 1536.11 1066.41C1536.07 1065.71 1536.04 1065.01 1536 1064.28C1535.88 1062.31 1535.75 1060.33 1535.63 1058.36C1535.55 1057.25 1535.48 1056.13 1535.41 1054.99C1535 1051.97 1534.39 1049.7 1533 1047C1527.88 1043.36 1522.84 1041.96 1516.75 1040.67C1515.87 1040.47 1514.99 1040.27 1514.09 1040.07C1512.21 1039.65 1510.34 1039.23 1508.46 1038.82C1503.6 1037.76 1498.74 1036.65 1493.88 1035.54C1492.45 1035.21 1492.45 1035.21 1491 1034.88C1481.02 1032.58 1471.24 1029.78 1461.46 1026.74C1457 1025.4 1452.5 1024.2 1448 1023C1446.29 1032.64 1445.71 1042.23 1445.38 1052C1445.34 1053.13 1445.3 1054.26 1445.25 1055.42C1444.68 1074.53 1445.01 1093.61 1445.74 1112.71C1445.88 1116.4 1446.02 1120.1 1446.15 1123.8C1446.51 1133.81 1446.88 1143.83 1447.26 1153.84C1448.48 1186.09 1449.3 1218.33 1449.94 1250.59C1450.75 1292.11 1450.75 1292.11 1451.88 1333.62C1451.91 1334.82 1451.95 1336.02 1451.99 1337.25C1452.49 1352.84 1453.14 1368.43 1453.88 1384.01C1461.14 1538.17 1461.14 1538.17 1452.64 1593.66C1452.54 1594.38 1452.44 1595.1 1452.33 1595.85C1451.33 1601.94 1449.46 1607.93 1444.62 1612C1441.38 1613.24 1439.45 1613.56 1436 1613C1432.35 1610.96 1430.49 1609.74 1429.34 1605.68C1429.13 1604.36 1429.13 1604.36 1428.91 1603.01C1428.75 1602.02 1428.59 1601.04 1428.43 1600.03C1427.75 1595.26 1427.17 1590.48 1426.66 1585.69C1426.48 1584 1426.48 1584 1426.29 1582.27C1425.87 1578.37 1425.47 1574.47 1425.06 1570.56C1424.99 1569.86 1424.92 1569.16 1424.84 1568.43C1416.29 1485.61 1410.32 1402.47 1395.86 1208.13C1395.78 1206.9 1395.7 1205.67 1395.62 1204.41C1394.89 1193.17 1394.18 1181.94 1393.5 1170.7C1392.17 1148.81 1390.56 1126.98 1388.51 1105.14C1388.36 1103.52 1388.36 1103.52 1388.21 1101.87C1386.24 1080.9 1383.56 1060.04 1380.58 1039.2C1380.01 1035.14 1379.5 1031.07 1379 1027C1368.64 1029.71 1358.69 1033.15 1348.75 1037.12C1347.67 1037.56 1346.58 1037.99 1345.47 1038.43C1341.21 1040.16 1341.21 1040.16 1337 1042C1336.11 1042.32 1335.21 1042.63 1334.29 1042.96C1329.45 1047.27 1329.98 1055.2 1329.62 1061.34C1329.55 1063.28 1329.49 1065.21 1329.44 1067.15C1329.4 1068.26 1329.37 1069.38 1329.33 1070.52C1329.21 1074.33 1329.1 1078.13 1329 1081.94C1328.96 1083.3 1328.92 1084.66 1328.88 1086.02C1327.77 1124.03 1327.29 1162.06 1326.73 1200.09C1326.64 1205.95 1326.55 1211.82 1326.46 1217.68C1326.45 1218.94 1326.43 1220.21 1326.41 1221.51C1326.19 1236.07 1325.92 1250.62 1325.48 1265.18C1324.89 1284.55 1324.6 1303.93 1324.38 1323.31C1324.36 1324.26 1324.35 1325.21 1324.34 1326.18C1323.97 1357.94 1324.01 1389.68 1324.38 1421.44C1324.39 1422.38 1324.4 1423.32 1324.41 1424.29C1324.56 1437.47 1324.75 1450.66 1324.95 1463.84C1325 1467.15 1325.05 1470.46 1325.1 1473.76C1325.63 1508.63 1326.39 1543.49 1327.3 1578.36C1328.28 1616.11 1329.2 1653.85 1329.61 1691.61C1329.66 1695.94 1329.7 1700.27 1329.75 1704.6C1329.77 1705.66 1329.77 1705.66 1329.78 1706.74C1329.92 1718.19 1330.17 1729.64 1330.46 1741.09C1330.49 1741.91 1330.51 1742.73 1330.53 1743.58C1330.62 1746.98 1330.71 1750.39 1330.8 1753.79C1331.95 1797.98 1332.38 1842.18 1332.64 1886.38C1332.67 1892.94 1332.71 1899.49 1332.75 1906.04C1332.76 1907.31 1332.77 1908.58 1332.78 1909.88C1332.93 1933.02 1333.33 1956.15 1333.84 1979.29C1335.2 2042.1 1335.2 2042.1 1322 2056C1316.37 2060.81 1310.38 2061.37 1303.27 2061.34C1302.02 2061.34 1302.02 2061.34 1300.74 2061.33C1292.67 2061.19 1285.1 2059.72 1277.24 2058.01C1260.21 2054.35 1243.95 2053.36 1226.57 2054C1207.35 2054.63 1207.35 2054.63 1199.84 2048.13C1192.86 2040.99 1190.41 2031.91 1188.88 2022.3C1188.72 2021.29 1188.55 2020.29 1188.38 2019.26C1186.74 2008.97 1185.73 1998.65 1184.85 1988.28C1184.67 1986.26 1184.49 1984.24 1184.31 1982.22C1183.93 1977.98 1183.56 1973.73 1183.19 1969.49C1182.62 1962.86 1182.03 1956.22 1181.44 1949.59C1181.24 1947.36 1181.04 1945.14 1180.84 1942.91C1180.74 1941.81 1180.65 1940.71 1180.55 1939.58C1180.25 1936.27 1179.96 1932.96 1179.66 1929.64C1178.17 1912.8 1176.62 1895.95 1174.99 1879.12C1174.75 1876.63 1174.51 1874.14 1174.28 1871.65C1173.05 1858.76 1171.71 1845.9 1169.93 1833.07C1167.35 1813.65 1167.35 1813.65 1172 1806C1176.81 1800.7 1182.08 1798.48 1188.81 1796.44C1190.19 1796 1190.19 1796 1191.6 1795.55C1196.76 1793.92 1201.95 1792.46 1207.19 1791.09C1219.03 1787.98 1232.44 1784.22 1239 1773C1241.93 1764.68 1242.55 1756.31 1242.73 1747.56C1242.77 1746.3 1242.8 1745.04 1242.84 1743.75C1243.12 1731.4 1242.84 1719.07 1242.39 1706.73C1242.25 1703.18 1242.14 1699.62 1242.02 1696.07C1240.43 1648.52 1237.68 1601.03 1234.47 1553.56C1233.4 1537.73 1232.36 1521.89 1231.32 1506.06C1231.24 1504.91 1231.24 1504.91 1231.17 1503.73C1229.14 1472.81 1227.33 1441.88 1225.62 1410.94C1225.07 1400.84 1224.51 1390.75 1223.95 1380.65C1223.84 1378.68 1223.84 1378.68 1223.73 1376.68C1220.37 1316.27 1216.68 1255.89 1213.06 1195.5C1211.82 1174.75 1210.58 1154 1209.37 1133.25C1206.06 1076.37 1202.3 1019.54 1197.58 962.766C1197.53 962.079 1197.47 961.392 1197.41 960.684C1196.83 953.755 1196.25 946.827 1195.65 939.901C1193.96 920.29 1192.92 900.659 1192 881C1191.96 880.24 1191.93 879.48 1191.89 878.697C1191.35 867.154 1190.87 855.61 1190.44 844.062C1190.41 843.224 1190.37 842.387 1190.34 841.523C1188.38 790.039 1188.25 738.515 1188 687C1187.51 687.262 1187.02 687.524 1186.52 687.794C1184.28 688.991 1182.05 690.183 1179.81 691.375C1179.04 691.787 1178.27 692.2 1177.48 692.625C1170.14 696.532 1164.47 699.046 1156 698C1150.6 695.7 1149.09 692.625 1146.91 687.505C1145.47 683.539 1144.83 679.6 1144.3 675.428C1144.17 674.522 1144.05 673.616 1143.93 672.683C1142.59 661.864 1142.41 651.037 1142.27 640.148C1142.23 637.821 1142.19 635.495 1142.15 633.168C1142.04 626.88 1141.95 620.593 1141.87 614.306C1141.81 610.357 1141.75 606.408 1141.69 602.46C1140.67 535.977 1140.8 469.488 1141 403C1137.88 404.952 1137.88 404.952 1136.53 408.176C1136.55 409.024 1136.56 409.871 1136.58 410.744C1136.58 411.713 1136.59 412.682 1136.6 413.68C1136.63 414.736 1136.66 415.791 1136.69 416.879C1136.71 417.985 1136.72 419.092 1136.74 420.232C1136.8 423.822 1136.9 427.411 1137 431C1137.05 432.762 1137.05 432.762 1137.09 434.559C1137.29 441.791 1137.53 449.021 1137.8 456.25C1137.94 459.959 1138.07 463.668 1138.2 467.377C1138.29 469.802 1138.38 472.227 1138.46 474.652C1138.5 475.728 1138.54 476.803 1138.58 477.911C1138.79 483.398 1139.04 488.878 1139.37 494.359C1139.97 504.693 1140.32 515.019 1140.55 525.367C1140.57 526.274 1140.59 527.181 1140.61 528.116C1141.13 551.301 1141.2 574.487 1141.19 597.678C1141.19 601.193 1141.19 604.707 1141.19 608.222C1141.18 635.543 1141.07 662.821 1139.87 690.119C1138.96 710.854 1138.42 731.595 1137.97 752.344C1137.95 753.334 1137.93 754.324 1137.9 755.344C1136.6 815.201 1136.55 875.07 1136.41 934.939C1136.38 946.24 1136.35 957.541 1136.32 968.842C1136.31 970.478 1136.31 972.115 1136.31 973.751C1136.3 974.562 1136.3 975.372 1136.3 976.207C1136.3 977.018 1136.29 977.828 1136.29 978.663C1136.29 979.474 1136.29 980.284 1136.28 981.12C1136.17 1019.09 1136.08 1057.07 1136.01 1095.04C1136 1098.85 1135.99 1102.65 1135.98 1106.46C1135.93 1132.36 1135.89 1158.26 1135.88 1184.16C1135.88 1188.74 1135.87 1193.31 1135.87 1197.89C1135.84 1225.38 1135.9 1252.86 1136.45 1280.34C1136.48 1281.83 1136.48 1281.83 1136.51 1283.35C1136.91 1302.26 1137.56 1321.16 1138.41 1340.05C1138.46 1341.1 1138.51 1342.15 1138.56 1343.24C1138.7 1346.49 1138.85 1349.75 1139 1353C1139.05 1354.05 1139.09 1355.09 1139.14 1356.17C1140.34 1382.46 1141.74 1408.74 1143.26 1435.02C1143.46 1438.45 1143.66 1441.88 1143.85 1445.31C1144.65 1459.11 1144.65 1459.11 1145.46 1472.9C1148.82 1529.68 1150.34 1586.29 1150.26 1643.15C1150.25 1649.77 1150.25 1656.38 1150.26 1662.99C1150.27 1669.49 1150.27 1675.99 1150.27 1682.49C1150.27 1686.32 1150.27 1690.15 1150.27 1693.98C1150.34 1737.03 1150.34 1737.03 1143 1745C1138.62 1749.07 1135.47 1750.14 1129.56 1750.12C1128.61 1750.13 1127.67 1750.13 1126.69 1750.13C1124.3 1750.01 1122.29 1749.68 1120 1749C1120.16 1750.01 1120.31 1751.02 1120.47 1752.05C1120.97 1755.77 1121.25 1759.4 1121.43 1763.14C1121.47 1763.82 1121.5 1764.5 1121.54 1765.21C1121.65 1767.46 1121.76 1769.71 1121.87 1771.96C1121.95 1773.56 1122.03 1775.17 1122.11 1776.77C1122.32 1781.08 1122.53 1785.38 1122.74 1789.69C1123.1 1796.94 1123.46 1804.18 1123.82 1811.43C1123.96 1814.16 1124.09 1816.89 1124.23 1819.62C1124.79 1831.02 1125.39 1842.42 1126.01 1853.81C1126.71 1866.54 1127.37 1879.27 1128 1892C1128.07 1893.36 1128.14 1894.72 1128.21 1896.09C1130 1931.72 1131.3 1967.33 1131.37 2003.02C1131.37 2005.42 1131.39 2007.82 1131.4 2010.22C1131.42 2013.99 1131.42 2017.75 1131.4 2021.52C1131.4 2023.55 1131.41 2025.57 1131.42 2027.6C1131.35 2036.38 1130.95 2045.71 1124.69 2052.5C1124.13 2053.13 1123.58 2053.76 1123.01 2054.41C1118.4 2058.06 1113.87 2058.22 1108.19 2057.75C1107.52 2057.7 1106.86 2057.64 1106.17 2057.59C1104.65 2057.46 1103.14 2057.34 1101.62 2057.21C1098.64 2056.97 1095.66 2056.8 1092.68 2056.62C1090.45 2056.48 1088.23 2056.33 1086 2056.19C1084.94 2056.13 1083.88 2056.07 1082.78 2056.01C1075.07 2055.47 1068.52 2054.06 1063.12 2048.19C1058.46 2041.19 1058.28 2033.06 1057.5 2024.88C1057.41 2023.89 1057.41 2023.89 1057.31 2022.88C1055.49 2003.62 1054.82 1984.29 1054.06 1964.96C1053.94 1961.83 1053.81 1958.7 1053.68 1955.57C1052.62 1929.47 1051.64 1903.36 1050.87 1877.25C1050.82 1875.34 1050.76 1873.43 1050.7 1871.51C1049.55 1832.24 1048.99 1792.95 1048.79 1753.66C1048.78 1752.39 1048.78 1751.11 1048.77 1749.79C1048.75 1745.19 1048.72 1740.58 1048.7 1735.97C1048.44 1682.73 1047.77 1629.52 1046.61 1576.29C1046.56 1574.09 1046.52 1571.89 1046.47 1569.69C1045.59 1528.9 1044.44 1488.13 1043.11 1447.36C1042.95 1442.46 1042.8 1437.55 1042.64 1432.65C1042.34 1423.14 1042.02 1413.63 1041.69 1404.12C1041.64 1402.88 1041.64 1402.88 1041.6 1401.61C1040.15 1360.7 1037.87 1319.85 1035.47 1278.99C1034.68 1265.6 1033.91 1252.21 1033.14 1238.81C1032.89 1234.45 1032.63 1230.09 1032.38 1225.72C1029.67 1179.83 1029.67 1179.83 1030 1160C993.634 1166.46 993.634 1166.46 958 1176C956.55 1176.45 955.1 1176.91 953.649 1177.36C948.739 1178.89 943.837 1180.44 938.938 1182C938.161 1182.25 937.384 1182.49 936.584 1182.74C906.119 1191.78 906.119 1191.78 882.924 1211.73C881.73 1214.66 881.499 1217.32 881.219 1220.48C881.1 1221.78 880.981 1223.07 880.859 1224.41C880.739 1225.82 880.619 1227.22 880.5 1228.62C880.372 1230.06 880.244 1231.5 880.116 1232.94C879.731 1237.29 879.364 1241.65 879 1246C878.891 1247.28 878.782 1248.57 878.67 1249.89C878.377 1253.38 878.092 1256.88 877.812 1260.38C877.729 1261.41 877.645 1262.44 877.559 1263.5C877.086 1269.68 876.9 1275.8 877 1282C877.524 1281.82 878.049 1281.65 878.589 1281.47C880.975 1280.66 883.363 1279.86 885.75 1279.06C886.575 1278.78 887.4 1278.51 888.25 1278.22C889.049 1277.95 889.848 1277.69 890.672 1277.41C891.405 1277.16 892.138 1276.92 892.894 1276.66C898.093 1275.02 902.818 1274.72 908.25 1274.62C909.453 1274.57 909.453 1274.57 910.68 1274.51C919.283 1274.39 926.985 1277.2 935 1280C936.257 1280.44 936.257 1280.44 937.54 1280.88C942.215 1282.52 946.883 1284.17 951.548 1285.82C974.48 1294.16 974.48 1294.16 998.1 1300.15C1005.25 1301.62 1010.26 1304.76 1014.99 1310.35C1020.29 1319.45 1022.07 1328.22 1022.54 1338.63C1022.59 1339.49 1022.63 1340.35 1022.67 1341.24C1023.15 1352.34 1023.28 1363.45 1023.42 1374.56C1023.51 1380.81 1023.6 1387.05 1023.69 1393.3C1023.72 1394.75 1023.74 1396.21 1023.76 1397.66C1024 1413.84 1024.31 1430.02 1024.65 1446.19C1024.67 1447.23 1024.67 1447.23 1024.69 1448.29C1024.88 1457.57 1025.08 1466.85 1025.28 1476.14C1025.36 1479.88 1025.44 1483.62 1025.52 1487.37C1026.46 1531.76 1027.56 1576.15 1028.99 1620.53C1030.76 1675.77 1030.76 1675.77 1029.25 1695.38C1029.16 1696.53 1029.08 1697.69 1028.99 1698.88C1027.47 1717.03 1024.88 1738.3 1011.23 1751.75C1002.66 1758.75 992.23 1760.63 981.5 1761.69C980.371 1761.81 979.242 1761.93 978.078 1762.05C971.208 1762.75 964.33 1763.37 957.438 1763.81C956.708 1763.87 955.978 1763.92 955.227 1763.97C947.353 1764.38 940.201 1763.1 934 1758C927.613 1751.71 924.814 1745.02 923.521 1736.21C923.338 1735 923.338 1735 923.152 1733.77C921.22 1720.3 920.136 1706.71 918.897 1693.17C918.512 1688.96 918.118 1684.76 917.726 1680.56C916.979 1672.54 916.238 1664.52 915.499 1656.5C914.444 1645.04 913.379 1633.59 912.315 1622.14C912.195 1620.84 912.195 1620.84 912.072 1619.52C911.911 1617.78 911.749 1616.04 911.587 1614.3C911.1 1609.06 910.615 1603.82 910.131 1598.58C908.492 1580.87 906.833 1563.15 905.104 1545.44C904.95 1543.86 904.795 1542.27 904.641 1540.69C904.565 1539.91 904.489 1539.13 904.411 1538.33C901.224 1505.64 898.37 1472.94 895.986 1440.18C895.342 1431.34 894.692 1422.5 894.03 1413.66C893.808 1410.68 893.594 1407.69 893.38 1404.7C892.656 1394.82 891.719 1384.99 890.509 1375.16C890.389 1374.18 890.269 1373.19 890.146 1372.18C888.729 1361.11 886.878 1350.63 881 1341C865.336 1339.44 852.963 1349.18 841.25 1358.44C829.567 1368.29 822.515 1378.89 820.737 1394.27C820.561 1396.65 820.439 1399.03 820.344 1401.41C820.306 1402.31 820.267 1403.21 820.227 1404.14C819.8 1415.92 820.168 1427.68 820.488 1439.45C820.552 1442.03 820.616 1444.61 820.678 1447.18C820.812 1452.68 820.951 1458.17 821.093 1463.66C821.452 1477.59 821.784 1491.52 822.114 1505.45C822.168 1507.73 822.222 1510 822.277 1512.27C823.168 1549.67 823.776 1587.08 824.353 1624.49C824.407 1628.02 824.462 1631.55 824.517 1635.08C824.552 1637.39 824.588 1639.7 824.623 1642C824.796 1653.46 824.983 1664.91 825.27 1676.36C826.099 1709.71 826.188 1743.05 826.185 1776.4C826.185 1781.9 826.194 1787.39 826.206 1792.88C826.277 1825.72 826.156 1858.53 825.074 1891.35C825.012 1893.25 825.012 1893.25 824.948 1895.18C819.065 2069.26 819.065 2069.26 784.336 2102.04C764.263 2118.92 733.805 2118.38 708.938 2118.38C707.985 2118.38 707.032 2118.38 706.05 2118.38C659.624 2118.37 659.624 2118.37 644.004 2104.19C632.67 2092.1 630.278 2075.9 628.051 2060.1C627.876 2058.87 627.702 2057.64 627.522 2056.36C625.788 2043.85 624.466 2031.32 623.25 2018.75C623.005 2016.25 622.759 2013.76 622.513 2011.26C620.215 1987.76 618.052 1964.25 615.899 1940.74C615.626 1937.76 615.351 1934.77 615.076 1931.79C614.641 1927.06 614.209 1922.32 613.781 1917.59C613.622 1915.83 613.461 1914.07 613.299 1912.32C613.076 1909.89 612.857 1907.46 612.639 1905.03C612.574 1904.33 612.508 1903.63 612.441 1902.91C612.03 1898.25 611.947 1893.67 612 1889C611.403 1888.9 610.806 1888.8 610.191 1888.7C602.141 1887.3 594.2 1885.52 586.248 1883.65C584.005 1883.13 581.761 1882.61 579.516 1882.1C549.833 1875.21 549.833 1875.21 541 1862C537.698 1855.8 536.044 1849.71 534.938 1842.81C534.692 1841.32 534.692 1841.32 534.442 1839.8C529.483 1808.37 528.664 1776.53 527.574 1744.78C526.731 1720.38 525.647 1696.01 524.19 1671.64C524.065 1669.54 523.943 1667.45 523.822 1665.36C522.977 1650.91 521.953 1636.5 520.496 1622.09C520.378 1620.91 520.26 1619.72 520.138 1618.5C519.711 1608.09 519.711 1608.09 516 1599C497.723 1598.15 476.337 1610.69 462.918 1622.2C453.943 1630.64 453.015 1639.94 452.482 1651.78C452.441 1652.67 452.4 1653.57 452.358 1654.49C451.767 1668.36 451.576 1682.24 451.326 1696.11C451.25 1700.27 451.17 1704.44 451.091 1708.6C450.941 1716.49 450.794 1724.39 450.648 1732.29C450.39 1746.29 450.127 1760.3 449.862 1774.31C449.783 1778.54 449.703 1782.76 449.624 1786.99C449.301 1804.34 448.957 1821.69 448.468 1839.04C447.852 1860.92 447.953 1882.78 448.096 1904.67C448.123 1908.9 448.14 1913.13 448.151 1917.37C448.157 1918.94 448.167 1920.51 448.181 1922.09C448.331 1938.81 448.311 1955.68 437.148 1969.25C425.047 1980.8 406.858 1982.11 391.008 1983.46C389.639 1983.58 388.27 1983.7 386.901 1983.82C367.673 1985.52 348.422 1986.97 329.175 1988.44C325.824 1988.69 322.474 1988.95 319.123 1989.21C286.879 1991.68 254.628 1994.05 222.373 1996.37C116.58 2003.69 116.58 2003.69 11.2375 2015.68C7.50869 2016.05 3.7474 2016 0 2016C0 2008.41 0 2000.82 0 1993C53.0133 1981.57 107.325 1976.41 161.175 1970.53C163.114 1970.32 165.053 1970.11 166.992 1969.89C206.6 1965.54 246.281 1962.57 286.063 1960.36C297.184 1959.74 308.303 1959.1 319.422 1958.45C320.505 1958.39 321.588 1958.32 322.704 1958.26C340.582 1957.22 358.451 1956.11 376.312 1954.81C377.355 1954.74 378.397 1954.67 379.471 1954.59C388.936 1953.93 398.311 1953.11 407.668 1951.51C408.371 1951.39 409.074 1951.27 409.798 1951.15C413.128 1950.53 415.136 1949.91 418 1948C419.248 1944.26 419.115 1940.79 419.082 1936.89C419.079 1936.06 419.076 1935.23 419.073 1934.37C419.066 1932.55 419.056 1930.73 419.045 1928.91C419.021 1924.97 419.009 1921.03 418.996 1917.09C418.989 1914.98 418.981 1912.88 418.973 1910.78C418.816 1870.9 419.076 1831.1 420.672 1791.24C420.975 1783.69 421.264 1776.13 421.553 1768.58C422.109 1754.07 422.675 1739.57 423.25 1725.07C423.388 1721.57 423.527 1718.08 423.664 1714.58C423.978 1706.55 424.299 1698.53 424.628 1690.5C424.728 1688.04 424.827 1685.57 424.924 1683.1C425.385 1671.32 425.932 1659.58 426.971 1647.84C427.047 1646.96 427.124 1646.08 427.202 1645.18C428.764 1628.73 433.992 1614.78 447 1604C463.244 1591.27 482.456 1580.64 502 1574C502.735 1573.74 503.47 1573.48 504.227 1573.21C512.755 1570.59 522.631 1570.84 530.719 1574.62C539.138 1579.7 543.252 1586.72 546 1596C549.477 1610.43 550.101 1625.22 550.535 1640.01C550.556 1640.7 550.576 1641.4 550.598 1642.11C551.046 1657.65 551.146 1673.2 551.246 1688.74C551.255 1690.03 551.263 1691.32 551.272 1692.65C551.345 1704.1 551.413 1715.55 551.467 1726.99C549.801 1786.94 549.801 1786.94 558.223 1845.93C558.417 1846.64 558.612 1847.35 558.813 1848.08C560.935 1851.51 564.28 1852.54 568.062 1853.56C570.444 1854.09 572.831 1854.56 575.23 1855.01C576.539 1855.26 576.539 1855.26 577.874 1855.53C580.643 1856.07 583.415 1856.6 586.188 1857.12C588.97 1857.66 591.752 1858.2 594.534 1858.75C596.26 1859.08 597.988 1859.41 599.715 1859.74C602.884 1860.35 605.935 1860.98 609 1862C608.895 1860.9 608.789 1859.8 608.68 1858.66C606.522 1835.96 604.647 1813.26 603.312 1790.5C603.252 1789.47 603.192 1788.45 603.129 1787.39C602.955 1784.4 602.783 1781.4 602.613 1778.41C602.565 1777.56 602.518 1776.72 602.469 1775.85C602.306 1772.9 602.152 1769.95 602 1767C601.962 1766.29 601.925 1765.57 601.886 1764.84C601.202 1751.7 600.75 1738.56 600.43 1725.41C600.349 1722.07 600.264 1718.73 600.179 1715.39C600.056 1710.59 599.934 1705.8 599.813 1701C598.905 1665.06 597.909 1629.13 596.412 1593.21C595.527 1571.93 594.714 1550.67 594.688 1529.38C594.684 1528.48 594.68 1527.58 594.677 1526.66C594.612 1497.74 594.612 1497.74 603.531 1487.19C622.72 1469.08 663.835 1473.24 688.347 1473.85C711.406 1474.81 738.851 1480.29 756 1497C758.262 1499.53 760.186 1502.14 762 1505C762.379 1505.59 762.758 1506.18 763.148 1506.79C774.304 1526.46 769.521 1554.94 767.375 1576.58C767.29 1577.46 767.204 1578.34 767.116 1579.25C764.51 1606.06 761.28 1632.81 758.136 1659.56C752.954 1703.69 747.87 1747.85 744.875 1792.19C744.019 1804.8 743.065 1817.37 741.523 1829.91C741.407 1830.88 741.29 1831.84 741.169 1832.83C738.872 1850.7 734.294 1869.77 720 1882C697.792 1897.53 668.133 1898.54 642 1895C641.01 1894.67 640.02 1894.34 639 1894C639.105 1895.01 639.105 1895.01 639.212 1896.04C641.138 1914.91 642.614 1933.79 643.938 1952.71C644.021 1953.9 644.105 1955.09 644.191 1956.32C644.975 1967.53 645.75 1978.74 646.521 1989.94C646.947 1996.14 647.379 2002.34 647.815 2008.53C647.976 2010.85 648.136 2013.17 648.293 2015.49C649.121 2027.71 650.121 2039.9 651.5 2052.07C651.619 2053.14 651.739 2054.21 651.861 2055.31C653.686 2071.15 653.686 2071.15 661 2085C672.875 2092.03 689.778 2090.34 703.134 2090.32C706.166 2090.31 709.197 2090.34 712.229 2090.36C739.948 2090.88 739.948 2090.88 764.875 2080.75C765.576 2079.84 766.278 2078.94 767 2078C767.405 2077.48 767.81 2076.96 768.227 2076.43C807.039 2021.42 792.319 1906.23 794.625 1841.62C794.657 1840.74 794.688 1839.86 794.721 1838.95C795.144 1827.07 795.545 1815.19 795.925 1803.31C795.995 1801.14 796.067 1798.98 796.14 1796.81C798.479 1726.54 798.249 1656.17 798.517 1585.86C798.557 1575.52 798.6 1565.18 798.644 1554.84C798.688 1544.66 798.73 1534.48 798.771 1524.3C798.796 1518.13 798.821 1511.96 798.848 1505.79C798.995 1473.48 798.995 1473.48 798.933 1441.17C798.922 1438.94 798.911 1436.7 798.902 1434.47C798.874 1428.14 798.833 1421.81 798.759 1415.49C798.625 1398.88 799.068 1381.99 807 1367C807.458 1366.12 807.915 1365.23 808.387 1364.32C820.34 1343.54 845.354 1325.7 868.125 1318.88C877.166 1316.94 884.693 1317.69 893 1322C905.267 1330.55 909.23 1345.97 911.801 1359.87C913.185 1367.71 914.11 1375.58 914.973 1383.5C915.102 1384.66 915.102 1384.66 915.233 1385.86C916.922 1401.27 918.117 1416.7 919.202 1432.16C922.858 1484.29 927.556 1536.33 932.188 1588.38C932.321 1589.87 932.321 1589.87 932.457 1591.4C933.075 1598.35 933.694 1605.3 934.313 1612.25C934.399 1613.22 934.485 1614.18 934.574 1615.18C935.495 1625.52 936.418 1635.86 937.346 1646.2C938.687 1661.16 940.026 1676.13 941.272 1691.1C941.364 1692.19 941.456 1693.29 941.551 1694.42C941.947 1699.15 942.338 1703.88 942.712 1708.62C943.551 1718.88 945.033 1728.89 947 1739C952.427 1738.35 957.854 1737.7 963.278 1737.03C965.121 1736.8 966.965 1736.58 968.809 1736.36C971.469 1736.05 974.127 1735.72 976.785 1735.39C977.602 1735.29 978.419 1735.2 979.261 1735.1C984.325 1734.45 988.479 1733.42 993 1731C1005.76 1706.8 1000.16 1668.55 1000.13 1641.76C1000.13 1637.6 1000.13 1633.44 1000.14 1629.28C1000.14 1622.25 1000.14 1615.22 1000.13 1608.19C1000.13 1601.15 1000.13 1594.11 1000.13 1587.07C1000.16 1549.9 1000.06 1512.75 999.551 1475.59C999.541 1474.85 999.531 1474.12 999.521 1473.36C999.036 1402.5 999.036 1402.5 993 1332C991.337 1331.86 991.337 1331.86 989.641 1331.72C984.388 1331.06 979.681 1329.3 974.75 1327.44C973.784 1327.08 972.818 1326.72 971.823 1326.35C965.632 1324.04 959.496 1321.61 953.375 1319.12C945.118 1315.79 936.801 1312.62 928.438 1309.56C927.272 1309.12 926.107 1308.69 924.906 1308.24C914.809 1304.59 906.068 1302.58 895.75 1306.19C894.29 1306.66 892.829 1307.12 891.367 1307.59C890.28 1307.94 890.28 1307.94 889.171 1308.3C885.763 1309.4 882.327 1310.37 878.875 1311.31C877.139 1311.8 877.139 1311.8 875.367 1312.3C868.976 1313.63 864.44 1313.31 858.793 1310.2C854.58 1307.38 852.594 1303.69 851 1299C850.532 1294.56 850.62 1290.09 850.625 1285.62C850.625 1284.95 850.624 1284.28 850.624 1283.58C850.65 1269.82 851.656 1256.14 852.812 1242.44C852.937 1240.93 852.937 1240.93 853.063 1239.4C854.943 1216.94 856.731 1199.19 874.723 1183.65C894.704 1168 919.293 1161.12 943.038 1153.25C945.018 1152.6 946.997 1151.94 948.974 1151.27C969.084 1144.55 989.465 1140.26 1010.33 1136.63C1012.93 1136.18 1015.52 1135.71 1018.11 1135.24C1019.8 1134.95 1021.49 1134.65 1023.18 1134.36C1024.31 1134.15 1024.31 1134.15 1025.47 1133.94C1030.71 1133.04 1035.69 1132.89 1041 1133C1040.31 1125.91 1039.62 1118.83 1038.92 1111.74C1038.58 1108.25 1038.24 1104.77 1037.9 1101.29C1035.88 1080.53 1035.88 1080.53 1033.66 1059.79C1030.94 1035.31 1028.94 1010.82 1027.25 986.25C1027.2 985.467 1027.14 984.683 1027.09 983.876C1020.98 894.915 1021 805.577 1032 341C1032.05 339.802 1032.11 338.603 1032.16 337.369C1035.01 274.975 1041.88 212.82 1048.45 150.731C1049.38 141.856 1050.31 132.981 1051.22 124.104C1051.67 119.754 1052.12 115.404 1052.58 111.055C1052.77 109.181 1052.96 107.306 1053.15 105.432C1054.64 90.688 1056.04 80.6566 1067 70C1067.8 69.1982 1068.61 68.3964 1069.44 67.5703C1082.61 55.0028 1099.14 41.5425 1118.06 41.793C1123.6 42.183 1126.6 44.3613 1130.25 48.3125C1136.65 56.2775 1136.19 66.7547 1136.55 76.5061C1136.59 77.6095 1136.64 78.713 1136.68 79.85C1137.07 90.8686 1137.16 101.879 1137.16 112.903C1137.17 115.061 1137.17 117.22 1137.18 119.378C1137.19 125.152 1137.2 130.926 1137.2 136.7C1137.2 140.32 1137.21 143.939 1137.21 147.559C1137.23 158.922 1137.23 170.285 1137.24 181.649C1137.24 194.701 1137.26 207.753 1137.29 220.806C1137.31 230.952 1137.32 241.097 1137.32 251.243C1137.32 257.281 1137.33 263.318 1137.35 269.356C1137.36 275.023 1137.37 280.691 1137.36 286.359C1137.36 288.429 1137.36 290.498 1137.37 292.568C1137.51 324.167 1137.51 324.167 1126.14 335.926C1119.14 342.079 1110.18 344.4 1101.33 346.691C1098.94 347.306 1098.94 347.306 1096 349C1093.83 355.468 1093.4 362.064 1092.92 368.839C1092.84 369.98 1092.75 371.121 1092.67 372.296C1091.81 384.717 1091.48 397.132 1091.3 409.578C1091.28 410.832 1091.26 412.087 1091.24 413.379C1090.71 448.366 1091.4 483.343 1092.08 518.324C1092.19 523.83 1092.29 529.336 1092.39 534.842C1093.51 594.593 1095.08 654.306 1098 714C1098.04 714.857 1098.08 715.713 1098.13 716.596C1099.83 751.302 1101.96 785.981 1104.18 820.659C1105.27 837.645 1106.27 854.633 1107.19 871.629C1107.24 872.57 1107.29 873.512 1107.34 874.481C1107.76 882.257 1108.18 890.032 1108.59 897.808C1110.17 927.07 1111.97 956.307 1114.01 985.54C1115.72 1010.01 1117.11 1034.48 1118 1059C1118.25 1051.88 1118.49 1044.75 1118.73 1037.63C1118.84 1034.31 1118.95 1031 1119.07 1027.68C1119.39 1018.58 1119.67 1009.47 1119.93 1000.36C1119.98 998.796 1120.02 997.229 1120.07 995.663C1120.93 966.05 1121.12 936.436 1121.25 906.812C1121.25 905.836 1121.25 904.86 1121.26 903.854C1121.34 885.474 1121.41 867.095 1121.47 848.715C1121.79 747.555 1121.79 747.555 1124.57 698.812C1126.25 669.009 1126.31 639.231 1126.26 609.39C1126.25 604.121 1126.25 598.852 1126.24 593.582C1126.22 550.79 1125.81 508.024 1124.64 465.245C1124.4 456.497 1124.19 447.749 1124 439C1123.98 438.185 1123.96 437.369 1123.95 436.529C1123.84 431.594 1123.76 426.659 1123.71 421.723C1123.7 420.195 1123.67 418.666 1123.64 417.138C1123.6 415.041 1123.58 412.946 1123.57 410.849C1123.56 409.666 1123.55 408.484 1123.53 407.265C1124.29 401.955 1127.33 398.2 1131.38 394.812C1131.92 394.345 1132.46 393.877 1133.02 393.395C1135.54 391.618 1138.24 390.357 1141 389C1141.02 388.433 1141.04 387.865 1141.05 387.281C1144.82 267.557 1144.82 267.557 1146.5 233.188C1146.55 232.165 1146.6 231.143 1146.64 230.089C1148.7 186.668 1152.96 143.349 1157.2 100.099C1157.69 95.0771 1158.17 90.0548 1158.66 85.0324C1159.14 80.085 1159.62 75.1379 1160.1 70.1908C1160.32 67.8845 1160.54 65.5783 1160.77 63.2719C1161.38 56.9257 1162.01 50.5813 1162.67 44.2389C1162.9 41.9852 1163.13 39.7312 1163.35 37.4769C1163.72 33.928 1164.09 30.3812 1164.47 26.8345C1164.58 25.7519 1164.69 24.6694 1164.8 23.5541C1165.64 15.918 1166.68 9.09876 1173 4C1173.66 4 1174.32 4 1175 4C1175 2.68 1175 1.36 1175 0ZM1186 19C1182.78 39.7527 1180.53 60.634 1178.19 81.5C1178.08 82.4765 1177.97 83.453 1177.85 84.459C1168.67 166.115 1163.85 247.582 1161.24 329.697C1161.06 335.143 1160.88 340.59 1160.69 346.037C1160.64 347.448 1160.6 348.86 1160.55 350.272C1160.46 352.813 1160.38 355.355 1160.29 357.896C1160.02 365.933 1159.95 373.958 1160 382C1160.86 381.701 1161.72 381.401 1162.61 381.093C1165.48 380.096 1168.36 379.121 1171.25 378.155C1173.14 377.517 1175.02 376.858 1176.9 376.199C1185.36 373.388 1194.89 370.594 1203.58 374.014C1210.79 378.022 1215.3 385.44 1220 392C1236.5 414.856 1236.5 414.856 1257 434C1259.76 436.254 1262.51 438.535 1265.25 440.812C1268.16 443.213 1271.08 445.607 1274 448C1274.72 448.594 1275.45 449.189 1276.2 449.801C1278.27 451.498 1280.35 453.188 1282.44 454.875C1283.07 455.393 1283.7 455.911 1284.35 456.445C1287.31 459.117 1287.31 459.117 1291 460C1293 450.851 1293.65 441.696 1294.12 432.368C1294.16 431.556 1294.2 430.743 1294.24 429.906C1295.33 408.431 1295.22 386.954 1295.14 365.458C1295.12 359.724 1295.11 353.991 1295.1 348.257C1295.08 333.755 1295.04 319.252 1295 304.75C1294.96 289.063 1294.91 273.376 1294.89 257.689C1294.89 252.024 1294.87 246.359 1294.85 240.695C1294.73 211.504 1295.15 182.564 1298.12 153.5C1298.91 145.396 1299.27 137.329 1299.38 129.188C1299.41 127.567 1299.41 127.567 1299.45 125.914C1299.47 116.9 1297.4 109.613 1291 103C1288.42 101.042 1288.42 101.042 1285.44 99.3125C1284.61 98.8105 1284.61 98.8105 1283.76 98.2983C1279.58 95.8141 1275.29 93.5862 1270.96 91.3799C1257.83 84.6781 1247.29 76.7805 1237.14 66.0547C1235.25 63.7694 1235.25 63.7694 1233 64C1232.6 63.0409 1232.6 63.0409 1232.19 62.0625C1231.11 59.6687 1231.11 59.6687 1228 59C1228 58.34 1228 57.68 1228 57C1226.45 55.4314 1226.45 55.4314 1224.44 53.8125C1221.67 51.4672 1219.03 49.0917 1216.5 46.5C1214.09 44.0455 1211.61 41.7456 1209 39.5C1206.39 37.2544 1203.91 34.9545 1201.5 32.5C1196.67 27.59 1191.52 23.1138 1186 19ZM1085 78C1083.79 78.9819 1082.58 79.9637 1081.37 80.9453C1080.18 81.9203 1079 82.8968 1077.81 83.875C1077.26 84.3271 1076.71 84.7793 1076.14 85.2451C1071.67 89.0053 1069.94 91.9415 1069.23 97.6868C1069.1 98.6269 1068.98 99.567 1068.86 100.536C1068.74 101.562 1068.61 102.588 1068.48 103.645C1068.35 104.731 1068.21 105.818 1068.07 106.938C1067.62 110.562 1067.18 114.187 1066.75 117.812C1066.52 119.702 1066.52 119.702 1066.29 121.631C1057.82 191.745 1052.01 262.437 1049 333C1048.95 334.162 1048.9 335.323 1048.85 336.52C1046.29 397.566 1046.53 458.712 1046.19 519.801C1046.02 549.345 1045.8 578.888 1045.53 608.432C1045.5 611.639 1045.47 614.846 1045.45 618.053C1045.39 624.113 1045.34 630.174 1045.28 636.234C1045.27 637.233 1045.26 638.231 1045.25 639.26C1045.14 651.483 1044.98 663.705 1044.77 675.926C1044.06 717.484 1043.97 759.008 1044.32 800.57C1044.36 806.174 1044.4 811.778 1044.44 817.383C1044.45 818.575 1044.45 818.575 1044.46 819.791C1044.46 820.585 1044.47 821.379 1044.48 822.197C1044.8 897.407 1044.8 897.407 1047.31 972.562C1047.41 974.526 1047.41 974.526 1047.51 976.528C1049.25 1012.27 1052.45 1047.84 1055.95 1083.44C1057.67 1100.95 1059.09 1118.43 1060 1136C1063.94 1134.47 1067.88 1132.92 1071.81 1131.38C1072.91 1130.95 1074.01 1130.52 1075.15 1130.08C1089.22 1125.24 1089.22 1125.24 1099 1115C1099.44 1111.85 1099.44 1111.85 1099.37 1108.4C1099.38 1107.75 1099.38 1107.11 1099.38 1106.44C1099.39 1104.3 1099.38 1102.16 1099.36 1100.01C1099.36 1098.49 1099.37 1096.97 1099.37 1095.45C1099.37 1091.38 1099.35 1087.3 1099.33 1083.23C1099.31 1080.68 1099.3 1078.12 1099.29 1075.57C1099.13 1031.84 1096.77 988.498 1093.45 944.906C1090.29 903.241 1088.13 861.574 1086.51 819.822C1085.37 790.387 1083.95 760.969 1082.5 731.548C1076.18 603.453 1076.18 603.453 1075.34 541.694C1075.1 524.391 1074.61 507.105 1074 489.812C1073.96 488.619 1073.92 487.426 1073.87 486.196C1073.75 482.762 1073.63 479.328 1073.5 475.895C1073.46 474.784 1073.42 473.673 1073.38 472.528C1073.19 467.595 1072.99 462.665 1072.72 457.736C1071.74 439.39 1071.81 421.031 1071.81 402.663C1071.81 397.817 1071.8 392.97 1071.78 388.124C1071.77 384.34 1071.77 380.557 1071.77 376.773C1071.77 374.987 1071.77 373.2 1071.76 371.413C1071.64 340.553 1071.64 340.553 1080.72 330.004C1086.58 324.42 1093.71 321.495 1101.27 318.863C1102.33 318.475 1103.4 318.087 1104.5 317.688C1105.48 317.361 1106.46 317.035 1107.47 316.699C1111.75 313.826 1112.49 309.45 1113.49 304.658C1113.94 302.09 1114.29 299.522 1114.62 296.938C1114.81 295.707 1114.81 295.707 1114.99 294.451C1117.39 276.638 1117.15 258.402 1117.13 240.461C1117.13 238.462 1117.14 236.464 1117.14 234.465C1117.14 229.188 1117.14 223.911 1117.13 218.633C1117.12 215.349 1117.12 212.064 1117.12 208.779C1117.1 174.515 1116.87 140.267 1116.07 106.011C1116 103.042 1115.94 100.074 1115.87 97.105C1115.76 91.9239 1115.63 86.7432 1115.5 81.5625C1115.47 80.4582 1115.47 80.4582 1115.45 79.3316C1115.4 77.3264 1115.34 75.3214 1115.28 73.3164C1115.25 72.2279 1115.22 71.1393 1115.19 70.0178C1115 66.9552 1114.56 64.0156 1114 61C1103.94 61 1092.38 71.8919 1085 78ZM1299.7 551.09C1298.81 551.54 1297.93 551.99 1297.02 552.453C1296.06 552.943 1295.11 553.433 1294.12 553.938C1286.71 557.709 1279.26 561.257 1271.62 564.562C1256.97 571.014 1244.24 579.737 1232 590C1231.28 590.58 1230.56 591.16 1229.82 591.758C1220.37 600.114 1216.88 613.016 1215 625C1214.87 625.737 1214.74 626.475 1214.61 627.234C1213.69 633.11 1213.91 639.073 1214 645C1216.69 643.742 1218.92 642.396 1221.19 640.488C1221.79 639.986 1222.4 639.483 1223.02 638.965C1223.68 638.42 1224.33 637.874 1225 637.312C1233.6 630.226 1242.48 623.558 1251.43 616.916C1253.98 615.014 1256.52 613.096 1259.05 611.172C1275.53 598.668 1292.57 587.136 1310 576C1309.62 562.111 1309.62 562.111 1306 549C1303.4 549 1302.01 549.9 1299.7 551.09ZM1328 580C1328.02 580.584 1328.04 581.168 1328.06 581.769C1328.77 604.401 1328.77 604.401 1324 611C1322.64 611.768 1321.25 612.503 1319.85 613.207C1316.76 615.467 1316.08 616.54 1315.41 620.365C1315.25 624.839 1315.58 629.288 1315.88 633.75C1315.96 635.467 1316.04 637.185 1316.12 638.902C1316.32 643.399 1316.58 647.892 1316.85 652.385C1317.08 656.386 1317.28 660.388 1317.47 664.391C1317.51 665.164 1317.55 665.938 1317.59 666.735C1317.66 668.332 1317.74 669.929 1317.82 671.527C1317.94 674.082 1318.07 676.637 1318.2 679.192C1319 695.622 1319.53 712.058 1320 728.5C1320.02 729.216 1320.04 729.932 1320.06 730.67C1320.64 751.019 1321.1 771.369 1321.5 791.723C1321.52 792.788 1321.54 793.854 1321.56 794.952C1321.77 805.55 1321.98 816.148 1322.16 826.746C1322.78 861.951 1323.98 897.125 1326.38 932.258C1327.43 947.79 1328.36 963.301 1328.62 978.869C1328.66 980.444 1328.66 980.444 1328.69 982.051C1328.7 982.945 1328.72 983.838 1328.73 984.759C1328.86 987.284 1328.86 987.284 1331 990C1331.91 989.745 1331.91 989.745 1332.85 989.484C1345.66 985.928 1358.48 982.599 1371.44 979.616C1383.37 976.863 1395.28 974.019 1407.12 970.888C1408.57 970.508 1410.02 970.134 1411.46 969.766C1413.48 969.253 1415.48 968.717 1417.49 968.176C1418.63 967.876 1419.77 967.576 1420.94 967.267C1425.42 965.41 1428.2 962.742 1430.22 958.336C1435.6 939.376 1438.48 920.066 1441.21 900.58C1441.5 898.476 1441.8 896.372 1442.1 894.267C1444.36 878.281 1446.59 862.291 1448.44 846.25C1448.58 845.052 1448.72 843.854 1448.86 842.619C1449.28 838.749 1449.66 834.877 1450 831C1450.07 830.175 1450.15 829.35 1450.23 828.5C1452.17 806.304 1452.96 784.041 1453.86 761.784C1454.08 756.333 1454.31 750.882 1454.54 745.432C1454.72 741.152 1454.89 736.872 1455.07 732.592C1455.15 730.585 1455.24 728.578 1455.32 726.571C1455.6 720.048 1455.82 713.526 1456 707C1456.05 705.475 1456.05 705.475 1456.1 703.918C1456.19 700.81 1456.25 697.702 1456.3 694.593C1456.35 693.178 1456.35 693.178 1456.39 691.735C1456.48 682.514 1453.2 676.641 1446.83 670.086C1446.31 669.544 1445.8 669.002 1445.27 668.444C1443.53 666.616 1441.77 664.806 1440 663C1439.35 662.334 1438.7 661.668 1438.03 660.982C1433.71 656.587 1429.37 652.225 1425.01 647.877C1422.74 645.611 1420.47 643.339 1418.2 641.066C1416.73 639.599 1415.27 638.131 1413.8 636.664C1413.13 635.997 1412.47 635.33 1411.78 634.643C1407.92 630.797 1403.95 627.134 1399.8 623.591C1398.01 622.007 1396.34 620.35 1394.69 618.625C1390.99 614.862 1386.93 611.624 1382.82 608.32C1380.14 606.117 1377.56 603.84 1375 601.5C1369.82 596.799 1364.5 592.328 1359 588C1358.39 587.521 1357.79 587.043 1357.16 586.55C1355.21 585.016 1353.23 583.505 1351.25 582C1350.64 581.519 1350.02 581.037 1349.39 580.542C1341.7 574.798 1336.18 575.679 1328 580ZM1270.95 617.942C1264.45 622.945 1257.83 627.738 1251.06 632.371C1247.48 634.665 1247.48 634.665 1245 638C1249.83 636.515 1254.25 634.564 1258.79 632.367C1259.52 632.012 1260.26 631.656 1261.02 631.29C1262.58 630.537 1264.14 629.782 1265.69 629.025C1268.03 627.892 1270.37 626.77 1272.71 625.648C1279.78 622.238 1286.79 618.736 1293.56 614.758C1294.59 614.153 1295.62 613.549 1296.69 612.926C1299.2 611.186 1299.2 611.186 1299.83 608.405C1299.99 606.153 1300.1 603.944 1300.06 601.688C1300.04 600.471 1300.02 599.254 1300 598C1291.71 598 1277.17 613.142 1270.95 617.942ZM1904 932C1904 933.65 1904 935.3 1904 937C1904.33 937 1904.66 937 1905 937C1905 935.35 1905 933.7 1905 932C1904.67 932 1904.34 932 1904 932ZM1115 1130C1114.47 1130.73 1114.47 1130.73 1113.93 1131.47C1105.16 1143.38 1088.61 1147.45 1075.25 1152.03C1074.21 1152.39 1073.17 1152.75 1072.1 1153.12C1071.17 1153.43 1070.23 1153.75 1069.27 1154.07C1066.85 1154.89 1066.85 1154.89 1065 1157C1064.39 1159.87 1063.91 1162.67 1063.5 1165.56C1063.37 1166.44 1063.25 1167.32 1063.12 1168.23C1062.14 1175.34 1061.41 1182.47 1060.81 1189.62C1060.73 1190.59 1060.64 1191.55 1060.56 1192.54C1059.09 1211.56 1060.17 1230.8 1060.57 1249.84C1060.64 1253.25 1060.71 1256.67 1060.78 1260.09C1060.82 1261.77 1060.82 1261.77 1060.85 1263.49C1060.95 1268.98 1061.01 1274.46 1060.94 1279.95C1060.79 1294.63 1061.69 1309.29 1062.4 1323.95C1066.92 1417.55 1068.47 1511.12 1066.57 1748.97C1066.53 1751.23 1066.48 1753.49 1066.44 1755.75C1066.42 1756.83 1066.39 1757.91 1066.37 1759.03C1065.23 1817.81 1066.34 1876.52 1068.34 1935.27C1068.44 1938.08 1068.53 1940.88 1068.62 1943.69C1069.23 1961.74 1069.89 1979.79 1071 1997.81C1071.08 1999.07 1071.15 2000.33 1071.23 2001.62C1071.6 2019.27 1071.6 2019.27 1076 2036C1086.89 2036 1097.78 2036 1109 2036C1109.02 2025.26 1109.02 2025.26 1108.41 2014.63C1108.29 2013.11 1108.16 2011.59 1108.03 2010.07C1107.97 2009.28 1107.9 2008.5 1107.83 2007.69C1106.09 1987.11 1105.02 1966.52 1104.12 1945.89C1104 1943.13 1103.87 1940.37 1103.75 1937.61C1102.1 1901.05 1100.72 1864.47 1099.45 1827.89C1099.22 1821.13 1098.98 1814.37 1098.71 1807.61C1098.14 1793.42 1097.76 1779.24 1097.7 1765.04C1097.69 1762.85 1097.67 1760.67 1097.64 1758.48C1097.6 1755.24 1097.58 1752.01 1097.57 1748.77C1097.56 1747.8 1097.54 1746.83 1097.52 1745.84C1097.54 1738.48 1099.21 1733.21 1104.06 1727.62C1109.88 1724.41 1116.45 1723.95 1123 1724C1123.15 1693.73 1122.58 1663.45 1122.2 1633.18C1122.08 1623.8 1121.97 1614.43 1121.88 1605.05C1121.29 1542.38 1118.46 1479.66 1114.95 1417.09C1110.1 1330.31 1111.72 1243.47 1115.39 1156.69C1115.43 1155.7 1115.47 1154.72 1115.51 1153.7C1115.59 1151.91 1115.67 1150.11 1115.75 1148.31C1116 1142.21 1116.04 1136.11 1116 1130C1115.67 1130 1115.34 1130 1115 1130ZM1424 1365C1424 1368.3 1424 1371.6 1424 1375C1424.33 1375 1424.66 1375 1425 1375C1425 1371.7 1425 1368.4 1425 1365C1424.67 1365 1424.34 1365 1424 1365ZM619 1501C615.781 1507.36 616.9 1515.5 617.254 1522.38C617.306 1523.56 617.359 1524.74 617.413 1525.95C618.011 1538.63 618.953 1551.28 619.938 1563.94C622.829 1601.33 624.452 1638.7 625.688 1676.18C627.806 1740.25 631.151 1804.08 636 1868C645.012 1869.64 653.517 1870.34 662.663 1870.32C664.865 1870.31 667.067 1870.34 669.27 1870.36C681.795 1870.42 696.652 1869.94 706.25 1860.88C710.815 1853.37 712.909 1845.18 714.5 1836.62C714.815 1834.94 714.815 1834.94 715.137 1833.22C718.572 1813.98 720.339 1794.47 721.902 1775C725.159 1734.95 730.122 1695.13 735.041 1655.25C735.181 1654.12 735.321 1652.98 735.466 1651.81C735.746 1649.54 736.026 1647.27 736.306 1645C738.567 1626.68 740.738 1608.35 742.75 1590C742.867 1588.94 742.983 1587.88 743.104 1586.79C743.681 1581.52 744.248 1576.25 744.793 1570.98C744.973 1569.26 745.16 1567.54 745.349 1565.81C746.133 1558.2 746.219 1550.59 746.25 1542.94C746.271 1541.64 746.291 1540.34 746.312 1539.01C746.352 1529.21 745.654 1519.7 739 1512C723.865 1498.18 696.328 1495.86 676.84 1495.83C675.892 1495.83 674.944 1495.83 673.967 1495.82C671.969 1495.82 669.971 1495.81 667.974 1495.81C664.97 1495.81 661.967 1495.79 658.963 1495.78C638.219 1494.97 638.219 1494.97 619 1501Z" fill="#1B1817"/>
</svg>
