<svg width="198" height="119" viewBox="0 0 198 119" fill="none" xmlns="http://www.w3.org/2000/svg">
<path d="M148.743 0.0376053C144.301 0.259712 142.854 0.983376 142.467 3.18302C142.18 4.8238 141.937 8.66422 141.937 11.5589C141.929 13.6224 141.901 14.6828 141.714 18.9961C141.643 20.644 141.643 21.5611 141.714 23.3309C141.879 27.6299 142.051 29.6576 142.51 32.5952C143.097 36.3353 143.327 38.3845 143.62 42.5187C143.893 46.3089 143.914 47.8709 143.735 52.5496C143.656 54.7779 143.556 57.7084 143.513 59.0697C143.434 61.4413 143.384 62.0217 143.241 62.165C143.126 62.2796 142.195 62.3154 141.686 62.2295C141.034 62.1148 140.661 61.9142 140.532 61.6133C140.353 61.1691 140.217 60.123 140.131 58.4822C140.031 56.5047 140.124 53.7676 140.41 50.2497C140.719 46.4522 140.683 43.3211 140.253 36.5359C140.024 32.9033 140.002 32.5164 139.93 28.9411C139.88 26.7414 139.823 25.4732 139.723 24.5131C139.637 23.7751 139.543 22.6431 139.5 22.0054C139.364 19.9132 139.149 19.0892 138.54 18.2796C137.953 17.4986 137.265 17.1117 136.111 16.9111C134.535 16.6388 129.326 16.5743 128.445 16.8251C127.334 17.1332 126.919 17.5918 126.503 18.9459C126.123 20.207 125.923 21.6185 125.565 25.5019C125.199 29.4928 125.163 32.0865 125.421 34.8521C125.543 36.2063 126.016 40.2545 126.274 42.2679C126.496 43.9731 126.582 45.0694 126.675 47.4267C126.718 48.4512 126.826 50.1422 126.926 51.1883C127.155 53.7318 127.198 55.129 127.112 56.6336C126.998 58.4177 126.374 62.688 126.045 63.9061C125.987 64.1139 125.973 64.121 125.414 64.1712C124.662 64.2285 124.182 64.1712 124.096 64.0135C123.831 63.5192 123.759 57.909 123.974 54.7707C124.16 51.9692 124.182 50.9661 124.103 48.0357C124.053 46.0438 123.974 44.6108 123.816 42.8769C123.695 41.5586 123.551 39.8031 123.487 38.9792C123.308 36.6434 122.964 34.9095 122.505 34.0497C122.211 33.5051 121.402 32.7385 120.735 32.3874C119.532 31.7569 118.572 31.5993 116.035 31.5993C113.341 31.6064 112.474 31.7497 112.044 32.2584C111.579 32.8101 111.428 34.9095 111.693 37.2166C112.102 40.8062 112.188 44.6108 111.958 48.7522C111.894 49.9129 111.815 52.1412 111.772 53.696C111.65 58.3604 111.457 61.8999 111.263 62.7955C111.156 63.2827 110.977 63.4045 110.411 63.3472C109.759 63.2899 109.472 63.1179 109.314 62.6952C108.956 61.7136 108.827 59.385 108.928 55.4514C109.006 52.1125 108.949 46.8821 108.806 44.5248C108.741 43.5504 108.698 41.6015 108.691 40.1542C108.691 38.105 108.662 37.2094 108.548 36.0344C108.383 34.2933 108.369 33.2759 108.491 31.6136C108.555 30.675 108.555 30.3167 108.483 29.937C108.261 28.7261 107.624 28.1601 106.133 27.8305C104.492 27.4722 100.724 27.0423 99.2477 27.0423C98.3378 27.0423 95.8802 27.2 95.1637 27.3003C94.4759 27.4006 94.0746 27.938 94.0746 28.7619C94.0746 29.0199 94.1248 29.6647 94.1821 30.1949C94.2323 30.7251 94.3039 31.5348 94.3254 31.9862C94.397 33.1541 94.2466 42.1604 94.1033 45.7572C93.9886 48.6304 93.9886 48.9241 94.1033 51.3889C94.2179 53.6458 94.2179 54.3194 94.1463 56.5118C94.0531 59.4638 94.003 59.9868 93.788 60.1588C93.5731 60.3379 92.9139 60.4526 92.1401 60.4526C91.3376 60.4597 91.1656 60.3881 91.0725 60.0155C90.8719 59.2417 90.7572 56.6981 90.6354 50.0777C90.5208 43.7725 90.2127 42.0959 89.0735 41.5371L88.6722 41.3436L86.5586 41.3149C84.1511 41.2791 81.5646 41.3794 79.5584 41.5872C75.9759 41.9526 75.7896 42.1461 75.3956 45.8504C75.3024 46.7961 75.2738 47.6631 75.2738 49.7194C75.2738 52.7072 75.3167 53.2016 75.804 55.5661C76.1479 57.2427 76.3055 58.9766 76.1765 59.7146C76.0332 60.5242 75.6535 60.9183 74.7221 61.2264C74.2133 61.3912 74.113 61.3983 72.4006 61.3912C70.552 61.3912 70.2941 61.3625 67.815 60.9684C67.077 60.8538 66.074 60.7607 65.0207 60.7105C61.2376 60.5314 59.4679 60.9541 59.4679 62.0432C59.4679 62.4086 59.7974 62.946 60.1843 63.2111C60.4208 63.3759 60.4781 63.383 61.2233 63.3472C61.6603 63.3257 62.4771 63.2254 63.0503 63.1251C63.6235 63.0248 64.4618 62.8958 64.9132 62.8313C65.9092 62.6952 68.2808 62.6235 68.9256 62.7024C69.3483 62.7597 69.2767 62.7668 68.1446 62.817C66.5827 62.8815 64.4905 63.0463 63.3728 63.1967C59.8261 63.6625 55.7421 65.1313 52.8546 66.9798C51.7799 67.6677 50.1247 68.9287 47.5382 71.028C43.8124 74.0517 42.8022 74.9043 40.9106 76.5952C39.6209 77.7416 38.9474 78.279 37.8153 79.0385C35.4796 80.6148 33.8531 81.4674 31.6678 82.2627C30.1918 82.8072 29.7333 82.8932 26.9963 83.144C25.1907 83.3088 25.4486 83.3303 23.4281 82.8216C21.2428 82.277 19.2939 81.9618 16.4709 81.7038C14.3358 81.5104 10.2446 81.4459 7.88013 81.5605C4.54126 81.7253 0.772487 82.1409 0.278105 82.3988C-0.0514833 82.5636 -0.101638 82.929 0.177795 83.058C0.643518 83.273 1.67527 83.3088 7.41441 83.316C13.4473 83.3303 13.7267 83.3374 17.0871 83.6885C19.2724 83.9106 22.0094 84.3119 24.3595 84.7489C26.2153 85.1 27.0607 85.1717 29.1601 85.1788C30.9298 85.186 31.0158 85.1788 31.8398 84.9854C32.9862 84.7131 33.9821 84.362 34.9279 83.8963C36.4468 83.1583 37.4069 82.3988 39.6352 80.1992C40.4306 79.411 41.7346 78.2217 42.5227 77.5553C43.3109 76.8961 44.3283 76.0292 44.7797 75.6208C48.7276 72.0956 50.7911 70.6196 53.9867 69.0362C56.9171 67.5817 61.0728 66.2204 65.2428 65.3462C67.6861 64.8375 71.9492 64.4076 74.4784 64.4148C77.588 64.4291 79.0855 64.6154 84.0079 65.597C90.0049 66.7935 91.4451 67.1948 96.4391 69.0075C101.118 70.7128 108.856 73.3423 112.023 74.3024C112.732 74.5174 114.058 74.8756 114.96 75.0906C115.87 75.3127 117.124 75.6351 117.755 75.8142C120.091 76.4519 121.251 76.5881 123.809 76.5164C125.034 76.4806 125.88 76.5021 127.356 76.6024C129.075 76.717 130.107 76.7313 136.599 76.7099C146.644 76.6812 148.421 76.7672 152.827 77.4908C154.475 77.7631 155.507 78.021 156.496 78.408C158.086 79.0313 159.627 80.1849 160.401 81.3241C160.702 81.7612 160.995 82.3057 160.995 82.4132C160.995 82.449 160.759 82.406 160.479 82.3272C160.021 82.2054 159.727 82.1839 158.094 82.1839C154.253 82.1767 152.261 82.7213 151.244 84.0539C150.864 84.5483 150.678 85.143 150.492 86.4112C150.427 86.8411 150.327 87.2997 150.262 87.4286C149.675 88.6897 144.709 89.1984 131.225 89.3775C123.157 89.485 116.021 89.6713 114.76 89.8146C113.957 89.9006 113.384 90.1155 113.047 90.4523C112.818 90.6815 112.775 90.7675 112.775 91.0183C112.775 91.5628 113.105 91.9569 113.85 92.308L114.244 92.4943L110.339 92.5014C103.783 92.5158 100.151 92.7737 95.3285 93.5762C90.1052 94.4431 88.7726 94.7584 84.6169 96.0982C82.059 96.9294 81.3998 97.1658 79.9167 97.8035C79.2073 98.1044 78.1612 98.477 77.4447 98.6848C73.3965 99.8455 70.9103 100.92 66.9911 103.192C65.3646 104.13 63.3513 105.384 62.1547 106.201C60.6214 107.24 56.3869 110.493 54.6315 111.983C54.1586 112.377 52.8044 113.523 51.6222 114.527C49.1718 116.597 48.9927 116.755 48.7132 117.135C48.4553 117.478 48.4481 117.772 48.6846 118.002C49.0213 118.345 49.2506 118.252 50.4758 117.285C52.5107 115.666 57.0461 112.377 60.6142 109.927C66.6185 105.807 70.1795 103.636 74.7149 101.343C76.2195 100.584 76.542 100.447 77.5236 100.168C79.5656 99.5947 80.7478 99.3726 82.8973 99.1577C86.3006 98.8209 92.3335 99.0574 98.4811 99.7667C101.505 100.111 101.963 100.154 105.073 100.376C107.552 100.555 112.281 100.992 114.853 101.279C116.68 101.479 118.299 101.716 120.406 102.095C125.5 103.005 127.506 103.192 131.368 103.113C135.266 103.034 137.681 102.69 141.972 101.622C145.605 100.712 147.518 100.118 152.648 98.2979C154.346 97.696 156.89 96.8219 158.309 96.3633C161.432 95.3459 163.016 94.7871 165.545 93.7983C167.673 92.9743 169.45 92.3223 171.85 91.4912C172.717 91.1902 174.279 90.617 175.325 90.223C177.797 89.2915 180.42 88.3529 181.974 87.8442C183.178 87.4573 183.844 87.271 188.695 85.9813C193.453 84.7131 194.929 84.1614 196.333 83.1082C197.422 82.2914 197.852 81.582 197.852 80.6363C197.852 79.4684 197.171 78.802 195.136 78.021C193.811 77.5052 192.421 77.1827 190.694 76.9821C188.86 76.7672 183.02 76.7672 180.412 76.9821C177.941 77.1899 174.931 77.6628 172.008 78.3005C170.854 78.5584 169.572 78.8164 169.156 78.8737C168.375 78.9883 167.057 79.0241 166.555 78.9382C166.29 78.8952 166.305 78.888 166.914 78.7662C168.411 78.4581 169.701 77.8419 171.886 76.3731C172.775 75.7784 174.337 74.7252 175.361 74.0302C176.386 73.3423 177.804 72.4037 178.514 71.9523C179.223 71.5009 180.656 70.5408 181.702 69.8172C185.227 67.3954 185.492 67.2306 187.291 66.3708C188.215 65.9266 189.311 65.3534 189.727 65.0883C190.142 64.8303 190.644 64.5223 190.837 64.4076C191.482 64.0494 192.113 63.5335 192.815 62.817C193.524 62.0933 193.811 61.7064 194.441 60.6245C194.979 59.7146 195.122 59.2417 195.086 58.518C195.058 58.0021 195.015 57.8517 194.764 57.3358C194.406 56.6121 193.854 55.9888 193.173 55.5302C192.514 55.0932 191.998 54.8854 191.117 54.7063C189.619 54.4053 188.552 54.434 186.402 54.8424C185.779 54.9642 185.177 55.0573 185.062 55.0573C184.891 55.0573 184.805 54.9642 184.41 54.391C183.852 53.567 182.569 52.2702 181.817 51.7758C180.255 50.7369 178.707 50.2568 176.902 50.2568C174.38 50.2568 172.323 50.916 166.906 53.4667C163.732 54.957 161.096 56.0963 159.347 56.7268C158.975 56.8629 158.445 57.0707 158.18 57.1925C157.843 57.3501 157.685 57.386 157.664 57.3286C157.556 56.9847 157.477 52.7359 157.485 47.6058C157.492 44.2096 157.463 40.971 157.42 40.1184C157.377 39.2873 157.313 37.2882 157.27 35.6761C157.176 32.0578 157.126 31.1479 156.768 26.7199C156.61 24.7854 156.403 22.1773 156.302 20.9163C156.202 19.6553 156.073 18.1076 156.016 17.4771C155.966 16.8466 155.865 15.3276 155.801 14.1096C155.7 12.1392 155.607 10.9785 155.321 8.27014C155.271 7.76859 155.263 7.08076 155.306 6.19231C155.414 3.97833 155.392 2.85343 155.235 2.39487C154.69 0.804253 153.752 0.209564 151.573 0.0662613C150.262 -0.0125504 149.897 -0.0197144 148.743 0.0376053ZM152.72 1.63539C153.307 1.80019 153.572 2.02229 153.766 2.51668C153.952 2.99673 153.967 3.41946 153.873 6.44308C153.83 7.86174 153.838 8.52808 153.931 9.63148C153.995 10.3981 154.096 12.4616 154.153 14.2171C154.21 15.9725 154.318 18.3441 154.396 19.4833C154.475 20.6297 154.59 22.4783 154.654 23.6032C154.719 24.7281 154.848 26.7271 154.941 28.0454C155.156 30.9902 155.242 32.9033 155.299 35.6045C155.321 36.7437 155.392 39.2299 155.45 41.1215C155.536 43.7295 155.55 45.6927 155.521 49.2179C155.493 52.1484 155.5 54.3408 155.543 55.129C155.586 55.8168 155.672 57.2355 155.736 58.2744C155.801 59.3778 155.822 60.1875 155.786 60.2233C155.536 60.4741 151.416 62.0647 149.531 62.6379C147.64 63.2182 144.652 64.0135 144.365 64.0135C144.322 64.0135 144.43 63.9061 144.602 63.7771C144.788 63.6338 144.989 63.383 145.111 63.1537C145.476 62.4301 145.519 62.0217 145.591 58.5323C145.627 56.7554 145.698 53.9826 145.748 52.3705C145.856 49.0316 145.849 46.3089 145.734 44.6753C145.326 38.8359 145.247 38.0191 144.487 32.4161C144.179 30.1878 144.115 29.5429 143.979 27.4364C143.692 22.9583 143.678 20.8375 143.871 16.0441C143.921 14.8404 143.936 12.9274 143.907 10.9928C143.857 7.79009 143.921 5.85555 144.122 4.09297C144.179 3.59142 144.272 3.06838 144.33 2.93941C144.609 2.27307 145.935 1.82168 148.342 1.57091C149.625 1.43477 152.132 1.47776 152.72 1.63539ZM134.736 18.1578C136.792 18.2653 137.351 18.5662 137.716 19.7269C137.867 20.2213 137.917 20.73 138.146 24.1764C138.282 26.1969 138.29 26.7987 138.247 29.8725C138.218 32.0005 138.225 33.9565 138.275 34.9955C138.469 39.2801 138.512 40.8636 138.519 44.2383C138.533 47.441 138.512 48.0715 138.376 49.7553C137.996 54.1617 137.967 57.8732 138.29 60.6317C138.583 63.1752 139.522 64.0064 142.402 64.2715L142.975 64.3216L141.793 64.5581C139.608 64.9951 137.38 65.2674 133.661 65.5468C131.368 65.726 128.66 65.8764 127.793 65.8764H127.363L127.585 65.64C128.144 65.0525 128.388 64.164 128.782 61.2192C129.118 58.7258 129.183 57.7944 129.183 55.3439C129.183 53.3736 129.161 52.9365 128.932 50.5577C128.875 49.9559 128.796 48.5516 128.753 47.441C128.667 45.0049 128.595 44.1308 128.323 41.9813C128.029 39.7172 127.492 34.8235 127.349 33.1326C127.184 31.2482 127.184 28.1171 127.342 26.1825C127.721 21.6973 127.836 20.6512 128.115 19.4332C128.294 18.6665 128.431 18.4802 128.932 18.3369C129.713 18.1076 132.35 18.0288 134.736 18.1578ZM101.512 28.547C103.174 28.7189 104.428 28.9124 105.474 29.1632C106.921 29.5071 106.957 29.5931 106.685 31.9503C106.513 33.4048 106.506 34.5799 106.649 36.3496C106.728 37.2882 106.757 38.6424 106.749 41.1143C106.749 43.0059 106.764 44.6395 106.785 44.7398C106.807 44.8401 106.864 45.8862 106.907 47.0684C106.964 48.6949 106.964 50.393 106.893 54.0542C106.828 57.823 106.828 59.17 106.893 60.1445C107.101 63.1967 107.502 64.3073 108.619 64.8733C108.777 64.9522 108.906 65.031 108.906 65.0381C108.906 65.0668 108.569 65.031 106.434 64.7659C103.518 64.3933 102.472 64.3073 94.4185 63.7269C88.6722 63.3185 77.5809 62.2581 75.8756 61.9644L75.6248 61.9214L75.9831 61.7423C76.7354 61.3697 77.2155 60.7177 77.3803 59.8722C77.5236 59.17 77.4304 57.1209 77.2011 55.8813C76.7426 53.3449 76.6423 52.2487 76.6423 49.7911C76.6494 47.1257 76.936 43.9588 77.2011 43.6651C77.3301 43.5218 77.8316 43.4501 79.888 43.271C81.6148 43.1205 83.5708 43.0274 85.9424 42.9772C87.576 42.9414 87.9701 42.9486 88.0704 43.0274C88.357 43.2495 88.4501 46.1513 88.314 50.5434C88.1779 55.2436 88.4931 59.2417 89.138 60.9756C89.3457 61.5345 89.8831 62.0718 90.4563 62.3011C90.8576 62.4587 90.9794 62.4731 92.1759 62.4731C93.5587 62.4731 93.9815 62.4086 94.612 62.1148C95.3858 61.7494 95.8515 61.0831 96.002 60.1445C96.1166 59.428 96.0951 53.5025 95.9733 51.1166C95.8802 49.4185 95.873 48.3939 95.9375 44.9548C95.9805 42.2822 95.9805 39.4234 95.9375 36.8225C95.8659 32.4017 95.8515 32.0721 95.6437 30.0588C95.5649 29.2993 95.5148 28.6616 95.5219 28.6545C95.5363 28.6401 96.1883 28.5971 96.9764 28.547C97.7646 28.504 98.4882 28.4538 98.5885 28.4467C99.1474 28.3822 100.265 28.418 101.512 28.547ZM119.259 33.2759C120.04 33.4335 120.958 34.0353 121.23 34.5656C121.452 35.0026 121.509 35.5901 121.588 38.5779C121.631 40.1327 121.717 42.1318 121.774 43.0202C121.832 43.9087 121.91 45.1625 121.946 45.8145C122.047 47.5915 122.047 52.915 121.946 55.6305C121.803 59.2703 121.982 63.1824 122.34 64.4076C122.498 64.9665 122.856 65.4465 123.272 65.683L123.63 65.8836L121.624 65.8478C119.718 65.8048 116.78 65.6472 113.456 65.4107C112.632 65.3534 111.858 65.3032 111.736 65.3032C111.536 65.2961 111.55 65.2817 111.887 65.1313C112.797 64.7157 113.241 63.9777 113.413 62.5734C113.549 61.5345 113.707 57.0707 113.707 54.3408C113.714 52.9007 113.742 51.1453 113.778 50.4359C113.814 49.7266 113.864 47.8064 113.893 46.1728C113.943 42.8697 113.886 41.7234 113.492 38.6066C113.227 36.5001 113.141 35.2534 113.191 34.15L113.227 33.2759L113.449 33.2687C113.57 33.2615 114.029 33.2329 114.459 33.2042C115.476 33.1326 118.794 33.1827 119.259 33.2759ZM177.898 53.6315C179.359 53.868 180.799 54.9212 181.896 56.562C183.135 58.4105 183.981 58.6685 186.925 58.1025C188.989 57.7012 189.598 57.7084 191.16 58.1168C192.335 58.4249 192.786 58.6255 193.13 59.0124C193.381 59.2847 193.395 59.3277 193.359 59.6716C193.281 60.4382 193.059 60.8395 192.313 61.5846C191.382 62.5232 190.193 63.383 187.742 64.902C186.61 65.6113 184.683 66.8509 183.458 67.6533C180.549 69.5736 179.037 70.5193 177.726 71.2502C175.949 72.2318 173.498 73.7436 171.198 75.2625C168.519 77.0466 167.035 77.6771 165.366 77.7488C164.27 77.7989 163.589 77.7058 161.497 77.1971C159.77 76.7815 158.552 76.5594 157.871 76.5451C157.678 76.5379 157.427 76.5164 157.305 76.4877L157.098 76.4448L157.284 76.3229C157.384 76.2513 157.563 76.0149 157.678 75.7856L157.879 75.37L157.843 73.5429C157.807 71.6227 157.807 69.0863 157.836 64.1497L157.857 61.1762L159.011 60.689C159.648 60.4167 160.608 59.9725 161.139 59.7002C161.669 59.4208 162.464 59.0411 162.894 58.8548C165.502 57.7227 167.48 56.8414 169.02 56.1106C172.259 54.5845 174.308 53.8393 175.898 53.5957C176.285 53.5384 177.468 53.5599 177.898 53.6315ZM65.1282 61.6419L65.8088 61.6849L65.3431 61.7423C65.0852 61.7781 64.3615 61.8999 63.731 62.0145C61.9828 62.3441 61.4024 62.4373 60.994 62.4373C60.6716 62.4373 60.5999 62.4086 60.4996 62.2581C60.4423 62.165 60.4065 62.0575 60.428 62.0217C60.4853 61.9285 61.2519 61.7208 61.7821 61.6563C62.3195 61.5846 64.1896 61.5775 65.1282 61.6419ZM155.923 62.5591C155.937 62.8671 155.944 64.9235 155.944 67.1303C155.944 69.3371 155.973 71.9738 156.009 72.9841C156.066 74.5532 156.059 74.8326 155.973 74.8398C155.686 74.8685 154.884 74.8111 153.723 74.6893C149.216 74.2021 147.095 74.1233 143.62 74.2881C142.245 74.3526 140.052 74.4887 138.748 74.5819C132.3 75.0548 132.121 75.0548 126.424 74.718C119.116 74.2881 116.644 73.8725 111.056 72.1386C109.802 71.7445 99.3695 68.334 99.0184 68.1979C98.8823 68.1477 97.6714 67.7178 96.3316 67.2449C94.9917 66.7721 93.351 66.1774 92.6775 65.9266C91.2445 65.3821 90.5495 65.1671 89.095 64.7945C87.9128 64.5008 87.9772 64.4649 89.3816 64.6226C91.1585 64.816 94.9129 65.1599 98.087 65.4107C101.784 65.7045 102.787 65.8048 104.894 66.0914C108.347 66.5643 109.4 66.6717 112.596 66.8795C116.358 67.1231 117.998 67.1661 123.487 67.1661C129.032 67.1661 129.964 67.1375 134.127 66.8437C137.896 66.5714 139.5 66.3851 142.109 65.9051C145.455 65.2961 149.696 64.2213 152.469 63.2899C153.529 62.9388 155.335 62.2366 155.6 62.0862C155.865 61.9285 155.908 61.9859 155.923 62.5591ZM188.903 78.0569C191.153 78.1787 192.227 78.3506 193.668 78.845C195.631 79.5114 196.39 79.9986 196.39 80.6004C196.39 81.3169 195.337 82.234 193.668 82.9649C192.715 83.3804 191.189 83.8677 188.473 84.6128C184.289 85.7664 182.863 86.2034 179.947 87.2065C177.238 88.1451 171.334 90.1155 168.411 91.0541C167.623 91.3049 165.832 91.8996 164.435 92.3796C163.037 92.8525 160.651 93.612 159.132 94.0706C156.51 94.8587 154.21 95.6182 149.46 97.259C146.615 98.2334 145.662 98.5272 142.997 99.2293C136.398 100.97 131.855 101.594 127.506 101.35C125.636 101.25 125.077 101.171 121.803 100.591C116.831 99.7094 115.326 99.4944 111.235 99.0932C107.967 98.7636 106.628 98.649 104.75 98.5128C102.544 98.3552 101.232 98.2262 98.5527 97.9038C95.4933 97.5384 94.1319 97.4238 91.6385 97.3235C89.7828 97.2446 85.8922 97.2733 84.4019 97.3664L83.8645 97.4023L84.5094 97.1873C87.5402 96.1771 90.8647 95.4032 94.9416 94.7584C101.383 93.741 105.882 93.4544 115.247 93.4687C120.456 93.483 122.742 93.4257 127.32 93.1749C133.396 92.8454 134.499 92.8024 138.354 92.7379C140.582 92.7021 143.47 92.6591 144.767 92.6376C146.071 92.6161 147.296 92.5659 147.489 92.5301C147.69 92.4943 148.493 92.4083 149.281 92.351C153.888 91.9999 155.98 91.6846 157.9 91.0541C159.061 90.6672 159.734 90.2516 160.694 89.313C161.855 88.1738 162.421 87.0202 162.572 85.4511C162.607 85.1072 162.686 84.6486 162.751 84.4337C163.102 83.2658 162.421 81.3671 161.081 79.7908C160.909 79.5902 160.802 79.4182 160.845 79.4182C160.895 79.4182 161.246 79.497 161.626 79.5902C162.006 79.6905 162.98 79.8983 163.79 80.0559C167.035 80.6936 167.945 80.6506 172.388 79.6762C175.519 78.9883 179.094 78.4223 181.702 78.193C182.598 78.1142 185.034 78.021 186.789 77.9995C187.205 77.9924 188.158 78.021 188.903 78.0569ZM160.515 83.4951C160.845 83.6026 161.282 83.9751 161.282 84.1471C161.282 84.3477 160.759 84.9997 160.265 85.4225C159.591 85.9885 157.814 87.2495 157.098 87.6579C155.486 88.5822 153.422 89.3488 151.38 89.7644C149.754 90.1012 148.012 90.2301 142.223 90.4523C140.195 90.5311 138.261 90.6099 137.924 90.6314C137.587 90.6529 135.947 90.7532 134.27 90.8535C131.189 91.0326 129.72 91.1616 126.854 91.484C119.919 92.2793 114.989 92.1862 113.836 91.2404C113.692 91.1186 113.685 91.0971 113.778 90.9968C114.029 90.7389 114.688 90.6672 117.468 90.5597C120.27 90.4594 125.937 90.3376 131.368 90.2731C142.682 90.1227 148.235 89.6999 150.04 88.8401C150.993 88.3959 151.251 88.0018 151.545 86.533C151.846 85.057 152.039 84.6701 152.684 84.2546C153.279 83.8748 154.511 83.5667 155.98 83.4306C156.947 83.3446 160.179 83.3876 160.515 83.4951ZM161.017 87.0991C160.522 88.138 159.312 89.3918 158.337 89.8719C157.112 90.4737 154.067 91.0326 150.749 91.2691C150.234 91.3049 150.241 91.3049 151 91.1687C152.225 90.9466 154.067 90.4737 155.048 90.1155C156.818 89.4778 158.402 88.6037 160.422 87.1349C160.831 86.8339 161.182 86.6047 161.196 86.619C161.21 86.6333 161.132 86.8483 161.017 87.0991Z" fill="#1B1817"/>
</svg>
