<svg width="263" height="69" viewBox="0 0 263 69" fill="none" xmlns="http://www.w3.org/2000/svg">
<path d="M187.002 1.71682C187.078 1.74278 187.153 1.76875 187.232 1.7955C190.024 2.80261 192.212 6.05342 193.627 8.52426C194.21 9.54164 194.867 10.5105 195.527 11.4789C195.595 11.579 195.663 11.6792 195.731 11.7795C196.114 12.3442 196.505 12.9016 196.91 13.4506C196.963 13.5236 196.963 13.5236 197.018 13.5981C197.629 14.4186 198.333 15.1599 199.066 15.871C199.181 15.983 199.296 16.0957 199.41 16.2084C200.821 17.5889 202.327 18.874 203.81 20.175C203.993 20.3353 204.175 20.4958 204.358 20.6565C204.629 20.8955 204.901 21.1342 205.173 21.3725C205.239 21.4306 205.239 21.4306 205.307 21.4899C205.784 21.908 206.265 22.3208 206.758 22.7215C206.8 22.7562 206.843 22.7909 206.887 22.8266C207.086 22.9888 207.286 23.1501 207.488 23.3099C207.855 23.6037 208.198 23.9076 208.517 24.2532C208.547 24.2852 208.577 24.3172 208.608 24.3501C208.98 24.766 209.174 25.2667 209.157 25.8241C209.101 26.4495 208.957 27.0025 208.752 27.5938C208.714 27.7033 208.714 27.7033 208.675 27.8149C208.592 28.0549 208.508 28.2946 208.423 28.5342C208.409 28.5752 208.394 28.6162 208.38 28.6585C207.813 30.266 207.162 31.8252 206.462 33.3796C206.302 33.7357 206.146 34.0929 205.998 34.4544C205.982 34.494 205.966 34.5337 205.949 34.5746C205.933 34.6131 205.917 34.6516 205.901 34.6913C205.528 35.6029 205.095 36.4782 204.65 37.3567C204.119 38.4063 203.624 39.4694 203.139 40.5413C202.738 41.4287 202.319 42.3021 201.87 43.166C201.509 43.8604 201.206 44.536 201.021 45.2998C200.958 45.5541 200.882 45.8044 200.807 46.0552C200.784 46.1319 200.784 46.1319 200.761 46.2102C200.59 46.7736 200.387 47.3258 200.181 47.8771C200.155 47.9478 200.13 48.0185 200.103 48.0913C200.08 48.154 200.056 48.2167 200.032 48.2813C199.966 48.5193 199.925 48.7565 200.024 48.9891C201.368 50.6402 204.473 52.0266 206.566 52.3578C206.569 52.2753 206.572 52.1928 206.575 52.1078C206.621 51.1417 206.744 50.1944 206.884 49.2381C207.213 46.9761 207.481 44.7081 207.663 42.4296C207.709 41.85 207.76 41.2715 207.821 40.6933C207.965 39.3173 208.056 37.9594 208.067 36.5761C208.115 30.9153 208.115 30.9153 208.876 28.6686C208.892 28.6204 208.909 28.5722 208.925 28.5225C210.021 25.3061 210.021 25.3061 211.092 24.5166C211.44 24.366 211.752 24.3282 212.128 24.3581C212.177 24.3618 212.227 24.3655 212.279 24.3694C212.805 24.4149 213.326 24.4974 213.848 24.5793C213.893 24.5864 213.938 24.5935 213.985 24.6008C214.413 24.6678 214.841 24.7352 215.268 24.8056C215.504 24.8445 215.741 24.8817 215.977 24.9179C216.066 24.9318 216.155 24.9463 216.243 24.9614C216.821 25.0598 217.213 25.0461 217.753 24.8212C219.256 24.5386 220.855 25.022 222.307 25.3762C222.412 25.4016 222.412 25.4016 222.52 25.4274C222.903 25.5235 223.277 25.6299 223.65 25.7601C224.767 26.1449 225.832 26.3257 227.001 26.4469C227.242 26.4723 227.482 26.5 227.723 26.5276C228.103 26.5709 228.483 26.6135 228.863 26.6553C229.479 26.723 230.094 26.7946 230.708 26.8735C230.758 26.8799 230.807 26.8862 230.859 26.8928C232.661 27.1265 234.454 27.4411 236.246 27.7436C236.539 27.7928 236.831 27.8409 237.123 27.8883C237.323 27.9207 237.522 27.9538 237.721 27.987C237.814 28.0023 237.908 28.0175 238.001 28.0323C239.388 28.2534 241.098 28.6889 242.048 29.7897C242.209 30.031 242.337 30.2793 242.456 30.5429C242.48 30.5949 242.504 30.647 242.529 30.7006C242.67 31.061 242.71 31.4184 242.738 31.801C242.742 31.8557 242.746 31.9103 242.751 31.9667C242.788 32.5137 242.791 33.0587 242.783 33.6067C242.78 33.7681 242.779 33.9295 242.778 34.0909C242.772 34.678 242.74 35.2493 242.644 35.8294C242.601 36.1101 242.603 36.2865 242.749 36.5328C242.829 36.6308 242.912 36.7261 242.997 36.8196C243.077 36.9202 243.157 37.0208 243.236 37.1215C243.388 37.3112 243.546 37.495 243.705 37.6791C243.735 37.7143 243.765 37.7495 243.796 37.7858C244.698 38.839 245.76 39.8045 246.95 40.5205C247.016 40.5604 247.082 40.6002 247.15 40.6413C250.184 42.3375 254.011 41.5109 257.172 40.6313C257.507 40.5338 257.836 40.4242 258.164 40.3074C258.274 40.2695 258.274 40.2695 258.385 40.2309C259.532 39.8276 260.634 39.3289 261.677 38.7037C261.736 38.6686 261.736 38.6686 261.796 38.6327C261.874 38.5859 261.952 38.5389 262.03 38.4915C262.122 38.4361 262.215 38.3827 262.309 38.3297C262.329 38.3367 262.348 38.3438 262.369 38.351C262.26 38.7103 262.147 39.0677 262.029 39.4242C261.99 39.5453 261.952 39.6668 261.915 39.7887C261.575 40.9095 261.575 40.9095 261.099 41.2083C260.909 41.3102 260.715 41.3947 260.516 41.4798C260.4 41.5509 260.285 41.624 260.172 41.7C259.269 42.2503 258.272 42.7077 257.266 43.0309C257.146 43.0744 257.027 43.1179 256.907 43.1615C255.52 43.6371 254.081 43.9474 252.623 44.0969C252.496 44.1101 252.369 44.1249 252.243 44.1397C250.991 44.2812 249.76 44.2575 248.51 44.1162C248.438 44.1088 248.366 44.1015 248.292 44.0939C245.818 43.7538 243.559 41.8352 242.009 39.9847C242.006 40.0254 242.003 40.0662 242 40.1081C241.963 40.5386 241.908 40.9644 241.845 41.3917C241.622 42.9005 241.431 44.4095 241.273 45.9264C241.086 47.7218 240.862 49.5099 240.617 51.2986C240.553 51.769 240.491 52.2397 240.431 52.7107C240.198 54.5218 239.89 56.3179 239.561 58.1138C239.546 58.1932 239.546 58.1932 239.531 58.2741C239.413 58.9179 239.288 59.5603 239.157 60.2018C239.147 60.2544 239.136 60.307 239.125 60.3612C238.845 61.7391 238.561 63.1161 238.227 64.482C238.186 64.65 238.148 64.8184 238.109 64.987C237.96 65.6315 237.769 66.2581 237.555 66.8842C237.518 66.9955 237.518 66.9955 237.48 67.109C237.273 67.6957 236.993 68.1004 236.437 68.3975C236.013 68.5584 235.548 68.5136 235.118 68.4034C235.059 68.3885 235 68.3736 234.94 68.3582C234.844 68.3336 234.844 68.3336 234.747 68.3084C234.68 68.2913 234.612 68.2741 234.543 68.2565C234.398 68.2193 234.253 68.1821 234.108 68.1447C233.877 68.0854 233.646 68.0264 233.415 67.9674C232.683 67.7799 231.952 67.5903 231.223 67.3934C229.565 66.9464 227.903 66.5643 226.219 66.2261C222.891 65.5564 222.891 65.5564 221.972 65.3478C221.908 65.3332 221.908 65.3332 221.842 65.3184C219.459 64.7677 217.131 64.0479 214.823 63.2426C214.512 63.1344 214.201 63.0271 213.89 62.9197C213.362 62.7374 212.834 62.5536 212.307 62.369C212.023 62.2697 211.739 62.1721 211.453 62.0773C211.337 62.0389 211.222 61.9999 211.106 61.9609C210.975 61.9167 210.844 61.8734 210.712 61.8313C210.003 61.5891 209.548 61.1287 209.221 60.4653C208.556 58.9641 208.36 57.2883 208.176 55.6724C208.143 55.3907 208.108 55.1093 208.074 54.8279C208.062 54.7361 208.051 54.6442 208.04 54.5524C208.032 54.4888 208.024 54.4252 208.016 54.3596C207.982 54.3708 207.947 54.3819 207.912 54.3934C206.177 54.9279 203.099 52.9938 201.559 52.1782C198.781 50.6646 198.781 50.6646 198.298 49.2974C198.214 48.9756 198.16 48.6512 198.272 48.3338C198.223 48.3381 198.173 48.3425 198.121 48.347C194.158 48.6365 190.782 45.2954 187.936 42.9969C187.519 42.6607 187.102 42.3255 186.683 41.9913C186.638 41.9547 186.592 41.9181 186.545 41.8805C181.611 37.9434 177.023 35.5727 170.56 36.2992C170.484 36.3078 170.409 36.3164 170.331 36.3253C170.262 36.333 170.192 36.3408 170.12 36.3488C169.353 36.4352 168.591 36.5444 167.829 36.6703C167.185 36.7759 166.539 36.8646 165.892 36.9521C165.805 36.9639 165.718 36.9757 165.63 36.9876C165.588 36.9933 165.546 36.999 165.502 37.0049C165.205 37.0454 164.908 37.0897 164.612 37.1354C163.415 37.3186 162.183 37.4855 160.972 37.3993C160.916 37.3959 160.861 37.3925 160.804 37.389C160.122 37.3281 159.562 37.058 159.099 36.5532C158.941 36.2895 158.834 36.014 158.73 35.7252C158.568 35.8249 158.407 35.9246 158.25 36.0316C157.276 36.6851 156.44 36.7498 155.311 36.5742C155.13 36.5464 154.949 36.5194 154.767 36.4932C154.723 36.4868 154.679 36.4805 154.633 36.4739C154.229 36.4195 153.83 36.4114 153.422 36.413C153.223 36.4079 153.223 36.4079 153.043 36.3441C152.946 38.1695 152.981 39.89 153.325 41.6901C153.783 44.095 153.783 44.095 153.122 45.1072C152.657 45.6741 152.072 45.9298 151.354 46.0086C151.28 46.0171 151.28 46.0171 151.206 46.0258C150.636 46.0891 150.066 46.1247 149.494 46.156C149.438 46.1591 149.381 46.1623 149.323 46.1655C147.525 46.2647 145.768 46.3045 143.976 46.108C143.912 46.1012 143.849 46.0944 143.783 46.0874C142.656 45.961 141.383 45.7716 140.589 44.883C140.183 44.3237 140.079 43.6447 139.959 42.9802C139.909 42.7201 139.846 42.463 139.785 42.2055C139.748 42.0392 139.748 42.0392 139.732 41.8828C139.724 41.7469 139.724 41.7469 139.61 41.6437C139.559 41.6062 139.509 41.5687 139.456 41.53C139.389 41.4797 139.322 41.4295 139.253 41.3776C138.885 41.1407 138.518 41.0966 138.089 41.1643C137.755 41.2512 137.509 41.439 137.299 41.7113C136.994 42.3519 136.913 42.9952 136.862 43.6941C136.854 43.7881 136.846 43.882 136.838 43.976C136.824 44.1472 136.81 44.3183 136.797 44.4896C136.737 45.1722 136.568 45.7336 136.044 46.2013C135.483 46.6373 134.822 46.6267 134.144 46.5624C134.07 46.5557 133.996 46.549 133.92 46.5421C132.741 46.4228 131.574 46.2053 130.408 45.9992C130.269 45.9749 130.131 45.9511 129.992 45.9277C128.603 45.6916 127.251 45.3282 125.927 44.8432C125.889 44.8935 125.85 44.9437 125.81 44.9955C125.692 45.1443 125.594 45.2432 125.439 45.3504C125.4 45.379 125.36 45.4076 125.319 45.4371C124.871 45.6386 124.394 45.6365 123.913 45.5951C123.792 45.5863 123.67 45.5775 123.548 45.5687C123.48 45.5636 123.413 45.5584 123.343 45.5532C121.493 45.4139 119.669 45.3708 117.814 45.4287C116.738 45.4597 115.661 45.4381 114.585 45.4166C114.603 45.4815 114.622 45.5465 114.641 45.6134C115.014 46.964 115.255 48.5497 114.601 49.8532C114.192 50.5482 113.706 51.13 113.015 51.553C112.973 51.5804 112.932 51.6077 112.889 51.6359C112.043 52.119 110.874 52.0095 109.967 51.7816C109.126 51.5141 108.387 50.9688 107.957 50.1867C107.395 49.0967 107.371 47.9748 107.353 46.7715C107.343 46.0898 107.296 45.4279 107.191 44.7543C107.185 44.7108 107.178 44.6673 107.172 44.6225C107.078 44.0048 106.927 43.4219 106.726 42.8313C106.6 42.809 106.474 42.7867 106.345 42.7638C106.325 42.7999 106.306 42.8361 106.285 42.8734C104.656 45.8727 104.656 45.8727 103.254 46.3671C102.077 46.6836 100.634 46.3769 99.5222 45.9632C99.4541 45.9385 99.3861 45.9137 99.3159 45.8882C99.1505 45.8279 98.9853 45.7671 98.8203 45.7058C99.1388 46.2854 99.4775 46.8462 99.845 47.3961C99.8829 47.4529 99.9209 47.5097 99.9599 47.5683C100.121 47.8094 100.283 48.05 100.447 48.2897C101.225 49.4527 101.735 50.6297 101.532 52.0608C101.395 52.7206 101.003 53.2684 100.456 53.6552C99.5234 54.2484 98.5097 54.4138 97.4259 54.2029C96.4406 53.9464 95.5745 53.3715 94.7569 52.7828C94.7761 52.8526 94.7954 52.9225 94.8152 52.9944C95.1216 54.1363 95.3179 55.3371 94.8057 56.4509C94.3794 57.1528 93.8249 57.6279 93.0273 57.8483C91.8806 58.0077 90.9666 57.5703 90.0466 56.926C88.9679 56.0996 88.1088 55.0714 87.5717 53.8169C87.5836 53.88 87.5955 53.9432 87.6077 54.0082C88.0559 56.4202 88.0559 56.4202 87.3955 57.4034C87.2871 57.5308 87.1758 57.6446 87.0516 57.7565C86.9963 57.8066 86.9409 57.8567 86.8839 57.9083C86.1844 58.3402 85.4579 58.4665 84.6553 58.2794C82.6755 57.6643 80.99 56.0787 79.5268 54.6694C77.1443 52.3751 74.9072 50.747 71.5453 50.3908C71.3968 50.3727 71.2526 50.3478 71.1061 50.3182C70.8645 50.2788 70.6937 50.2693 70.4527 50.3127C70.3113 50.4206 70.2021 50.5184 70.0818 50.6462C70.0097 50.719 69.9376 50.7919 69.8655 50.8647C69.8276 50.9036 69.7898 50.9424 69.7508 50.9825C69.5457 51.1913 69.3349 51.3942 69.1247 51.5978C69.0356 51.6845 68.9466 51.7711 68.8575 51.8578C68.0094 52.6813 67.1655 53.4985 66.23 54.2233C66.1786 54.2633 66.1271 54.3033 66.0741 54.3446C65.0551 55.1326 64.0141 55.8914 62.865 56.4775C62.7655 56.5348 62.6662 56.5925 62.5672 56.6507C61.4261 57.2902 60.0808 57.5968 58.8309 57.9534C58.7659 57.9721 58.7659 57.9721 58.6995 57.9912C55.4205 58.9306 55.4205 58.9306 54.2343 58.351C53.6266 57.9995 53.2187 57.4561 53.0375 56.777C52.904 55.9784 53.1756 55.2708 53.6277 54.6181C54.3266 53.674 55.2846 52.9781 56.2835 52.3847C56.3236 52.3607 56.3637 52.3367 56.405 52.312C57.4422 51.6938 58.5281 51.0939 59.6525 50.6514C59.9754 50.5242 60.2918 50.3845 60.6086 50.243C61.1039 50.0243 61.5999 49.8256 62.1133 49.6528C62.2145 49.6174 62.3156 49.582 62.4168 49.5466C64.2913 48.8978 66.4882 48.2751 68.4948 48.3445C68.7174 48.3178 68.8037 48.2302 68.9679 48.0794C69.025 48.0279 69.082 47.9764 69.1408 47.9234C69.2005 47.8683 69.2602 47.8132 69.3217 47.7564C69.4453 47.6452 69.5691 47.5341 69.6931 47.4231C69.7521 47.3702 69.811 47.3173 69.8718 47.2628C70.1565 47.0115 70.4547 46.7861 70.7676 46.5708C70.8286 46.5282 70.8895 46.4856 70.9524 46.4417C71.9835 45.7376 73.0628 45.1678 74.2446 44.762C74.3342 44.7298 74.4237 44.6974 74.5132 44.665C75.7017 44.2373 76.9263 43.9451 78.1581 43.6721C79.1814 43.4449 80.1964 43.1867 81.2119 42.9272C81.5934 42.8297 81.9752 42.7334 82.3569 42.637C82.5409 42.5904 82.7248 42.5439 82.9088 42.4973C83.0071 42.4725 83.1054 42.4476 83.2037 42.4227C83.4139 42.3696 83.6241 42.3164 83.8343 42.2632C84.3452 42.1339 84.8562 42.0047 85.3673 41.8761C86.1134 41.6882 86.8592 41.4996 87.602 41.2985C88.2686 41.1181 88.9386 40.9518 89.6096 40.7888C91.6882 40.2838 93.7701 39.7777 95.7434 38.9335C95.9079 38.8641 96.0738 38.8019 96.2412 38.7398C96.7158 38.5519 97.2129 38.2898 97.4549 37.8206C97.5459 37.5763 97.5971 37.3958 97.5834 37.1328C97.1345 36.1592 95.8364 35.5912 94.8864 35.2313C92.6521 34.4167 90.3531 34.1619 88.0015 33.9574C87.9393 33.952 87.8772 33.9466 87.8132 33.941C85.1825 33.7125 82.5754 33.5616 79.9348 33.5406C77.3155 33.5197 74.7584 33.3623 72.1657 32.9745C72.0348 32.955 71.9037 32.9361 71.7727 32.9173C69.1883 32.5423 69.1883 32.5423 68.5431 31.7191C68.2206 31.2636 68.0385 30.8433 68.1084 30.2803C68.234 29.5798 68.7845 29.0957 69.3316 28.685C73.696 25.8177 80.8204 26.3416 89.8267 27.484C90.6767 27.6614 91.5259 27.8423 92.3744 28.0261C92.4456 28.0414 92.5167 28.0567 92.59 28.0725C92.7251 28.1017 92.8602 28.131 92.9953 28.1605C93.0554 28.1735 93.1156 28.1864 93.1775 28.1998C93.2302 28.2112 93.2829 28.2227 93.3372 28.2345C93.4685 28.2633 93.4685 28.2633 93.6081 28.2391C92.7036 26.9822 91.6984 25.9644 90.4153 25.0877C90.3802 25.0637 90.3451 25.0396 90.309 25.0148C89.5959 24.527 88.8642 24.0722 88.1248 23.6252C87.7561 23.4021 87.3884 23.1774 87.0209 22.9523C86.9655 22.9183 86.9655 22.9183 86.9089 22.8837C86.1824 22.4383 85.4679 21.9758 84.7563 21.5071C83.6979 20.8107 82.6236 20.145 81.5383 19.4915C81.4163 19.4181 81.2943 19.3446 81.1723 19.2712C81.1128 19.2353 81.0533 19.1995 80.9919 19.1625C80.4537 18.8377 79.9216 18.5034 79.3899 18.1678C78.0288 17.3101 76.64 16.5628 75.152 15.9448C75.1087 15.9266 75.0655 15.9085 75.0209 15.8898C74.4668 15.6618 73.891 15.5219 73.3102 15.3801C73.2374 15.3622 73.1646 15.3443 73.0895 15.3259C72.4263 15.17 71.7816 15.0661 71.103 15.1675C71.0549 15.1742 71.0067 15.1809 70.9571 15.1877C69.4726 15.4024 68.1534 15.9903 66.8089 16.6273C66.7526 16.6539 66.6963 16.6805 66.6384 16.708C66.2722 16.8834 65.9181 17.0744 65.566 17.2765C65.4912 17.3183 65.4164 17.3599 65.3415 17.4016C64.7142 17.7582 64.1298 18.1626 63.5477 18.5887C63.507 18.6184 63.4662 18.6481 63.4243 18.6787C61.6019 20.0095 59.9427 21.5677 58.2709 23.0803C56.4482 24.7276 54.6008 26.3248 52.6005 27.7533C52.5623 27.7807 52.5242 27.808 52.4849 27.8362C51.6922 28.4029 50.8733 28.9194 50.0294 29.4058C49.832 29.5199 49.6387 29.6399 49.4453 29.7609C48.886 30.1019 48.2977 30.3904 47.7127 30.6843C47.605 30.7389 47.605 30.7389 47.4951 30.7945C47.052 31.0133 46.5966 31.1787 46.13 31.3397C46.0394 31.3724 45.9488 31.4053 45.8583 31.4382C43.768 32.1919 43.768 32.1919 43.3789 32.0539C42.6224 36.9474 43.2567 41.9941 45.025 46.6327C45.0562 46.7153 45.0873 46.7978 45.1184 46.8803C45.1674 47.0105 45.2166 47.1407 45.2661 47.2707C45.365 47.5313 45.4585 47.7932 45.5493 48.0568C45.9404 49.1546 46.4334 50.2674 47.0188 51.2756C47.1064 51.4302 47.1881 51.5873 47.2696 51.7451C47.507 52.2036 47.77 52.6394 48.0495 53.0732C48.1764 53.2704 48.2951 53.4714 48.4128 53.6743C48.6441 54.0607 48.9098 54.4178 49.1775 54.7794C49.4627 55.1677 49.7294 55.5656 49.9904 55.9706C50.4606 56.6995 50.939 57.4228 51.4845 58.098C51.9428 58.6779 52.2664 59.3073 52.3053 60.054C52.1691 60.8322 51.845 61.373 51.2074 61.8406C50.7847 62.1143 50.3358 62.305 49.8665 62.4804C49.7914 62.5086 49.7163 62.5368 49.6389 62.5658C48.4801 62.9701 47.2626 63.1583 46.0535 63.3421C43.7141 63.6984 41.4493 64.2782 39.1908 64.9806C39.1132 65.0045 39.0355 65.0285 38.9554 65.0532C37.7521 65.4264 36.5516 65.8124 35.3576 66.2146C35.0639 66.3134 34.7698 66.411 34.4753 66.5073C34.3691 66.5421 34.2629 66.5771 34.1569 66.6124C33.5303 66.8195 32.929 66.9933 32.2898 66.724C31.8281 66.4526 31.4603 66.0127 31.3114 65.498C31.2577 65.1825 31.225 64.866 31.1921 64.5478C31.0821 63.5309 30.951 62.5257 30.6529 61.5457C30.6023 61.3793 30.5538 61.2122 30.5054 61.0452C30.3201 60.4127 30.1176 59.7893 29.894 59.1695C29.5965 58.3418 29.3503 57.5004 29.1162 56.6527C29.0888 56.5542 29.0888 56.5542 29.0608 56.4537C28.9411 56.0137 28.8375 55.5718 28.7389 55.1266C28.5818 54.4181 28.4037 53.7159 28.221 53.0137C28.1663 52.8036 28.112 52.5935 28.0577 52.3833C27.9863 52.1071 27.9149 51.8308 27.8434 51.5545C27.1733 48.964 26.678 46.3787 26.3446 43.7239C26.3365 43.6598 26.3365 43.6598 26.3282 43.5944C26.0795 41.6246 26.036 39.6635 26.0204 37.6805C26.0194 37.5579 26.0194 37.5579 26.0184 37.4328C26.0166 37.196 26.0152 36.9593 26.014 36.7225C26.0135 36.6524 26.0131 36.5823 26.0126 36.5101C26.0077 35.1666 26.0959 33.7882 27.0629 32.7558C27.101 32.7151 27.1392 32.6743 27.1785 32.6323C28.2665 31.5824 30.0914 31.2477 31.5072 30.8845C31.5514 30.873 31.5955 30.8615 31.641 30.8496C32.6032 30.6001 33.5777 30.4357 34.5582 30.2767C34.6569 30.2603 34.7555 30.2439 34.8542 30.2275C36.9737 29.8889 39.1351 29.7825 41.2732 29.6166C41.4151 29.1538 41.557 28.691 41.7032 28.2142C39.8857 28.1724 38.0822 28.2103 36.2672 28.3139C36.2165 28.3168 36.1659 28.3197 36.1137 28.3226C31.4863 28.4648 31.4863 28.4648 27.2095 29.9619C26.9694 30.1102 26.7255 30.2504 26.4804 30.3899C26.136 30.5866 25.7971 30.7895 25.4614 31.0008C25.2102 31.156 24.9547 31.3037 24.6992 31.4518C24.4529 31.5949 24.2085 31.7407 23.9654 31.8893C23.2572 32.32 22.5381 32.7274 21.8028 33.1097C21.6412 33.1937 21.4807 33.2792 21.3209 33.3665C19.8557 34.1653 18.1919 34.7457 16.5195 34.3479C15.2172 33.9583 14.4795 32.9191 13.8613 31.783C13.7609 31.5945 13.6644 31.4043 13.5684 31.2135C13.5336 31.1447 13.4988 31.0759 13.463 31.005C13.2637 30.5989 13.1039 30.1899 12.9558 29.7626C12.6922 28.9968 12.6922 28.9968 12.1422 28.4427C11.5504 28.3284 10.997 28.6772 10.5218 28.9987C10.1673 29.2536 9.84626 29.5484 9.52967 29.8483C9.49759 29.8787 9.46551 29.9091 9.43245 29.9404C7.68841 31.6114 6.41669 33.7654 5.17654 35.8198C5.14794 35.8671 5.11934 35.9144 5.08988 35.9631C4.95196 36.1911 4.81464 36.4194 4.67857 36.6485C4.13945 37.549 3.52817 38.483 2.45155 38.763C2.10513 38.8159 1.86136 38.8067 1.54818 38.6453C1.16133 38.3372 0.946367 38.0143 0.865749 37.5243C0.829583 36.8813 1.0838 36.2573 1.39129 35.7055C1.41681 35.6592 1.44233 35.6128 1.46862 35.5651C1.77344 35.0157 2.09531 34.4766 2.42037 33.9391C2.46835 33.8596 2.46835 33.8596 2.51729 33.7786C3.40481 32.3107 4.34274 30.8891 5.38994 29.529C5.43722 29.4669 5.43722 29.4669 5.48544 29.4036C6.97551 27.4535 8.96602 25.5302 11.4729 25.0956C12.6024 24.9822 13.5378 25.2942 14.4262 25.9761C15.3007 26.726 15.7924 27.8115 16.15 28.8842C16.2234 29.0954 16.298 29.3061 16.3728 29.5168C16.3918 29.5704 16.4108 29.6239 16.4303 29.6791C16.702 30.6078 16.702 30.6078 17.2591 31.3564C17.6546 31.5422 18.1065 31.4088 18.5006 31.2732C19.2045 30.9993 19.8688 30.6719 20.5093 30.271C20.6893 30.1608 20.8719 30.0608 21.0585 29.9622C21.3949 29.7821 21.7147 29.5822 22.0356 29.3761C22.353 29.1728 22.6758 28.9807 23.0021 28.7922C23.2442 28.6523 23.4841 28.5095 23.7226 28.3636C26.0392 26.9533 28.1861 26.199 30.8579 25.7778C31.0095 25.7539 31.161 25.7298 31.3125 25.7053C34.2827 25.2279 37.3426 25.1921 40.3413 25.3098C40.4289 25.3132 40.4289 25.3132 40.5182 25.3167C41.138 25.3411 41.7567 25.3731 42.375 25.4221C42.4249 25.4258 42.4749 25.4296 42.5264 25.4335C43.1383 25.4851 43.6287 25.6058 44.1009 26.0225C44.4862 26.5017 44.5643 27.0163 44.5256 27.6175C44.4636 28.1191 44.3343 28.6153 44.2216 29.1077C45.4349 28.6873 46.6186 28.227 47.7333 27.5816C47.8119 27.5367 47.8905 27.4919 47.9691 27.4471C48.4226 27.1881 48.8736 26.9259 49.319 26.6531C49.4717 26.5597 49.6247 26.4673 49.7782 26.3755C50.7611 25.7853 51.7197 25.1539 52.625 24.4493C52.6626 24.4202 52.7001 24.3912 52.7387 24.3612C53.9326 23.4353 55.1055 22.4826 56.2371 21.4812C56.786 20.9956 57.3449 20.5224 57.9058 20.0507C58.0667 19.915 58.2272 19.7788 58.3876 19.6424C59.8586 18.391 61.3546 17.1894 62.9916 16.1604C63.0547 16.1205 63.1178 16.0807 63.1829 16.0397C63.6959 15.7221 64.2264 15.4424 64.7621 15.1659C64.8736 15.108 64.9851 15.0501 65.0966 14.9922C65.2126 14.9322 65.3285 14.8722 65.4445 14.8122C65.4982 14.7844 65.5519 14.7566 65.6072 14.7279C66.1281 14.4596 66.6503 14.2013 67.1973 13.9902C67.3117 13.9451 67.4253 13.8977 67.5381 13.8486C69.4746 13.0086 71.5094 12.756 73.5765 13.1548C73.6232 13.1638 73.6699 13.1728 73.718 13.1821C74.0067 13.2392 74.2927 13.3048 74.5785 13.3751C74.6455 13.3912 74.7125 13.4074 74.7816 13.4241C76.5184 13.8789 78.1855 14.5951 79.7729 15.4252C79.8361 15.4582 79.8361 15.4582 79.9006 15.492C80.9827 16.0599 82.0296 16.6861 83.0764 17.316C83.2778 17.437 83.4795 17.5572 83.6812 17.6775C84.7843 18.3353 85.8738 19.0099 86.9495 19.7115C87.7992 20.2652 88.6662 20.7881 89.5371 21.3078C91.8715 22.7028 94.0916 24.1903 95.6555 26.464C95.6882 26.5113 95.7209 26.5585 95.7545 26.6072C95.8887 26.8015 96.0227 26.9959 96.1557 27.191C96.4258 27.5862 96.7088 27.9704 96.9985 28.3513C97.6817 29.2526 97.6817 29.2526 97.7454 29.707C97.7173 29.7862 97.6892 29.8655 97.6602 29.9472C97.717 29.9453 97.7738 29.9434 97.8323 29.9414C98.0899 29.9563 98.2856 30.0182 98.5275 30.107C98.5697 30.122 98.612 30.1371 98.6555 30.1526C98.8993 30.2416 99.1199 30.3464 99.3467 30.4737C99.7501 30.6655 100.117 30.5442 100.529 30.424C100.602 30.4027 100.676 30.3815 100.751 30.3595C101.793 30.0207 102.588 29.2573 103.107 28.2961C103.5 27.4636 103.727 26.5189 103.522 25.6038C103.265 25.0131 102.71 24.7442 102.135 24.5162C102.061 24.4849 102.061 24.4849 101.986 24.4529C101.149 24.1135 100.301 24.0681 99.4111 24.0484C99.2539 24.0443 99.0968 24.0399 98.9396 24.0354C98.8428 24.0327 98.746 24.0303 98.6492 24.0281C97.863 24.0083 97.0743 23.8029 96.5116 23.2289C95.8879 22.4507 95.8574 21.4417 95.9539 20.4852C96.0238 19.908 96.1217 19.3363 96.2893 18.7787C96.3118 18.7036 96.3118 18.7036 96.3347 18.6269C96.7508 17.3572 97.4305 16.162 98.6449 15.5284C101.738 14.0874 106.122 14.5126 109.457 14.3909C109.409 14.1261 109.338 13.8798 109.252 13.6251C108.723 11.9694 108.502 9.98356 109.233 8.36195C109.765 7.44867 110.68 6.76396 111.703 6.49058C113.26 6.1702 114.905 6.47548 116.249 7.33724C117.318 8.09306 118.085 9.15235 118.35 10.4469C118.556 11.6847 118.338 12.7056 117.88 13.8635C118.615 13.9095 119.35 13.9505 120.085 13.9771C121.711 14.0363 123.311 14.1487 124.92 14.4046C125.029 14.4217 125.029 14.4217 125.14 14.439C126.147 14.6089 126.783 14.9345 127.403 15.7546C127.425 15.6981 127.425 15.6981 127.447 15.6405C127.811 14.7654 128.442 14.1319 129.306 13.7463C131.26 13.0461 133.756 13.1859 135.631 14.0391C136.804 14.6003 137.814 15.3202 138.499 16.4459C138.554 16.5311 138.554 16.5311 138.61 16.618C138.972 17.2281 139.094 17.9376 139.22 18.6266C139.343 19.2584 139.57 19.7428 140.084 20.1422C140.399 20.3337 140.744 20.4403 141.096 20.5447C141.142 20.433 141.189 20.3213 141.235 20.2095C141.277 20.1099 141.318 20.0103 141.36 19.9107C141.471 19.6435 141.58 19.3757 141.684 19.1054C141.982 18.335 142.294 17.5817 142.952 17.0494C143.26 16.7964 143.389 16.5121 143.552 16.1569C143.747 15.7347 143.972 15.4106 144.372 15.1618C145.171 14.8867 145.826 14.9726 146.587 15.3414C146.714 15.4048 146.84 15.4687 146.966 15.5328C147.513 15.8082 147.899 15.9149 148.507 15.8688C148.726 15.8716 148.909 15.9225 149.12 15.9799C149.574 16.082 149.858 15.9806 150.279 15.7992C150.615 15.6596 150.961 15.5881 151.318 15.5173C151.311 15.3456 151.304 15.174 151.296 15.0024C151.293 14.9456 151.29 14.8889 151.287 14.8304C151.284 14.7736 151.281 14.7168 151.278 14.6582C151.273 13.6374 152.05 12.7271 152.719 12.0266C152.755 11.9882 152.792 11.9498 152.83 11.9102C153.311 11.409 153.813 10.9277 154.314 10.4462C154.482 10.2851 154.649 10.1237 154.816 9.96216C155.34 9.45663 155.869 8.95855 156.418 8.47982C156.789 8.15563 157.146 7.81779 157.503 7.47757C158.119 6.8949 158.752 6.34135 159.418 5.81581C159.469 5.77539 159.52 5.73497 159.573 5.69332C159.901 5.43444 160.23 5.17745 160.56 4.92108C160.777 4.75307 160.992 4.58432 161.207 4.41549C161.369 4.28881 161.531 4.16243 161.693 4.03606C161.935 3.84735 162.175 3.65704 162.415 3.46602C163.075 2.94266 163.72 2.45967 164.462 2.06169C164.52 2.0249 164.577 1.9881 164.636 1.95019C165.725 1.29564 167.155 1.22341 168.383 1.06166C168.626 1.02874 168.868 0.991849 169.111 0.953867C171.703 0.552577 174.392 0.356151 177.014 0.362369C177.091 0.3623 177.169 0.362236 177.248 0.362164C179.682 0.369183 182.132 0.648248 184.528 1.06726C184.598 1.07941 184.668 1.09157 184.741 1.1041C185.516 1.2429 186.258 1.45935 187.002 1.71682ZM178.089 2.45623C177.973 2.45556 177.858 2.45447 177.742 2.45333C176.334 2.44224 174.928 2.58116 173.526 2.69675C173.355 2.71081 173.185 2.72476 173.014 2.73868C171.851 2.83387 170.69 2.93797 169.53 3.07174C169.358 3.09161 169.186 3.11119 169.013 3.13048C168.763 3.15858 168.513 3.1876 168.262 3.21714C168.165 3.22849 168.068 3.23959 167.971 3.25044C166.74 3.38888 165.721 3.6861 164.724 4.45306C164.629 4.52515 164.629 4.52515 164.532 4.59868C163.911 5.07196 163.301 5.55853 162.692 6.04702C162.499 6.20119 162.304 6.35319 162.109 6.50492C160.934 7.42139 159.831 8.39929 158.768 9.44317C157.985 10.2107 157.189 10.9516 156.356 11.6647C154.534 13.1044 154.534 13.1044 153.26 14.9895C153.549 15.0511 153.808 15.0597 154.102 15.0448C154.146 15.0427 154.191 15.0405 154.237 15.0383C154.384 15.0309 154.53 15.0229 154.677 15.0148C154.729 15.0121 154.78 15.0094 154.832 15.0066C155.681 14.9622 156.528 14.8999 157.376 14.8304C158.16 14.7662 158.944 14.7169 159.729 14.6774C161.886 14.5678 164.068 14.423 166.181 13.962C166.226 13.9525 166.271 13.9429 166.317 13.933C167.916 13.5903 169.414 13.0457 170.64 11.9311C170.679 11.8958 170.718 11.8606 170.758 11.8243C171.428 11.1918 171.92 10.407 172.412 9.63482C172.485 9.52 172.559 9.40572 172.634 9.29148C172.676 9.22461 172.719 9.15773 172.763 9.08882C172.972 8.81798 173.228 8.59395 173.573 8.53915C173.901 8.60195 174.205 8.70586 174.442 8.94455C174.664 9.61202 174.545 10.4204 174.52 11.1151C174.492 11.9421 174.473 12.7837 174.809 13.5581C174.836 13.6216 174.862 13.685 174.89 13.7504C174.978 13.9061 175.039 13.9694 175.196 14.0502C176.645 13.3587 177.755 11.542 178.673 10.2956C178.707 10.2491 178.741 10.2026 178.777 10.1546C178.839 10.0696 178.901 9.98412 178.963 9.89822C179.192 9.58558 179.401 9.41546 179.777 9.32025C180.092 9.38215 180.325 9.47983 180.549 9.71252C180.672 9.9399 180.71 10.0816 180.65 10.335C180.507 10.7334 180.331 11.0793 180.099 11.4332C180.043 11.5204 180.043 11.5204 179.985 11.6094C179.532 12.3009 179.056 12.9771 178.581 13.654C178.541 13.7117 178.501 13.7694 178.459 13.8289C176.691 16.3541 174.824 18.2736 171.694 18.867C169.439 19.2634 167.186 18.8419 164.97 18.4082C164.428 18.3024 163.887 18.1998 163.345 18.0974C163.292 18.0874 163.239 18.0774 163.185 18.0671C161.991 17.8417 160.798 17.6433 159.591 17.5058C159.535 17.4994 159.478 17.4929 159.42 17.4863C155.157 16.8135 155.157 16.8135 151.214 17.7117C151.274 17.7789 151.274 17.7789 151.335 17.8474C151.992 18.7557 152.02 20.2222 152.067 21.302C152.074 21.4276 152.088 21.5528 152.103 21.6776C152.284 21.8194 152.375 21.8278 152.6 21.8591C153.04 21.9317 153.442 22.0676 153.859 22.2206C153.964 22.2578 153.964 22.2578 154.071 22.2957C154.419 22.4212 154.76 22.5551 155.099 22.7052C158.386 24.1608 162.021 24.7946 165.529 25.5007C166.451 25.6864 167.37 25.8787 168.284 26.1C168.329 26.1108 168.374 26.1216 168.421 26.1328C169.955 26.5036 171.402 27.0295 172.855 27.6414C172.925 27.6709 172.995 27.7003 173.068 27.7307C174.821 28.4682 176.544 29.2359 178.229 30.1203C178.646 30.3391 179.065 30.5547 179.484 30.7699C181.197 31.6495 182.908 32.528 184.555 33.5289C184.593 33.5517 184.631 33.5746 184.67 33.5982C186.458 34.6796 188.077 35.9563 189.676 37.295C191.921 39.1736 194.328 41.118 197.107 42.1273C197.186 42.1571 197.264 42.1869 197.345 42.2176C197.906 42.4208 198.281 42.4925 198.83 42.2472C198.916 42.204 199.001 42.1599 199.086 42.1152C199.467 41.9227 199.838 41.7682 200.25 41.6512C200.522 41.5258 200.602 41.2272 200.714 40.9627C200.743 40.8946 200.772 40.8264 200.802 40.7562C200.833 40.6825 200.864 40.6088 200.896 40.5328C200.946 40.4149 200.996 40.297 201.046 40.1791C201.099 40.0541 201.152 39.9291 201.205 39.8041C201.388 39.3715 201.572 38.9391 201.756 38.5069C201.783 38.4429 201.783 38.4429 201.811 38.3777C202.073 37.7616 202.343 37.1493 202.621 36.5404C203.661 34.2607 204.516 31.8969 205.384 29.5477C205.402 29.5007 205.419 29.4537 205.437 29.4052C205.912 28.1215 206.376 26.8346 206.83 25.5436C206.353 25.1134 205.864 24.7 205.367 24.2933C205.312 24.2484 205.257 24.2034 205.201 24.157C204.895 23.9083 204.588 23.6634 204.275 23.4234C203.412 22.758 202.585 22.0607 201.771 21.3358C201.646 21.2256 201.522 21.1155 201.398 21.0054C201.097 20.7388 200.797 20.4717 200.496 20.2044C200.311 20.0391 200.124 19.8742 199.938 19.7095C196.546 16.7102 196.546 16.7102 195.423 15.0738C195.36 14.9839 195.297 14.8941 195.233 14.8043C194.893 14.3175 194.563 13.826 194.249 13.3212C194.038 12.9834 193.816 12.6537 193.593 12.3244C192.999 11.45 192.443 10.5629 191.921 9.64385C191.374 8.67968 190.798 7.75409 190.13 6.86741C190.026 6.72805 189.922 6.58803 189.818 6.44794C186.916 2.55503 182.665 2.47993 178.089 2.45623ZM238.098 30.091C238.002 30.0748 237.907 30.0585 237.812 30.0422C236.598 29.8376 235.378 29.6611 234.16 29.4806C234.114 29.4737 234.068 29.4669 234.02 29.4598C233.974 29.4529 233.928 29.4461 233.88 29.439C233.786 29.425 233.692 29.4111 233.597 29.3971C233.551 29.3902 233.504 29.3833 233.456 29.3761C232.748 29.2712 232.04 29.1633 231.333 29.0533C231.241 29.039 231.149 29.0248 231.058 29.0106C230.351 28.9008 230.351 28.9008 230.007 28.8467C229.027 28.6926 228.049 28.5551 227.06 28.4613C227.069 28.5116 227.077 28.5618 227.086 28.6137C227.121 28.8254 227.153 29.0373 227.186 29.2494C227.198 29.3254 227.21 29.4014 227.222 29.4796C227.518 31.5617 226.943 33.6082 226.477 35.6236C225.98 37.7106 225.98 37.7106 225.79 39.8422C227.205 39.7748 229.082 37.118 230.023 36.1348C231.497 34.596 231.497 34.596 232.206 33.9376C232.243 33.9026 232.28 33.8676 232.319 33.8316C233.815 32.4374 235.805 31.2306 237.906 31.1772C238.706 31.2135 239.417 31.6355 239.949 32.213C240.06 32.3362 240.167 32.4613 240.274 32.5883C240.316 32.632 240.358 32.6758 240.401 32.7209C240.471 32.7122 240.471 32.7122 240.542 32.7034C240.562 32.5031 240.581 32.3028 240.599 32.1025C240.605 32.046 240.61 31.9896 240.616 31.9314C240.648 31.5771 240.667 31.2718 240.499 30.947C240.008 30.3618 238.803 30.2059 238.098 30.091ZM224.112 28.2153C224.016 28.2088 223.921 28.2022 223.825 28.1956C223.774 28.1922 223.723 28.1888 223.671 28.1853C222.691 28.1185 221.715 28.0279 220.739 27.9172C220.652 27.9076 220.652 27.9076 220.563 27.8977C219.925 27.8264 219.288 27.7461 218.653 27.6482C218.489 27.6238 218.325 27.5995 218.161 27.5753C218.007 27.5517 217.855 27.5254 217.702 27.499C217.244 27.4123 217.244 27.4123 216.808 27.5254C216.692 27.6434 216.611 27.7599 216.525 27.9013C216.467 27.9759 216.409 28.0502 216.351 28.1241C216.296 28.1985 216.243 28.2733 216.189 28.3484C216.161 28.3882 216.132 28.4281 216.103 28.4691C215.23 29.7056 214.835 31.1342 214.417 32.5705C214.396 32.6425 214.375 32.7145 214.354 32.7886C213.555 35.5371 212.876 38.2879 212.453 41.1221C212.418 41.355 212.382 41.5879 212.346 41.8207C212.339 41.8692 212.332 41.9176 212.324 41.9675C212.21 42.7015 212.071 43.4299 211.922 44.1576C211.913 44.201 211.904 44.2445 211.895 44.2893C211.804 44.7271 211.713 45.1647 211.62 45.6019C211.291 47.1526 211.031 48.7098 210.898 50.2905C210.894 50.3375 210.89 50.3845 210.886 50.433C210.747 52.0476 210.755 53.62 210.965 55.2273C211.143 56.5954 211.24 57.9828 211.22 59.3634C211.237 59.5889 211.258 59.6983 211.39 59.8834C211.741 60.1342 212.12 60.2975 212.525 60.439C212.58 60.4588 212.635 60.4785 212.692 60.4989C212.873 60.5636 213.054 60.6275 213.235 60.6913C213.364 60.737 213.492 60.7826 213.62 60.8283C213.89 60.9242 214.16 61.0196 214.43 61.1147C214.769 61.2342 215.107 61.3548 215.446 61.4756C216.999 62.0297 218.553 62.555 220.144 62.9892C220.241 63.0158 220.241 63.0158 220.34 63.0429C220.658 63.1289 220.976 63.2114 221.295 63.2902C221.438 63.3258 221.582 63.3623 221.725 63.3989C223.965 63.9635 226.249 64.359 228.518 64.788C228.925 64.8649 229.332 64.9421 229.738 65.0192C230.212 65.1091 230.686 65.1989 231.159 65.2885C231.855 65.4202 232.552 65.5523 233.248 65.6862C233.365 65.7088 233.482 65.7313 233.599 65.7538C233.812 65.7946 234.025 65.8357 234.237 65.877C234.33 65.8948 234.422 65.9125 234.515 65.9303C234.633 65.9532 234.633 65.9532 234.754 65.9766C234.93 66.0142 234.93 66.0142 235.079 65.989C235.31 65.2357 235.516 64.4811 235.696 63.714C235.72 63.6105 235.745 63.5071 235.769 63.4037C235.847 63.0745 235.924 62.7452 236.001 62.4159C236.027 62.3021 236.054 62.1883 236.081 62.0746C236.804 58.9796 237.405 55.9115 237.694 52.7451C238.636 42.4357 238.636 42.4357 239.762 37.4206C239.778 37.3511 239.793 37.2816 239.809 37.2099C239.829 37.1207 239.829 37.1207 239.85 37.0297C239.901 36.7132 239.87 36.4947 239.724 36.2117C239.616 35.9967 239.518 35.7836 239.432 35.5589C238.913 34.2232 238.913 34.2232 237.932 33.2403C237.687 33.1837 237.495 33.2204 237.256 33.2828C237.212 33.2941 237.167 33.3053 237.12 33.3169C236.641 33.4434 236.197 33.63 235.75 33.8427C235.686 33.8727 235.622 33.9026 235.556 33.9335C233.481 34.9788 231.91 37.1071 230.379 38.8023C230.345 38.8402 230.311 38.8781 230.276 38.9171C230.083 39.1313 229.89 39.3459 229.697 39.5608C228.93 40.412 228.127 41.1518 227.142 41.7414C227.096 41.7714 227.051 41.8014 227.003 41.8322C226.397 42.2183 225.704 42.3466 224.998 42.2655C224.523 42.1495 224.162 41.8657 223.882 41.4693C222.936 39.8331 223.569 37.6056 224.016 35.8999C224.137 35.4488 224.26 34.9983 224.382 34.5478C225.04 32.277 225.04 32.277 225.321 29.9399C225.325 29.8478 225.325 29.8478 225.329 29.7539C225.333 29.281 225.211 28.802 224.913 28.4261C224.678 28.2283 224.404 28.2343 224.112 28.2153ZM172.779 12.1109C172.751 12.1424 172.723 12.1739 172.694 12.2063C170.294 14.8803 167.37 15.6756 163.887 16.0839C163.825 16.0913 163.762 16.0986 163.697 16.1062C163.642 16.1126 163.586 16.119 163.529 16.1256C163.367 16.1454 163.367 16.1454 163.159 16.2025C163.653 16.3382 164.148 16.4547 164.651 16.5538C164.721 16.5676 164.791 16.5813 164.863 16.5955C165.009 16.6244 165.156 16.6532 165.303 16.6818C165.523 16.7248 165.742 16.7688 165.961 16.8129C168.739 17.3612 171.63 17.4189 174.088 15.7999C174.124 15.7749 174.16 15.7499 174.197 15.7241C174.174 15.5319 174.099 15.5084 173.948 15.3908C173.115 14.6689 172.934 13.6291 172.856 12.5838C172.842 12.336 172.842 12.336 172.779 12.1109ZM214.08 27.0946C214.032 27.0906 213.983 27.0866 213.933 27.0824C213.83 27.0739 213.727 27.0655 213.625 27.0572C213.468 27.0444 213.311 27.0313 213.154 27.0181C213.054 27.0099 212.954 27.0017 212.854 26.9936C212.808 26.9897 212.761 26.9857 212.713 26.9817C212.353 26.9473 212.353 26.9473 211.995 26.9702C209.911 29.0899 210.527 34.7894 210.54 37.5416C210.56 37.5487 210.579 37.5557 210.6 37.5629C210.812 36.99 210.993 36.411 211.166 35.8254C211.213 35.6676 211.26 35.51 211.307 35.3523C211.44 34.9047 211.573 34.4568 211.706 34.0089C212.647 30.8334 212.647 30.8334 213.146 29.7661C213.172 29.7117 213.197 29.6574 213.223 29.6014C213.627 28.7446 214.14 27.9528 214.688 27.1818C214.492 27.1125 214.286 27.1113 214.08 27.0946ZM210.6 37.5629C210.596 37.7643 210.596 37.7643 210.596 37.7643L210.6 37.5629ZM146.681 18.4273C146.61 18.4351 146.538 18.4429 146.464 18.451C146.352 18.4641 146.352 18.4641 146.238 18.4774C146.125 18.4897 146.125 18.4897 146.01 18.5023C145.677 18.5217 145.677 18.5217 145.36 18.6095C145.224 19.0023 145.151 19.4147 145.075 19.8225C144.883 20.8539 144.603 21.7569 143.736 22.4277C143.411 22.6353 143.101 22.8128 142.723 22.891C142.376 22.9859 142.231 23.2302 142.034 23.5141C141.339 24.453 140.538 25.1534 139.36 25.3784C138.006 25.5662 137.006 25.0909 135.942 24.2863C135.298 23.7877 134.7 23.2539 134.131 22.671C134.091 22.6306 134.052 22.5903 134.011 22.5488C133.447 21.9684 132.952 21.3533 132.478 20.6976C132.32 20.4792 132.159 20.263 131.998 20.0469C131.97 20.009 131.943 19.9711 131.914 19.9321C131.694 19.6035 131.694 19.6035 131.375 19.3943C130.943 19.4523 130.462 20.159 130.199 20.4816C129.592 21.2791 129.234 22.1317 128.94 23.0853C128.781 23.5721 128.611 23.9149 128.183 24.2119C128.108 24.2421 128.032 24.2723 127.954 24.3035C127.771 24.3838 127.771 24.3838 127.736 24.5189C127.711 24.6746 127.697 24.8286 127.685 24.9859C127.55 26.1658 127.133 27.7185 126.194 28.527C125.723 28.8661 125.267 28.9571 124.69 28.9219C124.188 28.8395 123.715 28.6437 123.239 28.4719C121.458 27.8147 121.458 27.8147 119.632 28.0867C119.222 28.425 118.966 28.861 118.884 29.3839C118.817 30.1237 118.978 30.9252 119.426 31.527C120.027 32.1296 121.053 32.1711 121.847 32.2379C122.324 32.2783 122.801 32.3221 123.277 32.3679C123.453 32.3844 123.629 32.3996 123.805 32.4147C124.647 32.4919 125.498 32.6063 126.135 33.2207C126.268 33.4159 126.268 33.4159 126.349 33.5673C126.389 33.5813 126.429 33.5954 126.469 33.6098C126.472 33.6485 126.475 33.6872 126.478 33.7271C126.499 33.8967 126.499 33.8967 126.567 34.0655C127.049 35.5223 126.695 37.2505 126.568 38.7453C126.486 39.712 126.43 40.6773 126.399 41.647C126.397 41.707 126.395 41.7671 126.392 41.829C126.387 41.9971 126.382 42.1653 126.377 42.3335C126.376 42.3835 126.374 42.4336 126.373 42.4852C126.356 42.7073 126.356 42.7073 126.408 42.9178C128.761 43.9121 131.641 44.1173 134.17 44.252C134.262 43.9018 134.341 43.5618 134.375 43.2005C134.476 42.1333 134.826 40.8749 135.58 40.0873C135.625 40.036 135.671 39.9848 135.717 39.932C136.399 39.2099 137.376 38.7955 138.358 38.715C139.46 38.6885 140.384 39.1357 141.2 39.85C142.082 40.7597 142.259 41.9334 142.358 43.1459C142.363 43.358 142.363 43.358 142.417 43.4594C142.849 43.6589 143.303 43.7329 143.771 43.7958C143.841 43.8055 143.911 43.8152 143.984 43.8252C144.658 43.9143 145.33 43.9698 146.01 43.9901C146.071 43.9921 146.132 43.9941 146.196 43.9962C147.119 44.0212 148.028 43.9628 148.947 43.8701C148.997 43.8649 149.048 43.8598 149.1 43.8546C149.692 43.7937 150.28 43.7204 150.867 43.6176C150.925 43.3379 150.896 43.0855 150.856 42.8063C150.843 42.7079 150.829 42.6094 150.816 42.5109C150.809 42.4593 150.802 42.4078 150.795 42.3546C150.541 40.4682 150.549 38.6109 150.608 36.7111C150.61 36.6569 150.612 36.6027 150.613 36.5469C150.661 35.1131 150.661 35.1131 151.168 34.5761C151.987 33.8831 153.314 34.0371 154.323 34.1083C154.572 34.1293 154.819 34.1586 155.067 34.1892C155.143 34.1984 155.218 34.2077 155.296 34.2172C155.446 34.236 155.596 34.2557 155.746 34.2763C156.178 34.3315 156.469 34.3504 156.846 34.1067C157.275 33.7207 157.505 33.213 157.554 32.6354C157.504 31.9615 157.01 31.5081 156.527 31.0898C156.178 30.8044 155.839 30.6057 155.414 30.4582C155.36 30.4393 155.306 30.4203 155.25 30.4009C154.563 30.1751 153.855 30.133 153.137 30.09C152.148 30.0121 151.134 29.6435 150.447 28.9134C149.852 28.1833 149.711 27.2824 149.775 26.3652C149.836 25.308 149.836 25.308 149.34 24.4075C149.193 24.2541 149.041 24.1081 148.886 23.9627C148.613 23.7021 148.449 23.4309 148.372 23.0586C148.396 22.6953 148.507 22.3795 148.756 22.1103C149.003 21.9248 149.296 21.8297 149.586 21.7313C149.573 21.5026 149.56 21.274 149.546 21.0454C149.543 20.9816 149.539 20.9177 149.536 20.8519C149.511 20.4392 149.463 20.0381 149.385 19.632C149.316 19.6107 149.316 19.6107 149.244 19.589C148.559 19.3651 147.942 19.0272 147.393 18.5566C147.156 18.3827 146.958 18.3963 146.681 18.4273ZM111.717 8.49811C111.347 8.74552 111.079 9.08642 110.982 9.52306C110.708 11.0627 111.219 12.9103 111.966 14.254C112.201 14.6787 112.277 14.9824 112.242 15.4719C112.079 15.9595 111.795 16.2469 111.348 16.4816C111.334 16.5212 111.32 16.5608 111.306 16.6017C111.268 16.6057 111.229 16.6098 111.19 16.614C110.997 16.6403 110.808 16.6798 110.618 16.7193C110.214 16.7964 109.827 16.8303 109.417 16.8358C109.344 16.8373 109.271 16.8387 109.196 16.8403C107.61 16.8671 106.021 16.8569 104.434 16.8434C103.303 16.8343 102.183 16.8421 101.055 16.9537C101.005 16.9582 100.955 16.9627 100.904 16.9674C100.18 17.034 99.4119 17.1133 98.9106 17.6955C98.1367 18.7165 97.7832 20.2073 97.8383 21.4767C97.8652 21.6879 97.8652 21.6879 97.9594 21.8727C98.268 22.007 98.5449 22.0431 98.8772 22.0428C98.9736 22.0441 99.0699 22.0454 99.1663 22.0467C99.2161 22.0471 99.2658 22.0476 99.317 22.048C101.264 22.0686 103.213 22.4649 104.707 23.8146C105.211 24.3438 105.431 24.9264 105.533 25.6415C105.542 25.7008 105.551 25.7602 105.56 25.8213C105.741 27.3621 105.22 28.8854 104.291 30.1047C103.379 31.2535 102.166 32.0049 100.733 32.3219C100.738 32.5674 100.763 32.8071 100.793 33.0506C100.994 34.766 100.656 36.5058 100.276 38.1769C100.265 38.2254 100.254 38.2738 100.243 38.3238C100.101 38.9102 99.9047 39.4804 99.7161 40.0529C99.6808 40.1608 99.6454 40.2686 99.6101 40.3765C99.5244 40.6384 99.4384 40.9002 99.3522 41.1619C100.459 41.2258 101.538 41.1592 102.638 41.028C103.34 40.9447 104.039 40.886 104.745 40.8523C104.788 40.8502 104.831 40.8482 104.875 40.846C105.547 40.8145 105.547 40.8145 105.819 40.8196C105.943 40.6949 106.056 40.5698 106.17 40.437C106.492 40.0793 106.796 39.8141 107.251 39.6374C107.3 39.6179 107.349 39.5984 107.399 39.5783C107.937 39.4264 108.499 39.6674 108.977 39.9115C109.471 40.2406 109.699 40.824 109.955 41.3403C110.129 41.6841 110.266 41.9368 110.624 42.1185C111.152 42.1131 111.574 41.6926 111.946 41.3636C112.625 40.7686 113.36 40.221 114.152 39.7868C114.208 39.7552 114.265 39.7236 114.323 39.691C115.418 39.1205 116.602 39.0289 117.806 39.1903C117.874 39.1987 117.941 39.2071 118.01 39.2158C119.309 39.4284 120.525 40.0046 121.658 40.6522C121.915 40.7992 122.174 40.9431 122.434 41.0862C122.558 41.1545 122.681 41.2232 122.804 41.2925C122.86 41.3232 122.915 41.3539 122.972 41.3855C123.02 41.4126 123.069 41.4398 123.119 41.4678C123.258 41.5301 123.365 41.5492 123.516 41.5539C123.522 41.5041 123.528 41.4543 123.535 41.403C123.678 40.2596 123.845 39.1225 124.035 37.9858C124.165 37.2049 124.292 36.426 124.374 35.6385C124.381 35.574 124.388 35.5095 124.395 35.443C124.419 35.186 124.434 34.9557 124.395 34.6994C123.671 34.5389 122.936 34.5058 122.199 34.4567C119.931 34.3052 119.931 34.3052 119.036 33.9769C118.974 33.9544 118.912 33.9319 118.848 33.9087C118.403 33.7401 118.033 33.5539 117.702 33.2039C117.66 33.1603 117.618 33.1167 117.575 33.0718C116.726 32.1153 116.429 30.9034 116.466 29.65C116.535 28.539 116.944 27.6462 117.747 26.8773C118.559 26.1747 119.491 25.9231 120.558 25.9903C120.735 26.0042 120.911 26.0207 121.088 26.0386C121.144 26.0441 121.2 26.0496 121.257 26.0552C122.091 26.1499 122.879 26.4375 123.671 26.7031C123.803 26.7472 123.935 26.7906 124.068 26.8338C124.145 26.8597 124.223 26.8855 124.303 26.9121C124.495 26.9611 124.598 26.9598 124.789 26.929C124.939 26.5329 125.045 26.1426 125.132 25.7285C125.145 25.6659 125.158 25.6033 125.172 25.5388C125.319 24.8305 125.434 24.1176 125.546 23.4031C125.568 23.265 125.59 23.127 125.612 22.9889C125.664 22.6553 125.716 22.3216 125.768 21.9878C125.793 21.8261 125.818 21.6643 125.843 21.5026C125.983 20.5994 126.118 19.7074 126.056 18.7921C126.053 18.7444 126.049 18.6968 126.046 18.6477C126.001 18.031 125.943 17.2358 125.492 16.7666C124.857 16.5324 124.195 16.4837 123.527 16.4288C123.472 16.424 123.417 16.4193 123.361 16.4144C122.402 16.3313 121.442 16.2854 120.48 16.25C119.802 16.2248 119.126 16.1892 118.45 16.136C118.373 16.1302 118.296 16.1244 118.216 16.1184C116.204 15.9512 116.204 15.9512 115.608 15.3107C115.374 14.9876 115.258 14.6372 115.317 14.2387C115.399 13.9525 115.504 13.689 115.639 13.4237C116.098 12.5207 116.379 11.59 116.059 10.5943C115.788 9.86075 115.369 9.17662 114.7 8.74641C114.624 8.69636 114.624 8.69636 114.546 8.6453C113.64 8.21983 112.644 8.01835 111.717 8.49811ZM166.4 27.4261C166.321 27.6087 166.321 27.6087 166.361 27.8221C166.399 28.3829 166.115 28.785 165.764 29.196C164.902 30.156 164.001 31.0787 163.05 31.95C162.039 32.8878 160.936 34.0702 160.588 35.4376C160.629 35.5474 160.629 35.5474 160.836 35.6185C161.547 35.8607 162.421 35.7227 163.15 35.6367C163.193 35.6317 163.237 35.6267 163.282 35.6216C164.083 35.5302 164.875 35.3977 165.668 35.2498C166.193 35.1545 166.721 35.0752 167.248 34.992C167.434 34.9623 167.62 34.9317 167.806 34.9007C174.58 33.7786 179.938 34.5782 186.182 38.8385C186.747 39.252 187.294 39.6898 187.84 40.1288C188.095 40.3336 188.351 40.5365 188.608 40.7391C188.697 40.8101 188.787 40.881 188.877 40.952C188.922 40.9875 188.966 41.0229 189.012 41.0594C189.562 41.4942 190.111 41.9295 190.657 42.3689C193.846 45.146 193.846 45.146 197.742 46.406C198.04 46.3369 198.195 46.0363 198.363 45.7966C198.52 45.5371 198.662 45.2711 198.801 45.0014C198.838 44.9319 198.875 44.8624 198.913 44.7908C199.108 44.4711 199.108 44.4711 199.16 44.119C199.123 44.1246 199.086 44.1302 199.048 44.1359C198.998 44.1428 198.949 44.1498 198.898 44.1569C198.849 44.1639 198.8 44.171 198.75 44.1782C198.444 44.1995 198.193 44.1209 197.91 44.01C197.84 43.9826 197.77 43.9551 197.697 43.9269C197.316 43.7749 196.936 43.6218 196.557 43.4657C196.502 43.4432 196.446 43.4206 196.39 43.3974C193.561 42.2182 191.018 40.2111 188.638 38.3172C186.87 36.9103 185.086 35.636 183.127 34.5096C183.066 34.4743 183.066 34.4743 183.003 34.4383C181.574 33.6151 180.112 32.8501 178.651 32.0846C178.507 32.0089 178.363 31.9332 178.218 31.8573C176.981 31.2071 175.735 30.5881 174.46 30.0151C174.409 29.992 174.358 29.9688 174.305 29.945C171.766 28.8011 169.137 27.947 166.4 27.4261ZM129.943 15.6246C129.194 16.2467 129.104 17.4326 128.983 18.3432C129.219 18.2514 129.37 18.1017 129.552 17.9282C130.083 17.4413 130.594 17.069 131.335 17.0272C132.124 17.0653 132.823 17.4988 133.365 18.0473C133.73 18.4605 134.055 18.9036 134.383 19.3463C135.406 20.7272 136.802 22.5331 138.553 22.9553C138.849 22.9613 139.092 22.8763 139.323 22.6876C139.165 22.563 139.007 22.4409 138.844 22.3243C138.264 21.9109 137.77 21.4755 137.452 20.8287C137.399 20.7057 137.399 20.7057 137.269 20.6745C137.283 20.6349 137.297 20.5952 137.312 20.5544C137.267 20.4597 137.221 20.3651 137.175 20.2712C136.951 19.7793 136.861 19.2383 136.761 18.7107C136.555 17.6781 136.004 17.029 135.134 16.4347C133.785 15.5623 131.489 14.8626 129.943 15.6246ZM152.328 23.5155C152.274 23.7756 152.274 23.7756 152.278 24.0384C153.082 24.3568 153.915 24.5505 154.754 24.7523C154.896 24.7866 155.037 24.821 155.178 24.8554C155.979 25.0502 155.979 25.0502 156.783 25.231C156.79 25.2112 156.797 25.1914 156.804 25.171C156.371 24.9978 155.937 24.8248 155.504 24.652C155.357 24.5933 155.21 24.5345 155.063 24.4757C154.85 24.3908 154.637 24.306 154.425 24.2213C154.36 24.1953 154.295 24.1693 154.228 24.1426C153.604 23.8942 152.985 23.6607 152.328 23.5155ZM162.653 28.07C162.605 28.0614 162.558 28.0528 162.509 28.0439C161.757 27.9091 161.002 27.794 160.246 27.6868C160.201 27.6805 160.156 27.6741 160.11 27.6676C159.657 27.6033 159.204 27.5396 158.75 27.4779C156.811 27.2129 154.905 26.8163 153.032 26.2435C152.789 26.1698 152.549 26.1129 152.298 26.0739C152.196 26.8243 152.196 26.8243 152.309 27.5652C152.829 28.1792 154.292 28.0984 155.025 28.1659C156.641 28.3324 158.028 29.2208 159.044 30.4531C159.469 31.0292 159.667 31.6226 159.803 32.3198C159.831 32.4301 159.831 32.4301 159.859 32.5425C160.042 32.3096 160.223 32.0764 160.401 31.8399C160.985 31.0766 161.663 30.4157 162.351 29.7487C162.635 29.4726 162.916 29.1934 163.197 28.9139C163.271 28.8417 163.271 28.8417 163.345 28.768C163.39 28.7241 163.434 28.6802 163.479 28.6349C163.518 28.5967 163.557 28.5584 163.597 28.519C163.691 28.4277 163.691 28.4277 163.726 28.3029C163.381 28.1804 163.013 28.1347 162.653 28.07ZM95.7393 31.0095C95.6487 31.0034 95.558 30.9972 95.4674 30.991C95.4198 30.9878 95.3722 30.9846 95.3231 30.9813C93.5396 30.858 91.8295 30.4807 90.0881 30.093C85.8024 29.14 81.2847 28.5845 76.8897 28.9336C76.8062 28.9401 76.7226 28.9467 76.6364 28.9535C74.9552 29.0893 73.2352 29.239 71.642 29.8226C71.5782 29.8458 71.5782 29.8458 71.513 29.8695C71.2669 29.9639 71.0794 30.0718 70.8864 30.2518C71.5564 30.4543 72.251 30.5415 72.9417 30.6429C73.0073 30.6525 73.0729 30.6622 73.1405 30.6721C75.7143 31.0472 78.27 31.1361 80.8703 31.1592C82.116 31.1713 83.3448 31.2645 84.5842 31.3796C84.8556 31.4047 85.127 31.4293 85.3984 31.454C86.2917 31.5352 87.1848 31.6174 88.0779 31.7008C88.5778 31.7475 89.0778 31.7934 89.5779 31.8374C92.7099 32.1153 96.1355 32.6639 98.6293 34.7349C98.7603 34.8432 98.8854 34.9415 99.0297 35.0304C99.1086 34.6934 99.1354 34.378 99.1348 34.0324C99.1347 33.9822 99.1347 33.932 99.1346 33.8803C99.1299 33.489 99.1221 33.0791 98.9745 32.7121C98.8 32.5419 98.6202 32.5452 98.3843 32.5323C97.7349 32.479 97.1535 32.2656 96.7228 31.7569C96.574 31.5587 96.5382 31.3968 96.4893 31.1544C96.2474 31.0356 96.0053 31.026 95.7393 31.0095ZM114.651 41.3999C114.013 41.7783 113.438 42.2716 112.881 42.7607C112.272 43.2958 111.741 43.6837 110.912 43.7333C110.347 43.6331 109.831 43.4513 109.419 43.043C109.381 43.0063 109.343 42.9696 109.304 42.9318C108.98 42.5791 108.791 42.1737 108.598 41.7396C108.469 41.4508 108.339 41.2035 108.131 40.9636C107.959 40.9154 107.845 40.913 107.669 40.9348C107.655 40.9744 107.641 41.014 107.626 41.0549C107.658 41.077 107.689 41.099 107.722 41.1218C108.88 42.0236 109.067 43.8836 109.246 45.2423C109.29 45.603 109.311 45.9642 109.328 46.3271C109.33 46.3707 109.332 46.4142 109.334 46.4591C109.344 46.6776 109.353 46.8961 109.36 47.1147C109.391 47.8967 109.473 48.632 109.965 49.2629C110.266 49.5233 110.79 49.6874 111.188 49.6751C111.641 49.5773 111.892 49.3964 112.172 49.0325C112.681 48.2397 112.64 47.4197 112.453 46.5369C112.409 46.3401 112.362 46.144 112.314 45.9481C112.161 45.3123 112.026 44.7541 112.335 44.1454C112.773 43.5234 113.422 43.3647 114.139 43.2381C114.769 43.1375 115.38 43.096 116.018 43.1023C116.186 43.1031 116.355 43.1038 116.524 43.1044C116.566 43.1046 116.609 43.1048 116.652 43.105C116.918 43.1058 117.184 43.1022 117.45 43.095C118.586 43.0649 119.716 43.104 120.851 43.1536C120.947 43.1578 120.947 43.1578 121.044 43.162C121.164 43.1673 121.285 43.1727 121.405 43.1783C121.67 43.1902 121.931 43.1984 122.196 43.1815C122.21 43.1419 122.224 43.1022 122.239 43.0614C121.911 42.8787 121.583 42.6962 121.255 42.5139C121.143 42.4519 121.032 42.3899 120.921 42.3279C120.76 42.2383 120.599 42.1489 120.438 42.0595C120.389 42.0321 120.34 42.0047 120.289 41.9764C118.516 40.9928 116.563 40.4238 114.651 41.3999ZM104.453 42.7686C104.356 42.7802 104.356 42.7802 104.258 42.792C102.926 42.9506 101.6 43.0847 100.26 43.1583C99.9673 43.1751 99.6748 43.196 99.3823 43.2177C99.3368 43.2211 99.2913 43.2244 99.2444 43.2279C99.146 43.2351 99.0475 43.2425 98.949 43.2499C98.8613 43.4334 98.8613 43.4334 98.9643 43.623C99.3215 44.1743 99.9102 44.4544 100.531 44.6007C100.859 44.6683 101.19 44.7119 101.522 44.7501C101.579 44.7566 101.635 44.7632 101.694 44.7699C102.278 44.827 102.773 44.8034 103.253 44.4387C103.602 44.1359 103.878 43.7757 104.151 43.4053C104.181 43.3655 104.21 43.3258 104.24 43.2848C104.411 43.0506 104.411 43.0506 104.453 42.7686ZM97.1753 41.2497C97.1138 41.2801 97.0523 41.3105 96.9889 41.3418C96.7051 41.4791 96.4209 41.6037 96.1269 41.7171C95.9328 41.7937 95.7419 41.8768 95.5503 41.9596C93.6344 42.7648 91.5678 43.2081 89.5456 43.6496C89.0113 43.7667 88.4782 43.8888 87.9452 44.011C87.877 44.0266 87.8088 44.0422 87.7385 44.0582C86.6211 44.314 85.5089 44.5874 84.3983 44.8712C83.3362 45.1424 82.2735 45.4108 81.2105 45.6782C81.162 45.6904 81.1136 45.7026 81.0637 45.7152C79.9471 45.9963 78.8271 46.2469 77.6995 46.4781C75.8646 46.8548 73.9966 47.3323 72.4615 48.4563C72.4544 48.4761 72.4474 48.4959 72.4402 48.5163C72.7799 48.6035 73.1197 48.6902 73.4601 48.7744C76.3793 49.4997 78.6359 51.1743 80.7473 53.2796C81.8904 54.419 83.3612 55.7919 84.9688 56.2063C85.2306 56.1979 85.2306 56.1979 85.4738 56.115C85.7168 55.2466 85.3779 54.3326 85.1673 53.4832C84.3597 50.2205 84.3597 50.2205 84.8672 49.0714C85.0986 48.742 85.36 48.5962 85.7438 48.5035C86.2878 48.4696 86.6542 48.7136 87.0615 49.047C87.8012 49.7055 88.2786 50.5476 88.685 51.44C88.7148 51.5024 88.7446 51.5648 88.7753 51.6291C88.8523 51.7917 88.9271 51.9546 89.0006 52.1187C89.6838 53.625 90.6015 54.898 92.15 55.5819C92.3267 55.6613 92.3267 55.6613 92.4885 55.5613C92.8207 54.9369 92.7538 54.3358 92.5603 53.6813C92.5068 53.5187 92.4512 53.3577 92.3931 53.1968C91.718 51.3247 91.718 51.3247 92.0767 50.3823C92.2745 49.9868 92.5781 49.7425 92.9881 49.5862C93.0371 49.5659 93.086 49.5456 93.1365 49.5247C93.7005 49.4027 94.255 49.6298 94.7253 49.9307C95.1199 50.1937 95.5014 50.474 95.8796 50.7599C96.3782 51.1317 96.8724 51.3841 97.4543 51.6017C97.5077 51.6224 97.5611 51.6431 97.6161 51.6644C97.9775 51.7937 98.2111 51.8138 98.5819 51.7059C98.7467 51.547 98.7817 51.4097 98.8336 51.1867C98.8015 50.9711 98.7264 50.7797 98.6442 50.5787C98.6241 50.5266 98.6039 50.4744 98.5832 50.4207C98.3746 49.9346 98.0778 49.5137 97.7789 49.0804C97.4466 48.5966 97.155 48.0971 96.8715 47.5835C96.8404 47.5298 96.8094 47.476 96.7773 47.4207C96.3971 46.7629 96.0706 46.0953 95.909 45.349C95.8915 45.2688 95.874 45.1886 95.856 45.106C95.6801 44.2477 95.6079 43.3176 96.0623 42.5308C96.3427 42.1201 96.6984 41.8508 97.1271 41.6063C97.298 41.4881 97.3328 41.405 97.379 41.2055C97.3039 41.1711 97.3039 41.1711 97.1753 41.2497ZM40.1041 32.3929C40.0505 32.3973 39.9968 32.4017 39.9415 32.4062C39.766 32.4208 39.5905 32.4363 39.415 32.4519C39.2942 32.4622 39.1734 32.4725 39.0525 32.4827C38.1135 32.5631 37.1763 32.6569 36.2402 32.7665C36.1394 32.7778 36.0386 32.7892 35.9378 32.8005C34.165 33.0044 32.4428 33.3747 30.7245 33.852C30.6708 33.8667 30.6171 33.8815 30.5618 33.8966C29.6391 34.1014 29.6391 34.1014 28.9191 34.644C28.5707 35.4424 28.7862 36.5439 28.8403 37.3843C28.8662 37.7887 28.887 38.1933 28.906 38.5981C29.0151 40.9098 29.2154 43.1891 29.606 45.4725C29.6211 45.5616 29.6211 45.5616 29.6365 45.6524C29.8553 46.8892 30.1522 48.1095 30.4625 49.3258C30.4968 49.4613 30.5311 49.5967 30.5654 49.7322C30.6344 50.0048 30.7036 50.2774 30.7728 50.55C30.9196 51.1274 31.0653 51.7052 31.2108 52.283C31.2236 52.3338 31.2364 52.3846 31.2496 52.4369C31.3999 53.0338 31.5477 53.6312 31.6879 54.2306C32.0353 55.7146 32.4559 57.1687 32.9195 58.62C33.4355 60.2433 33.7945 61.8668 34.0263 63.554C34.4065 63.496 34.7454 63.3954 35.105 63.2606C35.6711 63.0539 36.2416 62.8695 36.8176 62.693C37.0573 62.6192 37.2964 62.5438 37.5356 62.4685C38.7288 62.0935 39.9212 61.722 41.1326 61.4102C41.2018 61.3923 41.2709 61.3744 41.3422 61.356C42.4035 61.0825 43.46 60.8292 44.5378 60.6316C45.9926 60.3647 47.318 60.0322 48.6973 59.4965C48.5981 59.1525 48.4336 58.8879 48.237 58.5938C48.2045 58.5444 48.1719 58.4951 48.1384 58.4442C48.0333 58.2854 47.9276 58.1271 47.8216 57.9689C47.7686 57.8897 47.7686 57.8897 47.7146 57.8088C47.3937 57.3294 47.0715 56.8511 46.7387 56.3799C45.7232 54.9411 44.8204 53.4094 44.1007 51.8C44.0493 51.6804 44.0493 51.6804 43.9203 51.6495C43.9344 51.6098 43.9484 51.5702 43.9629 51.5294C43.8928 51.413 43.8212 51.2975 43.7483 51.1828C43.7426 51.1362 43.7369 51.0895 43.731 51.0414C43.6914 51.0274 43.6518 51.0134 43.6111 50.9989C43.6086 50.9591 43.6061 50.9192 43.6035 50.8782C43.572 50.6901 43.5061 50.5554 43.4193 50.3858C43.2557 50.0515 43.1266 49.7146 43.005 49.3631C42.9329 49.1597 42.8557 48.9597 42.7758 48.7593C40.8495 43.8962 39.9254 38.1113 40.7488 32.9184C40.757 32.8629 40.7653 32.8073 40.7738 32.7502C40.7816 32.7023 40.7893 32.6545 40.7973 32.6052C40.7963 32.5669 40.7952 32.5286 40.7942 32.4891C40.5698 32.3138 40.3737 32.3684 40.1041 32.3929ZM66.1386 50.6752C65.1329 50.9127 64.1495 51.2232 63.1823 51.587C63.1051 51.6146 63.028 51.6421 62.9486 51.6705C62.2231 51.9365 61.5284 52.2671 60.8316 52.5996C60.7817 52.6234 60.7318 52.6471 60.6804 52.6716C60.1576 52.9211 59.6413 53.1743 59.1403 53.4659C59.0172 53.5323 58.8939 53.5984 58.7704 53.6642C58.4024 53.8642 58.0473 54.0789 57.6949 54.3052C57.6556 54.3298 57.6163 54.3544 57.5759 54.3797C57.0643 54.7001 56.5819 55.0342 56.1355 55.4422C56.099 55.4753 56.0625 55.5084 56.025 55.5426C55.7878 55.7667 55.614 56.0004 55.4423 56.278C57.1128 56.3466 58.9474 55.6424 60.4784 55.0223C60.5437 54.996 60.6091 54.9697 60.6765 54.9426C62.4603 54.1577 64.0129 52.7291 65.4593 51.4483C65.5265 51.3896 65.5938 51.3309 65.661 51.2722C65.7257 51.215 65.7904 51.1579 65.855 51.1007C65.9132 51.0495 65.9713 50.9984 66.0313 50.9457C66.093 50.8818 66.093 50.8818 66.1559 50.8166C66.1502 50.7699 66.1445 50.7233 66.1386 50.6752Z" fill="#1B1817"/>
</svg>
