<svg width="3966" height="3457" viewBox="0 0 3966 3457" fill="none" xmlns="http://www.w3.org/2000/svg">
<path d="M989.733 2.33496C932.266 8.20166 862.266 26.335 804.4 50.2017C746 74.2017 678.133 114.335 628.133 154.468C561.066 208.202 509.733 283.002 480.666 369.002C467.866 407.268 464.133 439.668 468.266 475.668C471.6 504.335 486 540.202 512.666 587.002C525.866 610.068 575.466 686.068 589.733 705.002C614.133 737.402 650.799 765.402 681.333 775.002L688.666 777.402L689.599 786.202C690 791.135 691.2 795.935 692 797.002C694.133 799.535 688.666 803.135 684.133 802.202C653.866 795.535 579.866 757.268 504 709.002C352.933 612.735 175.6 478.602 73.3328 383.002C37.1995 349.268 26.5328 340.735 15.0662 337.002C9.19949 335.135 7.73282 335.002 4.39949 336.602C-4.80051 341.002 0.132819 349.002 32.6662 383.535C83.3328 437.268 126.533 476.068 202.666 536.468C285.733 602.335 336.533 639.402 426 699.002C499.466 748.068 535.733 769.535 597.333 800.335C634.533 818.868 653.599 827.268 665.466 829.935L672 831.402V837.002C672 845.935 675.599 864.468 679.466 875.268C685.066 891.002 695.733 912.202 714.266 945.002C746.799 1002.74 752.133 1013.94 758.266 1038.6C761.6 1051.67 761.866 1055.4 762 1079C762 1106.74 760.933 1114.2 753.866 1137.4C749.066 1153.4 705.333 1254.2 704.4 1251.54C704.133 1250.87 711.466 1227.54 720.666 1199.67C739.2 1143.54 742.533 1132.07 746.799 1109.8C750.533 1089.53 749.866 1081.27 744.133 1076.07C736.266 1069.14 728.799 1071.8 707.733 1089.27C688.533 1105.27 675.2 1118.2 623.333 1170.87C572 1223.14 561.466 1235.27 522.533 1287.27C481.199 1342.47 469.866 1360.07 463.466 1379.27C455.6 1402.6 461.199 1422.74 481.466 1444.87C497.733 1462.6 554.4 1511 634.666 1575.67C659.2 1595.4 703.599 1631.4 733.333 1655.67C959.066 1840.07 996.133 1866.87 1282 2051.94C1344.4 2092.34 1451.2 2162.34 1519.33 2207.67C1709.6 2334.07 1754.67 2363.4 1857.73 2427.54C1886.8 2445.67 1910.67 2461 1910.67 2461.54C1910.67 2462.07 1906.27 2471.8 1900.8 2483.27C1876.67 2533.4 1864.93 2568.87 1853.47 2626.47C1840.27 2692.07 1841.2 2746.2 1856.67 2818.34C1875.47 2905.27 1920.53 2982.87 2010.67 3083.67C2019.2 3093.14 2032 3107.94 2039.33 3116.34C2070.27 3152.34 2101.33 3183.14 2144.67 3221.14C2181.07 3253.14 2234.8 3292.2 2277.33 3317.67C2315.33 3340.6 2380.53 3377.54 2410.67 3393.4C2419.07 3397.8 2432.27 3404.87 2440 3409C2490.67 3436.2 2522 3449.54 2547.33 3454.47C2562.27 3457.54 2589.6 3457.4 2604 3454.47C2637.33 3447.4 2680.67 3427.54 2719.87 3401.4C2776.27 3363.67 2842.27 3302.87 2868.27 3264.47C2875.07 3254.47 2885.33 3235.27 2885.33 3232.47C2885.33 3231.67 2886.27 3231 2887.33 3231C2893.2 3231 2901.33 3224.07 2923.73 3200.07C2951.73 3169.94 2961.33 3158.87 2977.2 3137.8C3014.4 3088.47 3025.73 3063.4 3044 2991C3047.6 2976.47 3051.73 2956.2 3053.2 2946.07C3056.27 2925 3057.47 2893.27 3056 2875.67L3054.93 2863.67L3061.73 2853.67C3066.8 2846.2 3111.6 2784.87 3114.13 2781.8C3114.67 2781.14 3166.8 2817.27 3204 2844.2C3219.73 2855.54 3257.2 2882.47 3287.2 2904.07C3356.8 2953.94 3388.13 2977.8 3460.53 3035.4C3584.13 3133.8 3612.67 3155.4 3675.73 3197.54C3691.33 3208.07 3727.73 3233.4 3756.4 3254.07C3839.33 3313.4 3865.33 3331.67 3898.13 3353.94C3928.27 3374.47 3957.6 3392.74 3962.67 3394.34C3973.07 3397.67 3951.6 3376.2 3902 3333.67C3870.27 3306.47 3838.93 3281.4 3778.67 3235C3752.67 3214.87 3718.53 3188.47 3703.07 3176.07C3666.27 3146.87 3647.73 3133.27 3565.87 3075.54C3528.53 3049.27 3477.87 3012.6 3453.33 2993.94C3393.6 2948.87 3346 2913.54 3308 2886.34C3290.8 2873.94 3262.53 2853.4 3245.33 2840.47C3228.13 2827.67 3198.4 2805.8 3179.33 2791.94C3141.6 2764.47 3133.33 2758.07 3133.33 2756.34C3133.33 2755.8 3144.67 2739.8 3158.4 2720.87C3241.87 2605.94 3281.47 2542.07 3372.27 2375C3408.8 2307.94 3421.07 2285.14 3468.67 2195C3482.4 2169 3514.67 2108.6 3540.4 2061C3606.27 1938.87 3623.6 1902.87 3644 1845.67C3653.6 1818.47 3656 1808.74 3656 1795C3656 1781.94 3651.47 1771.94 3641.2 1762.2C3626.8 1748.74 3573.73 1710.2 3512 1668.34C3488.93 1652.74 3457.47 1630.74 3442 1619.67C3426.67 1608.6 3407.47 1595 3399.33 1589.4C3379.6 1575.8 3257.07 1497.14 3214 1470.34C3194.93 1458.47 3168 1441.67 3154 1432.74C3127.2 1415.94 3100.27 1400.07 3094.27 1397.8C3092.27 1397 3090.93 1395.67 3091.33 1394.74C3091.6 1393.8 3094.27 1383.67 3097.33 1372.33C3100.4 1361 3103.33 1351.14 3104 1350.6C3104.53 1349.94 3108.93 1348.07 3113.47 1346.47C3134.27 1339.14 3146 1326.6 3171.07 1284.87C3192.8 1248.74 3206.93 1210.74 3214 1170.07C3229.87 1077.4 3222.8 985.268 3193.87 907.668C3164.4 829.002 3115.33 766.602 3035.33 706.735C2964.13 653.268 2886.13 617.268 2809.47 602.468C2790.8 598.735 2760.27 595.002 2749.87 595.002H2743.07L2735.6 585.268C2707.6 548.735 2672.8 534.868 2627.87 542.202C2592.53 548.068 2543.87 569.802 2506.67 596.335C2489.6 608.468 2477.33 618.735 2456.53 638.335C2442.67 651.402 2436.93 655.802 2428.27 660.202C2370.8 689.135 2312.13 732.335 2278.27 770.735L2270.8 779.268L2261.73 772.068C2225.2 743.135 2190.13 717.402 2121.47 669.268C2093.2 649.402 2043.07 613.668 2010 589.668C1950.53 546.468 1924.53 528.602 1881.87 501.668C1869.33 493.668 1857.33 485.002 1853.87 481.402C1848.13 475.268 1848 474.868 1848 466.468C1848 437.668 1832.13 360.735 1816.13 311.268C1800.93 264.602 1782.93 236.335 1746.93 202.602C1709.2 167.402 1647.47 131.135 1594.53 113.135C1556.53 100.335 1525.73 94.335 1454 86.335C1390.27 79.2683 1373.6 76.2017 1344.67 66.2017C1284.93 45.4016 1272.67 41.5349 1257.33 38.4683C1229.87 33.0017 1215.73 31.9351 1179.33 32.6016L1146 33.2683L1140.4 27.5349C1131.6 18.4683 1110.93 9.26831 1086 3.53491C1073.07 0.601562 1014 -0.198242 989.733 2.33496ZM1090.67 28.2017C1094.67 29.0017 1102.67 31.2683 1108.4 33.135C1118.53 36.4683 1121.6 39.0017 1115.6 39.0017C1110.53 39.0017 1071.33 49.0017 1054 54.7349C1037.2 60.335 1017.2 67.8018 961.733 89.5349C914 108.068 871.6 126.735 853.2 137.135C780.933 177.935 714.133 252.068 673.2 337.002C654.666 375.668 643.2 409.268 635.466 447.802C630.799 470.868 629.333 485.535 629.333 507.002C629.333 540.868 632.799 560.068 643.466 586.202C655.599 615.668 666.799 631.268 704.133 670.602C721.2 688.468 730.666 701.002 730.666 705.802C730.666 711.935 728.799 715.135 716.799 728.735C710.533 735.935 703.599 743.935 701.466 746.602L697.599 751.268L683.066 743.802C664.533 734.068 654 726.202 638.533 709.935C623.733 694.468 615.733 683.135 584.4 633.135C554 584.735 548.533 575.268 534.4 545.935C520.933 518.335 515.066 503.535 510.533 486.335C507.733 475.535 507.333 471.535 507.333 446.335C507.333 414.602 508.666 406.068 517.466 376.468C526.266 346.868 538.799 319.402 557.333 288.335C595.333 225.135 636.533 183.935 709.599 135.802C776.533 91.8018 827.466 68.7349 904.666 47.5349C951.733 34.6016 993.6 27.5349 1032 25.8018C1053.2 24.8684 1079.2 25.9351 1090.67 28.2017ZM1227.87 53.0017C1256 56.7349 1275.07 62.335 1313.47 78.335C1340.53 89.5349 1356.4 94.6016 1377.33 98.8684C1396.8 102.602 1407.6 103.802 1457.6 107.668C1506.8 111.402 1524.13 114.068 1556.67 122.335C1591.47 131.268 1612.4 139.535 1647.33 158.202C1664.13 167.135 1692.67 185.535 1705.33 195.535C1733.73 217.935 1762.13 250.202 1774 273.535C1792.4 310.068 1818.4 413.002 1822.8 466.735C1823.47 475.935 1824.93 485.002 1826 486.868C1829.87 494.335 1838.93 501.002 1890.27 533.802C1908.27 545.268 1942 569.268 2004.67 615.002C2043.07 643.002 2061.73 656.335 2139.33 710.735C2161.73 726.468 2219.6 769.268 2254.53 795.802C2256.13 797.002 2254.4 800.068 2244.53 813.802C2238.13 822.868 2232.67 830.602 2232.53 830.735C2232.4 831.002 2225.07 825.802 2216.27 819.268C2187.87 797.668 2120.4 751.802 2066 717.002C2053.6 709.002 2028.67 692.468 2010.67 680.202C1978.4 658.335 1966.13 650.335 1936 631.935C1927.6 626.868 1910.53 616.335 1898.13 608.602C1867.87 589.935 1857.73 585.135 1846.4 584.602C1836.93 584.068 1829.6 585.802 1823.47 590.068C1820.93 591.802 1819.07 592.335 1818 591.535C1817.07 590.868 1812.8 587.402 1808.53 583.935C1788.4 567.535 1764.27 558.868 1720.67 552.468L1704.67 550.202L1703.73 531.535C1702 496.335 1694.93 478.202 1666.93 436.335C1642.93 400.735 1630 383.935 1611.2 364.335C1599.2 351.802 1594.67 346.335 1595.2 344.735C1595.73 343.535 1596.13 334.068 1596 323.802C1595.87 279.802 1582.4 251.002 1558.27 243.135C1549.47 240.202 1538.13 241.002 1530.67 245.135C1518.93 251.535 1513.33 261.535 1513.33 275.935C1513.47 295.268 1523.87 314.068 1547.33 337.002L1562.27 351.668L1558.53 365.002C1548.13 402.602 1517.73 464.468 1499.87 484.735C1493.2 492.468 1490.13 492.735 1474.4 487.002C1457.87 481.135 1423.73 471.535 1406.53 468.068C1393.87 465.535 1387.07 465.002 1365.33 465.002C1333.87 465.002 1325.33 466.868 1300.67 479.002C1256.8 500.602 1213.2 548.202 1175.47 615.935C1165.6 633.535 1157.87 653.135 1153.73 671.402C1148.93 691.802 1148.67 724.468 1153.2 745.268C1156.4 760.735 1162.53 778.735 1168.27 790.202L1172.27 798.068L1170.53 811.535C1167.73 832.468 1168.27 869.002 1171.73 895.668C1176.93 935.135 1182.8 957.935 1193.87 982.602L1198.67 993.002L1199.87 1043C1201.33 1098.33 1201.73 1101.94 1212.93 1168.33C1221.87 1221.14 1222.67 1236.07 1217.47 1248.07C1213.87 1256.07 1206.27 1263.27 1198 1266.47C1192.53 1268.47 1192 1268.47 1183.2 1265.27C1164.13 1258.47 1154.53 1257 1127.33 1257C1098.27 1257 1093.2 1258.33 1089.73 1266.6C1088.13 1270.74 1088.13 1271.67 1090.27 1276.07C1095.87 1287.27 1108 1289.94 1154.67 1290.33C1194.27 1290.74 1192.53 1290.33 1212.4 1301.8C1236.67 1315.8 1254.67 1329.14 1295.33 1363C1363.73 1419.8 1413.07 1457.27 1462.27 1489.54C1476.4 1498.74 1487.87 1506.74 1488 1507.14C1488 1507.54 1485.2 1509.8 1481.73 1511.94C1470.93 1519 1453.73 1534.74 1443.07 1547.54C1424.53 1569.54 1413.87 1588.47 1396.67 1629.67C1388.27 1649.54 1385.47 1653.67 1379.73 1653.67C1374.93 1653.67 1347.33 1644.47 1334.53 1638.6C1329.07 1636.07 1321.07 1632.34 1316.67 1630.34C1297.07 1621.4 1261.6 1603.67 1242.13 1593.14C1230.4 1586.87 1220.67 1581.67 1220.4 1581.67C1218.53 1581.67 1177.47 1557.14 1151.33 1540.47C1133.73 1529.14 1116.4 1518.07 1112.67 1515.67C1109.07 1513.4 1098.27 1506.47 1088.93 1500.47C1029.2 1462.34 975.333 1413.8 932.666 1359.67C926.933 1352.33 910.4 1334.6 896 1320.33C865.6 1290.07 858.266 1280.87 848.666 1261C832 1226.74 827.066 1199.54 825.866 1135C824.799 1083.8 827.466 961.802 830.133 941.002C834.266 907.135 833.733 785.402 829.2 741.002C827.6 725.135 823.866 706.468 820.266 696.335C818.799 692.335 813.066 679.002 807.466 666.735C789.6 627.535 784 606.068 784 576.602C784 559.402 785.466 547.935 790.266 529.002C794.799 510.602 799.466 499.002 816 464.335C832.133 430.468 834 426.735 851.466 387.668C858.4 372.202 870 348.602 877.2 335.002C897.2 297.268 903.866 278.735 902.133 265.535C901.333 259.802 901.6 258.868 904.266 257.268C906 256.202 918.799 248.202 932.666 239.668C1017.47 187.135 1068.13 149.802 1105.33 112.468C1128.8 88.8684 1140.13 73.8018 1145.87 58.7349C1148.13 52.8684 1148.67 52.4683 1153.87 51.9351C1169.47 50.6016 1214 51.135 1227.87 53.0017ZM1124 57.4016C1124 60.335 1112.4 74.7349 1098.13 89.4016C1056.27 132.602 1012.67 164.335 911.333 225.402L884.533 241.402L877.333 239.402C867.733 236.868 847.733 237.935 835.733 241.668C817.6 247.268 805.333 259.802 805.333 272.868C805.333 277.268 806.266 281.135 808 284.068C810.933 288.868 819.733 293.535 825.866 293.668C835.333 293.668 853.866 286.735 873.066 275.802C882.533 270.335 882.799 270.735 878.799 282.735C875.866 291.268 872.933 296.735 855.066 326.335C842.133 347.802 835.466 360.735 818 397.535C811.866 410.468 800.533 434.202 792.666 450.335C775.866 485.002 770.4 497.802 766 514.202C760.4 535.002 758.266 550.335 758.266 571.002C758.266 609.135 764.666 634.468 785.333 679.268C803.733 719.002 805.066 726.602 806.933 812.735C808.4 875.268 808.266 879.135 805.466 916.068C802.666 951.268 802.533 960.868 802.933 1034.33C803.733 1160.6 808.133 1209.4 822 1246.33C834.666 1280.2 846 1297.27 872 1321.54C881.866 1330.74 900.133 1348.74 912.666 1361.67C951.866 1402.33 983.733 1433.27 997.2 1444.07C1023.2 1465 1061.33 1491.67 1114 1525.67C1176.67 1566.07 1204.13 1582.74 1238 1601C1243.2 1603.8 1249.2 1607 1251.33 1608.34C1253.6 1609.67 1259.87 1613.14 1265.33 1616.07C1270.8 1619 1281.07 1624.47 1288 1628.34C1294.93 1632.07 1318.27 1643.94 1339.87 1654.74C1377.47 1673.54 1379.47 1674.34 1387.2 1674.34C1402.13 1674.34 1411.73 1666.07 1422 1645C1425.07 1638.34 1432 1624.07 1437.2 1613C1442.53 1602.07 1450.67 1587.27 1455.33 1580.34C1471.33 1556.47 1493.87 1533.4 1508.53 1525.54L1514.27 1522.47L1520.8 1526.34C1524.4 1528.47 1536.4 1535.94 1547.33 1543C1558.4 1550.07 1569.87 1557.27 1573.07 1559C1579.6 1562.74 1579.73 1563.27 1576.13 1578.34C1568.67 1609 1557.33 1629.54 1534.13 1653.27C1526.4 1661.4 1522.53 1663.27 1520.53 1660.2C1520.13 1659.4 1515.47 1656.74 1510.27 1654.2C1489.07 1644.07 1470 1651 1470.27 1668.47C1470.53 1687.94 1491.73 1697.4 1516.53 1689.14C1526.8 1685.67 1527.07 1685.67 1529.87 1688.07C1596.8 1747 1617.07 1761.14 1682.67 1794.2C1726.27 1816.2 1757.2 1827.27 1776.13 1827.54C1786.67 1827.67 1791.07 1825.67 1794.13 1819.27C1797.47 1812.07 1795.07 1806.34 1784.4 1795.8C1779.6 1791 1773.6 1785.67 1771.07 1784.07C1768.67 1782.34 1766.67 1780.6 1766.67 1780.2C1766.67 1779.67 1773.07 1781.4 1780.93 1783.8C1831.07 1799.8 1887.2 1808.2 1897.73 1801.27C1901.6 1798.87 1902.4 1794.2 1900 1789.67C1898.27 1786.47 1884 1780.6 1859.33 1773.14C1828.8 1763.67 1781.73 1746.2 1783.2 1744.74C1783.6 1744.34 1787.33 1744.6 1791.6 1745.4C1826.4 1752.2 1875.47 1754.47 1896.67 1750.34C1909.47 1747.94 1924.67 1741.14 1928.13 1736.2C1933.73 1728.34 1929.33 1720.34 1916.67 1715.67C1907.47 1712.34 1906.93 1711.54 1913.33 1710.47C1925.07 1708.6 1934.67 1701 1934.67 1693.54C1934.67 1677.94 1899.73 1665.94 1788.67 1643.54C1768.93 1639.54 1747.33 1635 1740.67 1633.54C1726.27 1630.2 1708 1624.47 1708 1623.14C1708 1622.07 1716.93 1616.74 1732.67 1608.34C1756 1595.8 1776.67 1578.34 1780.8 1567.67C1782.8 1562.34 1782.8 1561.67 1780.67 1557.14C1779.07 1553.94 1776.53 1551.54 1772.27 1549.4C1766.53 1546.6 1764.4 1546.34 1745.33 1546.47C1723.47 1546.74 1687.33 1548.6 1660.67 1551C1643.47 1552.6 1619.2 1551.14 1608 1547.94C1602.13 1546.34 1602 1546.07 1598.67 1536.34C1594.53 1523.8 1591.33 1518.87 1582.4 1510.07C1571.73 1499.67 1562.53 1495.94 1545.47 1495.27C1537.87 1494.87 1527.33 1495.4 1521.87 1496.2L1512.13 1497.8L1490.4 1484.2C1466 1469 1425.33 1441 1399.33 1421.54C1378.53 1405.94 1361.07 1391.8 1314.53 1352.87C1272.53 1317.8 1248.53 1299 1232.8 1289.14C1226.4 1285.14 1220.53 1281.67 1219.6 1281.27C1218.67 1281 1221.2 1277.67 1225.33 1273.54C1233.6 1265.27 1237.6 1258.07 1240.8 1245.67C1243.73 1234.07 1242.8 1211.27 1237.47 1173.67C1235.33 1157.94 1232.53 1135.14 1231.33 1123C1228.93 1098.2 1227.07 1036.33 1228.67 1036.33C1229.2 1036.33 1231.87 1038.87 1234.53 1041.94C1272.27 1086.6 1313.33 1121.67 1381.2 1167.67C1420.8 1194.47 1464.27 1217.27 1499.2 1229.54C1564.53 1252.47 1657.73 1250.2 1709.6 1224.2C1755.2 1201.4 1784.8 1168.2 1810.8 1110.74C1848.67 1027.27 1849.6 952.202 1814.13 866.602C1793.2 816.068 1750.93 748.468 1712.67 704.335C1688 676.068 1650.13 642.602 1620 622.602C1579.87 595.935 1533.2 581.535 1480.67 579.402C1422.93 577.135 1370.53 592.068 1321.73 624.735C1284 649.935 1256 680.068 1256 695.535C1256 705.402 1262.27 712.335 1271.07 712.335C1278.8 712.335 1282.8 709.935 1303.33 692.868C1332.8 668.602 1345.87 661.535 1379.6 651.802C1407.47 643.802 1417.47 642.335 1448.67 642.335C1472.93 642.335 1478.53 642.735 1491.33 645.402C1542.8 656.335 1599.07 683.935 1639.33 718.068C1656.8 732.735 1683.33 760.068 1697.33 777.668C1746.53 839.402 1766.53 899.402 1754.27 948.468C1747.07 977.668 1732.67 1012.2 1718.93 1033C1707.6 1050.07 1682.93 1073.4 1659.33 1089.27C1631.33 1108.07 1586.8 1123 1558.8 1123C1523.2 1123 1479.73 1102.33 1428 1060.87C1396.27 1035.27 1335.47 972.468 1311.73 940.735C1297.87 921.935 1282 897.268 1274.13 881.668C1266.8 867.535 1260 850.868 1260 847.535C1260 846.468 1262.4 841.802 1265.33 837.268C1284 807.668 1284.13 785.668 1265.73 782.202C1254.53 780.068 1241.07 789.535 1236.8 802.602C1234.27 810.202 1233.47 824.468 1235.07 834.868L1236.13 842.068L1231.2 841.268C1221.33 839.668 1215.07 830.468 1202.27 798.868C1186.8 761.002 1182.67 742.602 1182.67 713.268C1182.67 675.402 1190.13 655.002 1221.07 607.668C1254.8 555.802 1289.33 520.468 1320.27 505.668C1336.8 497.802 1345.73 495.802 1366 495.935C1391.6 495.935 1420.53 501.802 1464 515.668C1495.07 525.668 1506 523.802 1522.93 505.935C1544.53 483.002 1573.07 428.335 1586.13 385.002C1587.47 380.602 1588.8 376.735 1589.07 376.335C1590.13 374.868 1617.2 407.268 1628.67 423.535C1647.6 450.735 1666.4 482.735 1671.73 497.002C1675.2 506.068 1677.33 519.268 1678.13 535.002L1678.8 551.668L1671.73 555.002C1659.07 561.135 1652.8 574.335 1658 584.335C1662.4 592.868 1675.07 598.468 1684.67 596.335C1693.07 594.468 1697.73 589.402 1701.07 578.335C1703.47 570.468 1703.47 570.335 1708.13 570.735C1716.93 571.535 1752 579.135 1762.27 582.468C1776.67 587.135 1789.2 594.068 1798 602.068L1805.6 609.002L1802.93 617.002C1798 631.668 1796.67 642.602 1796.8 669.668C1796.8 691.802 1797.2 697.402 1799.73 707.402C1805.33 729.668 1817.33 752.868 1828.4 762.602C1840.53 773.135 1854.8 767.135 1860.4 749.135C1862.53 741.935 1862.4 695.668 1860.27 680.068C1856.93 657.002 1850.67 638.868 1839.2 620.202C1834.53 612.468 1834.53 612.068 1836.8 610.335C1840.53 607.535 1847.87 607.935 1855.47 611.535C1874.93 620.602 2010 708.868 2151.33 805.002C2170.4 817.935 2192.93 832.735 2201.33 837.668C2209.73 842.735 2217.47 847.535 2218.53 848.202C2220.13 849.268 2218.67 852.868 2211.07 867.935C2195.07 898.868 2184.53 926.868 2177.87 955.935C2172.8 977.668 2172.53 1001.53 2177.07 1016.33C2184.67 1040.6 2201.07 1065.4 2218.27 1078.87C2230.67 1088.6 2250.4 1099 2264.67 1103.4C2270.53 1105.14 2286.13 1108.87 2299.33 1111.53C2312.53 1114.33 2324.27 1117 2325.33 1117.54C2327.47 1118.6 2327.47 1122.2 2325.2 1149.67C2322.53 1184.33 2323.6 1182.74 2305.2 1179.67C2288 1176.87 2260.8 1171.4 2254.8 1169.4C2250.8 1168.2 2250.4 1167.67 2251.2 1163.94C2253.2 1154.07 2254.67 1135.27 2253.87 1130.33C2252.27 1119.94 2247.47 1115.14 2238.8 1115C2233.47 1115 2232.27 1115.67 2227.2 1120.87C2219.6 1128.87 2216.8 1137.54 2217.6 1151.54C2218.27 1163.8 2221.33 1171.14 2228.13 1177L2232.53 1180.6L2230.93 1190.07C2230 1195.4 2226.8 1209.54 2223.87 1221.54C2217.6 1247.14 2211.6 1281 2208.67 1306.87C2206.13 1329.27 2202.8 1386.07 2203.6 1394.6C2204.8 1408.07 2212.53 1416.07 2221.6 1413.67C2230.27 1411.27 2236 1398.87 2240.67 1373.27C2241.87 1366.2 2243.47 1360.33 2243.87 1360.33C2244.4 1360.33 2247.87 1367.54 2251.47 1376.47C2259.07 1395.14 2264.8 1403 2270.8 1403C2276.4 1403 2281.33 1397.8 2281.33 1391.94C2281.33 1389.4 2281.73 1385.4 2282.27 1383C2283.07 1378.74 2283.2 1379 2289.87 1391.8C2293.6 1399 2298.27 1406.07 2300.13 1407.4C2303.33 1409.67 2304.13 1409.8 2307.47 1408.2C2310.8 1406.6 2311.73 1404.87 2314 1395.94C2315.47 1390.33 2316.93 1385.67 2317.47 1385.67C2318 1385.67 2320.93 1389.54 2324 1394.33C2331.47 1405.8 2336.13 1409.67 2342.53 1409.67C2346.13 1409.67 2348.4 1408.74 2350.8 1406.2C2355.07 1401.67 2355.6 1389.4 2352.8 1366.2C2351.6 1356.74 2349.73 1335.54 2348.67 1319C2347.6 1302.47 2346.27 1286.07 2345.73 1282.47L2344.93 1275.8L2348.93 1278.74C2351.2 1280.33 2357.73 1285.94 2363.47 1291.14C2374.8 1301.54 2380 1304.33 2387.2 1304.33C2393.2 1304.33 2400.53 1298.2 2402.8 1291.4C2408.8 1273.27 2393.07 1230.87 2367.6 1195.94L2355.07 1179L2356.4 1171.27C2357.07 1167.14 2357.73 1149.8 2357.87 1132.87L2358.13 1102.07L2363.6 1093.4C2372.13 1080.07 2405.73 1015.94 2411.73 1001.67C2414.67 994.602 2418.4 984.202 2419.87 978.335C2423.73 963.802 2425.87 940.068 2424.4 929.802C2423.6 925.402 2423.33 921.668 2423.73 921.668C2424 921.668 2428 924.602 2432.53 928.202C2436.93 931.668 2456.27 945.668 2475.33 959.002C2494.4 972.468 2518.93 990.068 2529.73 998.068C2551.2 1013.94 2555.47 1015.53 2560.27 1009.53C2566.93 1001.4 2564.53 999.268 2496 950.335C2459.73 924.468 2442.27 911.402 2441.6 909.802C2441.47 909.402 2448.93 905.402 2458.27 901.135C2488 887.402 2514.67 872.735 2531.73 860.602C2536.27 857.402 2540 855.268 2540 855.935C2540 856.602 2538.8 860.602 2537.33 864.735C2529.6 886.735 2528 909.402 2533.2 925.668C2538.93 944.068 2553.73 959.668 2571.2 965.668C2575.33 967.002 2577.87 968.735 2577.73 969.802C2577.6 970.868 2576.8 975.268 2576 979.668C2575.07 984.068 2574.67 991.402 2575.07 995.935C2575.47 1000.74 2575.07 1005.4 2574.13 1007.14C2573.33 1008.74 2566.67 1014.07 2559.47 1018.87C2552.13 1023.67 2545.07 1029.27 2543.73 1031.14C2541.87 1033.67 2540.93 1038.2 2540.13 1049.27C2539.2 1060.6 2538.4 1064.87 2536.4 1067.8C2518.8 1093.14 2482.67 1157.54 2469.47 1187C2449.6 1231.14 2439.47 1287.54 2443.87 1329C2449.6 1381.8 2466 1417.54 2502 1454.87C2550.8 1505.67 2609.87 1522.74 2684.67 1507.67C2742.4 1495.94 2787.2 1475.94 2852 1433C2874.93 1417.67 2887.47 1407.94 2908.13 1389.27C2915.73 1382.2 2922.27 1376.74 2922.4 1377C2922.67 1377.27 2922.27 1379.54 2921.47 1381.94C2918.93 1389.8 2917.33 1408.47 2917.33 1429.67C2917.33 1457.4 2914.4 1472.74 2905.6 1490.34C2894.4 1513.14 2862.53 1543 2830.8 1560.6C2802.8 1576.07 2763.6 1591.4 2710.67 1607.67C2695.47 1612.34 2682.4 1613.8 2680.67 1611C2679.2 1608.6 2669.47 1609.54 2666.67 1612.34C2662.8 1616.2 2663.33 1621.8 2669.47 1639.67C2676.8 1660.87 2677.07 1669.54 2671.07 1681.67C2665.73 1692.6 2659.6 1698.87 2656.27 1696.87C2654.8 1695.94 2649.2 1681.4 2641.33 1658.2C2627.73 1618.47 2627.33 1617.67 2620.4 1608.07C2612.27 1596.87 2594 1585.4 2562 1571.27C2532.8 1558.47 2487.6 1544.34 2475.87 1544.34C2469.87 1544.34 2468.53 1544.87 2464.53 1548.87C2458.93 1554.47 2458.4 1561.54 2463.07 1568.34C2465.33 1571.94 2483.47 1585.67 2494.67 1592.47C2501.6 1596.6 2474.4 1601.94 2434 1604.34C2402 1606.2 2389.87 1607.94 2382.67 1611.4C2375.07 1615.14 2372.53 1619.8 2374.67 1626.47C2376.53 1632.2 2380 1634.47 2392.13 1638.2L2401.6 1641.14L2394.8 1642.87C2383.6 1645.67 2377.07 1653.94 2379.33 1662.6C2380.4 1667.27 2388.27 1674.6 2393.33 1675.67C2397.87 1676.6 2398.8 1679 2394.53 1679C2393.07 1679 2388.8 1680.34 2385.2 1681.8C2371.47 1687.8 2371.2 1701.8 2384.8 1708.47C2390.13 1711 2390.4 1711.27 2389.73 1716.2C2388.8 1722.74 2392 1728.74 2398.67 1733.4C2401.6 1735.4 2403.87 1737.27 2404 1737.8C2404 1738.2 2400 1738.07 2395.07 1737.54C2370.27 1734.74 2321.87 1737.14 2285.73 1743C2260 1747.14 2242.93 1754.47 2236.4 1764.34C2233.6 1768.74 2233.07 1770.74 2233.6 1776.34C2235.07 1790.74 2246.53 1797.94 2283.73 1807.67C2306.27 1813.54 2322.67 1818.74 2327.6 1821.4C2329.47 1822.47 2328.53 1823 2323.33 1823.67C2295.33 1827.54 2269.07 1836.74 2255.73 1847.27C2240.53 1859.27 2241.6 1876.47 2258.27 1890.87C2270.67 1901.4 2310 1923.27 2348 1940.6C2385.2 1957.67 2392.67 1962.34 2410.13 1979.67C2422.27 1991.67 2427.87 1998.74 2440.93 2018.47C2457.47 2043.14 2472.13 2061.8 2500.53 2094.34C2540.27 2139.94 2580.93 2189.94 2611.47 2231C2673.47 2314.34 2671.33 2310.2 2671.2 2349.67C2671.07 2378.07 2670 2387.27 2661.87 2423.67C2654.93 2454.34 2642.13 2491.54 2634.13 2503.8L2631.87 2507.14L2622.4 2494.74C2564.4 2418.87 2519.87 2381 2443.2 2342.6C2401.2 2321.67 2373.87 2314.6 2333.33 2314.47C2314.13 2314.34 2310 2314.74 2300.67 2317.4C2285.6 2321.8 2271.33 2328.87 2251.6 2341.8C2242.27 2347.94 2230.4 2355.67 2225.07 2359C2212.93 2366.6 2199.6 2379.8 2178.13 2405C2156.93 2429.8 2148.27 2441.8 2136.27 2462.6C2115.73 2498.6 2102.27 2535.8 2096.8 2571.67C2091.87 2604.2 2090.27 2658.07 2093.33 2686.47C2096.4 2713.94 2104.8 2747.54 2119.6 2791C2159.47 2908.34 2207.6 2968.6 2298.67 3014.87C2325.07 3028.34 2353.73 3036.6 2386.67 3040.47C2427.33 3045.14 2497.07 3035.94 2549.87 3019C2566.93 3013.54 2593.33 3001.67 2602.67 2995.4C2636.13 2972.47 2676.8 2911.94 2695.6 2857C2706.53 2824.6 2712 2795.67 2712.93 2764.07C2715.07 2695.14 2694.4 2616.87 2655.2 2545.54L2646.67 2529.94L2654 2517.54C2663.73 2501.14 2675.47 2470.87 2684.67 2439C2696.4 2398.07 2698 2387.8 2698 2352.34C2698 2324.2 2697.73 2321.67 2694.8 2312.6C2690.4 2299.14 2681.33 2285.14 2656.27 2253.4C2644.53 2238.47 2623.2 2211.27 2609.07 2193C2594.8 2174.6 2571.07 2144.34 2556.13 2125.67C2500 2055.14 2480.53 2029.67 2467.2 2009.4C2459.6 1997.94 2453.33 1988.2 2453.33 1987.8C2453.33 1987.27 2455.87 1988.74 2458.93 1991C2474.67 2002.47 2498.67 2001.27 2526 1987.67C2546 1977.8 2560.27 1963.8 2569.6 1944.6L2574.93 1933.67L2586.8 1944.47C2593.33 1950.47 2613.87 1971 2632.4 1990.07C2677.07 2036.07 2692.13 2050.74 2720 2075.14C2747.73 2099.27 2790 2141.27 2834.53 2188.87C2873.47 2230.47 2880 2238.34 2885.87 2251.14C2890.67 2261.54 2899.87 2298.34 2906 2331.67C2907.87 2341.94 2912.67 2366.87 2916.67 2387C2931.87 2464.07 2935.33 2490.87 2936.67 2542.34C2937.6 2575.14 2938.53 2589.27 2942.67 2625C2945.2 2646.6 2946 2660.34 2944.8 2660.34C2944.4 2660.34 2940.67 2657 2936.4 2652.87C2925.73 2642.6 2911.73 2632.87 2903.73 2630.2C2880.27 2622.47 2862.4 2640.07 2872.53 2660.87C2877.47 2671 2888.53 2680.47 2907.6 2691.14C2926.13 2701.54 2930 2703 2939.47 2703H2946.53L2956.93 2716.87C2979.6 2747.54 3004.27 2790.87 3011.73 2813C3013.2 2817.4 3015.73 2827.4 3017.47 2835.14L3020.4 2849.27L3003.73 2873.14C2994.53 2886.34 2980.13 2907 2971.73 2919.14C2953.6 2945.14 2928 2979.94 2899.6 3017.27C2875.47 3048.74 2868.13 3059.8 2830.53 3119.94C2801.2 3166.74 2782 3195.8 2774.13 3205L2769.6 3210.34L2768.67 3205C2766.67 3192.07 2763.33 3178.87 2759.07 3165.14C2754.4 3150.74 2754.27 3149.8 2754 3126.34C2753.87 3106.6 2753.33 3100.47 2750.93 3091.94C2743.2 3063.8 2724.93 3045.27 2698 3038.34C2670.4 3031.27 2636.93 3033 2580 3044.34L2554 3049.54H2511.33C2487.87 3049.54 2448 3050.47 2422.67 3051.54C2345.73 3055 2291.87 3054.07 2269.47 3049C2250.53 3044.6 2235.33 3033.67 2221.2 3014.74C2211.2 3001.14 2195.33 2975.14 2172.67 2935C2162.53 2917 2146.67 2889.14 2137.33 2873C2128 2856.87 2114.53 2833.14 2107.33 2820.34C2090.93 2791 2070.27 2755.8 2036.8 2699.94C2022.4 2675.8 2010.67 2655.67 2010.67 2655.14C2010.67 2654.6 2016.8 2651 2024.4 2647.27C2063.2 2627.8 2094.8 2582.34 2089.33 2553.94C2086.67 2539.94 2079.07 2530.47 2058.53 2515.67C2049.47 2509.14 1992.27 2472.87 1961.6 2454.34C1955.6 2450.74 1950.67 2447.27 1950.67 2446.6C1950.67 2443.94 2004.53 2349.27 2015.33 2333C2041.2 2294.07 2062 2269.4 2072.67 2265C2078.8 2262.34 2083.07 2263.14 2095.2 2269.14C2116 2279.67 2130.4 2290.6 2155.87 2315.8L2180.53 2340.07L2169.2 2355.14C2153.6 2375.94 2149.87 2381.54 2143.2 2394.74C2136 2408.74 2135.33 2415.94 2140.8 2420.2C2148.8 2426.47 2153.6 2423.14 2165.2 2403.94C2169.87 2396.2 2179.73 2381.94 2187.2 2372.2C2200.53 2354.74 2200.93 2354.34 2206.67 2353.67C2210 2353.27 2214 2352.07 2215.73 2351.14C2230 2343.27 2266.13 2302.6 2275.73 2283.54C2278.13 2278.87 2282.27 2275.54 2300.93 2263C2342.4 2235.14 2368 2214.6 2372.8 2205.4C2375.6 2200.07 2375.07 2194.34 2371.47 2190.07C2368.67 2186.74 2367.2 2186.34 2358.53 2185.94C2353.07 2185.67 2345.07 2186.07 2340.67 2186.74C2336.27 2187.54 2332.4 2187.94 2332.27 2187.67C2332 2187.4 2338 2179.8 2345.6 2170.74C2379.73 2129.94 2402.93 2094.2 2406.67 2076.6C2410.27 2060.07 2398.53 2045.8 2379.6 2043.54C2355.6 2040.74 2300 2057.8 2244.67 2085C2204.4 2104.87 2167.6 2132.47 2153.6 2153.4C2146.93 2163.27 2146.13 2173.54 2151.2 2182.2C2157.07 2192.34 2162.4 2196.07 2222.93 2232.87C2246.27 2247 2255.87 2254.34 2258 2259.54C2260.67 2265.94 2259.33 2268.74 2251.07 2273.8C2238.67 2281.14 2229.6 2288.87 2211.6 2306.6L2194.67 2323.4L2174.93 2304.2C2147.87 2277.54 2126 2261.4 2100 2249.14C2090.27 2244.6 2087.33 2243.8 2079.33 2243.8C2065.2 2243.67 2057.6 2247.94 2039.2 2266.2C2012.4 2293 1984.4 2329.4 1968.67 2358.34C1961.47 2371.54 1927.73 2431.54 1927.2 2432.2C1926.67 2432.74 1828.4 2371.67 1779.33 2340.34C1713.87 2298.34 1697.2 2287.4 1476.67 2141.67C1434.93 2114.07 1355.33 2062.2 1300 2026.34C1130.13 1916.47 1099.73 1896.34 1031.33 1848.47C916.799 1768.47 860.666 1723.94 596.666 1504.34C559.333 1473.27 526 1443.54 511.866 1428.74C492.533 1408.74 490.533 1400.2 500 1380.47C510 1359.67 534.533 1325.4 574 1277C597.333 1248.33 609.466 1234.74 646.666 1195.67C681.866 1158.74 694.533 1144.6 715.333 1119.14C722.533 1110.2 728.666 1103.27 729.066 1103.53C729.866 1104.47 725.466 1123.54 721.333 1137C719.2 1143.54 710.666 1167.94 702.266 1191C673.066 1271.27 656.666 1325.54 643.866 1383.4C636.933 1415 635.733 1432.34 640 1443.27C647.066 1461.94 663.866 1473.8 746 1517.67C762.933 1526.6 780.266 1535.94 784.666 1538.34C789.066 1540.74 798.133 1545.54 804.666 1549C817.6 1555.94 903.466 1604.87 913.333 1610.87C916.666 1613 924.799 1617.8 931.333 1621.67C1004.93 1665 1038.13 1686.87 1118 1744.87C1160.53 1775.8 1224.4 1821.8 1260 1847.14C1494.13 2013.94 1533.07 2040.07 1692.67 2138.34C1719.87 2155 1745.6 2170.87 1750 2173.67C1754.4 2176.34 1764.27 2182.47 1772 2187.27C1779.73 2192.07 1799.47 2204.34 1816 2214.6C1868.4 2247.27 1887.73 2257.54 1914 2267C1923.87 2270.6 1928.13 2271.4 1937.47 2271.54C1951.2 2271.67 1954.67 2269.67 1954.67 2261.94C1954.67 2258.2 1953.6 2256.2 1949.6 2252.47C1946.8 2249.8 1925.47 2235.67 1902.27 2221C1856.93 2192.47 1800.93 2156.34 1754.67 2125.94C1726.13 2107.27 1706.93 2094.74 1640.67 2051.4C1590 2018.34 1540 1986.34 1500.67 1961.67C1481.6 1949.67 1432.4 1918.34 1391.33 1891.94C1315.6 1843.27 1301.73 1834.34 1244.93 1798.74C1209.33 1776.47 1202 1771.4 1148 1732.34C1127.07 1717.27 1069.2 1675.54 1019.33 1639.67C864 1528.07 812.4 1488.34 770.4 1448.34C742.266 1421.67 718.4 1390.6 709.333 1368.87C698.666 1343.14 701.2 1322.33 720 1278.87C733.866 1247.27 763.6 1175.14 768.933 1160.33C780.4 1128.6 784.799 1101.4 783.6 1070.07C781.866 1025.27 775.066 1007.27 732.799 934.335C721.2 914.468 709.2 892.868 706 886.202C698.666 871.135 692 851.535 691.066 842.068L690.266 835.002H697.599C721.733 835.002 741.2 824.202 741.333 810.735C741.333 809.002 742.933 805.268 744.666 802.335C747.066 798.468 748 795.135 748 789.935C748 778.335 742.933 771.802 728.133 763.802L719.733 759.402L729.599 748.202C748.933 726.202 753.333 718.335 753.333 705.935C753.333 693.935 746 682.868 718.933 653.668C688.799 621.402 680.266 610.202 670 589.802C656 561.668 651.466 540.735 651.466 502.335C651.466 473.135 652.666 464.335 662.133 426.468C681.333 349.402 729.866 268.735 793.733 207.402C840.799 162.202 881.333 140.602 1015.33 88.7349C1048 76.2017 1073.33 67.8018 1095.07 62.4683C1122.13 55.8018 1124 55.5349 1124 57.4016ZM1551.73 266.202C1556 268.335 1560.4 275.935 1562.4 284.335C1564.53 293.002 1567.07 319.002 1566 320.068C1564.4 321.668 1546.13 301.135 1541.6 292.735C1534.53 279.268 1534.53 268.602 1541.73 265.668C1545.87 263.935 1547.6 264.068 1551.73 266.202ZM2679.2 563.002C2690 566.335 2702.53 574.602 2712.67 584.868L2720.67 593.002L2711.33 593.268C2636.8 595.668 2568 606.468 2516.67 623.668C2507.2 626.868 2499.2 629.268 2499.07 629.135C2498.27 628.335 2515.33 615.668 2530.27 606.202C2562.27 585.802 2609.07 565.802 2634.67 561.668C2640.13 560.868 2645.6 559.935 2646.67 559.668C2651.2 558.602 2671.47 560.735 2679.2 563.002ZM1504.27 603.802C1513.2 605.002 1528.53 607.935 1538 610.335C1566 617.535 1584 625.402 1608 641.268C1656 673.002 1698.53 717.535 1741.07 780.602C1810.93 884.468 1829.73 967.402 1803.2 1054.87C1792.27 1091 1772.67 1130.6 1753.73 1155.4C1740.13 1173.14 1718.13 1191.14 1697.47 1201.67C1666.27 1217.27 1618.53 1224.6 1567.2 1221.54C1512.53 1218.2 1460.4 1196.2 1391.2 1147.54C1314 1093.14 1279.6 1061.8 1241.47 1011C1227.73 992.735 1227.73 992.602 1229.33 975.402C1231.2 954.735 1231.07 923.668 1228.8 912.068C1227.73 906.735 1224.8 895.135 1222.27 886.335C1219.73 877.535 1217.2 868.068 1216.8 865.135L1215.87 859.935L1219.6 861.135C1221.6 861.802 1227.6 862.335 1232.67 862.335H1242L1246.53 873.002C1265.47 918.202 1307.87 972.335 1382.13 1046.2C1428.8 1092.74 1484.67 1128.87 1528.67 1141.27C1545.2 1145.8 1575.2 1147 1592.67 1143.8C1623.6 1137.94 1655.6 1123.4 1684.4 1102.07C1730.8 1067.4 1757.6 1024.6 1774.27 958.335C1777.6 945.135 1778 941.402 1778 920.335C1778 899.535 1777.6 895.535 1774.4 883.002C1764.8 845.268 1750.8 817.402 1720.53 776.735C1688.27 733.268 1648.8 695.935 1610 672.335C1597.6 664.735 1554.13 643.002 1539.2 637.002C1524.67 631.135 1496.93 623.802 1480.4 621.668C1464.8 619.535 1422.27 620.602 1406.67 623.535C1387.2 627.135 1356 635.935 1334.67 643.935C1329.87 645.668 1336.13 641.268 1349.33 633.668C1375.73 618.468 1405.47 608.068 1434.93 603.802C1452.27 601.268 1484.53 601.268 1504.27 603.802ZM2738.67 624.602C2748.4 645.135 2773.07 714.335 2782.67 748.602C2788.13 767.935 2790.67 772.735 2796.53 775.535C2803.07 778.602 2809.87 776.602 2816.27 770.068C2821.2 764.735 2824 759.935 2850.13 711.802L2865.87 682.602L2870.27 691.802C2872.67 696.868 2876.4 705.802 2878.67 711.668C2884.53 727.402 2891.47 738.335 2902.67 749.668C2920.13 767.535 2938.13 776.735 2986 792.602C3019.2 803.535 3050.4 818.202 3069.2 831.802C3093.73 849.268 3119.33 878.335 3138.67 910.468C3151.47 931.535 3158.8 952.335 3162.8 978.335C3166.13 999.535 3164 1066.2 3159.2 1094.2C3154.4 1122.2 3143.33 1158.07 3129.33 1191C3113.6 1227.94 3104.13 1254.6 3093.33 1292.47L3082.4 1330.6L3074.13 1331.54C3060.67 1332.87 3042 1329.94 3012.67 1322.07C3000.4 1318.74 2992.27 1317.27 2985.07 1317.14C2979.33 1317 2974.67 1316.87 2974.67 1316.87C2974.67 1316.74 2979.2 1311.14 2984.8 1304.2C3002.27 1282.33 3028.13 1242.6 3039.87 1219.14C3050.93 1197.27 3059.47 1165 3062.67 1133C3067.07 1090.2 3053.6 1041.94 3025.33 998.602C3004.13 965.935 2985.6 945.668 2958.53 925.402C2931.2 904.868 2912.67 895.535 2885.73 888.602C2872.53 885.268 2869.2 885.002 2846 885.002C2806.27 885.135 2792.93 888.602 2716.93 918.868C2677.07 934.735 2668 940.735 2668 951.535C2668 955.802 2670.8 961.002 2674.67 963.935C2678.67 967.002 2690.4 969.135 2745.33 976.468C2799.73 983.668 2823.87 990.068 2854 1005C2901.07 1028.33 2937.07 1068.47 2952.53 1115C2958.67 1133.67 2960.53 1147.54 2959.6 1168.2C2958.27 1197.67 2951.87 1221.67 2937.47 1251.67C2907.47 1313.94 2872.4 1350.07 2811.73 1381.67C2773.07 1401.67 2726.27 1415.8 2683.33 1420.47C2630.67 1426.07 2558.27 1407.67 2525.33 1380.2C2513.6 1370.47 2503.33 1357.4 2496.53 1343.67C2488.4 1327 2486.4 1318.74 2485.73 1297.4C2484.93 1274.6 2486.27 1267.14 2499.47 1226.2C2510.4 1191.94 2516.27 1177.14 2528.53 1152.47C2551.6 1106.47 2561.33 1076.47 2561.33 1051.27C2561.33 1047.8 2561.87 1044.33 2562.4 1043.53C2562.93 1042.74 2568 1039.8 2573.6 1037C2593.2 1027.53 2599.2 1019.8 2598.53 1004.6C2597.73 985.935 2598.13 981.002 2600.93 974.735C2603.47 969.135 2604.4 968.335 2610.4 966.602C2624.13 962.468 2636.27 954.068 2640.8 945.402C2643.73 939.802 2643.2 931.802 2639.6 927.535C2636.93 924.468 2635.07 923.802 2628.4 923.268C2618.4 922.602 2610 926.468 2600.27 936.335C2594.53 942.202 2593.07 943.002 2588.27 943.002C2584.8 943.002 2579.87 941.402 2574.4 938.602C2544.53 923.135 2551.47 880.602 2594.13 817.002C2614.8 786.335 2617.33 780.068 2612.67 771.002C2610.53 766.735 2604.4 764.335 2598.67 765.402C2596.67 765.802 2583.6 777.668 2564.67 796.202C2533.47 826.735 2521.6 836.602 2500.4 849.402C2485.6 858.335 2430.13 886.202 2422.8 888.468C2415.87 890.602 2414.4 889.268 2405.87 874.202C2402.27 867.668 2396.67 860.202 2392.53 856.335C2386.4 850.602 2384.8 849.668 2380 849.668C2376.93 849.668 2373.47 850.202 2372.13 850.868C2370.27 851.935 2365.73 849.402 2349.87 838.202C2338.93 830.602 2329.87 823.802 2329.6 823.268C2329.33 822.335 2335.73 814.202 2367.33 776.335C2376.13 765.668 2389.73 748.602 2397.6 738.335C2414.13 716.468 2437.33 688.602 2446.27 679.402C2452.93 672.735 2468.53 665.002 2504 650.868C2549.73 632.602 2599.73 620.735 2656.67 614.468C2682.13 611.668 2684.13 611.535 2709.73 611.268L2732.13 611.002L2738.67 624.602ZM2793.33 617.135C2871.87 630.068 2947.07 664.335 3022.67 721.802C3086.93 770.602 3123.33 813.402 3154.67 877.002C3171.6 911.402 3181.87 941.802 3189.33 979.002C3196.4 1014.87 3198 1032.07 3198 1073.67C3197.87 1112.87 3196.53 1131 3190.53 1165.94C3182.93 1211.27 3166.4 1250.87 3136.67 1295.67C3126.93 1310.2 3114.8 1323.8 3112.27 1322.87C3110.8 1322.33 3121.07 1282.33 3129.47 1255.67C3132.53 1246.07 3139.07 1227.8 3144.13 1214.74C3155.87 1184.74 3160 1171.8 3167.33 1143.54C3178.13 1101.94 3181.33 1076.6 3181.33 1033.27C3181.33 1004.6 3179.87 988.735 3175.2 967.135C3168.53 936.202 3162.13 921.135 3144.27 895.002C3111.2 846.335 3078.8 817.268 3034 795.668C3024.53 791.135 3004.4 782.735 2989.33 777.002C2943.07 759.535 2931.33 753.135 2916 736.868C2906.53 726.735 2900.93 717.135 2895.47 701.668C2889.87 686.202 2881.73 670.202 2876.8 665.268C2865.87 654.202 2853.33 659.402 2838.8 681.002C2830.13 693.668 2814.67 720.068 2808.53 732.602C2805.73 738.335 2803.07 743.002 2802.67 743.002C2801.6 743.002 2795.87 727.802 2784.67 695.668C2770.13 653.935 2764.8 639.668 2758.8 625.935C2755.73 619.135 2753.33 613.135 2753.33 612.735C2753.33 611.535 2770.8 613.402 2793.33 617.135ZM1833.33 654.868C1839.47 671.802 1841.73 687.002 1841.87 713.935C1842 740.202 1841.07 743.935 1836.13 735.535C1825.73 717.935 1822 700.868 1822 670.335C1822 657.135 1822.53 643.935 1823.07 641.135L1824.27 635.935L1826.8 639.802C1828.13 641.935 1831.07 648.735 1833.33 654.868ZM2387.2 712.602C2384.93 715.002 2378.13 722.735 2372 729.668C2365.87 736.602 2349.2 754.735 2334.93 769.935C2320.67 785.268 2308.13 798.868 2307.07 800.335C2306 801.802 2304.4 803.002 2303.47 803.002C2301.6 803.002 2290.67 794.868 2290.67 793.535C2290.67 791.668 2326.27 755.668 2337.2 746.468C2352.4 733.668 2387.87 708.335 2390.53 708.335C2390.93 708.335 2389.33 710.335 2387.2 712.602ZM718.799 787.002C720.133 787.802 721.333 789.002 721.333 789.668C721.333 791.935 717.866 791.135 715.333 788.335C712.666 785.402 714.4 784.735 718.799 787.002ZM1260.53 804.602C1259.33 808.602 1256.13 815.002 1255.33 815.002C1254.53 815.002 1255.73 809.402 1257.47 804.602C1258.13 803.002 1259.2 801.668 1260 801.668C1260.93 801.668 1261.2 802.868 1260.53 804.602ZM2282.4 816.468C2285.47 818.735 2288 820.868 2288 821.268C2288 822.202 2279.87 832.202 2274.13 838.335C2270.13 842.468 2268.93 843.002 2262.8 843.002C2258.8 843.002 2256 842.468 2256 841.535C2256 839.935 2274.93 812.468 2276.13 812.335C2276.53 812.335 2279.33 814.202 2282.4 816.468ZM2340.67 857.002C2350.93 864.202 2360.67 871.002 2362.4 872.202C2364.13 873.402 2367.47 878.202 2369.87 883.002C2375.33 893.535 2384.93 904.602 2392.67 909.135C2398.8 912.602 2399.07 913.402 2400.67 927.668C2402.27 941.935 2396.67 971.135 2388.67 989.802C2386.27 995.402 2378.93 1009.94 2372.4 1021.94C2365.87 1033.8 2356.4 1051.27 2351.33 1060.6C2342.53 1076.87 2341.87 1077.67 2337.87 1077.67C2332.53 1077.67 2329.07 1081.53 2328.13 1088.74L2327.33 1094.33L2316.67 1094.2C2304.67 1093.94 2278 1088.74 2266 1084.2C2234.8 1072.6 2212.93 1049.8 2201.87 1017.67C2198.4 1007.8 2198.53 981.668 2201.87 965.668C2207.33 940.468 2217.07 913.002 2230.8 885.002L2237.73 870.735L2249.2 871.802C2255.47 872.468 2264.93 873.002 2270 873.002C2282.8 873.002 2288.8 869.268 2303.6 852.335L2315.07 839.135L2318.53 841.535C2320.4 842.868 2330.4 849.802 2340.67 857.002ZM1200.93 909.935C1200.53 910.868 1200.27 910.202 1200.27 908.335C1200.27 906.468 1200.53 905.802 1200.93 906.602C1201.2 907.535 1201.2 909.135 1200.93 909.935ZM2872.13 911.802C2912 918.468 2948.67 939.135 2982 973.802C3001.07 993.668 3020.53 1021.4 3030.13 1042.47C3035.87 1055 3042 1075 3044.8 1090.33C3050.4 1120.87 3042.13 1173.14 3026.8 1203.54C3019.47 1217.94 2996.53 1254.07 2983.2 1271.8C2974.53 1283.4 2944.4 1319 2943.2 1319C2942.93 1319 2946.4 1313.4 2950.8 1306.6C2961.2 1290.74 2980 1252.47 2985.2 1236.74C2992.27 1215.27 2994.8 1200.33 2995.6 1176.33C2996.13 1159.67 2995.73 1151.4 2994.27 1142.33C2987.47 1103.67 2968.93 1066.6 2941.87 1037.8C2907.73 1001.53 2869.07 978.335 2820.67 965.002C2800.93 959.668 2786.27 957.268 2750 953.668C2734.67 952.068 2720.53 950.468 2718.8 949.935C2716.27 949.002 2720.27 947.135 2740.8 939.135C2790 919.935 2814.13 912.602 2833.33 910.602C2845.07 909.402 2860.53 909.802 2872.13 911.802ZM2238.27 1143C2237.33 1157.67 2235.73 1163.14 2234 1157.54C2232.27 1152.07 2232.93 1141.27 2235.33 1135.27C2236.53 1132.2 2238 1129.67 2238.4 1129.67C2238.8 1129.67 2238.67 1135.67 2238.27 1143ZM2268.8 1192.87C2279.73 1196.07 2295.2 1201.14 2303.2 1204.33C2317.73 1209.94 2326.53 1211.27 2333.73 1209.27C2336.8 1208.47 2337.6 1208.74 2338.53 1211.27C2339.2 1213 2344.27 1223.67 2349.73 1235C2355.33 1246.33 2359.6 1255.94 2359.2 1256.2C2358.93 1256.47 2357.6 1255.8 2356.4 1254.74C2351.73 1250.6 2342.67 1247 2337.2 1247C2332.67 1247 2330.8 1247.8 2326.67 1252.07C2320.27 1258.47 2319.2 1265.27 2322 1284.33C2323.07 1292.07 2325.2 1310.87 2326.67 1326.33C2328.93 1350.33 2330.4 1360.07 2334.4 1378.87C2334.93 1381.54 2333.87 1380.74 2328.4 1375.14C2322.67 1369.27 2321.2 1368.33 2316.53 1368.33C2309.73 1368.33 2308.4 1369.4 2304.8 1377L2301.73 1383.27L2296.8 1370.47C2291.07 1355.67 2286 1349.67 2279.47 1349.67C2273.07 1349.67 2269.6 1352.87 2267.2 1361.27L2265.07 1368.74L2259.6 1355.8C2253.33 1340.47 2248.8 1335 2242.67 1335C2236.93 1335 2230.53 1341.54 2227.07 1351C2225.6 1355 2222.93 1365.67 2221.33 1374.74C2219.6 1384.6 2217.87 1390.74 2217.07 1389.94C2216 1388.87 2218 1356.33 2221.33 1321.67C2224 1295.27 2230.93 1257 2239.33 1223C2242.53 1210.07 2245.47 1196.74 2246 1193.27C2246.53 1189.8 2247.33 1187 2247.87 1187C2248.4 1187 2257.87 1189.67 2268.8 1192.87ZM2491.33 1357.8C2502.27 1374.74 2522.8 1394.33 2543.07 1407C2568 1422.6 2614.67 1437.54 2651.87 1441.8C2672 1444.07 2717.6 1442.6 2738 1439.14C2768.8 1433.94 2801.07 1423 2833.33 1406.87C2854.67 1396.2 2880.13 1380.2 2893.73 1369.27C2906.67 1358.6 2902.13 1364.6 2887.07 1378.07C2831.73 1427.14 2780.13 1458.74 2730.67 1473.94C2664 1494.34 2621.6 1496.47 2581.07 1481.67C2553.07 1471.4 2522.8 1446.87 2504.67 1419.54C2488.27 1395 2477.07 1362.74 2474.13 1332.33L2473.33 1323.67L2479.2 1335.8C2482.4 1342.6 2487.87 1352.47 2491.33 1357.8ZM3008.4 1343C3036.4 1350.2 3048.27 1352.33 3062.53 1352.74C3069.2 1352.87 3074.67 1353.4 3074.67 1354.07C3074.67 1354.6 3072.67 1362.33 3070.13 1371.4C3067.6 1380.33 3063.73 1395.27 3061.6 1404.6L3057.73 1421.54L3047.07 1432.74C3012.27 1469.67 2981.2 1517.14 2964.13 1559.94C2954.67 1583.8 2946.8 1600.47 2940.8 1609.54C2930.4 1625.14 2892.53 1659.94 2868.4 1676.2C2841.47 1694.2 2801.2 1709.27 2768 1713.8C2747.2 1716.6 2711.07 1715.27 2690.8 1710.87C2680.8 1708.74 2680.53 1708.2 2685.6 1701.4C2695.6 1688.34 2699.87 1672.34 2697.33 1657.14C2696.4 1651.94 2695.2 1646.74 2694.67 1645.67C2694.13 1644.6 2693.33 1642.07 2692.93 1640.2C2692.13 1636.87 2692.27 1636.6 2698.8 1635.8C2720.13 1633 2816.13 1591.14 2851.73 1569.14C2875.2 1554.6 2901.73 1532.07 2913.2 1516.6C2926.53 1499 2937.07 1473.94 2939.2 1455C2939.6 1451 2940.67 1437.8 2941.33 1425.67C2943.33 1394.47 2945.6 1381.94 2952 1369C2958 1356.6 2967.6 1344.07 2973.73 1340.33C2979.87 1336.6 2984.93 1337 3008.4 1343ZM679.2 1360.2C681.466 1377.27 693.2 1401.8 709.866 1423.94C736 1458.74 790.799 1507.94 859.333 1558.34C884.799 1577 886.133 1578.07 874 1571.27C856.799 1561.54 823.733 1543.54 771.2 1515.27C707.733 1481.14 681.466 1465.27 668.4 1453.27C661.733 1447.14 658 1438.47 659.066 1431.4C660.533 1421.67 676.666 1353.67 677.466 1353.67C678 1353.67 678.666 1356.6 679.2 1360.2ZM3103.87 1421.94C3111.73 1426.74 3274.13 1535 3308 1558.07C3348.27 1585.54 3378.27 1607.14 3431.47 1646.6C3455.07 1664.07 3486.27 1687 3500.8 1697.67C3555.47 1737.8 3600.8 1773.94 3612.53 1787C3615.47 1790.2 3617.33 1793.67 3617.33 1795.8C3617.33 1800.47 3612.8 1813.4 3599.47 1847.14C3580.4 1895.27 3567.6 1921.4 3521.33 2006.34C3482.93 2076.74 3444.4 2148.87 3405.33 2223.67C3392.67 2247.8 3377.73 2276.34 3372 2287C3366.27 2297.67 3349.73 2328.87 3335.33 2356.34C3270.13 2480.07 3214.53 2572.6 3149.87 2665C3139.6 2679.67 3124.67 2701.14 3116.8 2712.6L3102.4 2733.67L3098.8 2731.14C3089.07 2724.07 3060.93 2699.54 3052.8 2691C3042.27 2679.8 3036.53 2668.74 3034.27 2655.4C3031.87 2641 3032.4 2575.4 3035.2 2551C3046.53 2448.87 3046 2405.94 3033.33 2366.87C3027.87 2350.07 3013.6 2321.14 2996.67 2292.34C2988.67 2278.74 2978.27 2261 2973.6 2253C2968.8 2244.87 2961.6 2231.4 2957.47 2223C2950.13 2207.8 2950 2207.54 2950 2195.67C2950 2184.6 2950.4 2183 2954.53 2175C2962.8 2158.74 2996.8 2113.27 3032 2071.14C3043.47 2057.54 3061.33 2035.54 3072 2022.34C3102 1984.87 3140.4 1938.74 3171.2 1903C3208.13 1860.34 3222.53 1842.74 3241.2 1817.67C3266.27 1783.67 3291.6 1753 3310.67 1733.14C3328.53 1714.6 3332 1709.27 3332 1700.87C3332 1695.14 3328.93 1687.8 3324.4 1682.87C3315.07 1672.6 3274.13 1645 3198.93 1598.07C3160 1573.94 3118.8 1546.47 3105.73 1536.07C3078.67 1514.6 3073.6 1496.47 3080.67 1447.27C3082.4 1435.27 3082.67 1434.74 3089.33 1427C3093.2 1422.6 3096.93 1419 3097.6 1419C3098.4 1419 3101.2 1420.34 3103.87 1421.94ZM3053.87 1509.67C3058.4 1527.14 3069.07 1541.67 3088.53 1556.87C3101.6 1567.14 3121.6 1579.67 3178.67 1613.67C3260.13 1662.2 3304 1691.4 3304 1697C3304 1697.8 3300.67 1701 3296.53 1704.34C3281.33 1716.47 3253.87 1749 3214.4 1801.67C3203.73 1815.94 3187.87 1836.07 3179.2 1846.34C3157.87 1871.27 3102.4 1939.27 3066.4 1984.34C3050.4 2004.47 3027.47 2033 3015.6 2047.67C2988.8 2080.74 2960.27 2118.6 2946.27 2139.67C2927.2 2168.2 2921.2 2185.14 2924 2202.34C2926.4 2217.8 2932 2229.14 2961.47 2279.27C2994.8 2335.8 3003.47 2353.54 3010.13 2378.34C3013.07 2389.8 3013.73 2395.14 3014.27 2416.34C3015.07 2444.74 3013.87 2463 3007.47 2517C3000.8 2573.14 2999.47 2594.47 3000.4 2633C3001.2 2668.6 3002.4 2675.8 3008.93 2688.87C3018.27 2707.54 3030.93 2720.6 3063.07 2744.6C3073.87 2752.74 3082.67 2759.8 3082.67 2760.34C3082.67 2761.8 3045.47 2814.34 3044.53 2814.34C3044 2814.34 3042.53 2811.27 3041.07 2807.67C3026.4 2770.2 3003.73 2733 2967.87 2687.54C2967.07 2686.6 2968 2683.27 2970 2678.74C2976.27 2665 2976.67 2655 2972.93 2610.34C2971.07 2588.34 2969.07 2555 2968.67 2536.34C2967.47 2485.14 2966 2468.74 2957.2 2418.34C2940.8 2323.14 2925.73 2255.27 2916.67 2235.4C2908.53 2217.67 2899.47 2206.34 2871.47 2178.47C2828.53 2136.07 2789.33 2099 2760.67 2073.8C2719.47 2037.54 2702.8 2021.94 2656.67 1976.34C2633.2 1953.14 2606 1926.87 2596.4 1917.8C2582.27 1904.74 2578.67 1900.6 2578.67 1897.8C2578.53 1881.54 2563.87 1855 2544.8 1836.74C2530.8 1823.14 2520.27 1815.8 2500.67 1805.54C2491.87 1801 2482.8 1795.8 2480.4 1794.07C2476.93 1791.54 2462.67 1770.47 2462.67 1767.8C2462.67 1767.4 2469.73 1767 2478.4 1767C2507.73 1767 2539.07 1763 2578 1754.2C2613.47 1746.34 2634 1739.54 2651.33 1729.8L2660.67 1724.6L2668.53 1728.6C2686 1737.4 2713.47 1741.67 2752.8 1741.67C2818.53 1741.67 2866.8 1720.47 2928.8 1664.2C2961.2 1634.87 2968.4 1624.2 2988.27 1577C3001.33 1545.8 3016.13 1519.8 3038.67 1488.6L3050 1473L3050.93 1487.14C3051.33 1495 3052.67 1505.14 3053.87 1509.67ZM1561.73 1520.74C1566 1523.14 1572.13 1529.67 1570 1529.67C1568.93 1529.67 1550.27 1519 1548.67 1517.54C1546.53 1515.4 1556.27 1517.8 1561.73 1520.74ZM1757.87 1564.2C1760 1565 1759.47 1565.94 1753.87 1571C1744.67 1579.14 1732.67 1586.6 1712.13 1597C1685.6 1610.47 1678.93 1618.87 1684.93 1630.6C1686.93 1634.47 1689.6 1636.74 1696.13 1639.94C1710 1647 1722.93 1650.07 1784.67 1660.34C1823.87 1666.87 1847.07 1671.4 1864.67 1675.8C1880.8 1679.8 1906.53 1687.8 1909.33 1689.67C1912.4 1691.67 1879.73 1691.27 1850 1689C1836.13 1687.94 1817.73 1686.6 1809.33 1686.2C1794.93 1685.4 1793.73 1685.54 1790.4 1688.34C1785.73 1691.94 1785.47 1697.4 1789.73 1701.27C1794.53 1705.8 1813.87 1709.94 1868.4 1718.34C1885.87 1721 1904.13 1724.34 1909.07 1725.94L1918 1728.74L1911.47 1731.8C1895.47 1739.27 1876.53 1739 1802.67 1730.87C1763.33 1726.47 1752.8 1726.34 1749.87 1730.34C1747.07 1734.2 1747.6 1738.34 1751.73 1742.34C1760.27 1751 1815.07 1772.47 1859.33 1784.6C1868.13 1787 1874 1789.14 1872.4 1789.4C1863.07 1790.74 1792.53 1777.4 1771.73 1770.2C1764.13 1767.67 1753.33 1763.94 1747.73 1761.94C1734.67 1757.54 1730 1758.47 1730 1765.67C1730 1769.8 1731.2 1771.14 1745.73 1783C1761.33 1795.8 1772.27 1805.8 1771.6 1806.6C1769.47 1808.74 1725.6 1791.54 1691.33 1775C1680.4 1769.8 1668 1763.8 1664 1761.94C1647.47 1754.07 1623.87 1740.74 1611.33 1732.2C1592.13 1719.14 1539.87 1677 1541.47 1675.94C1544.93 1673.67 1555.47 1663.54 1561.2 1657.14C1580.27 1635.4 1593.47 1609 1599.07 1581.4L1600.8 1573L1605.47 1573.4C1621.2 1574.74 1648.93 1573.67 1665.33 1571.14C1700.27 1565.8 1752.13 1561.94 1757.87 1564.2ZM2554.27 1594.34C2570.53 1601.94 2585.87 1610.87 2592.8 1616.87C2600.4 1623.27 2604 1631 2613.33 1659.67C2621.73 1685.27 2628.27 1701.14 2633.2 1708.2L2636 1712.07L2626.53 1715.8C2584.27 1731.94 2515.33 1743 2468.67 1741.27C2458.4 1740.87 2447.73 1739.94 2444.93 1739C2440.27 1737.67 2426.53 1726.74 2425.6 1723.67C2425.33 1723 2429.87 1721.4 2435.47 1720.2C2443.87 1718.47 2446.53 1717.27 2449.6 1713.8C2453.87 1709.14 2454.27 1705.94 2451.33 1700.34L2449.33 1696.6L2459.73 1695.67C2465.33 1695.14 2472.27 1693.8 2475.07 1692.74C2483.07 1689.54 2486.4 1680.34 2481.87 1673.94C2478.53 1669 2473.2 1667.27 2452.53 1663.67C2441.73 1661.94 2432.67 1660.07 2432.27 1659.67C2431.87 1659.27 2444.53 1659 2460.4 1659C2491.6 1659 2494.8 1658.47 2498.13 1652.2C2500.4 1647.67 2500.53 1645.54 2498.4 1641C2496 1635.54 2489.2 1633 2466 1628.34C2454.27 1626.07 2444.53 1623.94 2444.27 1623.67C2444 1623.54 2451.2 1622.87 2460.27 1622.47C2469.33 1621.94 2481.47 1620.87 2487.2 1620.2C2516.8 1616.34 2531.87 1601.8 2524.67 1584.07C2523.87 1581.94 2524.8 1582.07 2532.53 1585C2537.33 1586.87 2547.2 1591 2554.27 1594.34ZM1502.67 1667.8C1508.67 1670.2 1509.33 1671.67 1505.07 1672.87C1499.47 1674.34 1493.6 1673.67 1490.67 1671.27C1484.27 1666.07 1492.53 1663.8 1502.67 1667.8ZM2396.13 1763.67C2425.33 1767.8 2435.33 1773.54 2447.6 1793.14C2457.07 1808.47 2463.6 1814.74 2478.13 1822.87C2495.2 1832.34 2527.2 1857.54 2525.07 1859.67C2524.8 1860.07 2520.67 1858.6 2516 1856.74C2504.53 1851.94 2489.6 1851.8 2478.53 1856.2C2468.4 1860.07 2455.87 1868.34 2448.13 1876.2C2425.73 1898.47 2417.87 1932.07 2429.47 1955.27C2430.93 1958.07 2432 1960.6 2432 1961.14C2432 1961.54 2428 1958.2 2423.07 1953.67C2410.27 1941.67 2398 1934.07 2362.67 1916.47C2317.33 1893.8 2278.67 1871.67 2278.67 1868.34C2278.67 1865 2297.07 1858.74 2331.2 1850.47C2350.27 1845.94 2355.73 1842.74 2359.87 1834.6C2363.87 1826.47 2362.93 1820.74 2356.4 1813.54C2348.13 1804.34 2329.47 1796.47 2291.33 1785.94C2264.13 1778.47 2260 1777 2260 1775C2260 1769.94 2296.8 1763.67 2336 1761.94C2362.27 1760.74 2378.4 1761.27 2396.13 1763.67ZM2508.4 1881.67C2516.13 1884.6 2526 1891 2539.73 1902.2L2548.27 1909L2547.33 1914.74C2545.07 1929.94 2538.27 1942.34 2526.53 1952.87C2513.33 1964.74 2488.27 1973.94 2477.2 1971C2467.2 1968.34 2453.87 1951 2451.33 1937.54C2450.27 1931.4 2452.53 1918.87 2456.13 1911.4C2459.87 1903.54 2470.4 1892.34 2479.47 1886.34C2491.47 1878.34 2497.07 1877.4 2508.4 1881.67ZM1468.8 1959.8C1495.87 1977.54 1544.13 2008.6 1576 2029C1679.07 2094.87 1732.8 2129.4 1756.8 2145.14C1795.87 2170.74 1842 2200.34 1866.13 2215.54C1898.27 2235.54 1919.87 2250.07 1916 2248.87C1910.27 2247.27 1889.07 2237.67 1878.67 2231.94C1862.8 2223.27 1844.67 2212.2 1805.33 2187C1785.2 2174.07 1754.27 2154.47 1736.67 2143.4C1678.53 2107 1562.4 2030.74 1518 1999.8C1491.07 1981 1419.47 1929.54 1414.67 1925.54L1411.33 1922.74L1415.47 1925.14C1417.73 1926.6 1441.73 1942.07 1468.8 1959.8ZM2387.47 2068.47C2389.87 2071.14 2389.87 2071.4 2385.33 2080.07C2373.73 2102.47 2347.2 2138.47 2316.8 2173C2304.13 2187.54 2301.33 2191.8 2301.33 2197C2301.33 2206.07 2309.33 2210.47 2321.73 2208.34C2325.6 2207.67 2334.4 2205.94 2341.33 2204.47C2348.27 2202.87 2354.4 2201.67 2355.07 2201.67C2362.27 2201.54 2327.6 2227.54 2293.2 2248.2C2286.93 2251.94 2281.33 2255 2280.93 2255C2280.53 2255 2278.93 2252.34 2277.33 2249C2272.67 2239.27 2255.33 2225.14 2214 2197.67C2186.27 2179.27 2176 2171.27 2176 2168.47C2176 2165.27 2187.87 2152.47 2199.07 2143.14C2227.47 2120.07 2274.13 2095.67 2322 2079C2357.87 2066.47 2382.13 2062.6 2387.47 2068.47ZM2357.6 2341.67C2373.87 2343.27 2388 2346.87 2407.07 2354.2C2456.4 2373.4 2501.47 2402.74 2537.33 2439C2551.2 2453 2567.6 2472.34 2565.6 2472.34C2564.93 2472.34 2561.87 2470.47 2558.67 2468.2C2528.27 2446.2 2481.87 2417.14 2455.33 2403.67C2385.33 2367.94 2346.13 2365 2281.6 2390.87C2254 2401.94 2234.13 2413.54 2214.8 2429.8C2204.93 2437.94 2204.93 2438.07 2208 2432.87C2221.33 2410.87 2252.27 2378.47 2274.4 2363.27C2302.93 2343.67 2323.6 2338.34 2357.6 2341.67ZM2332 2397.67C2320.8 2403.54 2309.2 2420.47 2304.53 2437.8C2298.4 2461 2304.8 2505.94 2319.47 2541.27C2333.33 2574.87 2362.67 2625.14 2401.33 2681.67C2425.73 2717.27 2433.47 2729.94 2447.33 2757C2464.8 2791.14 2471.07 2811.4 2468 2823.14C2465.87 2831 2457.2 2839.27 2448 2842.34C2439.07 2845.27 2415.07 2845.27 2400.67 2842.34C2360.53 2834.07 2312.93 2805.14 2271.87 2764.34C2223.07 2715.8 2188.93 2666.47 2175.33 2625C2163.73 2589.8 2162.8 2560.47 2172.13 2524.34C2184 2478.34 2218.4 2439.94 2269.47 2415.8C2286.53 2407.8 2308.13 2400.07 2322 2397.14C2335.07 2394.47 2337.73 2394.6 2332 2397.67ZM2378 2429.54C2383.87 2431 2391.07 2433.14 2394 2434.34C2433.6 2450.74 2478.67 2477 2501.73 2497.27C2528.4 2520.74 2562.93 2567.67 2582 2606.34C2608.8 2660.87 2618.67 2714.07 2610.67 2760.87C2601.87 2812.2 2581.47 2867.67 2563.73 2887.94C2547.2 2906.87 2522.4 2925.27 2504.27 2932.07C2487.6 2938.34 2459.47 2935.94 2429.47 2925.4C2413.6 2919.94 2363.07 2894.74 2341.07 2881.4C2264.4 2835 2216.8 2787.14 2185.2 2724.74C2174.93 2704.34 2167.73 2683.4 2164 2662.6C2162.53 2654.47 2161.33 2647.54 2161.33 2647.14C2161.33 2646.74 2163.73 2650.74 2166.67 2655.94C2182.53 2685.14 2222.93 2736.6 2255.33 2769C2303.87 2817.4 2346.53 2848.87 2384.27 2863.8C2407.33 2873 2437.07 2876.87 2454.53 2873.14C2488 2866.07 2505.87 2843.54 2503.6 2811.14C2502.27 2791.8 2493.87 2767.67 2476.53 2733.27C2465.33 2711 2461.07 2703.94 2426 2651C2393.33 2601.67 2379.47 2579.4 2370 2560.47C2348.53 2517.54 2340.67 2490.74 2340.67 2459.67C2340.67 2442.87 2340.93 2440.47 2343.6 2435.4C2345.33 2432.34 2347.73 2429.14 2348.93 2428.47C2352.8 2426.2 2366.4 2426.87 2378 2429.54ZM1985.07 2506.47C2039.2 2539.8 2050.13 2546.87 2056.27 2552.47C2060 2556.07 2060.27 2556.87 2059.47 2562.07C2056.8 2579 2026.4 2610.34 1999.6 2623.8L1990.53 2628.47L1985.6 2624.2C1979.2 2618.47 1968.4 2613.67 1962.27 2613.67C1950.8 2613.67 1944 2620.34 1944 2631.54C1944 2643.94 1957.87 2655 1976.93 2657.94L1986.27 2659.27L1996.27 2676.2C2001.73 2685.4 2017.07 2711.27 2030.27 2733.67C2053.6 2773 2073.87 2807.94 2082.27 2823C2084.53 2827 2098.67 2851.94 2113.73 2878.34C2128.67 2904.74 2149.33 2941.67 2159.6 2960.34C2190 3015.8 2203.33 3035.94 2220.8 3052.2C2225.6 3056.74 2231.73 3063.27 2234.4 3066.74C2242 3077 2247.33 3080.87 2270.53 3093.54C2303.87 3111.54 2315.73 3114.6 2348 3113.14C2395.47 3111.14 2448.4 3102.34 2501.33 3087.67C2553.2 3073.27 2546 3074.6 2572 3075.4C2597.33 3076.34 2624.27 3079.8 2647.33 3085.27C2685.2 3094.2 2711.6 3109 2723.87 3128.2L2728.13 3134.74L2728.8 3193.4L2729.47 3252.07L2724.27 3260.07C2714.8 3274.74 2713.73 3287.14 2721.07 3299C2731.2 3315.4 2748.67 3317.4 2756 3303C2758.13 3298.74 2759.33 3297.94 2764.13 3297.14C2772.4 3295.8 2786.67 3287.8 2794.93 3279.94C2798.8 3276.07 2807.6 3266.34 2814.53 3258.34C2832.67 3237 2847.33 3222.34 2853.73 3219.14C2860.67 3215.67 2861.6 3217.54 2857.33 3226.47C2850.27 3240.87 2829.2 3264.2 2792.67 3297.54C2750.53 3336.07 2715.33 3364.07 2675.33 3390.34C2647.33 3408.74 2639.47 3413 2619.6 3420.87C2595.73 3430.34 2583.73 3432.87 2564.67 3432.74C2527.47 3432.34 2499.87 3422.6 2427.33 3383.67C2326.13 3329.4 2252.27 3281.27 2187.6 3227.4C2124 3174.2 2086.53 3135.27 2004.27 3037.14C1971.33 2997.94 1944.4 2958.47 1927.6 2925C1898.8 2867.27 1882 2803.27 1877.07 2733.14C1873.6 2682.07 1884.67 2606.2 1903.87 2551C1911.87 2527.94 1933.6 2476.34 1935.33 2476.34C1935.87 2476.34 1958.27 2489.94 1985.07 2506.47ZM2558.93 2495.8C2567.2 2501.8 2580.27 2510.2 2588 2514.6C2600.8 2521.94 2602.53 2523.4 2608.27 2531.8C2615.87 2542.87 2637.6 2585.14 2645.2 2603.54C2650.93 2617.14 2660.67 2649.4 2664.67 2667C2665.87 2672.47 2667.33 2679.4 2668 2682.34C2672.8 2703.94 2676.27 2729.8 2676.93 2750.34C2677.87 2776.2 2676.4 2791.4 2670.67 2820.34C2662.67 2860.07 2654.67 2882.34 2636.4 2915C2623.07 2938.87 2618 2946.87 2607.2 2959.54C2575.87 2996.6 2515.47 3016.34 2431.33 3016.87C2405.2 3017 2404.13 3016.87 2380.67 3011.94C2338.8 3003.14 2315.87 2993.54 2279.2 2969.54C2246.4 2947.94 2229.47 2933 2212.93 2910.87C2187.73 2877.27 2170.13 2837 2144.67 2755C2140.4 2741.4 2134.53 2717.14 2131.87 2702.2C2129.6 2689.67 2128.8 2679 2128.4 2651.94C2127.87 2627.14 2128.13 2617.67 2129.2 2617.67C2130.13 2617.67 2130.67 2620.47 2130.67 2624.87C2130.67 2635.14 2134.4 2662.87 2137.6 2677C2151.47 2737.67 2198.93 2806.07 2262 2856.74C2295.6 2883.67 2360.53 2923.4 2397.33 2939.67C2414 2946.87 2441.2 2955.94 2453.73 2958.34C2467.6 2961 2490.53 2961 2501.6 2958.47C2519.47 2954.34 2544.67 2939.4 2567.07 2919.54C2599.07 2891.27 2619.87 2852.07 2634.8 2791.67C2651.33 2724.47 2648.8 2684.2 2623.33 2616.2C2607.33 2573.4 2576.13 2523.4 2544.53 2489.67C2535.6 2480.2 2534 2478.07 2538.27 2481C2541.2 2483.27 2550.53 2489.94 2558.93 2495.8ZM2900.13 2656.07C2906.4 2660.34 2914.67 2667.4 2914 2668.07C2913.2 2669 2901.07 2661 2897.33 2657C2893.73 2653.14 2895.07 2652.6 2900.13 2656.07ZM3023.33 2913.94C3019.73 2945.54 3016.93 2960.6 3008.53 2991.67C2997.33 3033.27 2986.93 3058.07 2969.73 3084.34C2958.27 3101.67 2935.87 3131.54 2921.47 3148.34C2904.8 3167.94 2891.6 3184.34 2886.67 3191.67C2884.27 3195.27 2882 3198.6 2881.73 3198.87C2881.6 3199.14 2880.27 3198.47 2878.93 3197.27C2870.8 3189.94 2857.6 3189.14 2845.47 3195.14C2834.13 3200.87 2824.27 3210.34 2802 3237C2782.8 3259.94 2775.6 3267.4 2769.87 3269.94C2765.6 3271.94 2765.2 3271.27 2766.67 3265.14C2767.6 3261.14 2770.67 3257 2779.73 3247.8C2793.2 3234.07 2800.27 3225.67 2815.73 3205.54C2826.27 3191.8 2834.53 3179.4 2877.73 3111.67C2901.33 3074.74 2902.67 3072.74 2944.67 3015C2960.93 2992.6 2984.93 2959.14 2998 2940.6C3011.07 2922.2 3022.27 2907 3022.93 2907C3023.6 2907 3023.73 2910.2 3023.33 2913.94ZM2676 3060.87C2696.27 3062.34 2711.2 3069.4 2718.67 3081.27C2722.67 3087.54 2727.2 3099.4 2726.4 3101.54C2726.13 3102.2 2722.13 3099.8 2717.33 3096.2C2701.07 3083.94 2679.2 3074.34 2650.8 3066.87C2642.27 3064.6 2634.4 3062.47 2633.33 3061.94C2631.33 3061 2656.13 3059.4 2662.67 3059.94C2664.53 3060.07 2670.53 3060.47 2676 3060.87ZM2435.73 3079.67C2433.6 3081.8 2379.73 3088.74 2351.33 3090.47C2342.53 3091 2332.8 3090.74 2327.07 3089.8C2317.87 3088.34 2302.67 3083.4 2302.67 3081.8C2302.67 3081.4 2322.93 3081.14 2347.6 3081.4C2384.53 3081.67 2411.07 3081 2433.87 3079.14C2435.33 3079.14 2436.13 3079.27 2435.73 3079.67Z" fill="#1B1817"/>
</svg>
