<svg width="238" height="238" viewBox="0 0 238 238" fill="none" xmlns="http://www.w3.org/2000/svg">
<g id="icon">
<g id="chat">
<path id="Shape" fill-rule="evenodd" clip-rule="evenodd" d="M37 84.0865C37 44.661 73.238 12 119.063 12C164.989 12 201.769 44.7347 201.769 84.0865C201.769 123.416 165.015 156.173 119.063 156.173C108.417 156.173 98.1017 154.421 88.3533 150.96C78.4961 160.418 65.2373 165.785 51.4817 165.785C47.1838 165.785 45.0409 160.595 48.0685 157.581C55.3103 150.371 58.2288 139.914 55.8249 130.045C43.6754 117.153 37 100.882 37 84.0865ZM88.8889 140.89C98.3809 144.653 108.533 146.625 119.063 146.625C159.344 146.625 192.179 118.535 192.179 84.0862C192.179 49.6375 159.344 21.5472 119.063 21.5472C79.137 21.5472 46.5902 49.6375 46.5902 84.0862C46.5902 98.7717 52.6861 113.044 63.6377 124.275C64.1938 124.845 64.5993 125.543 64.8175 126.307C67.5867 136 66.424 146.231 61.8748 154.91C70.1313 152.877 77.711 148.453 83.5417 142.11C84.8962 140.636 87.0247 140.151 88.8889 140.89Z" fill="black"/>
<path id="Shape_2" fill-rule="evenodd" clip-rule="evenodd" d="M66.293 85.2306C66.293 77.1547 72.8632 70.5845 80.9391 70.5845C89.015 70.5845 95.5853 77.1547 95.5853 85.2306C95.5853 93.3065 89.015 99.8768 80.9391 99.8768C72.8632 99.8768 66.293 93.3065 66.293 85.2306ZM76.0583 85.2309C76.0583 87.9229 78.2484 90.113 80.9403 90.113C83.6323 90.113 85.8224 87.9229 85.8224 85.2309C85.8224 82.539 83.6323 80.3489 80.9403 80.3489C78.2484 80.3489 76.0583 82.539 76.0583 85.2309Z" fill="black"/>
<path id="Shape_3" fill-rule="evenodd" clip-rule="evenodd" d="M102.907 85.2306C102.907 77.1547 109.478 70.5845 117.554 70.5845C125.63 70.5845 132.2 77.1547 132.2 85.2306C132.2 93.3065 125.63 99.8768 117.554 99.8768C109.478 99.8768 102.907 93.3065 102.907 85.2306ZM112.673 85.2309C112.673 87.9229 114.863 90.113 117.555 90.113C120.247 90.113 122.437 87.9229 122.437 85.2309C122.437 82.539 120.247 80.3489 117.555 80.3489C114.863 80.3489 112.673 82.539 112.673 85.2309Z" fill="black"/>
<path id="Shape_4" fill-rule="evenodd" clip-rule="evenodd" d="M143.185 85.2307C143.185 77.1549 149.755 70.5846 157.831 70.5846C165.907 70.5846 172.477 77.1549 172.477 85.2307C172.477 93.3066 165.907 99.8769 157.831 99.8769C149.755 99.8769 143.185 93.3066 143.185 85.2307ZM152.95 85.2309C152.95 87.9229 155.14 90.113 157.832 90.113C160.524 90.113 162.714 87.9229 162.714 85.2309C162.714 82.539 160.524 80.3489 157.832 80.3489C155.14 80.3489 152.95 82.539 152.95 85.2309Z" fill="black"/>
</g>
</g>
</svg>
