<svg width="962" height="733" viewBox="0 0 962 733" fill="none" xmlns="http://www.w3.org/2000/svg">
<g opacity="0.04">
<path d="M-181.989 77.5455C-155.148 34.7837 -128.99 -7.50534 -94.2934 -43.5212C-76.4871 -62.0047 -42.6913 -93.1558 -22.9096 -108.338C33.2286 -151.423 96.7289 -183.073 158.393 -215.423C245.077 -260.898 332.533 -304.298 421.93 -343.198C468.296 -363.373 515.033 -382.566 561.48 -402.519" stroke="black" stroke-width="4" stroke-linecap="round"/>
<path d="M-150.63 126.964C-108.379 90.1617 -69.242 49.1928 -26.0599 13.6354C14.7216 -19.9452 59.1354 -47.4892 103.968 -74.1496C156.701 -105.507 209.862 -133.372 266.298 -156.115C412.25 -214.929 561.994 -264.583 710.742 -314.386C751.689 -328.096 793.107 -338.833 834.565 -350.276" stroke="black" stroke-width="4" stroke-linecap="round"/>
<path d="M-112.738 177.794C-103.507 168.321 -92.3875 156.369 -82.1842 148.033C-59.7845 129.731 -33.9508 116.873 -8.79459 103.795C89.7044 52.5869 193.409 15.4974 294.574 -28.8391C394.808 -72.7676 493.759 -120.977 596.895 -156.701C643.653 -172.897 691.52 -185.16 739.181 -197.785" stroke="black" stroke-width="4" stroke-linecap="round"/>
<path d="M-65.7002 213.093C-38.3819 193.981 -11.8318 172.813 16.0972 154.879C61.4368 125.764 110.722 107.682 161.299 92.3671C235.077 70.0259 309.076 57.1845 385.456 51.2603C499.819 42.3902 614.811 43.008 729.394 40.0715C748.338 39.586 767.272 39.4229 786.219 39.4229" stroke="black" stroke-width="4" stroke-linecap="round"/>
<path d="M-48.7129 245.379C80.8719 207.859 212.691 184.352 346.932 177.773C493.803 170.574 641.977 192.345 786.42 219.439C844.085 230.255 901.694 244.898 960.001 251.215" stroke="black" stroke-width="4" stroke-linecap="round"/>
<path d="M-30.4209 280.138C-1.72616 280.138 26.7647 272.986 55.5582 272.057C117.816 270.05 180.573 271.024 242.795 273.577C331.765 277.229 420.162 290.73 507.922 306.22C567.079 316.661 629.073 325.151 681.5 356.5C700.388 367.794 718.5 375.5 733.954 389.586" stroke="black" stroke-width="4" stroke-linecap="round"/>
<path d="M-2.98242 317.577C36.0089 320.582 74.6547 335.973 111.447 349.085C180.129 373.563 248.577 400.457 313.796 434.4C346.664 451.506 378.18 471.309 409.729 491.034C431.805 504.837 472.207 533.334 493.328 548.838C546.507 587.875 626.253 672.37 632.776 682.925" stroke="black" stroke-width="4" stroke-linecap="round"/>
<path d="M-3 361C15.7579 371.347 29.8223 387.686 44.4387 403.802C95.4996 460.1 146.441 516.937 195.523 575.253C224.066 609.165 249.671 644.602 273.988 682.097C278.706 689.37 285.265 697.132 288.377 705.517" stroke="black" stroke-width="4" stroke-linecap="round"/>
<path d="M-3 409C14.9537 431.687 30.348 456.313 45.123 481.521C71.7546 526.959 98.641 572.956 113.571 624.626C125.756 666.794 134.196 709.282 134.196 753.517" stroke="black" stroke-width="4" stroke-linecap="round"/>
<path d="M-206.815 22.4799C-186.464 -6.44812 -167.491 -36.4624 -147.237 -65.4665C-96.2832 -138.435 -41.3534 -204.15 24.0125 -262.272C56.4639 -291.127 81.0074 -312.261 115.775 -337.573C153.685 -365.174 193.915 -387.395 234.482 -409.876C261.605 -424.906 288.089 -440.374 313.221 -458.996" stroke="black" stroke-width="4" stroke-linecap="round"/>
</g>
</svg>
