<svg width="34" height="34" viewBox="0 0 34 34" fill="none" xmlns="http://www.w3.org/2000/svg">
<path d="M15.5835 24.083H18.4168V15.583H15.5835V24.083ZM17.0002 12.7497C17.4016 12.7497 17.738 12.6139 18.0095 12.3424C18.2811 12.0709 18.4168 11.7344 18.4168 11.333C18.4168 10.9316 18.2811 10.5952 18.0095 10.3236C17.738 10.0521 17.4016 9.91634 17.0002 9.91634C16.5988 9.91634 16.2623 10.0521 15.9908 10.3236C15.7193 10.5952 15.5835 10.9316 15.5835 11.333C15.5835 11.7344 15.7193 12.0709 15.9908 12.3424C16.2623 12.6139 16.5988 12.7497 17.0002 12.7497ZM17.0002 31.1663C15.0404 31.1663 13.1988 30.7945 11.4752 30.0507C9.75155 29.307 8.25225 28.2976 6.97725 27.0226C5.70225 25.7476 4.69287 24.2483 3.94912 22.5247C3.20537 20.8011 2.8335 18.9594 2.8335 16.9997C2.8335 15.04 3.20537 13.1983 3.94912 11.4747C4.69287 9.75106 5.70225 8.25176 6.97725 6.97676C8.25225 5.70176 9.75155 4.69238 11.4752 3.94863C13.1988 3.20488 15.0404 2.83301 17.0002 2.83301C18.9599 2.83301 20.8016 3.20488 22.5252 3.94863C24.2488 4.69238 25.7481 5.70176 27.0231 6.97676C28.2981 8.25176 29.3075 9.75106 30.0512 11.4747C30.795 13.1983 31.1668 15.04 31.1668 16.9997C31.1668 18.9594 30.795 20.8011 30.0512 22.5247C29.3075 24.2483 28.2981 25.7476 27.0231 27.0226C25.7481 28.2976 24.2488 29.307 22.5252 30.0507C20.8016 30.7945 18.9599 31.1663 17.0002 31.1663ZM17.0002 28.333C20.1641 28.333 22.8439 27.2351 25.0397 25.0393C27.2356 22.8434 28.3335 20.1636 28.3335 16.9997C28.3335 13.8358 27.2356 11.1559 25.0397 8.96009C22.8439 6.76426 20.1641 5.66634 17.0002 5.66634C13.8363 5.66634 11.1564 6.76426 8.96058 8.96009C6.76475 11.1559 5.66683 13.8358 5.66683 16.9997C5.66683 20.1636 6.76475 22.8434 8.96058 25.0393C11.1564 27.2351 13.8363 28.333 17.0002 28.333Z" fill="#1B7394"/>
</svg>
