<svg width="2902" height="4145" viewBox="0 0 2902 4145" fill="none" xmlns="http://www.w3.org/2000/svg">
<path d="M2.66615 2.53418C1.06615 3.73438 0.132812 6.00098 0.132812 8.80127C0.132812 16.001 15.7328 50.2678 51.7328 122.668C86.5328 192.534 96.1328 213.601 118.799 270.934C133.466 308.001 140.799 324.934 179.733 413.334C193.333 444.135 213.999 492.135 225.733 520.001C260.933 603.468 282.933 651.601 336 762.001C360.933 813.868 368.533 830.268 391.333 882.001C412.933 930.935 468.799 1054.53 489.466 1098.67C507.333 1137.07 535.466 1192.4 565.333 1248C618.799 1347.87 632.4 1371.6 672.666 1437.33C707.466 1493.87 760.666 1581.73 760.666 1582.53C760.666 1582.8 758.4 1583.87 755.733 1584.8C733.466 1592 708.933 1610.93 691.599 1634.4C671.2 1661.87 656.533 1706.8 656.4 1741.33C656.4 1766.27 662 1787.33 675.733 1814.67C690.666 1844.53 701.599 1857.33 747.066 1897.87C753.733 1903.87 759.333 1909.6 759.333 1910.4C759.333 1911.33 757.6 1913.07 755.466 1914.4C750 1917.6 738.133 1930.93 732.799 1939.87C718.266 1964.27 708 2020.8 711.333 2058.8C714.533 2095.73 723.333 2121.07 743.733 2151.2C752.533 2164.27 768 2180.27 777.066 2185.73C781.066 2188.13 791.866 2193.2 800.933 2196.8C809.866 2200.4 818.666 2204 820.4 2204.67L823.466 2206L820.666 2211.47C812.666 2226.93 804.533 2272.4 804.4 2301.33C804.4 2330.53 808.666 2351.33 818.666 2371.33C825.866 2385.6 833.2 2394.27 870.799 2433.33C939.333 2504.53 953.866 2518.53 1009.73 2566.4C1022.27 2577.33 1033.33 2587.33 1034.13 2588.8C1034.93 2590.4 1036 2612.8 1036.67 2646.4C1038.13 2711.33 1039.6 2732.27 1044.8 2763.33C1050.13 2796.13 1062.67 2831.2 1081.6 2867.33C1099.6 2901.73 1111.73 2916.53 1141.33 2940.27C1165.6 2959.73 1182.67 2971.07 1207.73 2984.27C1219.6 2990.53 1232 2997.6 1235.33 2999.73C1238.67 3002 1251.2 3013.47 1263.33 3025.33C1289.47 3050.93 1294.27 3053.87 1316.93 3058.13C1360.27 3066.13 1363.2 3067.2 1392.93 3084.8C1401.6 3090 1419.2 3099.2 1431.73 3105.33C1483.87 3130.53 1515.6 3136.67 1573.07 3132.8C1599.87 3130.93 1603.6 3131.6 1610.67 3139.6C1616.93 3146.53 1630.67 3174.8 1643.73 3208C1657.07 3241.6 1683.2 3303.2 1691.33 3320.53C1698.8 3336 1734.13 3396.4 1746.53 3414.67C1757.2 3430.4 1774.8 3448.67 1787.33 3456.8C1798.4 3464.13 1816.13 3470.4 1829.33 3472L1837.47 3472.8L1851.07 3500.27C1858.67 3515.33 1870.53 3538.13 1877.47 3550.93C1884.4 3563.87 1894.67 3584.67 1900.13 3597.2C1905.6 3609.73 1912.8 3625.73 1916 3632.67C1919.2 3639.6 1925.73 3657.07 1930.4 3671.33C1945.6 3717.2 1968.4 3772.27 1986.27 3805.73C2008.53 3847.6 2036 3880.13 2058.53 3891.33C2067.87 3896 2080.53 3896.93 2085.87 3893.2C2090.13 3890.13 2094 3881.2 2094 3874.27C2094.13 3837.87 2040.27 3727.87 1933.33 3546.67C1925.07 3532.67 1914 3514.4 1908.67 3506C1901.87 3495.33 1898.8 3489.07 1898.27 3485.2C1897.47 3477.73 1901.07 3466.13 1908 3454.13C1919.2 3434.67 1926.4 3412.27 1928.67 3390C1930.67 3370 1932.67 3340.8 1932.67 3330.67C1932.67 3325.47 1934.4 3311.73 1936.53 3300C1942.67 3266.8 1944 3250.13 1943.87 3212C1943.87 3177.47 1938.8 3089.33 1934.67 3049.33C1931.2 3016.4 1932.67 2980.13 1939.87 2918C1941.73 2902.27 1943.87 2880.67 1944.67 2870C1954.27 2745.07 1966.53 2641.07 1979.47 2576C1984.4 2550.93 1995.73 2508 1998 2505.6C1998.53 2504.93 2002.67 2510.53 2007.2 2517.87C2028.53 2552.67 2046.13 2569.73 2108.4 2616.27C2152.27 2649.07 2170.4 2661.87 2233.33 2704.53C2254.8 2719.07 2273.33 2729.07 2285.47 2732.67L2290.8 2734.27L2290.27 2749.2C2289.73 2762 2290.27 2766.93 2294 2785.07C2302.13 2825.6 2311.6 2854.8 2338.67 2922C2352.4 2956.13 2369.07 2996.27 2375.6 3011.33C2382.13 3026.4 2392.93 3051.47 2399.47 3067.2C2406.13 3082.8 2417.6 3109.6 2425.2 3126.53C2441.87 3163.73 2460.67 3207.6 2480.67 3256C2488.8 3275.73 2503.87 3310.93 2514 3334C2524 3357.07 2541.07 3396.67 2551.73 3422C2589.07 3510.93 2601.87 3539.87 2622.93 3584C2657.2 3655.47 2695.87 3740.93 2738 3838C2757.33 3882.53 2765.87 3901.2 2809.6 3994.67C2850.8 4082.4 2856.13 4093.47 2860.4 4099.73C2880.67 4129.6 2893.47 4144.67 2898.27 4144.67C2901.47 4144.67 2902.4 4139.87 2901.73 4126.93C2900.67 4108.53 2892.93 4088.27 2860 4017.33C2843.6 3982.13 2822.13 3934.67 2812 3912C2802 3889.2 2784.27 3849.6 2772.67 3824C2761.07 3798.27 2738 3745.87 2721.33 3707.33C2704.67 3668.8 2683.47 3619.87 2674 3598.67C2664.67 3577.33 2653.2 3550.93 2648.67 3540C2644.13 3528.93 2634.53 3506.13 2627.33 3489.33C2605.87 3438.8 2565.33 3340 2548.67 3297.33C2517.87 3218.53 2462.27 3091.6 2423.33 3011.33C2389.33 2941.2 2364.4 2880.67 2340.8 2811.2C2323.87 2761.6 2321.73 2753.47 2322.93 2743.87C2323.87 2735.2 2324 2735.2 2331.73 2731.33C2344.67 2725.2 2357.2 2709.6 2363.47 2691.73C2371.47 2668.93 2374.53 2626.93 2371.47 2584.4C2369.07 2552.4 2363.87 2534.4 2344 2491.33C2327.33 2455.07 2317.07 2437.6 2294 2406.67C2275.87 2382.4 2263.07 2368.27 2244.8 2352L2228.93 2337.87L2222 2321.6C2214.27 2303.2 2202.13 2265.47 2197.2 2244.8C2195.33 2237.07 2191.2 2214.4 2187.87 2194.27C2180.8 2151.2 2176.8 2131.2 2170.67 2110C2158.93 2069.33 2138.13 2020.27 2117.2 1983.87C2110.27 1971.73 2104.93 1963.6 2078.93 1925.87C2058.53 1896.13 2054.93 1885.2 2043.33 1814C2035.6 1767.2 2028.53 1745.2 2013.2 1719.87C1994.4 1688.8 1972.8 1664.4 1928.67 1624.67C1900.67 1599.33 1891.2 1588.13 1860.8 1544.13C1829.6 1499.07 1824.4 1491.73 1802.93 1464.93C1782.67 1439.47 1762.67 1418.13 1751.2 1409.2C1736.13 1397.6 1715.2 1388.53 1693.33 1384.13C1664.93 1378.53 1611.73 1374.67 1576 1375.73C1549.2 1376.53 1536.4 1378.8 1482.53 1392C1445.73 1401.07 1426.4 1407.73 1402.8 1419.47C1380.4 1430.53 1365.2 1440.53 1354 1451.33C1349.47 1455.73 1345.47 1459.2 1345.2 1459.07C1345.07 1458.8 1338.13 1427.47 1330 1389.33C1308.4 1288.27 1306.13 1278.53 1276.27 1158.67C1243.73 1028.67 1228.13 971.601 1201.33 884.534C1176.93 805.734 1146.4 733.334 1121.47 695.334C1101.2 664.534 1082.67 653.468 1072.13 666.001C1060.93 679.468 1062.93 710.268 1078.8 766.668C1104.53 858.001 1130.8 937.201 1174.67 1055.33C1188.4 1092.4 1209.07 1151.2 1220.67 1186C1253.87 1286 1278.53 1358.53 1292 1395.33C1298.8 1414 1306.27 1437.2 1308.53 1446.93C1310.8 1456.67 1312.67 1464.8 1312.67 1465.07C1312.67 1465.2 1305.2 1465.2 1296 1464.93C1254.67 1463.47 1193.33 1479.2 1125.33 1508.4C1094.53 1521.6 1035.33 1551.33 1003.07 1569.87C966.533 1590.8 948.666 1602 906.666 1630.8L874.666 1652.8L867.333 1652.27C846.4 1650.93 840.799 1644.13 783.866 1550.27C768.133 1524.27 736.666 1472.8 713.866 1435.6C648 1328.53 642.933 1319.33 559.866 1156C525.466 1088.27 469.466 969.468 428.133 876.401C403.599 821.068 379.466 768.401 337.333 678.668C310.799 622.001 286.533 567.334 268.933 524.668C225.866 419.868 206.933 373.201 184.933 317.334C127.066 170.668 125.866 168.135 89.5995 101.334C67.8661 61.3345 58.3995 45.7344 45.3328 28.8013C34.1328 14.1343 25.0661 5.33447 18.3995 2.53418C12.9328 0.134277 5.86615 0.134277 2.66615 2.53418ZM1091.2 673.468C1109.87 690.268 1139.33 757.201 1164 838.668C1181.07 895.334 1189.2 927.468 1236.53 1126.67C1267.73 1258.27 1267.73 1258.13 1267.07 1258.67C1266.8 1258.93 1258.93 1236.53 1249.47 1208.93C1240 1181.33 1220.27 1126.27 1205.6 1086.67C1158.4 958.935 1153.33 944.668 1138.27 900.001C1115.47 832.001 1083.6 733.734 1079.73 718.801C1076.8 707.868 1076.13 702.268 1076.13 689.201C1076 671.734 1077.07 668.668 1082.8 668.668C1084.53 668.668 1088.4 670.801 1091.2 673.468ZM1617.33 1428C1663.87 1432.27 1690.93 1436.13 1703.07 1440.13C1721.73 1446.27 1731.73 1454.67 1769.73 1496C1798.53 1527.2 1807.2 1538 1831.33 1572.67C1841.87 1587.73 1853.73 1604.13 1857.73 1609.33C1861.73 1614.4 1884.4 1637.87 1908 1661.33C1953.07 1706 1963.47 1718 1978.67 1743.33C1994.53 1769.6 2002.67 1792.67 2010.13 1832.4C2022.27 1897.33 2026.4 1908 2059.6 1957.6C2089.73 2002.4 2105.2 2031.87 2122.4 2076.67C2135.87 2111.87 2143.2 2141.6 2150 2188.67C2154.93 2222.93 2159.47 2247.87 2163.87 2263.6L2167.07 2275.33L2142.93 2252.13C2109.6 2220.13 1973.87 2081.33 1940 2044.67C1891.2 1992 1885.87 1984.67 1863.87 1941.6C1835.6 1886.8 1823.47 1872.93 1776 1841.73C1740.8 1818.53 1731.73 1808.53 1701.2 1760C1679.2 1724.8 1668.4 1703.73 1654.13 1667.47C1648.13 1652.4 1640.53 1635.73 1637.07 1630.27C1622.27 1606.53 1602.93 1594.13 1574.13 1589.87C1551.33 1586.67 1492 1590.93 1441.33 1599.47C1432.53 1600.93 1420.13 1602.53 1413.87 1602.93C1403.47 1603.6 1401.6 1603.33 1395.07 1600.4C1386.8 1596.53 1382 1590.67 1374.93 1575.6L1370.8 1566.67L1369.73 1533.33C1369.2 1511.87 1369.33 1498.13 1370.13 1494.93C1374.13 1479.87 1409.07 1457.33 1443.73 1447.47C1467.73 1440.67 1498.4 1434.4 1528 1430.13C1572.53 1423.73 1571.33 1423.73 1617.33 1428ZM1304 1491.47C1322 1498.13 1324.93 1504.93 1327.33 1544.4C1329.87 1586.93 1335.33 1606.4 1350.8 1628.13C1362.4 1644.53 1377.73 1655.33 1396 1660C1407.2 1662.8 1433.07 1662.53 1454.4 1659.33C1464.13 1657.87 1487.6 1654.93 1506.67 1652.67C1525.73 1650.53 1548.27 1647.73 1556.8 1646.53C1585.33 1642.67 1588.67 1645.47 1607.73 1691.33C1616.8 1713.33 1624.93 1730 1638.93 1756C1671.07 1815.2 1686.53 1838.67 1707.2 1859.47C1722.53 1874.67 1728.8 1879.33 1766.27 1903.07C1781.07 1912.53 1799.2 1928.53 1807.73 1940C1811.6 1945.07 1820.27 1958.53 1827.2 1969.87C1851.73 2010.13 1883.2 2048 1955.87 2125.2C1969.2 2139.33 1990.8 2162.4 2004 2176.67C2017.2 2190.93 2057.73 2232.67 2094 2269.33C2130.4 2306 2168.8 2345.87 2179.33 2357.87C2190 2369.87 2206.4 2388.53 2215.87 2399.2C2234.13 2419.73 2260 2451.73 2280.93 2479.33C2301.33 2506.4 2314.67 2532 2321.73 2557.6C2325.07 2570.13 2325.2 2572 2325.2 2604C2325.2 2629.33 2324.67 2640.53 2322.93 2650.53C2320.4 2665.07 2316.27 2675.87 2312.4 2678.67C2307.07 2682.27 2294.93 2676 2242.67 2642.67C2190.53 2609.33 2105.6 2552.93 2093.6 2543.6C2067.07 2523.2 2053.87 2508.53 2038.53 2483.07C2020.93 2453.73 2012.53 2446 1998.13 2446C1980.93 2446 1971.2 2458.27 1961.33 2492C1956.27 2509.87 1940.13 2595.2 1936.67 2624C1935.87 2630.53 1932.53 2655.2 1929.2 2678.67C1922.27 2728.4 1916.13 2787.07 1913.33 2831.33C1911.07 2867.07 1908.67 2893.47 1904 2937.33C1897.07 3003.07 1896.8 3023.07 1902.13 3129.6C1903.73 3163.33 1903.6 3243.07 1902 3267.33C1898.27 3319.47 1885.87 3368.8 1866.53 3408C1862.53 3416 1857.33 3425.47 1854.8 3428.8C1850.93 3434 1849.33 3435.07 1844.53 3435.73C1841.47 3436.13 1837.2 3437.73 1835.2 3439.2C1830.67 3442.53 1829.2 3442.67 1822.53 3439.87C1815.07 3436.67 1808.93 3432.27 1799.6 3423.07C1788.93 3412.53 1779.33 3398.27 1762 3368C1740.93 3331.07 1729.07 3306.4 1710 3260C1686.67 3203.47 1675.87 3178.93 1663.07 3153.6C1644.93 3117.73 1634.93 3105.2 1616.93 3096.4L1608 3092L1569.33 3091.07C1528.27 3090.13 1517.73 3088.8 1492.67 3080.53C1477.73 3075.6 1445.07 3059.07 1418.4 3043.07C1404.4 3034.67 1388.27 3025.73 1382.67 3023.47C1368.93 3017.73 1352.53 3014.27 1334 3013.33C1309.33 3012 1312.27 3013.47 1289.6 2991.6C1265.73 2968.53 1256.8 2962.13 1226.53 2946.27C1214.13 2939.73 1199.07 2931.33 1193.07 2927.6C1168.67 2912.53 1143.6 2890.67 1133.87 2876.13C1121.73 2858 1104.4 2816.53 1099.6 2794C1092.13 2759.47 1088.27 2709.47 1084.67 2599.33C1083.87 2576.27 1082.67 2540.27 1082 2519.33C1081.33 2498.4 1080.67 2472.4 1080.67 2461.47C1080.67 2443.2 1080.8 2441.73 1083.07 2442.67C1103.87 2451.2 1153.33 2465.87 1178.93 2471.2C1195.87 2474.67 1222.67 2475.07 1234.67 2472C1254.8 2466.67 1274.93 2450.93 1289.73 2428.8C1300.4 2412.93 1313.33 2387.2 1316.53 2375.33C1319.87 2363.33 1320.13 2347.2 1317.33 2336C1312.93 2319.33 1299.33 2300.13 1283.33 2287.87C1279.73 2285.07 1276.67 2282.27 1276.67 2281.73C1276.67 2281.2 1279.73 2280.67 1283.33 2280.67C1294.4 2280.67 1310 2276.8 1321.73 2271.2C1341.47 2261.73 1355.2 2245.07 1363.33 2220.8C1372.8 2192.8 1368.53 2163.6 1351.73 2140.13C1338.93 2122.27 1311.47 2095.6 1286.4 2076.8L1272.8 2066.67L1282.13 2065.07C1309.6 2060.4 1326.4 2050.93 1334 2035.73C1338.27 2027.2 1339.2 2013.33 1336 2002.53C1329.47 1980 1302.27 1939.2 1274 1909.47C1268.53 1903.73 1255.87 1892 1246 1883.47C1230.4 1870 1215.73 1858.4 1156.67 1812.4C1150.4 1807.6 1136.93 1795.6 1126.67 1785.87C1116.4 1776.27 1103.2 1764.27 1097.33 1759.33C1081.6 1746 1050 1723.73 1032.93 1714C1017.73 1705.2 1005.6 1698 968.799 1675.87C948.799 1663.73 932.533 1656.67 920.666 1654.67C917.333 1654.13 913.866 1653.33 912.933 1652.8C908.933 1650.67 965.2 1611.6 998.666 1593.2C1021.07 1580.93 1107.2 1538.8 1138 1525.07C1188 1502.8 1226.67 1492 1270 1488.13C1281.07 1487.2 1296.67 1488.67 1304 1491.47ZM798.4 1642.8C817.733 1673.07 827.733 1682.4 849.066 1690.27C858 1693.47 864 1694.53 881.866 1696.13C906.533 1698.27 915.733 1700.8 935.733 1710.8C976.933 1731.47 1008.13 1752.27 1062.8 1795.47C1074.67 1804.8 1102.27 1826.13 1124.13 1842.8C1203.6 1903.47 1225.2 1921.2 1248.13 1944.8C1266.4 1963.87 1280.8 1984.27 1291.07 2005.87C1295.6 2015.2 1295.73 2015.73 1293.33 2017.47C1286.4 2022.53 1275.07 2021.33 1235.33 2011.33C1199.73 2002.4 1182.13 1999.07 1138.67 1992.67C1030.67 1977.07 935.333 1948.67 869.333 1912.4C827.6 1889.6 785.733 1855.73 765.6 1828.67C737.733 1791.07 716.666 1738.8 716.666 1707.47C716.799 1678.53 735.599 1648.4 762.666 1634.4C771.466 1629.73 786.4 1624.53 787.466 1625.73C787.866 1626.27 792.799 1633.87 798.4 1642.8ZM702.266 1794.93C704.933 1801.07 706.933 1806 706.533 1806C705.333 1806 692.799 1779.33 690.266 1771.33C684.799 1753.47 685.866 1750.4 691.733 1767.33C694.933 1776.53 699.733 1788.93 702.266 1794.93ZM812.533 1928.53C822.933 1936.8 848.799 1952.8 866 1961.73C937.6 1999.07 1033.2 2028.93 1114.67 2039.33C1141.73 2042.8 1173.6 2047.2 1178.13 2048.13C1180.4 2048.53 1182 2050.13 1183.07 2053.2C1185.2 2059.2 1188.27 2061.6 1206.67 2072.27C1241.47 2092.27 1275.6 2119.47 1308.8 2153.6C1329.6 2174.93 1332 2179.73 1330.93 2198.8C1329.73 2224.13 1317.33 2239.47 1293.6 2245.07C1284.53 2247.2 1248.53 2246.93 1234.67 2244.8C1210.13 2240.93 1166.8 2229.73 1117.73 2214.53C1059.07 2196.53 994.8 2183.33 965.466 2183.33C951.866 2183.33 943.333 2190.4 943.333 2201.73C943.333 2211.73 950 2218.4 965.466 2223.87C971.2 2226 988 2232.53 1002.67 2238.4C1033.6 2250.67 1106.13 2275.33 1165.33 2293.47C1247.87 2318.93 1266 2328.27 1273.87 2349.47C1278.67 2362.27 1276.93 2373.47 1267.33 2392.67C1256.4 2414.27 1244.27 2428 1230.53 2434.27C1224.67 2436.93 1222 2437.33 1206 2437.2C1191.2 2437.2 1185.2 2436.53 1172 2433.47C1139.47 2425.87 1113.87 2417.6 1075.07 2402C1053.33 2393.2 1028.67 2383.73 1020.4 2380.8C1012.13 2377.87 996.266 2372.27 985.2 2368.13C959.333 2358.67 944.533 2355.6 935.066 2357.87C915.866 2362.27 908 2377.6 913.2 2400C916.799 2415.2 928.799 2438.53 944.933 2461.33C950.799 2469.73 949.333 2468.53 929.866 2448.67C918 2436.53 895.2 2413.07 879.2 2396.4C852.533 2368.53 849.733 2365.2 844.799 2355.07C833.2 2330.53 831.2 2300.4 838.799 2261.33C843.066 2239.47 845.6 2233.07 853.6 2224.4C864.133 2212.93 866.799 2205.07 863.2 2195.73C859.6 2186 851.733 2181.33 822.4 2171.47C796.799 2162.93 792.666 2160.93 782.266 2150.8C767.2 2136.4 750.266 2107.07 745.466 2087.33C742.933 2076.4 740.666 2058.4 740.666 2048C740.666 2024.93 747.6 1988.93 755.2 1972C763.333 1954.13 769.333 1948.27 786.133 1942.13C793.6 1939.33 802.533 1931.87 804 1927.2C805.2 1923.73 806.799 1924 812.533 1928.53ZM993.733 2409.87C1019.6 2418.53 1041.07 2426 1041.47 2426.4C1042 2426.8 1041.2 2435.73 1040 2446.27C1038.53 2457.6 1037.2 2479.33 1036.8 2500L1036 2534.67L1022.53 2515.33C996.266 2477.6 969.333 2438.53 963.733 2430C956 2418.4 944.133 2393.87 946.266 2394C946.533 2394.13 967.866 2401.2 993.733 2409.87ZM1959.73 3620.27C2005.73 3694.27 2019.47 3718.27 2044 3767.33C2060.53 3800.27 2073.33 3829.2 2078.4 3844.67C2085.87 3867.6 2085.87 3882.27 2078.53 3884.13C2074 3885.33 2064.53 3881.47 2056.67 3875.2C2051.2 3870.93 2050 3869.2 2050 3865.73C2050 3863.33 2045.07 3851.07 2038.13 3836.13C2024.67 3807.07 2017.2 3789.07 1997.6 3739.33C1962.8 3651.33 1950.13 3620.4 1937.33 3593.33C1927.73 3573.2 1924.67 3566 1925.33 3566C1925.6 3566 1941.07 3590.4 1959.73 3620.27Z" fill="#1B1817"/>
</svg>
