<svg width="2685" height="1019" viewBox="0 0 2685 1019" fill="none" xmlns="http://www.w3.org/2000/svg">
<path d="M2160.56 0.749552C2161.52 0.728927 2162.47 0.708302 2163.46 0.687052C2168.49 0.658923 2171.91 0.724688 2176 3.99955C2176.56 4.41205 2177.11 4.82455 2177.69 5.24955C2184.14 13.8472 2180.95 28.434 2180.12 38.3628C2179.98 40.1114 2179.98 40.1114 2179.83 41.8953C2179.52 45.7015 2179.2 49.5068 2178.88 53.3121C2178.76 54.6243 2178.65 55.9366 2178.54 57.2887C2175.59 92.3775 2171.94 127.412 2167.26 162.314C2166.2 170.237 2165.31 178.16 2164.59 186.121C2164.09 191.67 2164.09 191.67 2163.5 193.819C2162.83 196.739 2162.73 199.575 2162.58 202.568C2162.53 203.549 2162.53 203.549 2162.48 204.549C2162.41 205.971 2162.34 207.393 2162.28 208.815C2162.13 211.882 2161.97 214.949 2161.82 218.015C2161.73 219.64 2161.65 221.265 2161.57 222.889C2158.72 279.509 2158.72 279.509 2155.31 303.812C2154.98 306.13 2154.67 308.449 2154.35 310.768C2149.85 343.509 2143.38 375.907 2136.93 408.306C2135.68 414.567 2134.45 420.832 2133.24 427.103C2127.22 458.448 2119.43 489.343 2111.48 520.243C2110.38 524.516 2109.29 528.791 2108.2 533.066C2101.8 558.179 2094.96 583.009 2086.26 607.434C2085.14 610.601 2084.05 613.778 2082.98 616.961C2080.52 624.01 2078.22 630.206 2072.19 635.003C2067.85 636.977 2064.3 637.399 2059.74 635.996C2058.61 635.481 2057.48 634.967 2056.31 634.437C2043 628.744 2029.46 625.08 2015.21 622.605C2013.39 622.286 2013.39 622.286 2011.54 621.96C1998.95 619.772 1986.32 617.823 1973.68 615.942C1969.87 615.374 1966.06 614.796 1962.25 614.218C1950.08 612.388 1937.91 610.674 1925.69 609.246C1924.11 609.06 1924.11 609.06 1922.5 608.871C1908.38 606.776 1908.38 606.776 1895 610C1906.38 618.967 1919.17 625.179 1932.72 630.199C1934.25 630.77 1934.25 630.77 1935.82 631.353C1949.4 636.337 1963.21 640.64 1977 645C2007.01 654.485 2007.01 654.485 2021.34 659.816C2022.28 660.165 2023.23 660.515 2024.2 660.874C2040.52 667.073 2063.93 678.375 2073.18 693.984C2074.54 697.312 2074.64 700.514 2074 704C2070.86 709.047 2067.68 711.325 2062 713C2053.64 713.736 2045.33 712.242 2037.09 711.023C2035.64 710.813 2034.18 710.603 2032.73 710.394C2029.68 709.953 2026.63 709.506 2023.58 709.057C2019.78 708.497 2015.98 707.948 2012.18 707.403C1985.54 703.576 1958.99 699.246 1932.75 693.187C1917.09 689.663 1901.33 686.858 1885.5 684.187C1884.38 683.998 1883.27 683.809 1882.12 683.615C1874.75 682.372 1867.38 681.166 1860 680C1859.02 679.845 1858.04 679.69 1857.03 679.531C1842.44 677.248 1842.44 677.248 1827.69 676.812C1826.4 676.832 1826.4 676.832 1825.08 676.853C1823.06 676.887 1821.03 676.941 1819 677C1818.79 679.115 1818.79 679.115 1820.41 680.742C1844.19 703.673 1882.22 713.705 1913 724C1914.78 724.596 1914.78 724.596 1916.59 725.205C1933.52 730.821 1950.69 735.328 1967.96 739.778C2071.58 766.506 2071.58 766.506 2090.31 792.839C2092.2 796.538 2092.37 800.089 2091.62 804.082C2090.22 808.38 2087.78 810.93 2084.02 813.187C2050.71 829.221 2003.96 814.969 1969.92 807.78C1968.89 807.564 1967.87 807.348 1966.81 807.125C1965.78 806.907 1964.76 806.69 1963.7 806.466C1932.99 799.999 1902.15 794.792 1871 791C1872.21 791.275 1873.42 791.551 1874.66 791.835C1909.61 799.821 1944.48 808.001 1978.56 819.187C1979.29 819.421 1980.01 819.656 1980.76 819.897C1991.36 823.351 2001.15 827.786 2011 833C2012.12 833.59 2013.25 834.18 2014.41 834.789C2024.41 840.146 2034.75 847.8 2039.29 858.527C2040.96 864.346 2040.87 869.65 2038.5 875.25C2034.1 882.878 2026.1 886.452 2018 889C2014.69 889.862 2011.38 890.491 2008 891C2007.27 891.112 2006.54 891.224 2005.78 891.339C1981.7 894.349 1957.84 889.517 1934.47 884.101C1928.58 882.738 1922.69 881.413 1916.79 880.086C1915.62 879.821 1914.45 879.556 1913.24 879.283C1902.48 876.862 1891.69 874.6 1880.88 872.437C1880.1 872.28 1879.32 872.122 1878.52 871.96C1869.86 870.209 1861.18 868.645 1852.45 867.285C1851.23 867.09 1851.23 867.09 1849.99 866.891C1844.61 866.081 1839.45 865.888 1834 866C1848.78 877.715 1865.33 884.76 1883 891C1883.86 891.306 1884.71 891.613 1885.59 891.929C1927.34 906.799 1979.83 919.873 2022.05 899.958C2033.47 894.346 2044.15 888.095 2054 880C2054.57 879.538 2055.13 879.076 2055.72 878.601C2063.48 872.251 2070.52 865.682 2077 858C2077.82 857.061 2078.65 856.123 2079.5 855.156C2092.57 840.196 2103.61 823.898 2114 807C2124.54 789.924 2135.01 773.333 2148 758C2148.46 757.458 2148.91 756.917 2149.38 756.359C2177.08 723.547 2177.08 723.547 2187 722C2192.5 722.169 2196.54 724.522 2200.47 728.261C2211.37 740.641 2209.49 761.123 2209.38 776.437C2209.37 777.506 2209.37 778.574 2209.36 779.675C2209.28 794.953 2209.06 809.979 2206 825C2205.81 825.971 2205.61 826.943 2205.41 827.944C2200.8 850.376 2194.27 872.967 2183 893C2182.44 894.046 2181.88 895.093 2181.3 896.171C2162.81 929.518 2133.24 950.334 2097.17 961.108C2070.96 968.483 2042.2 971.642 2015 972C2013.55 972.019 2013.55 972.019 2012.07 972.04C1947.11 972.495 1883.3 954.461 1822.53 933.031C1748.68 907.031 1672.13 889.242 1594 883C1592.88 882.906 1591.75 882.812 1590.59 882.716C1577.74 881.771 1564.88 881.804 1552 881.812C1550.79 881.811 1549.58 881.811 1548.34 881.81C1523.52 881.812 1498.78 882.706 1474 884C1473.95 884.861 1473.9 885.722 1473.85 886.609C1473.34 894.809 1472.37 902.789 1470.94 910.875C1470.75 911.956 1470.56 913.038 1470.37 914.152C1469.92 916.769 1469.46 919.385 1469 922C1469.89 921.733 1470.79 921.467 1471.71 921.193C1554.82 896.548 1631.61 892.576 1876.12 955.375C1931.07 976.096 1931.07 976.096 1988 990C1989.26 990.233 1990.53 990.466 1991.83 990.707C2064.2 1002.2 2143.26 970.537 2201.44 928.875C2203.07 927.684 2204.69 926.482 2206.3 925.271C2208.16 923.88 2210.03 922.51 2211.91 921.14C2219.14 915.832 2226.09 910.32 2232.85 904.434C2238.51 899.522 2244.32 894.852 2250.28 890.311C2251.4 889.455 2252.52 888.594 2253.64 887.727C2281.6 866.088 2313.64 858.106 2347.91 852.718C2348.85 852.569 2349.8 852.419 2350.77 852.265C2373.72 848.642 2396.72 845.496 2419.75 842.437C2421.89 842.152 2424.03 841.867 2426.17 841.582C2492.21 832.791 2558.42 826.083 2625 823C2626.15 822.943 2627.3 822.887 2628.49 822.829C2647.33 821.923 2666.14 821.885 2685 822C2685 823.65 2685 825.3 2685 827C2683.99 827.086 2683.99 827.086 2682.96 827.173C2676.5 827.738 2670.08 828.446 2663.65 829.284C2662.19 829.473 2662.19 829.473 2660.69 829.665C2657.46 830.082 2654.23 830.501 2651 830.921C2648.69 831.221 2646.38 831.52 2644.07 831.819C2636.57 832.792 2629.06 833.77 2621.56 834.75C2620.28 834.917 2619 835.084 2617.68 835.256C2476.85 852.072 2476.85 852.072 2273 908C2272.13 908.687 2271.27 909.374 2270.38 910.082C2265.85 913.736 2261.41 917.495 2257.01 921.297C2229.64 944.9 2200.29 963.776 2168 980C2166.81 980.602 2166.81 980.602 2165.59 981.217C2135.72 996.225 2103.69 1007.12 2071 1014C2070.19 1014.18 2069.38 1014.36 2068.54 1014.54C2040.34 1020.56 2008.07 1018.6 1980 1013C1978.97 1012.8 1977.93 1012.6 1976.87 1012.4C1931.12 1003.41 1886.67 985.08 1843.36 968.29C1825.47 961.358 1807.58 954.527 1789.19 949.062C1788.5 948.857 1787.82 948.653 1787.12 948.442C1695.71 921.104 1608.4 909.851 1475.05 942.067C1473.14 942.651 1471.22 943.19 1469.27 943.661C1464.98 944.728 1464.98 944.728 1461.77 947.57C1460.79 949.536 1460.07 951.478 1459.38 953.562C1458.82 955.013 1458.25 956.461 1457.68 957.906C1457.27 958.96 1457.27 958.96 1456.84 960.035C1454.92 964.507 1452.07 968.259 1449 972C1448.5 972.631 1448.01 973.263 1447.5 973.914C1440.39 982.001 1429.5 985.79 1419.44 988.812C1418.79 989.007 1418.14 989.202 1417.48 989.402C1404.91 992.919 1392.33 993.406 1379.38 993.375C1378.09 993.374 1378.09 993.374 1376.79 993.373C1339.64 993.265 1302.04 986.192 1274.22 960.043C1271.99 957.94 1271.99 957.94 1269.42 955.964C1267.26 954.209 1265.54 952.497 1263.75 950.375C1261.09 947.262 1258.38 944.21 1255.62 941.187C1251.54 936.666 1247.67 931.995 1243.85 927.25C1240.93 923.696 1239.53 922.716 1235.04 921.921C1234.02 921.733 1233 921.545 1231.95 921.351C1230.85 921.153 1229.76 920.954 1228.62 920.75C1212.95 917.761 1197.47 913.874 1183 907C1182.08 906.573 1181.16 906.146 1180.22 905.707C1168.6 899.881 1159.17 891.514 1155 879C1154.26 872.151 1154.86 866.623 1159 861C1164.45 854.877 1170.18 851.802 1178.27 850.687C1197 849.695 1213.46 860.247 1227 872C1232.96 877.388 1238.06 883.333 1243.05 889.617C1243.7 890.403 1244.34 891.189 1245 892C1245.44 892.536 1245.87 893.071 1246.32 893.624C1248.56 895.46 1249.93 895.387 1252.8 895.398C1254.25 895.408 1254.25 895.408 1255.73 895.418C1256.76 895.404 1257.8 895.389 1258.88 895.375C1259.96 895.362 1261.05 895.35 1262.17 895.337C1292.2 894.725 1321.48 885.515 1349.95 876.603C1383.84 866 1383.84 866 1393 866C1390.83 743.932 1390.83 743.932 1366.92 364.971C1364.23 342.711 1362.2 320.496 1361.1 298.099C1361.01 296.153 1360.9 294.208 1360.79 292.263C1359.89 275.589 1359.88 258.889 1359.83 242.195C1359.82 239.713 1359.81 237.231 1359.79 234.75C1359.77 231.227 1359.77 227.705 1359.77 224.183C1359.76 223.134 1359.76 222.085 1359.75 221.004C1359.78 209.881 1360.21 198.576 1368.38 190.312C1379.37 181.192 1398.21 182.82 1411.69 182.812C1412.85 182.8 1414 182.788 1415.2 182.775C1426.25 182.756 1436.2 183.943 1444.76 191.566C1454.85 202.499 1455.78 218.064 1456.99 232.218C1457.08 233.209 1457.16 234.199 1457.25 235.219C1458.27 247.576 1458.85 259.954 1459.41 272.338C1459.5 274.415 1459.6 276.491 1459.69 278.568C1460.7 300.54 1461.39 322.514 1461.94 344.502C1463.33 400.16 1466.38 455.681 1471 511.168C1473.16 537.198 1474.82 563.229 1476.19 589.312C1476.25 590.524 1476.25 590.524 1476.32 591.76C1478.12 625.977 1479.18 660.106 1479.13 694.371C1479.12 697.227 1479.12 700.084 1479.12 702.94C1479.1 730.295 1478.93 757.647 1478.56 785C1478.55 785.758 1478.54 786.516 1478.53 787.298C1478.33 803.112 1478.05 818.924 1477.59 834.734C1477.55 836.146 1477.51 837.558 1477.47 838.971C1477.42 840.915 1477.36 842.86 1477.3 844.804C1477.26 845.908 1477.23 847.011 1477.2 848.148C1477.03 850.58 1476.69 852.673 1476 855C1476.97 854.917 1476.97 854.917 1477.96 854.832C1481.04 854.571 1484.11 854.317 1487.19 854.062C1488.2 853.975 1489.22 853.888 1490.27 853.798C1512.16 852.002 1534.05 851.715 1556 851.687C1556.78 851.686 1557.56 851.685 1558.37 851.684C1585.1 851.656 1611.46 852.576 1638 856C1638.84 856.106 1639.68 856.213 1640.55 856.322C1707.03 864.78 1770.08 883.385 1832.87 906.322C1861.95 916.941 1891.14 926.8 1921 935C1922.05 935.291 1923.1 935.582 1924.18 935.881C1984.41 952.389 2064.45 958.426 2121.3 927.407C2127.02 924.145 2132.15 920.452 2137 916C2137.74 915.337 2138.49 914.674 2139.25 913.992C2174.48 880.841 2184.25 821.446 2185.91 775.359C2186.1 767.876 2185.64 760.452 2185 753C2168.27 769.606 2155.9 787.48 2144.06 807.788C2128.22 834.897 2110.76 860.308 2089 883C2088.52 883.51 2088.03 884.02 2087.54 884.545C2071.63 901.297 2052.92 914.297 2032 924C2030.53 924.707 2030.53 924.707 2029.03 925.429C1985.12 945.315 1930.5 934.195 1887 919C1886.18 918.714 1885.36 918.428 1884.52 918.134C1865.97 911.562 1846.76 903.997 1831 892C1830.03 891.282 1829.06 890.564 1828.05 889.824C1820.73 884.17 1813.77 877.465 1812 868C1811.91 860.645 1813.96 856.13 1819.12 850.812C1832.58 842.33 1849.58 846.321 1864.38 848.5C1865.29 848.631 1866.2 848.763 1867.13 848.898C1886.15 851.661 1904.91 855.412 1923.67 859.495C1929.76 860.817 1935.86 862.119 1941.95 863.421C1943.97 863.856 1946 864.298 1948.02 864.742C1960.26 867.385 1972.42 869.251 1984.94 869.75C1986.48 869.813 1986.48 869.813 1988.06 869.878C1998.04 870.192 2007.23 868.994 2017 867C2006.59 852.301 1984.8 845.919 1968.44 840.5C1967.68 840.249 1966.93 839.998 1966.16 839.739C1930.47 827.921 1893.69 819.344 1857.27 810.117C1846.27 807.328 1835.27 804.509 1824.29 801.647C1822.5 801.182 1820.72 800.719 1818.93 800.258C1788.27 792.328 1788.27 792.328 1784.12 786.25C1782.73 782.208 1782.74 780.088 1784 776C1790.88 768.797 1799.45 768.059 1808.93 767.823C1810.77 767.796 1812.61 767.776 1814.45 767.761C1815.45 767.752 1816.45 767.742 1817.49 767.732C1841.26 767.548 1864.39 768.343 1887.92 771.709C1890.67 772.093 1893.42 772.446 1896.17 772.797C1926.14 776.645 1955.88 782.274 1985.54 788.031C2010.8 792.932 2035.17 796.68 2061 796C2031.54 780.706 2000.79 770.772 1968.81 762.314C1943.92 755.724 1919.19 748.883 1895 740C1893.78 739.556 1892.56 739.113 1891.3 738.656C1864.63 728.867 1833.37 717.22 1812 698C1811.27 697.364 1810.54 696.729 1809.79 696.074C1803.95 690.666 1798.99 684.079 1798.38 675.875C1799.38 669.618 1802.02 665.638 1806.88 661.625C1837.13 645.892 1892.83 663.704 1924.32 670.031C1924.99 670.165 1925.66 670.3 1926.35 670.438C1931.92 671.556 1937.48 672.676 1943.04 673.799C1973.54 679.958 2004.18 684.727 2035 689C2022.49 682.186 2009.62 677.471 1996.12 673C1994.02 672.291 1991.91 671.582 1989.8 670.872C1979.12 667.289 1968.42 663.835 1957.62 660.625C1945.09 656.889 1933.02 652.147 1921 647C1920.18 646.649 1919.35 646.298 1918.5 645.937C1902.88 639.203 1882.96 629.632 1875.82 613.312C1874.44 609.402 1874.18 606.928 1875.82 603.07C1879.47 596.33 1884.78 592.483 1891.95 589.964C1905.65 586.345 1919.9 588.016 1933.81 589.5C1934.61 589.583 1935.41 589.667 1936.24 589.753C1952.82 591.495 1969.35 593.689 1985.88 595.937C1987.09 596.1 1988.3 596.263 1989.55 596.431C2002.27 598.148 2014.92 600.046 2027.5 602.546C2028.49 602.741 2029.47 602.936 2030.48 603.137C2040.48 605.193 2050.25 608.015 2060 611C2062.81 604.964 2065.18 598.917 2067.18 592.566C2067.47 591.634 2067.76 590.703 2068.07 589.743C2072.31 576.036 2075.91 562.137 2079.57 548.266C2080.62 544.306 2081.67 540.346 2082.72 536.387C2083.99 531.638 2085.25 526.889 2086.51 522.14C2088.83 513.385 2091.17 504.637 2093.55 495.898C2106.64 447.818 2117.11 399.022 2126.3 350.054C2126.67 348.094 2127.05 346.136 2127.43 344.178C2129.24 334.219 2129.47 324.574 2128.5 314.5C2128.04 308.595 2127.89 302.731 2127.88 296.812C2127.87 296.024 2127.87 295.237 2127.86 294.425C2127.87 288.746 2128.15 283.101 2128.48 277.433C2128.91 269.815 2129.13 262.207 2129.25 254.578C2129.26 253.494 2129.28 252.41 2129.3 251.293C2129.36 246.832 2129.42 242.37 2129.48 237.908C2129.73 217.577 2130.66 197.5 2134.43 177.488C2136.25 167.798 2137.95 158.104 2139.08 148.308C2139.17 147.583 2139.25 146.858 2139.34 146.112C2139.42 145.379 2139.51 144.646 2139.6 143.891C2142.43 119.561 2147.69 95.812 2152.88 71.8928C2154.95 62.3307 2156.86 52.7469 2158.62 43.1246C2158.85 41.9104 2159.07 40.6963 2159.3 39.4454C2159.87 36.2977 2160.44 33.1489 2161 29.9996C2161.38 27.8927 2161.76 25.7859 2162.15 23.6792C2162.31 22.7767 2162.48 21.8742 2162.65 20.9444C2162.76 20.3026 2162.88 19.6608 2163 18.9996C2162.32 19.1144 2161.63 19.2292 2160.93 19.3475C2114.58 26.9581 2067.57 30.7685 2020.79 34.701C2018.04 34.934 2015.28 35.1706 2012.52 35.4082C1989.64 37.3713 1966.91 39.121 1943.94 37.4996C1848.26 30.7643 1748.12 60.2084 1540.39 116.691C1524.25 121.805 1508.05 126.665 1491.79 131.4C1442.03 145.074 1442.03 145.074 1395.03 165.875C1383 172.551 1371.21 178.618 1357 176C1347.5 173.184 1338.48 169.135 1329.47 165.07C1315.11 158.596 1300.62 152.441 1286.06 146.425C1278.02 143.103 1270.02 139.724 1262.05 136.244C1191.91 105.668 1116.08 89.7561 1039.8 85.9488C1038.94 85.9056 1038.08 85.8624 1037.19 85.818C1013.91 84.6837 990.621 84.5884 967.32 84.4569C957.065 84.3977 946.81 84.3235 936.555 84.2456C935.453 84.2374 934.352 84.2291 933.217 84.2205C905.09 84.0017 876.954 83.5595 848.875 81.812C847.869 81.7512 846.863 81.6903 845.827 81.6276C800.707 78.8817 755.611 75.2942 710.625 70.8745C709.42 70.7585 708.215 70.6424 706.973 70.5228C691.505 69.0212 676.268 66.9068 661 63.9996C661.317 64.6338 661.633 65.268 661.959 65.9215C691.431 125.084 707.214 193.563 715 259C715.089 259.745 715.178 260.49 715.27 261.258C724.822 341.88 729.476 425.842 716 533C717.149 533.42 718.297 533.84 719.48 534.273C723.83 535.906 728.073 537.727 732.312 539.625C733.095 539.971 733.877 540.317 734.683 540.674C738.612 542.427 742.501 544.228 746.34 546.171C789.434 567.868 839.71 574.848 886.766 583.062C962.562 596.295 962.562 596.295 974.688 612.312C977.543 617.178 978.019 621.486 977 627C974.666 634.852 968.856 640.568 962.07 644.847C929.658 662.197 888.026 665.379 852.221 670.534C842.978 671.87 833.74 673.237 824.503 674.615C821.179 675.107 817.855 675.59 814.53 676.072C804.132 677.601 793.821 679.334 783.547 681.554C782.629 681.753 781.71 681.951 780.764 682.155C768.773 684.837 755.405 688.21 745 695C744.67 695.66 744.34 696.32 744 697C761.821 700.613 779.483 700.144 797.559 699.449C799.137 699.39 800.715 699.33 802.293 699.271C806.478 699.114 810.663 698.952 814.847 698.788C817.454 698.686 820.061 698.586 822.668 698.487C843.052 697.703 863.401 696.766 883.75 695.312C982.422 688.367 982.422 688.367 1015.65 713.914C1020.41 718.139 1025.48 723.872 1026.3 730.402C1026.34 739.102 1026.34 739.102 1023 743C1015.19 750.809 1004.57 752.832 994.062 755C992.826 755.257 991.589 755.514 990.315 755.779C961.146 761.709 931.591 764.151 902 767C882.451 768.882 862.947 770.864 843.5 773.625C842.757 773.729 842.015 773.833 841.25 773.941C839.155 774.238 837.062 774.543 834.969 774.851C833.787 775.025 832.606 775.198 831.389 775.377C827.819 776.033 824.47 776.948 821 778C823.603 778.485 826.207 778.963 828.812 779.437C829.531 779.572 830.25 779.706 830.99 779.845C842.333 781.894 853.683 782.272 865.188 782.312C865.967 782.315 866.746 782.319 867.549 782.322C887.84 782.349 907.972 780.421 928.158 778.538C934.361 777.962 940.566 777.416 946.773 776.886C947.738 776.802 948.702 776.717 949.696 776.63C977.32 774.301 1007.12 776.049 1029.5 794.5C1033.15 797.934 1035.72 800.91 1036.19 806.093C1036.03 811.679 1034.14 815.265 1030.25 819.218C1016.18 830.357 992.551 830.97 975.375 833C974.337 833.125 973.299 833.251 972.23 833.38C948.543 836.24 924.789 838.217 901 840C901.77 839.997 902.54 839.995 903.333 839.993C910.685 839.973 918.037 839.957 925.389 839.948C929.166 839.943 932.943 839.936 936.72 839.924C1001.43 839.733 1001.43 839.733 1017.39 852.988C1020.3 856.035 1021.83 858.495 1023.19 862.5C1022.93 867.221 1021.82 870.221 1019 874C1013.4 878.633 1007.09 881.487 1000.31 883.937C999.402 884.272 998.492 884.607 997.555 884.952C994.709 885.987 991.857 886.997 989 888C988.127 888.311 987.253 888.622 986.353 888.942C975.279 892.842 964.112 895.824 952.625 898.25C951.529 898.484 950.432 898.718 949.303 898.959C928.749 903.09 908.495 904.45 887.562 904.25C885.176 904.239 882.79 904.229 880.403 904.221C867.529 904.157 854.676 903.882 841.812 903.375C821.394 902.597 800.756 903.378 781 909C780.232 909.217 779.463 909.435 778.672 909.659C763.159 914.276 748.911 921.819 734.626 929.297C715.896 939.021 696.847 944.496 676 938C666.908 934.636 659.156 929.466 652 923C651.327 922.408 650.654 921.816 649.961 921.207C624.157 897.099 614.842 857.882 612.816 823.921C611.168 756.029 639.568 685.708 666.94 624.912C677.413 601.63 686.933 578.121 692 553C683.133 557.758 675.423 563.305 667.653 569.65C666.128 570.895 664.592 572.126 663.055 573.355C657.365 577.935 651.919 582.728 646.543 587.671C644.429 589.607 642.293 591.502 640.125 593.375C634.892 597.929 629.824 602.663 624.743 607.386C623.083 608.923 621.414 610.449 619.742 611.972C611.107 619.884 602.789 628.104 594.5 636.375C593.933 636.939 593.367 637.503 592.783 638.084C587.194 643.652 581.652 649.22 576.525 655.225C573.431 658.825 570.142 662.25 566.895 665.711C564.067 668.737 561.29 671.794 558.574 674.921C554.917 679.124 551.136 683.198 547.312 687.25C546.618 687.986 545.923 688.723 545.207 689.482C529.631 705.934 529.631 705.934 521.035 713.242C518.592 715.352 516.241 717.552 513.875 719.75C508.67 724.496 503.229 728.848 497.656 733.152C495.208 735.045 492.795 736.973 490.406 738.941C481.027 746.649 471.235 753.476 461 760C460.285 760.457 459.57 760.914 458.833 761.385C412.72 790.693 362.9 808.56 307.938 808.312C306.666 808.309 306.666 808.309 305.37 808.307C291.058 808.255 277.136 807.339 263 805C261.418 804.75 261.418 804.75 259.803 804.496C213.911 797.195 169.101 784.419 125 770C123.831 769.618 123.831 769.618 122.639 769.229C111.401 765.558 100.188 761.818 89 758C88.3388 757.774 87.6774 757.549 86.9961 757.317C72.2005 752.266 57.6711 746.934 43.5483 740.208C40.736 738.874 37.9096 737.574 35.082 736.273C6.324 722.936 6.324 722.936 1 714C0.375 710.437 0.375 710.437 1 707C3.21331 704.091 4.95745 702.45 8.3125 701C14.4403 701 20.444 704.646 25.75 707.437C47.7785 718.626 70.575 726.865 94.0396 734.4C99.231 736.07 104.411 737.773 109.59 739.48C120.379 743.031 131.184 746.53 142 750C142.776 750.249 143.551 750.498 144.35 750.755C220.267 775.158 220.267 775.158 299 785C300.29 785.038 300.29 785.038 301.606 785.078C340.273 786.12 377.094 778.577 412 762C412.797 761.623 413.593 761.247 414.414 760.859C443.189 747.157 469.61 729.46 494 709C495.002 708.172 496.003 707.344 497.035 706.492C508.731 696.778 519.727 686.345 530.5 675.625C531.146 674.983 531.792 674.341 532.458 673.68C535.547 670.581 538.523 667.436 541.375 664.117C546.261 658.46 551.649 653.306 556.973 648.066C560.488 644.584 563.958 641.122 567.16 637.347C572.406 631.24 578.208 625.643 583.906 619.963C585.933 617.942 587.954 615.915 589.975 613.888C601.357 602.5 601.357 602.5 607.248 597.502C610.608 594.621 613.788 591.542 617 588.5C621.658 584.087 626.368 579.764 631.214 575.558C633.388 573.661 635.506 571.707 637.625 569.75C643.227 564.703 649.103 560.063 655.082 555.476C657.074 553.943 659.052 552.393 661.031 550.843C683.055 533.764 683.055 533.764 697 534C697.083 532.808 697.083 532.808 697.168 531.593C697.573 526.049 698.024 520.524 698.684 515.003C708.347 433.522 702.221 350.109 692 269C691.895 268.153 691.789 267.307 691.681 266.435C686.844 227.591 677.39 189.691 667 152C666.786 151.221 666.571 150.442 666.35 149.64C658.218 120.193 647.856 91.8618 636.062 63.6831C633.543 57.3187 632.28 52.7058 634 45.9996C636.12 42.5634 638.096 40.1924 642 38.9996C648.404 38.6647 653.863 39.7347 660.062 41.2496C705.16 51.5037 752.872 52.7539 798.9 55.9907C801.627 56.1828 804.355 56.3764 807.083 56.5703C850.363 59.6351 893.484 61.2967 936.875 61.5422C947.121 61.6015 957.367 61.6754 967.613 61.7535C969.261 61.766 969.261 61.766 970.943 61.7787C998.875 61.998 1026.81 62.4306 1054.69 64.3121C1055.66 64.3761 1056.63 64.4402 1057.64 64.5062C1132.36 69.4759 1205.3 85.7631 1274 116C1275.2 116.528 1275.2 116.528 1276.43 117.067C1297.64 126.382 1318.82 135.754 1339.74 145.686C1342.82 147.143 1345.91 148.578 1349 150C1350.32 150.622 1350.32 150.622 1351.66 151.257C1358.32 154.215 1364.41 155.515 1371.5 153.175C1374.1 152.052 1376.61 150.812 1379.12 149.5C1379.95 149.09 1380.77 148.68 1381.62 148.257C1385.62 146.256 1389.6 144.213 1393.55 142.115C1403.94 136.673 1414.57 132.738 1425.69 129.062C1427.51 128.452 1429.33 127.841 1431.15 127.229C1452.06 120.228 1473.12 113.801 1494.31 107.718C1505.91 104.375 1517.42 100.79 1528.94 97.187C1583.65 80.0916 1638.79 65.1039 1694.33 50.9363C1697.82 50.0461 1701.31 49.1541 1704.79 48.2618C1783.75 28.087 1861.92 15.1327 1943.32 11.1988C1962.66 10.258 1981.99 9.11818 2001.31 7.87455C2002.67 7.78732 2004.03 7.70009 2005.39 7.61286C2019.34 6.73788 2019.34 6.73788 2033.27 5.74851C2043.02 5.00511 2052.76 4.61955 2062.53 4.2808C2064.3 4.21761 2066.06 4.15417 2067.83 4.09049C2072.45 3.92439 2077.07 3.76103 2081.69 3.59849C2089.04 3.33963 2096.39 3.0773 2103.74 2.81389C2105.51 2.75029 2107.29 2.68682 2109.06 2.62351C2118.98 2.26916 2128.9 1.89313 2138.81 1.42143C2146.06 1.07672 2153.3 0.791614 2160.56 0.749552ZM1380 206C1378.03 218.087 1379.23 230.651 1379.75 242.812C1379.8 243.947 1379.84 245.082 1379.89 246.251C1381.61 288.233 1384.53 330.005 1389.34 371.746C1399.6 460.904 1406.05 550.526 1410.89 691.787C1410.97 694.715 1411.04 697.643 1411.12 700.571C1411.99 732.879 1412.29 765.188 1412.52 797.505C1412.57 804.563 1412.62 811.621 1412.68 818.678C1412.79 833.119 1412.9 847.559 1413 862C1414.02 861.873 1414.02 861.873 1415.05 861.743C1420.31 861.086 1425.57 860.429 1430.82 859.772C1431.87 859.641 1432.91 859.51 1433.99 859.376C1436.7 859.036 1439.42 858.697 1442.13 858.358C1442.82 858.272 1443.52 858.185 1444.23 858.096C1447.15 857.73 1450.08 857.365 1453 857C1453.87 834.998 1454.18 813.024 1454.2 791.007C1454.2 788.386 1454.21 785.766 1454.21 783.145C1454.23 774.822 1454.23 766.5 1454.24 758.177C1454.24 749.727 1454.26 741.277 1454.28 732.827C1454.5 662.216 1451.44 592.289 1445.48 521.91C1445.41 521.13 1445.35 520.35 1445.28 519.547C1444.63 511.838 1443.97 504.13 1443.3 496.424C1440.74 467.161 1438.87 437.928 1437.94 408.562C1437.85 406.015 1437.77 403.468 1437.69 400.922C1437.45 393.615 1437.22 386.307 1437 379C1436.97 378.04 1436.94 377.081 1436.91 376.093C1436.38 358.21 1436.02 340.327 1435.79 322.437C1440.32 262.017 1440.32 262.017 1427 207C1418.82 203.725 1408.34 204.722 1399.62 204.794C1397.28 204.812 1394.93 204.814 1392.59 204.814C1391.1 204.819 1389.6 204.825 1388.11 204.832C1387.41 204.833 1386.71 204.834 1385.99 204.835C1382.71 204.589 1382.71 204.589 1380 206ZM712 549C711.753 550.06 711.753 550.06 711.5 551.141C704.88 579.231 695.73 605.641 683.911 631.969C659.901 685.466 638.217 743.054 633 802C632.89 803.224 632.781 804.449 632.668 805.711C632.394 809.14 632.175 812.564 632 816C631.957 816.8 631.915 817.601 631.871 818.425C631.076 849.125 640.591 883.377 660.812 906.937C669.784 916.285 680.49 923.17 693.678 923.572C711.536 923.497 725.259 915.962 740.803 908.047C770.775 892.809 801.043 885.502 834.659 885.91C837.698 885.946 840.736 885.966 843.774 885.982C852.401 886.03 861.028 886.101 869.655 886.191C894.142 886.439 917.835 886.349 942 882C944.363 881.595 946.727 881.192 949.09 880.789C967.158 877.688 987.779 874.004 1004 865C1004.33 864.34 1004.66 863.68 1005 863C991.253 856.192 975.53 856.703 960.531 856.656C958.778 856.643 957.025 856.629 955.271 856.614C951.581 856.583 947.891 856.558 944.201 856.536C934.626 856.478 925.051 856.379 915.477 856.277C914.536 856.267 913.595 856.257 912.626 856.247C897.032 856.078 881.457 855.736 865.875 855.062C864.957 855.024 864.04 854.987 863.094 854.948C853.962 854.564 844.871 853.971 835.777 853.05C835.017 852.975 834.257 852.899 833.473 852.822C823.732 851.766 813.948 850.032 806 844C803.433 840.149 804.167 838.414 805 834C810.129 832.009 814.946 831.434 820.375 830.992C821.324 830.91 822.273 830.829 823.251 830.744C834.996 829.775 846.764 829.144 858.53 828.488C896.392 826.374 934.097 823.597 971.75 819C972.746 818.88 973.742 818.76 974.767 818.637C998.615 816.02 998.615 816.02 1021 808C1019.57 803.715 1017.1 802.816 1013.27 800.621C1009.46 798.734 1005.62 797.191 1001.62 795.75C1000.95 795.504 1000.28 795.258 999.594 795.004C989.817 791.636 979.774 790.642 969.484 790.718C967.879 790.725 967.879 790.725 966.24 790.732C954.731 790.873 943.339 791.986 931.895 793.138C912.349 795.077 892.897 796.512 873.25 796.5C871.927 796.505 871.927 796.505 870.578 796.512C821.512 796.618 821.512 796.618 806.375 782.562C804.651 779.349 804.4 777.598 805 774C807.919 768.669 812.547 767.018 818 765C848.77 756.395 882.101 754.985 913.819 752.148C930.928 750.613 947.969 748.878 964.977 746.441C965.695 746.339 966.414 746.236 967.155 746.131C991.452 744.243 991.452 744.243 1013 735C1013 731.663 1012.85 729.072 1010.72 726.378C987.604 705.435 941.787 705.971 912.267 707.149C908.791 707.325 905.316 707.512 901.841 707.71C899.496 707.843 897.151 707.973 894.806 708.101C891.456 708.284 888.106 708.468 884.756 708.653C848.25 710.658 811.761 712.588 775.188 711.75C773.87 711.724 772.553 711.698 771.197 711.671C759.585 711.289 745.904 710.602 736 704C733.857 701.662 733.056 700.249 732.914 697.078C733.265 692.17 734.609 689.678 738 686C763.532 666.627 801.11 663.232 831.929 658.475C841.498 656.994 851.064 655.488 860.629 653.981C864.041 653.443 867.454 652.909 870.868 652.382C885.374 650.144 899.826 647.749 914.219 644.875C915.432 644.633 916.645 644.391 917.895 644.142C944.249 639.798 944.249 639.798 965 625C965.652 621.467 965.652 621.467 964 618C958.792 612.792 951.301 611.014 944.414 609.062C943.493 608.801 942.572 608.539 941.623 608.27C932.783 605.831 923.877 604.081 914.844 602.529C912.016 602.043 909.19 601.543 906.364 601.04C899.704 599.858 893.04 598.7 886.375 597.544C834.515 588.551 783.36 578.612 735.469 556.153C734.773 555.83 734.077 555.506 733.36 555.173C732.055 554.566 730.752 553.954 729.453 553.334C723.737 550.686 718.341 549 712 549ZM1862 789C1866 790 1866 790 1866 790L1862 789ZM1183 874C1189.21 880.96 1199.02 884.239 1208 886C1202.73 879.603 1194.48 875.152 1186.25 874.125C1184.64 874.063 1184.64 874.063 1183 874ZM1434.27 886.654C1432.01 886.936 1429.75 887.213 1427.49 887.49C1426.06 887.669 1424.62 887.848 1423.19 888.027C1421.88 888.189 1420.58 888.352 1419.23 888.519C1416 888.905 1416 888.905 1413 890C1413 908.48 1413 926.96 1413 946C1418.23 944.264 1418.23 944.264 1423.02 941.941C1423.73 941.555 1424.45 941.169 1425.18 940.771C1426.64 939.969 1428.09 939.167 1429.55 938.365C1430.26 937.977 1430.98 937.59 1431.71 937.191C1432.42 936.805 1433.12 936.419 1433.85 936.021C1436.02 934.991 1438.08 934.426 1440.39 933.816C1442.87 932.917 1443.75 932.489 1444.95 930.11C1445.61 927.531 1445.99 925.017 1446.31 922.375C1446.46 921.419 1446.6 920.464 1446.75 919.48C1447.21 916.324 1447.61 913.165 1448 910C1448.15 908.85 1448.3 907.701 1448.45 906.517C1449.37 899.352 1450.22 892.181 1451 885C1445.39 885 1439.82 885.957 1434.27 886.654ZM1382.43 895.546C1381.77 895.714 1381.12 895.881 1380.44 896.053C1378.25 896.613 1376.06 897.181 1373.88 897.75C1373.12 897.945 1372.36 898.14 1371.57 898.342C1359.33 901.498 1347.17 904.932 1335.02 908.462C1319.45 912.987 1304 917.222 1288 920C1286.65 920.236 1286.65 920.236 1285.28 920.478C1280.19 921.366 1275.1 922.207 1270 923C1288.01 948.729 1311.26 963.174 1342.07 969.003C1345.67 969.637 1349.28 970.22 1352.91 970.714C1354.83 970.977 1356.76 971.252 1358.68 971.527C1363.16 972.083 1367.58 972.127 1372.09 972.097C1373.34 972.095 1373.34 972.095 1374.62 972.093C1377.24 972.087 1379.87 972.075 1382.5 972.062C1384.29 972.057 1386.09 972.052 1387.88 972.048C1392.26 972.037 1396.63 972.02 1401 972C1399.82 970.762 1399.82 970.762 1398.62 969.5C1392.56 962.071 1393.66 952.306 1393.59 943.218C1393.57 941.795 1393.55 940.371 1393.53 938.948C1393.48 935.226 1393.44 931.504 1393.4 927.782C1393.36 923.974 1393.31 920.167 1393.26 916.359C1393.16 908.906 1393.08 901.453 1393 894C1389.09 894 1386.2 894.583 1382.43 895.546ZM1423.88 963C1422.51 963.835 1422.51 963.835 1421.12 964.687C1420.42 965.12 1419.72 965.553 1419 966C1421.87 967.337 1421.87 967.337 1424.01 966.074C1424.71 965.616 1425.41 965.159 1426.12 964.687C1426.83 964.237 1427.53 963.787 1428.26 963.324C1430.13 962.1 1430.13 962.1 1431 960C1428.06 960 1426.36 961.47 1423.88 963Z" fill="#1B1817"/>
</svg>
