<svg width="3287" height="2538" viewBox="0 0 3287 2538" fill="none" xmlns="http://www.w3.org/2000/svg">
<path d="M2087.44 4.57772C2095.64 12.0415 2097.07 21.7551 2097.88 32.2496C2098.93 44.3161 2100.63 56.2704 2102.34 68.2572C2110.18 123.325 2114.19 177.759 2114.13 233.402C2114.13 236.284 2114.13 239.166 2114.13 242.047C2114.14 248.903 2114.14 255.759 2114.13 262.615C2114.12 268.741 2114.12 274.868 2114.13 280.995C2114.16 314.271 2114.01 347.527 2113.36 380.798C2112.97 400.749 2112.84 420.693 2112.87 440.647C2112.88 445.164 2112.87 449.68 2112.87 454.196C2112.86 457.804 2112.86 461.412 2112.87 465.02C2112.87 466.687 2112.87 468.355 2112.86 470.022C2112.85 478.729 2112.99 487.41 2113.43 496.107C2113.46 496.87 2113.5 497.632 2113.54 498.418C2114.1 508.731 2115.04 520.317 2121 529C2125.76 531.937 2130.33 532.824 2135.76 533.6C2136.6 533.725 2137.43 533.85 2138.29 533.978C2145.99 535.084 2153.7 535.749 2161.45 536.245C2163.87 536.4 2166.29 536.566 2168.7 536.735C2172.15 536.975 2175.6 537.212 2179.05 537.446C2209.86 539.552 2240.5 542.014 2271 547C2271.89 547.145 2272.78 547.29 2273.7 547.44C2282.58 548.897 2291.46 550.396 2300.32 551.972C2318.72 555.235 2337.07 557.598 2355.67 559.389C2382.61 562.008 2409.31 565.5 2436 570C2436.9 570.15 2437.79 570.3 2438.72 570.455C2444.88 571.486 2451.03 572.546 2457.19 573.625C2457.96 573.759 2458.74 573.893 2459.54 574.031C2474.47 576.635 2489.49 579.895 2503.69 585.312C2504.46 585.605 2505.24 585.898 2506.04 586.2C2532.93 596.591 2554.46 614.034 2574.43 634.492C2577 637.071 2577 637.071 2579.99 639.437C2593.97 651.342 2603.78 670.623 2609 688C2609 688.99 2609 689.98 2609 691C2614.8 686.069 2620.24 680.878 2625.59 675.468C2626.78 674.276 2626.78 674.276 2627.99 673.06C2630.5 670.542 2633 668.021 2635.5 665.5C2638.8 662.174 2642.1 658.851 2645.41 655.531C2646.15 654.78 2646.89 654.028 2647.66 653.254C2651.72 649.174 2655.88 645.285 2660.24 641.529C2672.12 631.22 2682.61 619.577 2692 607C2697.18 600.508 2702.54 594.162 2707.92 587.833C2710.8 584.44 2713.63 581.017 2716.44 577.562C2721.32 571.567 2726.35 565.703 2731.4 559.85C2733.02 557.979 2734.63 556.105 2736.23 554.23C2742.44 547.015 2748.76 539.936 2755.24 532.972C2757.65 530.384 2760.02 527.762 2762.37 525.125C2767.88 518.981 2773.53 512.973 2779.17 506.951C2781.52 504.441 2783.87 501.927 2786.21 499.413C2788.53 496.925 2790.85 494.439 2793.18 491.953C2794.43 490.607 2795.69 489.26 2796.94 487.914C2809.9 474.02 2809.9 474.02 2816.31 467.722C2818.76 465.23 2821.01 462.58 2823.29 459.937C2827.18 455.535 2831.36 451.513 2835.81 447.687C2839.02 444.923 2842.02 442.013 2845 439C2848.47 435.495 2852 432.177 2855.74 428.968C2863.33 422.35 2870.7 415.465 2877.71 408.23C2879.58 406.403 2881.49 404.714 2883.48 403.016C2888.24 398.867 2892.68 394.434 2897.12 389.954C2898.6 388.462 2900.08 386.974 2901.56 385.486C2904.71 382.327 2907.86 379.163 2911 376C2914.65 372.328 2918.3 368.658 2921.95 364.992C2923.4 363.539 2924.84 362.083 2926.28 360.627C2930.82 356.078 2935.39 351.651 2940.27 347.482C2943.27 344.913 2946.12 342.197 2949 339.5C2953.24 335.545 2957.5 331.645 2961.89 327.863C2964.17 325.847 2966.4 323.778 2968.62 321.701C2973.95 316.727 2979.38 311.969 2985.07 307.402C2988.55 304.55 2991.93 301.591 2995.31 298.625C3001.34 293.36 3007.51 288.331 3013.84 283.445C3015.78 281.944 3017.7 280.423 3019.59 278.867C3026.02 273.604 3031.08 270.611 3039.56 271.062C3045.67 271.88 3049.79 273.269 3053.72 278.125C3057.9 284.135 3059.6 288.578 3059 296C3056.76 304.695 3051.81 309.995 3045.44 316.062C3044.54 316.941 3043.63 317.82 3042.7 318.726C3037.5 323.754 3032.23 328.555 3026.51 332.996C3022.49 336.202 3018.78 339.724 3015.02 343.226C3012.82 345.267 3010.57 347.231 3008.3 349.183C3003.11 353.701 2998.29 358.567 2993.44 363.437C2992.53 364.34 2991.62 365.243 2990.69 366.173C2986.18 370.685 2981.81 375.247 2977.66 380.085C2974.7 383.497 2971.59 386.773 2968.5 390.062C2967.87 390.73 2967.25 391.399 2966.6 392.087C2963.61 395.278 2960.59 398.425 2957.47 401.496C2955.06 403.88 2952.8 406.336 2950.59 408.902C2946.77 413.321 2942.7 417.446 2938.56 421.562C2937.85 422.278 2937.14 422.994 2936.4 423.732C2933.07 427.055 2929.72 430.289 2926.15 433.351C2920.86 437.908 2915.98 442.87 2911.06 447.812C2910.1 448.775 2909.13 449.738 2908.16 450.701C2907.25 451.61 2906.35 452.52 2905.41 453.457C2904.59 454.281 2903.76 455.106 2902.91 455.956C2900.95 457.854 2900.95 457.854 2900 460C2899.34 460 2898.68 460 2898 460C2897.8 460.531 2897.59 461.062 2897.39 461.609C2895.4 465.042 2892.65 467.508 2889.81 470.25C2885.66 474.323 2881.64 478.409 2877.87 482.843C2875.31 485.791 2872.65 488.64 2870 491.5C2866.17 495.628 2862.39 499.784 2858.71 504.043C2856.66 506.385 2854.58 508.692 2852.5 511C2849.81 513.98 2847.14 516.972 2844.5 520C2838.1 527.338 2831.53 534.52 2824.94 541.685C2822.48 544.362 2820.06 547.059 2817.69 549.812C2813.73 554.374 2809.59 558.762 2805.46 563.166C2802.64 566.17 2799.83 569.177 2797.06 572.226C2790.39 579.561 2783.47 586.605 2776.4 593.557C2772.31 597.608 2768.41 601.746 2764.65 606.113C2762.08 609.051 2759.33 611.81 2756.56 614.562C2756.04 615.087 2755.52 615.613 2754.98 616.154C2752.2 618.928 2749.36 621.572 2746.37 624.121C2740.44 629.255 2735.01 634.922 2729.5 640.5C2717.17 652.984 2717.17 652.984 2710.87 658.349C2707.24 661.55 2703.89 665.046 2700.5 668.5C2695.73 673.361 2690.89 678.033 2685.73 682.481C2679.32 688.117 2674.34 695.126 2669.28 701.953C2663.61 709.518 2657.49 716.669 2651.12 723.656C2649.17 725.807 2647.27 727.988 2645.37 730.187C2638.54 738.013 2638.54 738.013 2635 741C2634.34 741 2633.68 741 2633 741C2636.4 757.833 2640.02 774.572 2644.37 791.187C2658.91 846.828 2658.91 846.828 2662 873C2662.15 874.243 2662.3 875.486 2662.46 876.767C2667.92 922.023 2669.65 967.892 2671.88 1013.4C2671.91 1014.07 2671.94 1014.74 2671.98 1015.43C2672.31 1022.17 2672.63 1028.9 2672.92 1035.64C2673.87 1056.43 2676.01 1077.06 2678.81 1097.69C2680.23 1108.16 2681.4 1118.64 2682.45 1129.16C2682.64 1131.06 2682.64 1131.06 2682.84 1133C2683.48 1139.39 2684.11 1145.79 2684.72 1152.19C2686.54 1170.85 2689.09 1188.89 2695.19 1206.69C2695.77 1208.4 2695.77 1208.4 2696.36 1210.15C2700.89 1223.05 2707.71 1242.35 2721 1249C2723.23 1248.96 2725.46 1248.84 2727.69 1248.69C2728.37 1248.64 2729.04 1248.59 2729.74 1248.55C2733.76 1248.26 2737.77 1247.93 2741.78 1247.52C2758.14 1245.86 2774.47 1245.57 2790.89 1245.4C2794.5 1245.36 2798.12 1245.31 2801.73 1245.26C2809.82 1245.15 2817.91 1245.07 2826 1245C2827.01 1244.99 2828.01 1244.98 2829.05 1244.97C2847.58 1244.79 2866.08 1245.51 2884.6 1246.15C2921.45 1247.41 2958.1 1246.72 2994.95 1245.54C3056.23 1243.59 3117.5 1242.33 3178.81 1241.6C3180.25 1241.58 3181.69 1241.56 3183.12 1241.54C3184.54 1241.53 3185.96 1241.51 3187.38 1241.49C3188.42 1241.48 3188.42 1241.48 3189.48 1241.47C3192.9 1241.43 3196.32 1241.39 3199.74 1241.35C3212.87 1241.2 3226 1241.03 3239.12 1240.66C3240.12 1240.63 3241.12 1240.6 3242.15 1240.57C3246.69 1240.44 3251.23 1240.3 3255.76 1240.14C3257.31 1240.09 3258.86 1240.04 3260.41 1239.99C3261.72 1239.95 3263.03 1239.9 3264.38 1239.85C3272.05 1240.17 3276.84 1242.58 3282 1248C3285.84 1253.38 3286.65 1258.44 3286 1265C3284.35 1272.04 3280.86 1275.77 3275.19 1280.19C3267.07 1284.8 3258.51 1284.29 3249.42 1284.26C3247.93 1284.26 3246.45 1284.27 3244.96 1284.27C3240.88 1284.28 3236.81 1284.28 3232.73 1284.28C3228.33 1284.27 3223.93 1284.28 3219.53 1284.29C3210.9 1284.3 3202.26 1284.3 3193.63 1284.3C3186.6 1284.3 3179.56 1284.3 3172.52 1284.31C3171.01 1284.31 3171.01 1284.31 3169.48 1284.31C3167.44 1284.31 3165.4 1284.31 3163.36 1284.31C3144.21 1284.32 3125.05 1284.32 3105.9 1284.31C3088.49 1284.31 3071.08 1284.32 3053.67 1284.34C3035.72 1284.36 3017.78 1284.37 2999.83 1284.36C2989.78 1284.36 2979.74 1284.36 2969.69 1284.38C2891.5 1284.48 2891.5 1284.48 2854.42 1281.36C2849.83 1280.98 2845.24 1280.67 2840.64 1280.38C2839.95 1280.34 2839.25 1280.3 2838.54 1280.25C2833.2 1279.94 2828.1 1280.17 2822.8 1280.89C2821.94 1280.99 2821.07 1281.1 2820.17 1281.21C2818.34 1281.43 2816.51 1281.66 2814.69 1281.89C2811.8 1282.26 2808.91 1282.61 2806.02 1282.95C2802.14 1283.41 2798.26 1283.88 2794.38 1284.35C2729.53 1292.2 2729.53 1292.2 2708 1281C2704.52 1287.44 2703.31 1293.88 2701.87 1301C2701.48 1302.86 2701.48 1302.86 2701.07 1304.75C2700.82 1305.99 2700.57 1307.23 2700.3 1308.5C2700.08 1309.6 2699.85 1310.71 2699.62 1311.84C2699.4 1313.23 2699.19 1314.61 2699 1316C2698.86 1316.91 2698.73 1317.82 2698.59 1318.76C2697.28 1330.52 2699.31 1341.82 2701.05 1353.44C2701.38 1355.74 2701.72 1358.04 2702.05 1360.34C2702.75 1365.22 2703.47 1370.09 2704.19 1374.96C2705.33 1382.65 2706.44 1390.34 2707.56 1398.03C2710.39 1417.54 2713.26 1437.04 2716.15 1456.54C2717.13 1463.11 2718.1 1469.68 2719.06 1476.25C2719.34 1478.15 2719.34 1478.15 2719.63 1480.09C2724.71 1514.8 2729.07 1549.62 2733.53 1584.42C2733.77 1586.29 2733.77 1586.29 2734.01 1588.21C2734.17 1589.45 2734.33 1590.69 2734.5 1591.97C2734.73 1593.82 2734.73 1593.82 2734.97 1595.7C2735.29 1598.17 2735.61 1600.64 2735.92 1603.1C2737.78 1617.62 2739.66 1632.12 2741.64 1646.62C2741.84 1648.05 2742.03 1649.48 2742.23 1650.91C2742.32 1651.6 2742.42 1652.3 2742.51 1653.01C2750.75 1713.37 2757.19 1774.03 2761.76 1834.78C2762 1837.97 2762.24 1841.17 2762.49 1844.36C2768.17 1918.4 2768.17 1918.4 2762 1952C2761.81 1953.06 2761.61 1954.12 2761.41 1955.21C2757.54 1975.66 2751.88 1996.12 2743 2015C2744.26 2014.95 2745.53 2014.91 2746.83 2014.86C2762.54 2014.46 2777.55 2016.35 2793 2019C2793.92 2019.16 2794.84 2019.31 2795.79 2019.48C2802.21 2020.58 2808.62 2021.7 2815.02 2022.85C2817.19 2023.24 2819.36 2023.62 2821.53 2024C2847.44 2028.59 2871.01 2035.06 2887.03 2057.82C2898.4 2076.24 2901.17 2098.8 2901.12 2120.07C2901.12 2121.49 2901.12 2121.49 2901.12 2122.94C2901.05 2134.06 2900.48 2145.15 2899.81 2156.25C2899.75 2157.34 2899.68 2158.44 2899.62 2159.56C2894.51 2244.35 2894.51 2244.35 2880.92 2271.21C2880.56 2271.92 2880.2 2272.63 2879.83 2273.37C2879.55 2273.91 2879.28 2274.44 2879 2275C2879.9 2275 2879.9 2275 2880.83 2274.99C2915.9 2274.87 2950.94 2275.07 2986 2276C2986.75 2276.02 2987.5 2276.04 2988.28 2276.06C3059.63 2277.9 3059.63 2277.9 3079.19 2298.12C3090.84 2311.82 3093.14 2330.33 3093.17 2347.69C3093.17 2349.04 3093.17 2349.04 3093.18 2350.42C3093.18 2352.32 3093.19 2354.22 3093.18 2356.12C3093.19 2358.96 3093.21 2361.81 3093.22 2364.66C3093.32 2396.27 3089.11 2432.8 3065.82 2456.34C3031.56 2488.65 2968.47 2484.01 2924.45 2486.47C2920.69 2486.68 2916.92 2486.9 2913.16 2487.12C2863.51 2490.01 2814.13 2490.38 2764.41 2489.19C2761.51 2489.12 2758.6 2489.06 2755.7 2488.99C2730.04 2488.4 2704.39 2487.66 2678.74 2486.68C2664.26 2486.13 2649.79 2485.69 2635.31 2485.37C2634 2485.34 2634 2485.34 2632.66 2485.31C2600.17 2484.56 2567.65 2485.05 2535.16 2485.32C2533.77 2485.33 2532.38 2485.34 2530.99 2485.36C2530.29 2485.36 2529.6 2485.37 2528.88 2485.37C2450.6 2486.03 2372.29 2486.68 2227.92 2484.35C2224.62 2484.23 2221.31 2484.12 2218 2484C2216.4 2483.94 2216.4 2483.94 2214.76 2483.88C2174.1 2482.45 2133.48 2481.56 2092.79 2481.56C2090.72 2481.56 2088.65 2481.56 2086.58 2481.56C2029.22 2481.5 1972.02 2483.44 1914.73 2486.14C1898.16 2486.92 1881.59 2487.57 1865 2488C1864.04 2488.02 1863.09 2488.05 1862.11 2488.08C1855.84 2488.24 1849.58 2488.38 1843.31 2488.5C1842.31 2488.52 1841.31 2488.54 1840.27 2488.56C1825.67 2488.85 1811.07 2489.06 1796.47 2489.21C1795.65 2489.22 1794.84 2489.23 1793.99 2489.24C1790.59 2489.28 1787.19 2489.31 1783.79 2489.35C1695.23 2490.31 1606.61 2491.65 1499.2 2498.09C1473.15 2499.68 1447.08 2501.01 1421.01 2502.29C1412.34 2502.72 1403.68 2503.18 1395.01 2503.69C1352.81 2506.14 1310.61 2506.27 1268.34 2506.25C1266.08 2506.25 1263.82 2506.25 1261.56 2506.25C1231.75 2506.24 1201.93 2506.17 1172.12 2505.54C1171.18 2505.52 1170.23 2505.5 1169.26 2505.48C1100.49 2504 1034.62 2500.24 975.711 2461.12C950.049 2444.08 925.119 2438.77 894.414 2438.8C893.661 2438.8 892.908 2438.8 892.133 2438.8C873.739 2438.82 855.423 2439.9 837.073 2441.08C833.374 2441.31 829.675 2441.54 825.977 2441.77C816.77 2442.34 807.565 2442.93 798.36 2443.52C793.25 2443.86 788.141 2444.18 783.031 2444.5C715.211 2448.75 647.56 2455.64 579.918 2462.05C521.328 2467.6 521.328 2467.6 492.437 2469.87C490.636 2470.02 490.636 2470.02 488.798 2470.16C479.763 2470.87 470.727 2471.57 461.691 2472.25C358.778 2480.04 256.403 2492.19 133.162 2514.41C129.94 2515.01 126.718 2515.6 123.495 2516.19C97.974 2520.87 72.6663 2525.91 47.5843 2532.6C22.885 2539.07 22.885 2539.07 11.8277 2533.19C6.39475 2529.65 3.14885 2525.04 0.999602 2519C0.17189 2512.26 2.33566 2507.02 6.1871 2501.56C15.3139 2491.56 32.5095 2487.14 44.9996 2483C45.8979 2482.7 46.7962 2482.4 47.7218 2482.1C108.524 2462.29 172.958 2453.52 236 2444C237.163 2443.82 238.326 2443.65 239.524 2443.46C273.335 2438.32 307.247 2434.43 341.25 2430.81C342.218 2430.71 343.187 2430.61 344.185 2430.5C396.473 2424.93 448.816 2420.37 501.249 2416.44C516.971 2415.26 532.69 2414.06 548.41 2412.85C549.194 2412.79 549.979 2412.73 550.788 2412.67C580.072 2410.42 609.336 2407.99 638.593 2405.41C647.986 2404.58 657.38 2403.76 666.773 2402.93C667.746 2402.85 668.719 2402.76 669.722 2402.67C713.423 2398.84 757.139 2395.74 800.949 2393.46C803.984 2393.3 807.019 2393.14 810.054 2392.98C810.802 2392.94 811.549 2392.9 812.319 2392.86C823.367 2392.28 834.407 2391.61 845.445 2390.86C846.147 2390.82 846.848 2390.77 847.571 2390.72C854.814 2390.24 862.055 2389.74 869.295 2389.22C881.036 2388.4 892.728 2387.84 904.5 2387.81C905.578 2387.81 906.656 2387.8 907.766 2387.8C952.476 2388.02 987.35 2406.56 1024 2430C1023.59 2429.39 1023.18 2428.77 1022.76 2428.14C1011.14 2410.45 1008.2 2387.54 1012.08 2366.97C1017.19 2343.51 1029.09 2322.36 1049.42 2308.95C1053.9 2306.35 1058.71 2304.75 1063.62 2303.17C1068.43 2301.62 1072.72 2299.74 1077.19 2297.37C1097.57 2286.92 1121.75 2286.66 1144.23 2285.92C1147.43 2285.81 1150.64 2285.69 1153.85 2285.56C1168.57 2285.01 1183.27 2284.9 1198 2285C1197.69 2283.26 1197.37 2281.52 1197.05 2279.78C1196.88 2278.81 1196.7 2277.84 1196.52 2276.84C1195.04 2268.81 1192.83 2261.34 1190.12 2253.62C1184.44 2236.91 1181.47 2220.56 1180 2203C1179.89 2201.8 1179.78 2200.6 1179.66 2199.36C1175.59 2151.36 1193.71 2092.31 1224.84 2054.78C1239.41 2040.73 1260.6 2038.81 1279.75 2038.87C1281.55 2038.87 1281.55 2038.87 1283.38 2038.86C1289.96 2038.87 1296.42 2039.17 1302.96 2039.78C1308.55 2040.19 1314.15 2040.1 1319.75 2040.06C1320.94 2040.06 1322.12 2040.05 1323.34 2040.05C1326.23 2040.04 1329.11 2040.02 1332 2040C1334.1 2032.15 1335.66 2024.38 1336.81 2016.34C1338.64 2004.34 1341.29 1992.64 1344.2 1980.87C1350.47 1955.38 1354.78 1930.72 1356.49 1904.53C1356.59 1903.03 1356.59 1903.03 1356.69 1901.5C1358.42 1874.43 1358.93 1847.32 1359.48 1820.2C1360.19 1785.36 1360.92 1750.53 1362.85 1715.73C1363.01 1712.84 1363.16 1709.96 1363.32 1707.07C1364.14 1691.84 1365 1676.61 1365.87 1661.37C1365.94 1660.22 1366.01 1659.07 1366.07 1657.88C1368.42 1616.99 1370.81 1576.11 1374.48 1535.31C1374.62 1533.79 1374.76 1532.27 1374.89 1530.75C1374.96 1529.98 1375.03 1529.22 1375.1 1528.43C1375.39 1525.22 1375.68 1522.02 1375.97 1518.82C1376.11 1517.2 1376.26 1515.57 1376.41 1513.95C1380.07 1473.34 1382.91 1432.67 1385.75 1392C1386.07 1387.4 1386.39 1382.8 1386.72 1378.2C1386.89 1375.66 1387.07 1373.11 1387.25 1370.56C1388.42 1353.71 1389.67 1336.87 1391.15 1320.05C1391.79 1312.68 1392.17 1305.4 1392 1298C1390.76 1298.25 1389.52 1298.49 1388.24 1298.75C1374.63 1301.43 1360.98 1303.62 1347.25 1305.56C1346.19 1305.71 1345.13 1305.86 1344.04 1306.02C1325.73 1308.62 1307.45 1310.69 1289 1312C1288.15 1312.06 1287.31 1312.13 1286.43 1312.19C1281.29 1312.57 1276.15 1312.81 1271 1313C1269.94 1313.04 1268.87 1313.09 1267.78 1313.13C1249.62 1313.86 1231.48 1314.1 1213.31 1314.11C1212.21 1314.11 1211.11 1314.11 1209.97 1314.11C1187.01 1314.1 1164.08 1313.58 1141.13 1312.85C1137.93 1312.75 1134.72 1312.65 1131.52 1312.55C1092.65 1311.38 1053.81 1309.88 1014.96 1308.23C1005.77 1307.84 996.583 1307.46 987.393 1307.1C985.858 1307.03 984.322 1306.97 982.787 1306.91C957.668 1305.89 932.562 1305.84 907.426 1305.87C902.895 1305.87 898.365 1305.87 893.834 1305.87C878.888 1305.85 863.944 1305.89 849 1306C848.098 1306.01 847.197 1306.01 846.269 1306.02C820.783 1306.14 820.783 1306.14 795.875 1311.06C783.032 1314.77 767.837 1318.52 755.144 1312.32C747.575 1307.67 743.105 1302.79 741 1294C739.752 1285.53 742.306 1279.45 746.625 1272.31C761.569 1257.76 786.591 1257.46 806.168 1256.58C806.872 1256.55 807.576 1256.52 808.301 1256.49C809.015 1256.45 809.729 1256.42 810.464 1256.39C823.74 1255.79 836.612 1254.67 849.687 1252.25C934.343 1236.67 1021.69 1234.46 1111.84 1231.22C1116.36 1231.06 1120.89 1230.88 1125.41 1230.7C1147.01 1229.86 1168.6 1229.85 1190.21 1229.87C1195.43 1229.87 1200.64 1229.87 1205.86 1229.87C1226.08 1229.85 1246.29 1229.93 1266.51 1230.44C1267.29 1230.46 1268.07 1230.47 1268.87 1230.49C1307.9 1231.47 1346.57 1237.41 1385 1244C1385.93 1241.2 1386.21 1239.15 1386.39 1236.23C1386.45 1235.24 1386.51 1234.26 1386.58 1233.24C1386.64 1232.16 1386.7 1231.07 1386.77 1229.95C1386.84 1228.8 1386.91 1227.65 1386.98 1226.47C1387.17 1223.28 1387.36 1220.1 1387.55 1216.91C1387.71 1214.2 1387.88 1211.48 1388.04 1208.77C1388.53 1200.66 1389 1192.55 1389.48 1184.44C1389.7 1180.59 1389.93 1176.74 1390.16 1172.89C1392.13 1139.52 1394.03 1106.16 1395.5 1072.77C1395.58 1070.88 1395.58 1070.88 1395.67 1068.96C1396.19 1057.14 1396.68 1045.32 1397.15 1033.5C1398.7 994.112 1401.18 954.792 1406.31 915.687C1406.61 913.343 1406.91 910.999 1407.21 908.655C1415.05 848.275 1424.79 789.66 1453.06 735.062C1453.53 734.152 1454 733.241 1454.49 732.303C1456.54 728.399 1458.6 724.598 1461.05 720.92C1466.35 712.934 1468.55 706.113 1470 696.687C1470.47 694.041 1470.95 691.398 1471.44 688.757C1471.57 688.101 1471.69 687.445 1471.82 686.77C1475.37 668.382 1482.11 650.512 1493.84 635.833C1499.75 628.857 1499.75 628.857 1502 620.25C1501.71 617.616 1501.71 617.616 1501 615C1500.77 614.025 1500.54 613.051 1500.31 612.046C1493.92 589.691 1472.59 572.582 1455.11 558.507C1452.72 556.58 1450.35 554.638 1447.99 552.679C1440.04 546.086 1432.03 539.633 1423.81 533.383C1420.94 531.185 1418.09 528.953 1415.24 526.726C1408.9 521.77 1402.55 516.858 1396.01 512.168C1391.96 509.25 1387.95 506.278 1383.94 503.312C1369.09 492.357 1354.1 481.612 1339 471C1330.36 464.925 1321.74 458.826 1313.19 452.625C1304.33 446.204 1295.37 439.935 1286.4 433.675C1276.11 426.489 1265.89 419.217 1255.73 411.855C1250.68 408.199 1245.6 404.586 1240.5 401C1233.8 396.289 1227.15 391.516 1220.52 386.714C1216.02 383.46 1211.52 380.22 1207 377C1183.12 359.963 1183.12 359.963 1171.99 351.316C1169.1 349.076 1166.18 346.876 1163.25 344.687C1158.31 340.993 1153.4 337.253 1148.5 333.5C1141.7 328.289 1134.87 323.125 1128 318C1118.28 310.741 1108.61 303.403 1099 296C1098.06 295.276 1098.06 295.276 1097.1 294.537C1068.28 272.311 1045.73 247.628 1026 217C1025.49 216.217 1024.99 215.434 1024.46 214.628C999.027 175.237 999.027 175.237 1001.45 161.992C1003.67 153.929 1007.46 148.239 1014.67 144.015C1021.4 141.083 1028.6 141.406 1035.43 143.816C1046.23 148.788 1055.64 157.189 1064.98 164.436C1066.78 165.833 1068.6 167.22 1070.41 168.601C1078.47 174.739 1086.34 181.091 1094.17 187.507C1095.78 188.821 1097.39 190.132 1099 191.441C1107.9 198.682 1116.64 206.107 1125.34 213.588C1130.91 218.376 1136.52 223.09 1142.22 227.718C1145.36 230.298 1148.46 232.926 1151.56 235.562C1156.96 240.147 1162.43 244.618 1168 249C1168.77 249.61 1168.77 249.61 1169.56 250.232C1172.5 252.546 1175.44 254.856 1178.39 257.164C1180.68 258.966 1182.98 260.773 1185.27 262.586C1200.52 274.645 1215.96 286.399 1231.9 297.525C1249.88 310.15 1267.48 323.316 1285.03 336.523C1287.05 338.039 1289.07 339.551 1291.09 341.062C1303.28 350.178 1315.33 359.469 1327.34 368.821C1331.8 372.292 1336.27 375.749 1340.75 379.187C1350.96 387.037 1361.06 395.019 1371.04 403.165C1375.3 406.638 1379.6 410.057 1383.94 413.437C1399.28 425.416 1414.34 437.874 1428.75 450.964C1430.75 452.773 1432.77 454.549 1434.81 456.312C1440.04 460.873 1445.12 465.6 1450.2 470.325C1451.99 471.989 1453.79 473.645 1455.59 475.3C1463.92 483.004 1472.03 490.923 1480.06 498.937C1480.56 499.428 1481.05 499.918 1481.56 500.423C1486.71 505.556 1491.75 510.738 1496.48 516.263C1498.7 518.806 1501.08 521.14 1503.5 523.5C1507.89 527.834 1512.01 532.301 1516 537C1517.3 538.488 1517.3 538.488 1518.64 540.007C1525.49 547.854 1531.91 555.965 1538.19 564.285C1541.94 569.886 1541.94 569.886 1547 574C1560.29 575.739 1570.86 573.522 1582.93 568.16C1604.02 558.854 1628.67 555.73 1651.35 553.007C1652.06 552.922 1652.77 552.836 1653.5 552.748C1668.6 550.938 1683.73 549.676 1698.91 548.646C1701.12 548.496 1703.33 548.342 1705.55 548.189C1792.67 542.169 1880.54 538.208 1989.12 540.937C1989.88 540.959 1990.64 540.981 1991.42 541.003C1995.81 541.13 2000.2 541.261 2004.59 541.4C2006.56 541.462 2008.53 541.522 2010.5 541.581C2018.02 541.83 2025.5 542.292 2033 543C2033.68 536.001 2034.35 529.001 2035 522C2035.11 520.886 2035.21 519.772 2035.32 518.625C2036.65 503.199 2036.95 487.681 2037.18 472.207C2037.57 446.596 2038.31 421.025 2039.44 395.437C2039.47 394.677 2039.5 393.918 2039.54 393.135C2040.17 378.744 2040.81 364.353 2041.57 349.968C2044.05 302.788 2044.59 255.5 2045.46 208.269C2045.62 199.825 2045.78 191.381 2045.94 182.937C2045.96 181.89 2045.98 180.844 2046 179.765C2046.62 146.752 2047.47 113.751 2048.56 80.7496C2048.59 79.7648 2048.63 78.7801 2048.66 77.7655C2048.84 72.1202 2049.03 66.4751 2049.23 60.83C2049.28 59.1406 2049.34 57.4512 2049.4 55.7617C2049.68 47.4064 2050.01 39.0553 2050.47 30.7076C2050.53 29.6664 2050.53 29.6664 2050.58 28.6041C2051.16 18.5828 2053.54 11.8664 2061 4.9996C2068.36 -0.433252 2079.76 -0.518699 2087.44 4.57772ZM2085 539C2084.67 540.98 2084.34 542.96 2084 545C2085.65 545 2087.3 545 2089 545C2087.88 541.273 2087.88 541.273 2085 539ZM2044 602C1984.81 631.086 1895.5 618.768 1831.39 614.239C1802.27 612.184 1773.24 611.796 1744.06 611.812C1742.63 611.812 1742.63 611.812 1741.16 611.812C1697.29 611.819 1653.61 612.967 1609.88 616.682C1607.5 616.877 1605.12 617.049 1602.73 617.184C1596.73 617.56 1592.26 618.724 1587 621.625C1586.32 621.984 1585.64 622.343 1584.94 622.712C1575.21 627.917 1566.49 633.969 1558 641C1557.11 641.662 1556.22 642.325 1555.3 643.007C1551.86 645.987 1551.23 649.765 1550 654C1545.03 669.835 1538.28 684.902 1529.28 698.882C1528.65 699.864 1528.03 700.845 1527.38 701.857C1526.18 703.709 1524.95 705.545 1523.68 707.357C1518.19 715.771 1517.16 724.259 1516 734C1515.85 735.169 1515.71 736.339 1515.56 737.545C1514.37 747.185 1513.26 756.833 1512.16 766.484C1511.77 769.898 1511.38 773.311 1510.99 776.724C1508.53 798.148 1506.16 819.581 1503.84 841.021C1498.04 894.665 1491.35 948.049 1482.92 1001.35C1470.92 1077.32 1460.8 1153.59 1452 1230C1451.92 1230.73 1451.83 1231.46 1451.74 1232.22C1445.41 1287.09 1441 1342.08 1437.16 1397.18C1430.33 1495.33 1421.49 1593.17 1410.02 1690.89C1407.95 1708.58 1405.94 1726.26 1404.31 1744C1404.21 1745.12 1404.1 1746.24 1404 1747.4C1402.23 1766.71 1401.11 1785.99 1400.35 1805.36C1399 1839.6 1397.3 1873.88 1394 1908C1393.9 1909.09 1393.79 1910.18 1393.69 1911.31C1390.71 1941.93 1382.71 1971.72 1374.95 2001.4C1373.54 2006.84 1372.19 2012.29 1370.91 2017.76C1370.76 2018.42 1370.6 2019.09 1370.44 2019.78C1369.74 2022.79 1369.04 2025.8 1368.37 2028.82C1365.84 2039.74 1362.23 2049.34 1355 2058C1364.09 2059.03 1373.19 2059.47 1382.33 2059.9C1384.05 2059.98 1385.77 2060.07 1387.49 2060.15C1393.08 2060.42 1398.66 2060.68 1404.25 2060.94C1405.2 2060.98 1406.16 2061.03 1407.14 2061.07C1445.09 2062.84 1483.03 2064.13 1521 2065C1522.15 2065.03 1523.3 2065.05 1524.48 2065.08C1552.94 2065.75 1581.41 2066.14 1609.87 2066.53C1612.32 2066.56 1614.78 2066.6 1617.23 2066.63C1650.04 2067.08 1682.82 2067.04 1715.62 2066.62C1716.47 2066.61 1717.31 2066.6 1718.18 2066.59C1770.62 2065.93 1823.04 2064.48 1875.45 2062.54C1878.11 2062.44 1880.78 2062.34 1883.44 2062.24C1887.59 2062.09 1891.74 2061.93 1895.89 2061.77C1897.41 2061.71 1898.94 2061.66 1900.47 2061.6C1902.56 2061.52 1904.64 2061.44 1906.73 2061.36C1907.9 2061.31 1909.07 2061.27 1910.27 2061.22C1912.96 2061.17 1912.96 2061.17 1915 2060C1914.96 2059.04 1914.93 2058.08 1914.89 2057.09C1914.55 2042.9 1916.17 2028.96 1917.77 2014.88C1918.17 2011.34 1918.55 2007.8 1918.94 2004.26C1920.45 1990.54 1922.01 1976.83 1923.6 1963.12C1923.96 1960.03 1924.32 1956.94 1924.68 1953.84C1924.81 1952.7 1924.81 1952.7 1924.94 1951.53C1925.12 1949.99 1925.29 1948.46 1925.47 1946.93C1925.89 1943.27 1926.32 1939.61 1926.75 1935.95C1929.69 1911.35 1931.53 1886.73 1933 1862C1933.08 1860.69 1933.08 1860.69 1933.16 1859.35C1933.93 1846.37 1934.59 1833.37 1935.19 1820.37C1935.23 1819.44 1935.27 1818.51 1935.32 1817.56C1936.76 1786.1 1937.38 1754.68 1937.38 1723.19C1937.37 1720.13 1937.38 1717.06 1937.38 1713.99C1937.39 1686.27 1936.56 1658.67 1935 1631C1934.93 1629.71 1934.93 1629.71 1934.85 1628.4C1934.23 1617.23 1933.56 1606.05 1932.88 1594.88C1931.48 1571.69 1930.09 1548.51 1929.11 1525.3C1929.08 1524.53 1929.05 1523.76 1929.01 1522.96C1928.74 1516.39 1928.46 1509.83 1928.22 1503.26C1926.43 1454.38 1921.48 1400.2 1883.46 1364.66C1877.99 1359.8 1872.09 1355.96 1865.87 1352.12C1863.66 1350.73 1861.45 1349.34 1859.24 1347.94C1857.64 1346.94 1857.64 1346.94 1856.01 1345.91C1832.96 1331.26 1810.5 1314.21 1797 1290C1796.18 1288.55 1796.18 1288.55 1795.35 1287.07C1771.45 1242.19 1777.97 1175.02 1789 1127C1789.19 1126.16 1789.38 1125.31 1789.58 1124.44C1795.29 1100.28 1804.14 1076.31 1815 1054C1815.42 1053.13 1815.83 1052.26 1816.26 1051.37C1848.05 985.4 1890.39 947.738 1959.2 923.469C1974.92 917.986 1990.58 913.877 2007 911C2007.93 910.826 2008.87 910.652 2009.83 910.474C2037.33 905.425 2063.29 907.867 2089.73 916.753C2095.15 918.448 2100.74 919.389 2106.31 920.437C2146.85 928.15 2183.35 947.385 2213 976C2213.62 976.593 2214.25 977.186 2214.89 977.797C2219.74 982.509 2223.9 987.468 2227.87 992.937C2228.78 994.186 2228.78 994.186 2229.71 995.461C2262.16 1040.74 2281.57 1099.17 2281.31 1154.87C2281.31 1155.7 2281.31 1156.53 2281.31 1157.39C2281.25 1169.82 2280.82 1181.85 2278 1194C2277.8 1194.89 2277.6 1195.77 2277.4 1196.68C2270.76 1225.63 2258.52 1252.28 2246 1279.06C2245.7 1279.7 2245.41 1280.33 2245.1 1280.99C2242.09 1287.42 2239.07 1293.85 2236.02 1300.25C2212.24 1350.45 2202.56 1404.56 2194 1459C2193.84 1460.01 2193.68 1461.02 2193.52 1462.06C2187.04 1503.25 2183.41 1544.75 2179.62 1586.25C2179.11 1591.88 2178.57 1597.51 2178.02 1603.14C2171.76 1667.89 2169.95 1733.07 2167.46 1798.05C2167.07 1808.23 2166.66 1818.4 2166.25 1828.58C2163.93 1886.34 2161.86 1944.12 2161.75 2001.93C2161.75 2003.98 2161.74 2006.03 2161.73 2008.07C2161.72 2011.82 2161.73 2015.57 2161.73 2019.31C2161.73 2020.4 2161.73 2021.49 2161.72 2022.62C2161.6 2031.68 2161.6 2031.68 2165.38 2039.64C2175.13 2045.51 2186.13 2047.32 2197.34 2047.26C2198.79 2047.25 2198.79 2047.25 2200.27 2047.25C2217.34 2047.04 2234.39 2045.82 2251.42 2044.76C2254.6 2044.56 2257.77 2044.36 2260.95 2044.17C2307.5 2041.31 2353.96 2037.46 2400.44 2033.55C2459.02 2028.63 2517.57 2024.73 2576.33 2022.59C2611.89 2021.32 2611.89 2021.32 2647.45 2019.74C2649.79 2019.62 2652.13 2019.51 2654.47 2019.41C2657.65 2019.27 2660.82 2019.11 2664 2018.94C2664.91 2018.91 2665.81 2018.87 2666.75 2018.83C2675.49 2018.32 2681.99 2014.99 2687.99 2008.64C2697.87 1995.65 2702.96 1978.41 2707.19 1962.87C2707.43 1962.02 2707.66 1961.17 2707.91 1960.3C2712.3 1943.39 2713.59 1925.97 2713.5 1908.56C2713.5 1907.12 2713.5 1907.12 2713.5 1905.64C2713.39 1874.74 2710.71 1843.9 2708.17 1813.12C2708.01 1811.08 2707.84 1809.03 2707.68 1806.98C2704.86 1771.89 2700.48 1737.19 2695.39 1702.37C2691.64 1676.63 2688.4 1650.9 2685.71 1625.03C2682.87 1597.75 2679.87 1570.51 2676.31 1543.31C2676.15 1542.1 2676.15 1542.1 2675.99 1540.87C2672.47 1513.98 2668.6 1487.13 2664.72 1460.29C2664.6 1459.47 2664.49 1458.66 2664.36 1457.81C2661.73 1439.58 2659.08 1421.36 2656.4 1403.13C2650.25 1361.13 2644.45 1319.1 2639 1277C2638.64 1274.24 2638.28 1271.48 2637.93 1268.72C2637.41 1264.76 2636.9 1260.79 2636.39 1256.83C2633.93 1237.87 2631.46 1218.91 2628.68 1199.99C2628.58 1199.32 2628.48 1198.65 2628.38 1197.96C2627.34 1190.94 2626.3 1183.91 2625.23 1176.89C2619.84 1141.06 2616.45 1104.97 2613.37 1068.88C2613.12 1065.99 2612.87 1063.1 2612.62 1060.21C2610.64 1037.4 2608.78 1014.59 2607.1 991.753C2607.03 990.716 2606.95 989.679 2606.87 988.61C2606.14 978.601 2605.41 968.591 2604.72 958.579C2603.31 938.467 2601.64 918.412 2599.47 898.367C2599.37 897.417 2599.26 896.467 2599.16 895.489C2597.21 877.509 2594.47 859.746 2591 842C2590.86 841.267 2590.72 840.534 2590.57 839.779C2574.59 747.764 2574.59 747.764 2533 666C2532.41 665.245 2531.82 664.491 2531.21 663.714C2506.87 634.354 2468.76 627.309 2433.19 621.5C2432.01 621.305 2430.83 621.111 2429.61 620.911C2408.13 617.384 2386.65 614.302 2365 612C2364.06 611.898 2363.12 611.797 2362.15 611.693C2321.51 607.344 2280.8 605.015 2240 603C2239.16 602.958 2238.32 602.916 2237.45 602.873C2209.64 601.499 2181.82 600.221 2154 599C2152.68 598.942 2152.68 598.942 2151.33 598.882C2139.41 598.358 2127.48 597.847 2115.55 597.349C2113.23 597.251 2110.91 597.152 2108.59 597.053C2094.34 596.443 2080.08 595.887 2065.82 595.753C2064.8 595.736 2063.79 595.718 2062.75 595.699C2055.04 595.682 2050.29 597.574 2044 602ZM1967 995C1966.35 995.341 1965.69 995.682 1965.02 996.033C1954.21 1001.7 1944.53 1008.39 1935 1016C1934.16 1016.67 1934.16 1016.67 1933.29 1017.35C1901.27 1042.9 1877.16 1076.7 1868 1117C1867.77 1117.96 1867.55 1118.93 1867.31 1119.92C1860.28 1156.1 1870.66 1195.75 1890.98 1225.95C1900.27 1238.92 1911.56 1249.45 1925 1258C1925.58 1258.37 1926.16 1258.74 1926.76 1259.12C1941.62 1268.43 1958.22 1274.61 1974.51 1280.93C1975.13 1281.18 1975.76 1281.42 1976.4 1281.67C1979.39 1282.83 1982.39 1283.98 1985.4 1285.12C2007.11 1293.46 2022.21 1305.76 2031.95 1327.09C2053.82 1377.76 2047.49 1441.57 2045.16 1495.2C2045 1498.94 2044.85 1502.68 2044.7 1506.42C2043.36 1540.19 2041.43 1573.9 2039.19 1607.62C2039.12 1608.58 2039.06 1609.54 2038.99 1610.53C2038.86 1612.48 2038.73 1614.44 2038.6 1616.39C2034.43 1679.1 2030.63 1741.83 2027.87 1804.62C2027.83 1805.53 2027.79 1806.44 2027.75 1807.37C2027.24 1819.1 2026.73 1830.84 2026.23 1842.57C2022.51 1929.44 2022.51 1929.44 2019.6 1967.37C2019.44 1969.39 2019.29 1971.41 2019.13 1973.43C2018.19 1985.71 2017.13 1997.95 2015.5 2010.15C2015.33 2011.43 2015.33 2011.43 2015.15 2012.74C2013.26 2026.08 2009.58 2038.75 2004 2051C2003.33 2052.66 2002.66 2054.33 2002 2056C2016.5 2056.12 2030.92 2055.82 2045.4 2055.12C2047.34 2055.03 2049.28 2054.94 2051.22 2054.86C2056.25 2054.62 2061.28 2054.39 2066.3 2054.15C2071.47 2053.9 2076.63 2053.66 2081.79 2053.42C2091.86 2052.95 2101.93 2052.48 2112 2052C2113.37 2047.9 2111.82 2045.31 2110.37 2041.44C2102.42 2018.65 2100.54 1994.39 2098.25 1970.52C2098 1968.01 2097.75 1965.5 2097.49 1962.99C2095.12 1939.92 2093.48 1916.85 2092.31 1893.69C2092.25 1892.48 2092.19 1891.28 2092.13 1890.04C2091.71 1881.69 2091.35 1873.35 2091 1865C2090.93 1863.29 2090.93 1863.29 2090.85 1861.54C2089.75 1835.58 2089.8 1809.61 2089.81 1783.62C2089.81 1781.89 2089.81 1781.89 2089.81 1780.12C2089.82 1745.68 2090.13 1711.34 2091.81 1676.94C2092.02 1672.57 2092.22 1668.2 2092.42 1663.83C2092.48 1662.62 2092.48 1662.62 2092.53 1661.38C2092.61 1659.71 2092.69 1658.03 2092.76 1656.35C2093.3 1644.67 2093.84 1633 2094.39 1621.32C2096.41 1578.55 2098.3 1535.78 2100 1493C2100.03 1492.2 2100.06 1491.4 2100.1 1490.57C2101.25 1461.6 2102.08 1432.66 2101.98 1403.67C2101.97 1402.71 2101.97 1401.76 2101.97 1400.77C2101.94 1391.28 2101.89 1381.79 2101.78 1372.3C2101.74 1368.79 2101.72 1365.28 2101.7 1361.77C2101.69 1360.15 2101.67 1358.52 2101.64 1356.89C2101.39 1342.26 2103.38 1330.32 2113.56 1319.31C2117.71 1315.04 2122.06 1311.67 2127 1308.37C2178.37 1272.99 2205.31 1219.19 2216.55 1159.05C2224.21 1114.81 2217.24 1066.45 2191.81 1028.76C2170.21 999.278 2139.24 979.852 2104 971C2103.3 970.82 2102.61 970.641 2101.89 970.456C2057.29 959.503 2006.34 973.895 1967 995ZM1824 1204C1823.32 1237.08 1826.23 1269.57 1849.87 1294.62C1851.97 1296.81 1854.08 1298.98 1856.19 1301.14C1857.63 1302.62 1859.04 1304.12 1860.44 1305.63C1865.62 1311.12 1871.48 1315.54 1877.49 1320.06C1910.05 1344.6 1931.42 1373.44 1941.25 1413.44C1941.48 1414.39 1941.72 1415.34 1941.96 1416.32C1945.61 1432.04 1947.44 1448.04 1948.5 1464.12C1948.59 1465.43 1948.59 1465.43 1948.68 1466.75C1949.96 1485.39 1950.64 1504.05 1951.35 1522.71C1953.12 1569.39 1956.47 1615.87 1960.7 1662.39C1963.38 1691.8 1965.27 1721.14 1965.62 1750.69C1965.64 1752.04 1965.66 1753.4 1965.68 1754.75C1965.83 1766.17 1965.92 1777.58 1966 1789C1966.01 1790.03 1966.01 1791.06 1966.02 1792.12C1966.13 1807.45 1966.19 1822.78 1966.23 1838.12C1966.24 1842.88 1966.26 1847.65 1966.28 1852.41C1966.49 1896.34 1963.89 1939.51 1958.8 1983.13C1958.39 1986.6 1958 1990.08 1957.61 1993.56C1957.22 1997 1956.83 2000.43 1956.44 2003.87C1956.25 2005.46 1956.07 2007.06 1955.89 2008.66C1954.84 2017.88 1953.59 2027.02 1951.87 2036.15C1951.21 2039.79 1950.94 2042.46 1952 2046C1955.27 2044.46 1956.77 2043.45 1958.44 2040.19C1961.11 2031.55 1962.76 2022.97 1964 2014.02C1964.18 2012.78 1964.35 2011.55 1964.53 2010.28C1966.21 1997.94 1967.42 1985.6 1968.37 1973.19C1968.52 1971.29 1968.52 1971.29 1968.68 1969.36C1973.08 1913.02 1974.87 1856.42 1977.35 1799.97C1979.08 1760.64 1981.16 1721.33 1983.55 1682.03C1983.85 1677.09 1984.15 1672.15 1984.44 1667.21C1986.16 1638.44 1987.93 1609.69 1989.89 1580.94C1991.34 1559.57 1992.68 1538.21 1993.53 1516.81C1993.66 1513.4 1993.81 1509.99 1993.95 1506.59C1994.58 1491.77 1995.12 1476.95 1995.57 1462.13C1995.61 1461.1 1995.61 1461.1 1995.64 1460.04C1995.98 1448.69 1996.21 1437.36 1996 1426C1995.98 1425 1995.96 1424.01 1995.95 1422.98C1996.81 1379.55 1996.81 1379.55 1982 1340C1977.12 1336.18 1972.49 1333.71 1966.71 1331.55C1965.54 1331.09 1965.54 1331.09 1964.34 1330.63C1962.69 1329.99 1961.03 1329.36 1959.37 1328.73C1955.07 1327.08 1950.78 1325.41 1946.48 1323.73C1945.65 1323.4 1944.81 1323.08 1943.95 1322.74C1934.81 1319.16 1925.82 1315.31 1917 1311C1916.34 1310.68 1915.68 1310.36 1915.01 1310.03C1888.33 1296.91 1864.35 1276.91 1848 1252C1847.61 1251.4 1847.21 1250.81 1846.81 1250.19C1837.51 1235.84 1830.28 1220.26 1825 1204C1824.67 1204 1824.34 1204 1824 1204ZM2690 1269C2691 1271 2691 1271 2691 1271L2690 1269ZM2197 1314C2196.31 1314.7 2196.31 1314.7 2195.61 1315.42C2178.69 1332.68 2178.69 1332.68 2169 1340C2168.34 1340.5 2167.68 1341 2167 1341.51C2162.82 1344.67 2158.62 1347.81 2154.41 1350.93C2153.02 1351.93 2153.02 1351.93 2152 1353C2151.98 1355.46 2152.03 1357.9 2152.12 1360.36C2152.14 1361.13 2152.17 1361.9 2152.19 1362.69C2152.27 1365.19 2152.35 1367.69 2152.44 1370.19C2153.46 1400.21 2152.88 1430.14 2151.91 1460.16C2151.81 1463.17 2151.71 1466.19 2151.62 1469.21C2149.44 1537.38 2146.59 1605.56 2142.9 1673.67C2141.09 1707.29 2140.84 1740.84 2140.87 1774.49C2140.87 1780.85 2140.87 1787.21 2140.87 1793.58C2140.83 1831.8 2140.83 1831.8 2142 1870C2144.76 1867.24 2144.35 1865.51 2144.53 1861.63C2144.56 1860.95 2144.59 1860.28 2144.63 1859.58C2144.74 1857.24 2144.84 1854.9 2144.94 1852.56C2145.02 1850.82 2145.1 1849.08 2145.18 1847.34C2145.42 1842.33 2145.64 1837.31 2145.86 1832.3C2146.11 1826.56 2146.36 1820.82 2146.62 1815.09C2146.67 1813.85 2146.73 1812.62 2146.78 1811.34C2147.29 1799.96 2147.8 1788.58 2148.31 1777.2C2148.72 1768.35 2149.11 1759.5 2149.49 1750.65C2153.17 1666.39 2158.75 1582.25 2167.64 1498.37C2168.01 1494.94 2168.37 1491.51 2168.72 1488.07C2172 1456.92 2176.04 1425.93 2181 1395C2181.15 1394.07 2181.3 1393.15 2181.45 1392.19C2189.64 1340.87 2189.64 1340.87 2197.43 1318.16C2198.26 1315.97 2198.26 1315.97 2197 1314ZM2698 2073C2695.27 2074.44 2692.47 2075.53 2689.56 2076.56C2688.76 2076.85 2687.96 2077.13 2687.14 2077.43C2651.16 2089.69 2610.69 2092.64 2573 2096C2571.58 2096.13 2571.58 2096.13 2570.13 2096.26C2536.7 2099.24 2503.31 2100.73 2469.76 2101.67C2458.21 2102 2446.67 2102.51 2435.12 2103.06C2431.59 2103.23 2428.06 2103.39 2424.53 2103.56C2423.3 2103.62 2423.3 2103.62 2422.03 2103.68C2380.58 2105.6 2339.23 2105.1 2297.76 2104.19C2294.92 2104.13 2292.09 2104.07 2289.25 2104.01C2270.42 2103.6 2251.61 2103.1 2232.8 2102.03C2232.1 2101.99 2231.4 2101.95 2230.68 2101.91C2219.73 2101.29 2208.85 2100.29 2197.96 2098.97C2184.2 2097.37 2170.47 2097.96 2156.67 2098.68C2154.03 2098.82 2151.39 2098.95 2148.75 2099.08C2144.75 2099.28 2140.75 2099.48 2136.76 2099.68C2080.21 2102.5 2023.64 2104.83 1967.06 2107.12C1965.98 2107.17 1964.9 2107.21 1963.79 2107.26C1901.34 2109.79 1838.89 2112.33 1776.41 2113.84C1771.77 2113.95 1767.13 2114.08 1762.49 2114.2C1688.81 2116.23 1614.95 2115.56 1541.27 2114.05C1538.91 2114 1536.56 2113.95 1534.2 2113.9C1466.95 2112.56 1466.95 2112.56 1438.35 2111.24C1436.91 2111.17 1435.46 2111.1 1434.02 2111.04C1432.57 2110.97 1431.12 2110.9 1429.67 2110.84C1426.76 2110.7 1423.85 2110.57 1420.94 2110.44C1420.22 2110.4 1419.51 2110.37 1418.77 2110.34C1385.05 2108.81 1351.3 2108.53 1317.55 2108.27C1315.44 2108.25 1313.32 2108.23 1311.21 2108.21C1303.14 2108.15 1295.07 2108.09 1287 2108.04C1284.51 2108.02 1282.01 2108.01 1279.52 2107.99C1276.09 2107.96 1272.66 2107.95 1269.24 2107.93C1268.22 2107.92 1267.2 2107.91 1266.16 2107.91C1265.24 2107.9 1264.32 2107.9 1263.37 2107.9C1262.57 2107.89 1261.77 2107.89 1260.94 2107.88C1258.92 2107.88 1258.92 2107.88 1257 2109C1254.24 2118.98 1253.13 2129.49 1252 2139.75C1251.92 2140.49 1251.83 2141.23 1251.75 2142C1251.13 2147.66 1250.55 2153.33 1250 2159C1249.92 2159.8 1249.84 2160.59 1249.76 2161.41C1247.46 2185.11 1246.71 2208.76 1246.69 2232.56C1246.69 2234.6 1246.68 2236.64 1246.68 2238.68C1246.38 2262.02 1246.38 2262.02 1250 2285C1278.25 2285.05 1306.49 2285.08 1334.74 2285.1C1337.41 2285.1 1340.08 2285.11 1342.75 2285.11C1343.41 2285.11 1344.08 2285.11 1344.76 2285.11C1354.55 2285.12 1364.34 2285.13 1374.13 2285.15C1427.56 2285.24 1480.97 2285.15 1534.4 2284.07C1581.01 2283.12 1627.59 2282.82 1674.21 2282.84C1675.03 2282.84 1675.85 2282.84 1676.7 2282.84C1698.48 2282.85 1720.27 2282.88 1742.06 2282.92C1753.18 2282.93 1764.3 2282.95 1775.42 2282.97C1776.27 2282.97 1777.12 2282.97 1778 2282.97C1792.39 2282.99 1806.78 2283 1821.17 2283.01C1829.12 2283.02 1837.06 2283.03 1845 2283.04C1878.08 2283.11 1911.15 2283.02 1944.23 2282.54C1944.97 2282.53 1945.71 2282.51 1946.47 2282.5C1972.61 2282.12 1998.73 2281.56 2024.86 2280.78C2028.12 2280.68 2031.38 2280.59 2034.64 2280.49C2128.85 2277.73 2222.95 2272.97 2317 2266.81C2342.82 2265.12 2368.65 2263.76 2394.51 2262.7C2395.22 2262.67 2395.93 2262.65 2396.67 2262.62C2411.76 2262 2426.85 2261.41 2441.95 2260.94C2442.65 2260.92 2443.34 2260.9 2444.05 2260.88C2484.3 2259.65 2524.56 2259.64 2564.83 2259.54C2587.41 2259.48 2609.99 2259.38 2632.57 2259.28C2633.7 2259.28 2634.82 2259.27 2635.98 2259.27C2677.97 2259.08 2719.95 2258.69 2761.94 2258.07C2765.62 2258.01 2769.31 2257.96 2773 2257.9C2780.53 2257.79 2788.07 2257.68 2795.6 2257.56C2798.04 2257.52 2800.48 2257.48 2802.91 2257.45C2825.29 2258.7 2825.29 2258.7 2846 2253C2854.04 2242.5 2854.15 2227.35 2854.17 2214.66C2854.17 2213.02 2854.17 2213.02 2854.18 2211.34C2854.19 2207.77 2854.19 2204.2 2854.19 2200.62C2854.19 2199.4 2854.19 2198.18 2854.19 2196.92C2857.33 2138.54 2857.33 2138.54 2843 2084C2839.21 2080.4 2835.64 2079.05 2830.62 2078.01C2829.52 2077.76 2829.52 2077.76 2828.4 2077.52C2819.32 2075.56 2810.16 2073.96 2801 2072.39C2798 2071.88 2795.01 2071.35 2792.02 2070.82C2773.36 2067.57 2755.35 2065.57 2736.39 2065.46C2734.2 2065.45 2732.02 2065.41 2729.83 2065.36C2712.66 2064.86 2712.66 2064.86 2698 2073ZM2382.75 2324.87C2381.72 2324.9 2380.7 2324.92 2379.64 2324.94C2313.93 2326.34 2248.23 2328 2182.55 2330.05C2124.37 2331.86 2066.2 2333.11 2008 2334C2007.32 2334.01 2006.64 2334.02 2005.94 2334.03C1942.82 2335 1879.7 2335.9 1816.57 2336.24C1815.42 2336.25 1815.42 2336.25 1814.24 2336.25C1805.61 2336.3 1796.98 2336.34 1788.34 2336.39C1721.37 2336.73 1654.41 2337.44 1587.44 2338.37C1586.28 2338.39 1585.13 2338.41 1583.94 2338.42C1535.41 2339.1 1486.87 2339.82 1438.34 2340.86C1437.11 2340.89 1437.11 2340.89 1435.87 2340.92C1420.28 2341.25 1404.69 2341.6 1389.1 2341.99C1361.4 2342.67 1333.71 2343.14 1306.01 2343.2C1303.84 2343.21 1301.67 2343.22 1299.51 2343.23C1285.52 2343.29 1271.58 2343.16 1257.63 2342.15C1256.07 2342.04 1256.07 2342.04 1254.49 2341.93C1246.76 2341.28 1239.61 2339.65 1232.29 2337.12C1227.12 2335.27 1227.12 2335.27 1221.76 2335.47C1215.93 2336.59 1209.86 2336.24 1203.94 2336.25C1202.79 2336.25 1202.79 2336.25 1201.61 2336.26C1186.7 2336.27 1171.88 2335.44 1157 2334.5C1134.85 2333.12 1134.85 2333.12 1112.66 2332.52C1111.16 2332.51 1109.66 2332.48 1108.16 2332.45C1099.59 2332.28 1092.13 2332.69 1085 2338C1077.26 2346.53 1074.08 2357.89 1072.44 2369.04C1072.32 2369.9 1072.19 2370.77 1072.06 2371.66C1070.49 2382.87 1069.98 2394.17 1069.42 2405.47C1068.07 2431.92 1068.07 2431.92 1059 2441C1058.01 2441.49 1058.01 2441.49 1057 2442C1057 2442.66 1057 2443.32 1057 2444C1068.63 2446.34 1080.24 2448.29 1092.03 2449.53C1093.84 2449.73 1093.84 2449.73 1095.69 2449.92C1107.66 2451.14 1119.64 2451.87 1131.65 2452.45C1135.17 2452.62 1138.69 2452.81 1142.2 2452.99C1223.4 2457.17 1304.41 2455.9 1501.27 2446.22C1502.5 2446.15 1503.73 2446.08 1505 2446C1506.17 2445.93 1507.33 2445.86 1508.53 2445.79C1600.02 2440.3 1691.7 2438.73 1783.33 2437.73C1784.24 2437.72 1785.16 2437.71 1786.11 2437.7C1794.56 2437.6 1803 2437.51 1811.45 2437.45C1852.78 2437.13 1894.08 2435.52 1935.36 2433.71C2022.92 2429.88 2110.28 2428.49 2201.91 2431.79C2215.34 2432.26 2228.76 2432.66 2242.19 2433.06C2242.88 2433.08 2243.58 2433.1 2244.3 2433.13C2290.13 2434.51 2335.95 2435.25 2381.8 2435.09C2382.53 2435.09 2383.25 2435.09 2384 2435.09C2398.66 2435.03 2413.32 2434.83 2427.99 2434.61C2469.26 2433.98 2510.52 2433.81 2551.79 2433.81C2558 2433.81 2564.21 2433.81 2570.42 2433.79C2613.48 2433.71 2656.45 2434.13 2699.49 2435.76C2708.26 2436.09 2717.03 2436.37 2725.81 2436.63C2726.51 2436.65 2727.22 2436.68 2727.95 2436.7C2784.6 2438.44 2841.72 2440.14 2898.32 2436.37C2904.65 2435.95 2910.99 2435.59 2917.32 2435.23C2953.7 2433.16 2953.7 2433.16 2990 2430C2990.73 2429.93 2991.46 2429.86 2992.21 2429.78C3012.61 2427.8 3012.61 2427.8 3030.62 2418.94C3040.43 2406.81 3041.16 2387.32 3041.13 2372.33C3041.13 2370.83 3041.13 2370.83 3041.14 2369.31C3041.14 2367.21 3041.13 2365.11 3041.13 2363.02C3041.12 2359.81 3041.13 2356.61 3041.14 2353.4C3041.14 2351.36 3041.13 2349.31 3041.13 2347.27C3041.13 2346.31 3041.14 2345.36 3041.14 2344.37C3041.13 2343.03 3041.13 2343.03 3041.13 2341.66C3041.13 2340.88 3041.13 2340.1 3041.13 2339.29C3040.99 2336.79 3040.54 2334.45 3040 2332C3020.58 2327.4 2999.55 2327.95 2979.66 2327.47C2978.82 2327.45 2977.98 2327.43 2977.12 2327.41C2959.8 2326.98 2942.48 2326.72 2925.16 2326.53C2922.61 2326.5 2920.07 2326.47 2917.52 2326.44C2894.03 2326.16 2870.55 2325.95 2847.06 2325.78C2838.08 2325.72 2829.1 2325.66 2820.12 2325.59C2817.49 2325.57 2814.85 2325.55 2812.22 2325.53C2784.59 2325.34 2756.97 2325.14 2729.35 2324.49C2728.38 2324.47 2727.4 2324.45 2726.4 2324.42C2722.48 2324.33 2718.56 2324.24 2714.64 2324.14C2621.31 2321.94 2527.89 2322.09 2382.75 2324.87Z" fill="#1B1817"/>
</svg>
