<svg width="37" height="37" viewBox="0 0 37 37" fill="none" xmlns="http://www.w3.org/2000/svg">
<g id="Download">
<path id="Vector 9" d="M18.5 24.6667L17.7929 25.3738L18.5 26.0809L19.2071 25.3738L18.5 24.6667ZM19.5 6.16669C19.5 5.6144 19.0523 5.16669 18.5 5.16669C17.9477 5.16669 17.5 5.6144 17.5 6.16669L19.5 6.16669ZM8.54289 16.1238L17.7929 25.3738L19.2071 23.9596L9.95711 14.7096L8.54289 16.1238ZM19.2071 25.3738L28.4571 16.1238L27.0429 14.7096L17.7929 23.9596L19.2071 25.3738ZM19.5 24.6667L19.5 6.16669L17.5 6.16669L17.5 24.6667L19.5 24.6667Z" fill="white"/>
<path id="Vector 4" d="M7.7085 32.375L29.2918 32.375" stroke="white" stroke-width="2"/>
</g>
</svg>
