<svg width="65" height="65" viewBox="0 0 65 65" fill="none" xmlns="http://www.w3.org/2000/svg">
<g id="Critical_light">
<path id="Ellipse 52" d="M56.875 43.333C56.875 36.8684 54.3069 30.6685 49.7357 26.0973C45.1645 21.5261 38.9647 18.958 32.5 18.958C26.0354 18.958 19.8355 21.5261 15.2643 26.0973C10.6931 30.6685 8.125 36.8684 8.125 43.333L21.6804 43.333C21.6804 40.4635 22.8203 37.7114 24.8494 35.6824C26.8784 33.6533 29.6305 32.5134 32.5 32.5134C35.3695 32.5134 38.1216 33.6533 40.1506 35.6824C42.1797 37.7114 43.3196 40.4635 43.3196 43.333H56.875Z" stroke="#DB322B" stroke-width="4"/>
<path id="Vector 184" d="M32.5 18.958L32.5 32.4997" stroke="#DB322B" stroke-width="4"/>
<path id="Vector 185" d="M49.7358 26.0967L40.6247 35.2078" stroke="#DB322B" stroke-width="4"/>
<path id="Vector 186" d="M15.2642 26.0967L24.3753 35.2078" stroke="#DB322B" stroke-width="4"/>
</g>
</svg>
