<svg width="42" height="53" viewBox="0 0 42 53" fill="none" xmlns="http://www.w3.org/2000/svg">
<path d="M1.09136 43.5878C19.3598 23.0531 33.8797 35.7564 40.9439 43.5872" stroke="#DD1A21" stroke-width="2"/>
<path d="M40.8519 11.0362C22.7425 31.5859 8.12492 19.0737 1.00054 11.3462" stroke="#DD1A21" stroke-width="2"/>
<line x1="0.995261" y1="26.416" x2="40.8022" y2="26.2274" stroke="#DD1A21" stroke-width="2" stroke-dasharray="8 8"/>
<path d="M20.2929 15.7071C20.6834 16.0976 21.3166 16.0976 21.7071 15.7071L28.0711 9.34315C28.4616 8.95262 28.4616 8.31946 28.0711 7.92893C27.6805 7.53841 27.0474 7.53841 26.6569 7.92893L21 13.5858L15.3431 7.92893C14.9526 7.53841 14.3195 7.53841 13.9289 7.92893C13.5384 8.31946 13.5384 8.95262 13.9289 9.34315L20.2929 15.7071ZM20 0V15H22V0L20 0Z" fill="#DD1A21"/>
<path d="M21.7071 38.2929C21.3166 37.9024 20.6834 37.9024 20.2929 38.2929L13.9289 44.6569C13.5384 45.0474 13.5384 45.6805 13.9289 46.0711C14.3195 46.4616 14.9526 46.4616 15.3431 46.0711L21 40.4142L26.6569 46.0711C27.0474 46.4616 27.6805 46.4616 28.0711 46.0711C28.4616 45.6805 28.4616 45.0474 28.0711 44.6569L21.7071 38.2929ZM22 53V39H20V53H22Z" fill="#DD1A21"/>
</svg>
