<svg width="15" height="15" viewBox="0 0 15 15" fill="none" xmlns="http://www.w3.org/2000/svg">
<path d="M3.11362 13.125C2.77112 13.125 2.47792 13.0026 2.23402 12.7578C1.99011 12.513 1.86816 12.2188 1.86816 11.875V3.125C1.86816 2.78125 1.99011 2.48698 2.23402 2.24219C2.47792 1.9974 2.77112 1.875 3.11362 1.875H7.4727V3.125H3.11362V11.875H11.8318V7.5H13.0772V11.875C13.0772 12.2188 12.9553 12.513 12.7114 12.7578C12.4675 13.0026 12.1743 13.125 11.8318 13.125H3.11362ZM6.04043 9.8125L5.16861 8.9375L10.96 3.125H8.71815V1.875H13.0772V6.25H11.8318V4L6.04043 9.8125Z" fill="#FFFEFB"/>
</svg>
