<svg width="97" height="97" viewBox="0 0 97 97" fill="none" xmlns="http://www.w3.org/2000/svg">
<g id="chat-bubble-square-question--bubble-square-messages-notification-chat-message-question-help">
<g id="chat-bubble-square-question--bubble-square-messages-notification-chat-message-question-help_2">
<path id="Vector" d="M31.7143 86.1429L4 93.0714L10.9286 72.2857V9.92857C10.9286 8.09098 11.6586 6.32869 12.9579 5.02933C14.2573 3.72997 16.0195 3 17.8571 3H87.1429C88.9803 3 90.7429 3.72997 92.042 5.02933C93.3412 6.32869 94.0714 8.09098 94.0714 9.92857V79.2143C94.0714 81.0517 93.3412 82.8144 92.042 84.1135C90.7429 85.4126 88.9803 86.1429 87.1429 86.1429H31.7143Z" stroke="white" stroke-width="5" stroke-linecap="round" stroke-linejoin="round"/>
<path id="Vector_2" d="M42.1069 34.179C42.1069 32.1235 42.7164 30.1142 43.8585 28.4051C45.0004 26.6959 46.6236 25.3639 48.5226 24.5773C50.4216 23.7907 52.5113 23.5848 54.5274 23.9858C56.5434 24.3869 58.3952 25.3767 59.8487 26.8302C61.3021 28.2836 62.2919 30.1354 62.693 32.1515C63.094 34.1675 62.8881 36.2572 62.1015 38.1562C61.3149 40.0552 59.9829 41.6784 58.2737 42.8203C56.5646 43.9624 54.5553 44.5719 52.4998 44.5719V51.5004" stroke="white" stroke-width="5" stroke-linecap="round" stroke-linejoin="round"/>
<g id="Group 4488">
<path id="Vector_3" d="M52.5002 68.8217C51.5436 68.8217 50.7681 68.0462 50.7681 67.0896C50.7681 66.1329 51.5436 65.3574 52.5002 65.3574" stroke="white" stroke-width="5" stroke-linecap="round" stroke-linejoin="round"/>
<path id="Vector_4" d="M52.5 68.8217C53.4566 68.8217 54.2321 68.0462 54.2321 67.0896C54.2321 66.1329 53.4566 65.3574 52.5 65.3574" stroke="white" stroke-width="5" stroke-linecap="round" stroke-linejoin="round"/>
</g>
</g>
</g>
</svg>
