<svg width="1976" height="1934" viewBox="0 0 1976 1934" fill="none" xmlns="http://www.w3.org/2000/svg">
<path d="M1628 4.99942C1628.96 5.21904 1629.91 5.43866 1630.9 5.66494C1671.06 15.0936 1707.61 32.8323 1743.16 53.3637C1762 64.2035 1781.13 74.5147 1800.3 84.7655C1811.81 90.9207 1823.28 97.1102 1834.63 103.562C1846.32 110.216 1858.13 116.663 1870 122.999C1871.31 123.699 1871.31 123.699 1872.65 124.413C1882.65 129.732 1892.72 134.877 1902.88 139.882C1904.67 140.764 1906.45 141.646 1908.24 142.528C1911.75 144.266 1915.28 145.99 1918.8 147.707C1938.1 157.181 1954.57 167.451 1962.69 188.374C1972.07 216.976 1973.46 249.851 1974.56 279.749C1974.63 281.279 1974.63 281.279 1974.69 282.839C1975.49 304.096 1974.92 325.36 1974.26 346.612C1974.14 350.327 1974.03 354.043 1973.92 357.758C1973.51 371.951 1973.07 386.139 1972.42 400.324C1969.29 471.019 1970.62 541.97 1971.67 612.708C1971.7 614.918 1971.74 617.129 1971.77 619.339C1971.78 620.05 1971.79 620.761 1971.8 621.494C1972.85 692.373 1972.85 692.373 1970 723.999C1969.85 725.758 1969.85 725.758 1969.69 727.552C1966.72 760.672 1960.33 793.675 1944 822.999C1943.39 824.202 1942.78 825.408 1942.18 826.617C1936.77 837.402 1930.02 847.203 1923 856.999C1922.49 857.713 1921.98 858.427 1921.45 859.162C1911.68 872.705 1900.74 885.134 1889.4 897.378C1887.45 899.51 1885.56 901.67 1883.69 903.874C1879.74 908.441 1875.41 912.619 1871.12 916.862C1868.09 919.866 1865.14 922.872 1862.38 926.124C1855.98 933.658 1848.79 940.567 1841.26 946.96C1838.05 949.855 1835.04 952.93 1832 955.999C1827.85 960.19 1823.69 964.282 1819.19 968.097C1816.05 970.822 1813.04 973.665 1810 976.499C1805.07 981.09 1800.12 985.621 1795 989.999C1793.97 990.887 1792.93 991.775 1791.9 992.663C1789.51 994.718 1787.11 996.77 1784.71 998.82C1782.29 1000.89 1779.88 1002.97 1777.48 1005.05C1771.17 1010.52 1764.77 1015.81 1758.18 1020.93C1754.2 1024.02 1750.33 1027.22 1746.5 1030.5C1739.82 1036.2 1732.95 1041.63 1726 1047C1725.22 1047.6 1724.44 1048.21 1723.64 1048.83C1713.54 1056.67 1703.35 1064.27 1692.75 1071.41C1687.87 1074.7 1683.09 1078.1 1678.38 1081.62C1663.65 1092.55 1647.89 1101.88 1632 1111C1631.26 1111.42 1630.53 1111.85 1629.77 1112.29C1590.62 1134.69 1548.74 1145.25 1504.71 1133.34C1470.57 1123.62 1439.26 1106.21 1409 1088C1408.08 1087.45 1407.16 1086.9 1406.21 1086.33C1393.68 1078.81 1381.71 1070.75 1370 1062C1369.3 1061.47 1368.59 1060.95 1367.86 1060.41C1363.82 1057.4 1359.8 1054.37 1355.77 1051.34C1353.21 1049.4 1350.64 1047.48 1348.06 1045.56C1341.08 1040.32 1334.15 1035.01 1327.22 1029.7C1325.01 1028.01 1322.8 1026.32 1320.59 1024.63C1319.51 1023.8 1319.51 1023.8 1318.41 1022.96C1316.97 1021.86 1315.53 1020.76 1314.09 1019.66C1310.96 1017.27 1307.83 1014.87 1304.71 1012.45C1298.37 1007.54 1291.96 1002.74 1285.5 997.999C1271.38 987.629 1257.49 977.059 1244.53 965.245C1241.93 962.938 1239.27 960.744 1236.56 958.562C1231.78 954.694 1227.25 950.611 1222.73 946.445C1220.17 944.155 1217.56 942.007 1214.88 939.874C1207.55 933.965 1200.84 927.394 1194.03 920.915C1189.41 916.546 1184.71 912.264 1180 907.999C1179.35 907.404 1178.69 906.808 1178.02 906.195C1176.04 904.428 1174.03 902.708 1172 900.999C1171.49 900.565 1170.97 900.131 1170.44 899.683C1156.93 888.335 1142.23 876.033 1123.71 876.605C1110.37 878.024 1097.55 883.094 1084.88 887.249C1038.1 902.578 990.62 911.003 942.009 918.242C869.183 929.091 796.065 940.396 725.001 959.999C723.595 960.387 723.595 960.387 722.16 960.783C641.657 982.131 641.657 982.131 570.602 1023.82C569.001 1025 569.001 1025 567.001 1025C567.661 1030.28 568.321 1035.56 569.001 1041C588.645 1037.69 607.773 1033.16 627.001 1028C658.974 1019.48 658.974 1019.48 674.001 1017C675.299 1016.78 675.299 1016.78 676.624 1016.55C711.51 1010.77 748.168 1012.85 783.001 1018C784.469 1018.21 785.936 1018.42 787.404 1018.63C842.423 1026.63 896.005 1041.86 947.001 1064C948.536 1064.67 948.536 1064.67 950.103 1065.35C976.832 1077.05 1002.45 1091 1027.71 1105.56C1042.82 1114.26 1058.18 1122.35 1073.7 1130.28C1077.93 1132.44 1082.12 1134.66 1086.3 1136.91C1165.35 1179.45 1250.87 1200.33 1339.57 1209.78C1380.67 1214.16 1380.67 1214.16 1396.5 1216.56C1398.28 1216.82 1398.28 1216.82 1400.1 1217.09C1417.92 1219.95 1434.71 1226.26 1445.68 1241.31C1462.72 1267.86 1457.91 1305.15 1451.61 1334.32C1446.9 1355.06 1440.64 1375.98 1431 1395C1466.47 1383.97 1501.55 1371.9 1536 1358C1537.43 1357.42 1538.87 1356.85 1540.3 1356.27C1578.92 1340.71 1617.03 1323.71 1654.51 1305.57C1663.95 1301 1673.45 1296.55 1682.94 1292.1C1691.74 1287.97 1700.5 1283.81 1709.23 1279.55C1868.11 1202.23 1868.11 1202.23 1913.25 1217.77C1923.55 1222.29 1932.1 1231.71 1936.22 1242.06C1945.76 1269.82 1935.39 1299.14 1923.31 1324.56C1912.42 1346.87 1898.76 1366.85 1883 1386C1882.3 1386.87 1881.6 1387.75 1880.87 1388.65C1876.28 1394.34 1871.52 1399.83 1866.56 1405.2C1865.23 1406.65 1863.91 1408.1 1862.65 1409.6C1856.97 1416.29 1850.73 1422.42 1844.52 1428.61C1842.57 1430.56 1840.62 1432.51 1838.67 1434.47C1832.62 1440.52 1826.57 1446.5 1820 1452C1818.88 1452.97 1817.77 1453.95 1816.65 1454.92C1781.76 1485.14 1742.99 1511.31 1703.24 1534.68C1701.62 1535.63 1700 1536.59 1698.39 1537.56C1680.59 1548.12 1662.37 1557.69 1643.91 1567.02C1640.62 1568.68 1637.35 1570.36 1634.08 1572.06C1557.48 1611.45 1473.51 1635.78 1361.69 1647.75C1360.88 1647.81 1360.07 1647.87 1359.24 1647.93C1353.49 1648.34 1347.75 1648.69 1342 1649C1341.14 1649.05 1340.28 1649.1 1339.39 1649.15C1317.92 1650.29 1296.43 1650.24 1274.94 1650.25C1273.97 1650.25 1273.01 1650.25 1272.02 1650.25C1242.79 1650.26 1213.74 1649.85 1184.61 1647.23C1181.91 1646.99 1179.21 1646.77 1176.5 1646.55C1090.87 1639.52 1006.94 1621.41 912.808 1595.59C888.864 1588.99 864.693 1583.33 840.507 1577.69C833.352 1576.03 826.204 1574.33 819.065 1572.6C790.116 1565.58 761.031 1559.92 731.725 1554.66C728.73 1554.12 725.734 1553.58 722.739 1553.04C722.01 1552.91 721.28 1552.78 720.529 1552.65C609.394 1532.65 609.394 1532.65 586.001 1501C584.934 1499.12 583.89 1497.22 582.863 1495.31C582.326 1494.32 581.789 1493.33 581.236 1492.3C580.828 1491.54 580.421 1490.78 580.001 1490C579.891 1490.62 579.781 1491.24 579.668 1491.88C578.498 1498.49 577.31 1505.09 576.113 1511.7C575.671 1514.14 575.234 1516.59 574.801 1519.04C570.569 1542.97 565.123 1565.85 555.001 1588C554.56 1589.01 554.119 1590.01 553.665 1591.05C552.485 1593.72 551.255 1596.36 550.001 1599C549.712 1599.61 549.424 1600.23 549.127 1600.86C545.177 1609.24 541.278 1617.08 535.001 1624C534.398 1624.68 533.794 1625.37 533.173 1626.07C512.162 1648.53 476.154 1653.01 447.025 1654.07C441.753 1654.21 436.481 1654.24 431.208 1654.25C430.356 1654.25 429.504 1654.25 428.626 1654.25C406.958 1654.24 385.393 1652.78 363.787 1651.28C358.569 1650.92 353.35 1650.57 348.132 1650.22C342.241 1649.83 336.349 1649.43 330.459 1649.03C321.896 1648.44 313.332 1647.88 304.76 1647.42C303.637 1647.36 303.637 1647.36 302.491 1647.3C295.051 1646.91 287.613 1646.81 280.163 1646.81C277.906 1646.81 275.65 1646.79 273.393 1646.77C256.875 1646.71 242.586 1649.55 230.001 1661C226.568 1664.43 223.277 1667.99 219.995 1671.56C215.074 1676.92 209.962 1681.87 204.544 1686.71C202.371 1688.67 200.296 1690.66 198.251 1692.75C195.965 1695.08 193.602 1697.25 191.126 1699.37C187.292 1702.68 183.761 1706.22 180.212 1709.82C178.247 1711.76 176.236 1713.54 174.126 1715.31C169.11 1719.62 164.781 1724.56 160.377 1729.47C159.086 1730.91 157.775 1732.32 156.462 1733.73C150.903 1739.71 145.799 1745.93 140.817 1752.39C139.037 1754.69 137.221 1756.95 135.341 1759.17C119.026 1778.6 105.363 1800.91 93.0008 1823C92.2109 1824.41 92.2109 1824.41 91.4051 1825.85C78.2878 1849.44 65.7003 1873.64 54.8758 1898.37C42.2981 1927.08 42.2981 1927.08 31.0633 1931.94C25.3881 1933.69 20.4455 1933.89 14.9383 1931.5C8.62808 1927.97 3.59167 1922.18 1.43832 1915.23C-2.81453 1893.51 10.2998 1869.77 19.6258 1850.87C20.0217 1850.07 20.4176 1849.26 20.8254 1848.43C26.7746 1836.28 32.9627 1824.31 39.5931 1812.53C41.0919 1809.84 42.5557 1807.13 44.0125 1804.42C70.9683 1754.27 106.584 1704 150.036 1666.75C152.109 1664.9 154.055 1662.98 156.001 1661C159.15 1657.8 162.435 1654.86 165.845 1651.94C169.362 1648.77 172.618 1645.35 175.899 1641.94C178.001 1640 178.001 1640 180.001 1640C180.001 1639.34 180.001 1638.68 180.001 1638C181.624 1636.29 183.301 1634.63 185.001 1633C186.316 1631.63 186.316 1631.63 187.657 1630.24C210.169 1606.93 237.067 1594.56 269.684 1593.93C282.849 1593.85 295.977 1594.41 309.126 1595C311.356 1595.1 313.587 1595.19 315.817 1595.29C321.212 1595.52 326.606 1595.76 332.001 1596C331.37 1595.42 331.37 1595.42 330.726 1594.83C328.781 1593.05 326.842 1591.26 324.903 1589.47C324.242 1588.86 323.58 1588.26 322.899 1587.64C283.283 1550.95 276.239 1492.11 274.001 1441C273.831 1435.5 273.813 1429.99 273.798 1424.48C273.791 1422.93 273.784 1421.37 273.777 1419.81C273.757 1414.79 273.752 1409.77 273.751 1404.75C273.75 1403.45 273.75 1403.45 273.749 1402.13C273.732 1366.37 274.889 1330.74 276.888 1295.04C277 1293.01 277.111 1290.98 277.221 1288.96C279.467 1247.54 282.801 1206.26 287.001 1165C287.104 1163.98 287.104 1163.98 287.21 1162.95C306.06 978.087 306.06 978.087 339.071 949.187C363.318 930.17 400.918 933.813 429.875 933.869C433.197 933.874 436.52 933.869 439.843 933.863C476.902 933.848 476.902 933.848 491.188 936.687C492.091 936.861 492.993 937.036 493.923 937.215C515.002 941.505 533.821 949.523 546.79 967.476C547.928 969.276 548.979 971.131 550.001 972.999C553.851 971.598 557.064 969.784 560.501 967.562C580.247 955.241 601.411 946.485 623.001 937.999C624.785 937.297 624.785 937.297 626.605 936.58C705.458 905.829 789.542 890.161 946.626 864.565C988.436 858.337 1028.94 850.301 1069.25 837.374C1078.51 834.406 1087.77 831.514 1097.13 828.874C1098.54 828.468 1098.54 828.468 1099.99 828.054C1118.33 822.973 1133.68 823.667 1152 827.999C1151.32 827.125 1150.64 826.251 1149.95 825.351C1116.04 780.902 1098.77 721.183 1084 667.999C1083.66 666.788 1083.33 665.576 1082.98 664.327C1067.72 608.521 1061.68 550.506 1057 492.999C1056.94 492.31 1056.89 491.621 1056.83 490.911C1052.31 435.295 1048.82 379.645 1055 323.999C1055.21 322.046 1055.21 322.046 1055.42 320.054C1058.71 290.097 1065 260.748 1074 231.999C1074.28 231.096 1074.56 230.193 1074.84 229.263C1085.04 196.541 1102.4 168.557 1126 143.999C1126.52 143.449 1127.05 142.898 1127.59 142.33C1135.17 134.383 1143.04 127.358 1152 120.999C1152.55 120.602 1153.11 120.204 1153.68 119.795C1164.86 111.825 1176.85 105.353 1189 98.9994C1190.02 98.4638 1191.04 97.9282 1192.09 97.3764C1233.72 75.667 1277.91 63.2175 1323 50.9994C1323.79 50.7846 1324.58 50.5698 1325.4 50.3484C1343.65 45.4032 1362.04 41.5125 1380.58 37.8245C1398.5 34.2512 1416.29 30.2097 1434.06 25.989C1510.83 7.76662 1510.83 7.76662 1547 2.99942C1548.38 2.80678 1548.38 2.80678 1549.79 2.61026C1575.41 -0.8821 1602.79 -0.874424 1628 4.99942ZM1435.79 78.175C1420.54 81.803 1405.23 85.0753 1389.87 88.2389C1365.01 93.3688 1340.43 99.0878 1316 105.999C1315.08 106.259 1314.16 106.519 1313.21 106.786C1260.83 121.618 1203.92 139.013 1164 177.999C1163.37 178.577 1162.75 179.154 1162.1 179.749C1118.98 220.331 1109.82 288.223 1105 343.999C1104.91 345.071 1104.81 346.142 1104.71 347.246C1100.6 400.035 1105.48 453.411 1110 505.999C1110.06 506.687 1110.12 507.374 1110.18 508.082C1117.54 593.512 1133.98 675.902 1188 790.999C1188.99 791.659 1189.98 792.319 1191 792.999C1191.33 792.357 1191.65 791.715 1191.99 791.054C1202.39 770.615 1213.03 750.266 1227 731.999C1227.45 731.412 1227.89 730.825 1228.35 730.22C1233.75 723.145 1239.3 716.359 1245.42 709.89C1247.21 708.155 1247.21 708.155 1247 705.999C1247.99 705.669 1248.98 705.339 1250 704.999C1250 704.339 1250 703.679 1250 702.999C1250.66 702.999 1251.32 702.999 1252 702.999C1252 702.339 1252 701.679 1252 700.999C1252.56 700.766 1253.11 700.533 1253.68 700.292C1256.6 698.667 1258.71 696.614 1261.13 694.312C1270.16 685.924 1280.29 679.944 1291 673.999C1289.54 669.995 1287.59 666.571 1285.38 662.937C1258.03 616.351 1259.89 558.184 1272.6 507.402C1284.57 461.975 1307.44 420.833 1338.08 385.394C1339.96 383.21 1341.83 381.013 1343.69 378.8C1350.4 370.81 1357.43 363.253 1364.84 355.902C1366.57 354.177 1368.3 352.441 1370.02 350.704C1376.69 344.026 1383.54 337.797 1391 331.999C1391.77 331.397 1392.54 330.794 1393.33 330.173C1404.65 321.409 1416.35 313.706 1429 306.999C1429.7 306.626 1430.41 306.252 1431.13 305.868C1448.91 296.594 1468.25 291.132 1488 287.999C1489.09 287.822 1490.17 287.645 1491.29 287.462C1501.37 285.95 1511.26 285.639 1521.44 285.687C1522.27 285.689 1523.1 285.691 1523.96 285.693C1593.6 285.982 1651.29 317.022 1700 364.999C1707.82 372.937 1715.06 381.289 1722 389.999C1722.9 391.082 1723.79 392.162 1724.69 393.242C1759.51 435.4 1782.24 484.811 1790 538.999C1790.12 539.788 1790.24 540.576 1790.36 541.388C1793.63 564.159 1792.82 587.363 1789 609.999C1788.86 610.887 1788.71 611.775 1788.56 612.69C1784.06 639.102 1774.47 665.841 1763 689.999C1762.67 690.698 1762.34 691.396 1762 692.116C1759.78 696.801 1757.42 701.412 1755 705.999C1754.63 706.712 1754.26 707.424 1753.87 708.158C1744.85 725.325 1733.97 740.601 1721 754.999C1720.48 755.577 1719.97 756.155 1719.44 756.751C1713.63 763.237 1707.78 769.51 1701 774.999C1699.9 775.911 1698.8 776.822 1697.7 777.734C1652.65 814.775 1598.02 827.863 1540.4 822.275C1490.93 816.382 1446.48 796.93 1406.04 768.425C1402.99 766.293 1399.91 764.206 1396.84 762.114C1382.16 752.12 1367.59 741.972 1353.91 730.62C1352.86 729.751 1352.86 729.751 1351.79 728.864C1350.43 727.738 1349.08 726.606 1347.73 725.465C1341.21 720.052 1334.11 715.578 1325.37 715.722C1305.02 718.106 1286.81 737.015 1274.57 752.156C1271.27 756.357 1268.11 760.658 1265 764.999C1264.57 765.592 1264.14 766.185 1263.69 766.796C1253.71 780.581 1246.15 795.97 1238.39 811.066C1231.02 825.35 1222.55 840.67 1207 847.07C1201.76 848.694 1196.44 849.42 1191 849.999C1194.16 853.245 1197.38 856.194 1200.94 858.999C1206.81 863.745 1212.29 868.847 1217.8 874.011C1220.14 876.204 1222.51 878.348 1224.94 880.437C1228.16 883.208 1231.25 886.101 1234.34 889.014C1240.17 894.51 1246.06 899.789 1252.33 904.792C1255.32 907.259 1258.16 909.859 1261 912.499C1265.64 916.816 1270.44 920.863 1275.38 924.835C1277.88 926.897 1280.25 929.044 1282.63 931.249C1288.94 936.991 1295.77 942.042 1302.58 947.172C1305.1 949.071 1307.6 950.982 1310.1 952.898C1318.63 959.432 1327.2 965.907 1335.88 972.249C1342.31 976.955 1348.6 981.8 1354.79 986.813C1360.42 991.36 1366.19 995.69 1372 999.999C1373.86 1001.39 1375.71 1002.79 1377.57 1004.19C1381.04 1006.8 1384.52 1009.4 1388 1012C1388.77 1012.57 1389.54 1013.15 1390.33 1013.74C1413.3 1030.9 1437.31 1045.61 1462.37 1059.53C1464.01 1060.45 1465.65 1061.36 1467.28 1062.28C1494.66 1077.66 1529.66 1093.63 1561.69 1085.44C1564.14 1084.67 1566.58 1083.85 1569 1083C1569.71 1082.76 1570.42 1082.53 1571.16 1082.28C1607.22 1070.31 1638.57 1047.74 1668.96 1025.49C1670.91 1024.07 1672.86 1022.65 1674.82 1021.24C1689.68 1010.46 1704.06 999.064 1718.26 987.428C1719.83 986.139 1721.41 984.856 1722.99 983.574C1728.43 979.141 1733.81 974.636 1739.16 970.085C1742.59 967.173 1746.06 964.322 1749.56 961.499C1754.64 957.372 1759.44 952.998 1764.23 948.554C1766.46 946.498 1768.71 944.483 1771 942.499C1775.89 938.256 1780.64 933.861 1785.4 929.473C1786.98 928.016 1788.58 926.565 1790.17 925.117C1796.8 919.07 1803.23 912.864 1809.51 906.455C1813.8 902.101 1813.8 902.101 1816 900.999C1816 900.339 1816 899.679 1816 898.999C1816.66 898.999 1817.32 898.999 1818 898.999C1818 898.339 1818 897.679 1818 896.999C1818.66 896.999 1819.32 896.999 1820 896.999C1820 896.339 1820 895.679 1820 894.999C1820.66 894.999 1821.32 894.999 1822 894.999C1823.5 893.516 1823.5 893.516 1825.06 891.562C1829.83 885.952 1835.08 880.869 1840.33 875.71C1844.55 871.534 1848.59 867.285 1852.46 862.782C1854.5 860.422 1856.63 858.153 1858.75 855.874C1864.53 849.523 1869.8 842.827 1875 835.999C1875.45 835.417 1875.9 834.835 1876.36 834.235C1904.73 797.432 1915.66 758.833 1919 712.999C1919.1 711.702 1919.2 710.405 1919.3 709.069C1920.23 695.456 1920.16 681.831 1920.13 668.192C1920.13 666.083 1920.12 663.974 1920.12 661.864C1920.11 641.659 1919.91 621.459 1919.61 601.256C1918.47 527.151 1918.38 453.145 1921.35 379.081C1921.85 366.603 1922.26 354.124 1922.59 341.64C1922.62 340.497 1922.62 340.497 1922.65 339.331C1923.59 303.94 1923.12 268.827 1919.06 233.624C1918.98 232.925 1918.9 232.226 1918.82 231.506C1917.88 214.692 1917.88 214.692 1910 200.999C1908.29 199.824 1908.29 199.824 1906.49 198.921C1905.82 198.569 1905.16 198.218 1904.47 197.855C1903.76 197.49 1903.05 197.125 1902.31 196.749C1901.19 196.162 1901.19 196.162 1900.04 195.564C1894.27 192.58 1888.4 189.81 1882.51 187.081C1874.72 183.452 1867.16 179.404 1859.58 175.363C1856.89 173.942 1854.19 172.544 1851.49 171.152C1840.72 165.594 1830.08 159.853 1819.55 153.851C1806.14 146.216 1792.57 138.899 1778.96 131.631C1759.24 121.096 1739.63 110.354 1720.19 99.3119C1619.71 42.3506 1544.49 52.2774 1435.79 78.175ZM1416 376.999C1415.26 377.625 1414.53 378.25 1413.77 378.894C1401.76 389.391 1389.87 400.758 1380.08 413.367C1378.53 415.332 1376.96 417.203 1375.3 419.07C1333.77 465.76 1311.82 526.533 1315 588.999C1316.69 614.006 1324.64 638.355 1343 655.999C1345.67 658.403 1345.67 658.403 1349 658.999C1356.89 637.551 1361.54 615.344 1366.39 593.061C1376.64 546.104 1376.64 546.104 1389 536.999C1396.62 532.206 1405.75 531.032 1414.56 532.562C1424.82 535.375 1432.54 541.705 1440 548.999C1440.76 549.723 1441.52 550.446 1442.31 551.191C1455.28 563.755 1465.55 578.916 1476.25 593.39C1486.57 607.323 1497.57 619.898 1510 631.999C1514.23 628.23 1517.12 623.611 1520.25 618.937C1523.63 613.91 1527.04 608.925 1530.64 604.054C1535.96 596.788 1540.89 589.264 1545.86 581.759C1548.75 577.392 1551.66 573.03 1554.56 568.667C1555.13 567.816 1555.69 566.965 1556.28 566.088C1566.74 550.362 1577.48 534.828 1588.29 519.331C1591.42 514.838 1594.53 510.33 1597.63 505.812C1604.02 496.495 1610.49 487.231 1617 477.999C1617.87 476.763 1617.87 476.763 1618.76 475.501C1637.47 449.041 1637.47 449.041 1646 446.999C1654.54 446.109 1661.81 446.023 1669 450.999C1670.88 453.249 1670.88 453.249 1672 454.999C1672.66 454.999 1673.32 454.999 1674 454.999C1677.03 463.161 1678.82 471.288 1676.11 479.796C1671.95 488.862 1665.6 496.734 1659.69 504.704C1657.08 508.249 1654.54 511.838 1652 515.437C1651.51 516.131 1651.02 516.825 1650.52 517.54C1646.28 523.57 1642.12 529.653 1637.97 535.746C1635.33 539.61 1632.69 543.462 1629.98 547.277C1621.79 558.833 1613.91 570.579 1606.06 582.374C1605.49 583.232 1604.92 584.089 1604.34 584.972C1603.77 585.826 1603.2 586.679 1602.62 587.558C1590.52 605.743 1578.24 623.779 1565.66 641.634C1564.03 643.964 1562.4 646.301 1560.77 648.64C1538.12 681.183 1538.12 681.183 1519 684.999C1504.19 686.043 1491.58 681.996 1479.97 672.531C1477.27 670.066 1474.63 667.542 1472 664.999C1470.76 663.946 1469.51 662.903 1468.25 661.874C1464.41 658.601 1461.26 654.846 1458 650.999C1457.11 649.977 1456.21 648.957 1455.31 647.937C1446.33 637.679 1438.26 626.85 1430.24 615.831C1429.61 614.965 1428.97 614.099 1428.32 613.207C1427.09 611.514 1425.86 609.818 1424.63 608.118C1423.79 606.965 1423.79 606.965 1422.93 605.788C1422.44 605.105 1421.95 604.421 1421.44 603.717C1419.93 601.745 1419.93 601.745 1417 599.999C1415.41 604.48 1414.27 608.972 1413.3 613.617C1412.98 615.114 1412.66 616.612 1412.34 618.11C1412.17 618.888 1412 619.666 1411.83 620.467C1400.56 672.847 1400.56 672.847 1389.1 690.179C1387.83 691.93 1387.83 691.93 1388 693.999C1389.44 695.396 1389.44 695.396 1391.39 696.808C1392.53 697.667 1392.53 697.667 1393.69 698.544C1394.53 699.168 1395.38 699.793 1396.25 700.437C1397.57 701.418 1397.57 701.418 1398.91 702.418C1410.02 710.605 1421.49 718.281 1432.95 725.955C1435.45 727.629 1437.94 729.313 1440.42 731.007C1488.43 763.679 1545.2 780.617 1603.29 769.734C1629.76 764.396 1653.1 751.247 1672.43 732.515C1673.52 731.467 1674.61 730.425 1675.7 729.39C1684.61 720.976 1692.18 712.177 1699 701.999C1699.67 701 1700.34 700.001 1701.04 698.972C1703.13 695.703 1705.1 692.379 1707 688.999C1707.44 688.222 1707.88 687.444 1708.33 686.643C1723.79 658.941 1735.43 628.51 1740 596.999C1740.09 596.372 1740.19 595.744 1740.28 595.098C1747.09 543.06 1731.11 489.877 1702 446.999C1701.57 446.367 1701.15 445.736 1700.71 445.084C1691.7 431.832 1681.5 419.445 1670.56 407.746C1668.09 405.1 1665.7 402.402 1663.31 399.687C1660.09 396.099 1656.76 392.861 1653.07 389.757C1650.81 387.84 1648.67 385.829 1646.5 383.812C1580.63 324.748 1483.85 319.033 1416 376.999ZM370.001 989.999C358.155 1006.65 356.852 1033.96 353.417 1053.62C353.147 1055.16 352.877 1056.7 352.604 1058.24C339.372 1133.17 333.333 1210.2 329.214 1286.12C328.998 1290.04 328.774 1293.97 328.548 1297.9C326.598 1332.03 325.698 1366.13 325.632 1400.32C325.626 1403.07 325.615 1405.82 325.602 1408.57C324.247 1484.88 324.247 1484.88 357.454 1550.49C369.935 1562.65 386.285 1569.81 403.001 1574C403.976 1574.24 403.976 1574.24 404.97 1574.5C431.999 1580.97 462.991 1576.65 490.188 1572.5C490.893 1572.39 491.597 1572.29 492.322 1572.18C494.228 1571.85 496.116 1571.43 498.001 1571C498.709 1570.88 499.418 1570.76 500.147 1570.63C502.516 1570.05 504.057 1569.48 506.001 1568C507.807 1564.43 508.424 1560.73 509.126 1556.81C509.361 1555.65 509.596 1554.49 509.839 1553.3C510.338 1550.81 510.821 1548.31 511.287 1545.81C511.975 1542.14 512.71 1538.47 513.458 1534.81C531.511 1444.56 538.232 1350.96 537.001 1259C536.992 1258.32 536.984 1257.65 536.975 1256.95C536.726 1238.02 536.014 1219.13 534.743 1200.24C534.679 1199.29 534.615 1198.34 534.55 1197.35C533.12 1176.23 531.251 1155.16 529.051 1134.11C528.63 1130.05 528.236 1126 527.863 1121.93C527.401 1116.91 526.894 1111.88 526.355 1106.86C526.16 1104.98 525.981 1103.1 525.818 1101.22C525.254 1091.05 525.254 1091.05 520.681 1082.36C518.185 1080.61 515.749 1079.3 513.001 1078C503.86 1069.65 498.244 1059.9 497.626 1047.44C497.92 1036.17 501.847 1026.34 507.513 1016.8C509.627 1012.82 510.395 1010.47 509.216 1006.06C506.22 998.879 503.915 994.183 496.513 990.894C482.709 985.72 467.842 985.691 453.298 985.734C451.642 985.732 449.986 985.73 448.331 985.728C444.885 985.725 441.44 985.729 437.994 985.739C433.64 985.75 429.286 985.743 424.931 985.732C396.32 983.486 396.32 983.486 370.001 989.999ZM631.389 1079.82C627.663 1080.82 623.935 1081.82 620.204 1082.81C619.337 1083.04 618.469 1083.27 617.576 1083.51C607.868 1085.95 598.155 1087.95 588.29 1089.67C587.006 1089.89 585.722 1090.12 584.398 1090.35C581.266 1090.9 578.134 1091.45 575.001 1092C575.107 1092.96 575.213 1093.92 575.322 1094.91C585.601 1188.1 585.601 1188.1 587.001 1224C587.034 1224.84 587.067 1225.68 587.102 1226.54C588.223 1255.35 588.123 1284.17 588.001 1313C588.816 1313.39 589.632 1313.77 590.472 1314.17C591.546 1314.69 592.621 1315.21 593.727 1315.75C595.322 1316.52 595.322 1316.52 596.949 1317.3C606.379 1322.56 610.88 1332.02 614.001 1342C620.779 1366.19 621.718 1390.36 622.212 1415.32C622.25 1417.17 622.288 1419.02 622.327 1420.87C622.402 1424.49 622.465 1428.12 622.521 1431.75C622.669 1440.12 622.979 1448.45 623.786 1456.78C623.846 1457.5 623.905 1458.21 623.966 1458.94C624.639 1465.07 626.711 1470.57 630.981 1475.1C662.933 1497.16 715.027 1499.71 752.269 1506.36C773.85 1510.23 795.262 1514.43 816.595 1519.49C821.48 1520.64 826.369 1521.79 831.259 1522.92C868.322 1531.54 905.255 1540.46 942.008 1550.34C980.083 1560.54 1018.29 1570.5 1057 1578C1057.97 1578.19 1058.94 1578.37 1059.93 1578.57C1155.11 1596.94 1251.27 1601.95 1645 1509C1645.81 1508.57 1646.61 1508.13 1647.44 1507.69C1686.34 1486.63 1724.47 1462.54 1759.35 1435.28C1761.03 1433.98 1762.71 1432.68 1764.4 1431.38C1773.21 1424.57 1781.68 1417.4 1790 1410C1790.52 1409.54 1791.04 1409.08 1791.57 1408.61C1799.44 1401.6 1806.91 1394.19 1814.38 1386.75C1814.85 1386.28 1815.33 1385.81 1815.81 1385.32C1821.43 1379.72 1826.86 1374.04 1832 1368C1832.85 1367.04 1833.69 1366.07 1834.56 1365.08C1872.8 1320.71 1872.8 1320.71 1888 1266C1847.8 1270.24 1804.51 1292.5 1768 1309C1766.68 1309.59 1765.36 1310.19 1764.05 1310.78C1746.55 1318.66 1729.18 1326.78 1711.94 1335.2C1702.07 1340.02 1692.14 1344.69 1682.16 1349.28C1675.5 1352.36 1668.87 1355.5 1662.28 1358.71C1585.64 1396.06 1504.96 1428.56 1315.19 1469.81C1314.37 1469.91 1313.56 1470.01 1312.72 1470.11C1286.93 1473.21 1261.21 1474.38 1235.25 1474.31C1233.83 1474.31 1232.41 1474.31 1230.99 1474.31C1210.85 1474.26 1190.96 1473.95 1171 1471C1169.62 1470.8 1168.24 1470.61 1166.86 1470.41C1124.08 1464.29 1081.73 1454.22 1042 1437C1041.09 1436.61 1040.19 1436.21 1039.25 1435.81C1018.65 1426.75 999.603 1415 982.001 1401C980.504 1399.82 980.504 1399.82 978.977 1398.62C976.64 1396.76 974.317 1394.88 972.001 1393C971.107 1392.31 970.214 1391.62 969.294 1390.91C967.001 1389 967.001 1389 966.001 1387C965.341 1387 964.681 1387 964.001 1387C963.726 1386.4 963.452 1385.8 963.169 1385.18C961.972 1382.72 961.972 1382.72 959.313 1380.12C952.178 1372.04 947.548 1361.33 947.727 1350.53C948.67 1341.82 952.547 1334.8 959.001 1329C975.148 1316.01 996.178 1317.06 1015.73 1319.02C1057.76 1323.64 1098.21 1339.12 1137.63 1353.75C1201.82 1377.52 1303.09 1412.59 1370 1386C1382.24 1379.92 1387.68 1368.45 1391.94 1356.06C1392.19 1355.33 1392.44 1354.6 1392.71 1353.85C1401.06 1329.45 1407.1 1303.54 1404.63 1277.56C1404.56 1276.76 1404.49 1275.96 1404.41 1275.13C1404.09 1272.71 1404.09 1272.71 1402 1270C1390.64 1266.33 1377.9 1265.8 1366.11 1264.5C1362.67 1264.12 1359.23 1263.73 1355.79 1263.33C1345.98 1262.22 1336.17 1261.12 1326.35 1260.07C1288.85 1256.05 1251.61 1250.16 1215 1241C1213.88 1240.72 1212.75 1240.45 1211.6 1240.16C1178.67 1231.92 1146.11 1220.56 1115 1207C1113.69 1206.43 1113.69 1206.43 1112.36 1205.85C1084.68 1193.82 1057.6 1180.24 1031 1166C1030.15 1165.54 1029.3 1165.09 1028.42 1164.62C1017.84 1158.95 1007.4 1153.1 997.063 1147C986.444 1140.74 975.619 1134.99 964.648 1129.37C962.188 1128.1 959.751 1126.79 957.321 1125.45C895.255 1091.53 821.429 1071.57 751.001 1066C750.311 1065.94 749.622 1065.89 748.911 1065.83C708.122 1062.61 670.562 1069.29 631.389 1079.82ZM1031 1373C1055.41 1401.21 1113.97 1409.6 1148.5 1416.37C1149.77 1416.63 1151.04 1416.88 1152.35 1417.13C1159.89 1418.57 1167.34 1419.54 1175 1420C1171.89 1417.93 1169.45 1417.12 1165.88 1416.07C1164.57 1415.67 1163.25 1415.28 1161.94 1414.88C1161.23 1414.67 1160.52 1414.45 1159.79 1414.23C1143.38 1409.28 1127.32 1403.54 1111.25 1397.56C1095.26 1391.63 1079.26 1385.95 1062.94 1381C1062.14 1380.76 1061.34 1380.52 1060.52 1380.27C1055.69 1378.81 1050.85 1377.39 1046 1376C1044.9 1375.68 1043.79 1375.36 1042.65 1375.03C1041.68 1374.75 1040.7 1374.47 1039.69 1374.19C1038.46 1373.84 1038.46 1373.84 1037.2 1373.48C1034.73 1372.86 1034.73 1372.86 1031 1373Z" fill="#1B1817"/>
</svg>
