<svg width="40" height="40" viewBox="0 0 40 40" fill="none" xmlns="http://www.w3.org/2000/svg">
<path d="M8.39805 30.199L8.39758 30.1987C7.60212 29.6056 6.84674 28.646 6.28948 27.5353C5.73213 26.4244 5.4165 25.2492 5.4165 24.2671V11.8671C5.4165 9.7153 7.04283 7.35745 9.0655 6.60418L9.06742 6.60346L17.3833 3.48711C17.3834 3.48706 17.3835 3.48702 17.3836 3.48697C18.0656 3.23215 19.0021 3.08789 19.9832 3.08789C20.9642 3.08789 21.9007 3.23215 22.5827 3.48697C22.5828 3.48702 22.583 3.48706 22.5831 3.48711L30.8989 6.60347L30.9008 6.60418C32.9235 7.35745 34.5498 9.7153 34.5498 11.8671V24.2504C34.5498 25.2414 34.2339 26.4165 33.6772 27.5242C33.1205 28.6319 32.3653 29.5881 31.5688 30.182L31.5683 30.1824L24.4016 35.5324L24.3954 35.537L24.3892 35.5418C23.2071 36.4533 21.6312 36.9337 19.9998 36.9337C18.3713 36.9337 16.7868 36.4545 15.5629 35.5477C15.5626 35.5475 15.5623 35.5472 15.562 35.547L8.39805 30.199ZM17.5669 3.96349L17.5656 3.96398L9.24892 7.08065L9.24751 7.08118C8.30068 7.43763 7.48488 8.17887 6.91263 9.00681C6.34002 9.83526 5.93317 10.8634 5.93317 11.8837V24.2671C5.93317 25.2643 6.27517 26.3707 6.75376 27.3255C7.23211 28.28 7.91141 29.2117 8.70155 29.8017L8.70163 29.8017L15.8676 35.1512C17.0333 36.0229 18.5438 36.4254 20.0019 36.4254C21.4603 36.4254 22.9731 36.0228 24.1454 35.1537L24.148 35.1517L31.3147 29.8017L31.3165 29.8004C32.1127 29.2033 32.7919 28.2731 33.2693 27.3184C33.7466 26.3638 34.0832 25.2623 34.0832 24.2671V11.8671C34.0832 10.8531 33.6748 9.82892 33.1037 9.00264C32.5323 8.17587 31.7194 7.43351 30.7784 7.06818L30.7784 7.06812L30.7674 7.06398L22.4508 3.94732L22.4417 3.94394L22.4327 3.94073C21.723 3.69027 20.8335 3.58354 19.9992 3.58581C19.1665 3.58808 18.2752 3.6992 17.5669 3.96349Z" fill="#DB322B" stroke="#DB322B" stroke-width="2"/>
<path d="M17.0595 21.4067L17.7666 22.1138L18.4737 21.4067L24.757 15.1233C24.8001 15.0803 24.8615 15.0537 24.9332 15.0537C25.0049 15.0537 25.0664 15.0803 25.1095 15.1233C25.1525 15.1664 25.1791 15.2278 25.1791 15.2995C25.1791 15.3712 25.1525 15.4327 25.1095 15.4758L17.9428 22.6424C17.9134 22.6718 17.8853 22.6887 17.8596 22.699C17.833 22.7098 17.8019 22.7162 17.7666 22.7162C17.7312 22.7162 17.7002 22.7098 17.6735 22.699C17.6478 22.6887 17.6197 22.6718 17.5903 22.6424L14.907 19.9591C14.864 19.916 14.8374 19.8546 14.8374 19.7829C14.8374 19.7112 14.864 19.6497 14.907 19.6067C14.9501 19.5636 15.0115 19.537 15.0832 19.537C15.1549 19.537 15.2164 19.5636 15.2595 19.6067L17.0595 21.4067Z" fill="#DB322B" stroke="#DB322B" stroke-width="2"/>
</svg>
