<svg width="2902" height="2330" viewBox="0 0 2902 2330" fill="none" xmlns="http://www.w3.org/2000/svg">
<path d="M1095.22 0.874382C1114.09 -0.0521523 1137.28 2.27398 1152 14.9999C1164.8 26.9052 1168.37 42.3638 1171 58.9999C1171.61 58.434 1172.23 57.8681 1172.86 57.285C1173.67 56.5516 1174.48 55.8181 1175.31 55.0624C1176.11 54.3315 1176.91 53.6006 1177.74 52.8475C1182.49 48.9681 1188.16 49.4607 1194 49.9999C1203.69 52.4495 1210.88 61.9376 1216 69.9999C1216.58 69.2007 1217.17 68.4014 1217.77 67.578C1241.23 35.918 1274.96 17.5474 1313.69 11.7499C1390.06 0.451325 1463.41 19.1215 1525.22 64.6713C1544.46 79.0242 1562.21 95.9392 1574 117C1574.41 117.68 1574.81 118.361 1575.23 119.062C1579.93 127.447 1582.78 138.425 1582 148C1582.91 147.734 1583.82 147.469 1584.75 147.195C1616.68 138.224 1648.01 141.071 1677.17 156.969C1681.99 159.689 1686.52 162.762 1691 166C1691.63 166.454 1692.26 166.908 1692.91 167.376C1701.34 173.495 1709.48 179.767 1717 187C1717.74 187.705 1717.74 187.705 1718.5 188.424C1746.48 215.046 1768.66 251.812 1779 289C1779.32 290.155 1779.65 291.31 1779.98 292.5C1781.97 300.281 1782.65 307.99 1783 316C1784.32 316.419 1784.32 316.419 1785.68 316.848C1812.15 325.691 1827.15 345.702 1839.38 369.731C1847.73 386.591 1855.07 403.929 1862.25 421.312C1862.52 421.962 1862.79 422.611 1863.06 423.28C1865.08 428.172 1867.05 433.082 1869 438C1869.36 438.914 1869.73 439.828 1870.1 440.769C1876.65 457.284 1882.52 473.983 1888.02 490.87C1888.89 493.509 1889.75 496.147 1890.63 498.782C1902.21 533.69 1912.54 567.654 1896.59 602.883C1894.4 607.175 1891.88 611.138 1889 615C1892.03 618.228 1895.21 621.011 1898.69 623.75C1907.91 631.067 1915.85 638.617 1923 648C1923.61 648.79 1924.21 649.58 1924.84 650.394C1951.84 687.23 1963.27 751.029 1956.88 795.875C1951.41 829.898 1937.83 871.923 1912.39 896.562C1910.7 898.133 1910.7 898.133 1909 901C1909.13 903.015 1909.13 903.015 1909.75 905.144C1909.96 905.942 1910.16 906.741 1910.36 907.564C1910.57 908.368 1910.78 909.172 1911 910C1914.21 923.557 1916.03 936.937 1917.19 950.812C1917.35 952.679 1917.52 954.546 1917.69 956.412C1918.08 960.848 1918.45 965.285 1918.81 969.723C1918.97 971.657 1919.15 973.59 1919.33 975.523C1920.37 987.671 1920.24 999.879 1920.25 1012.06C1920.25 1013.87 1920.25 1013.87 1920.25 1015.72C1920.24 1033.67 1919.85 1051.24 1917 1069C1916.82 1070.12 1916.65 1071.24 1916.46 1072.4C1911.06 1105.69 1902.69 1138.7 1885.44 1167.95C1885.01 1168.68 1884.58 1169.41 1884.13 1170.16C1879.74 1177.54 1875.07 1184.71 1870.29 1191.83C1868.86 1193.96 1867.45 1196.09 1866.04 1198.22C1850.06 1222.21 1830.47 1244.85 1805 1259C1806.93 1265.03 1809.12 1270.89 1811.46 1276.77C1832.17 1328.87 1829.51 1372.22 1812 1425C1811.67 1426.01 1811.33 1427.03 1810.99 1428.08C1806.71 1441.06 1801.95 1453.69 1796 1466C1795.69 1466.64 1795.38 1467.29 1795.06 1467.95C1787.45 1483.6 1777.29 1497.69 1765 1510C1764.28 1510.74 1763.55 1511.47 1762.8 1512.23C1743.93 1530.23 1715.1 1537.48 1689.61 1537.21C1672.76 1536.21 1656.47 1530.93 1640.86 1524.82C1637.79 1523.94 1636.85 1523.7 1634 1525C1628.34 1533.4 1625.45 1543.18 1622.77 1552.85C1613.94 1584.53 1600.06 1613.28 1577 1637C1576.46 1637.56 1575.92 1638.12 1575.37 1638.7C1571.39 1642.77 1567.25 1646.4 1562.69 1649.81C1562.01 1650.32 1561.32 1650.83 1560.62 1651.36C1553.46 1656.59 1545.86 1660.86 1538.01 1664.95C1536.24 1665.87 1534.48 1666.82 1532.72 1667.78C1522.29 1673.28 1508.91 1679 1497 1679C1497.12 1680.92 1497.12 1680.92 1497.25 1682.87C1497.18 1706.9 1484.73 1732.64 1470 1751C1469.6 1751.51 1469.2 1752.02 1468.79 1752.54C1452.06 1773.83 1430.74 1786.78 1403.86 1791.56C1374.46 1794.92 1346.86 1787.68 1323.52 1769.33C1320.25 1766.66 1317.11 1763.85 1314 1761C1313.14 1760.23 1312.28 1759.47 1311.39 1758.68C1273.52 1723.15 1260.39 1668.19 1258.74 1618.36C1258.25 1600.24 1259.06 1582.76 1263 1565C1263.29 1563.69 1263.29 1563.69 1263.58 1562.36C1268.53 1540.73 1276.58 1517.44 1292 1501C1292.46 1500.5 1292.91 1500 1293.39 1499.48C1321.73 1468.54 1362.68 1462.96 1402.02 1456.06C1427.37 1451.6 1427.37 1451.6 1452.44 1445.81C1453.64 1445.5 1454.84 1445.2 1456.07 1444.88C1471.45 1440.74 1487.09 1436.19 1495.81 1422.06C1497.61 1417.42 1497.88 1414.2 1496 1409.5C1484.97 1387.51 1462.75 1376.06 1440.5 1368.19C1425.29 1363.54 1409.62 1361.24 1393.91 1359.05C1350.46 1352.95 1313.2 1342.05 1281 1311C1280.21 1310.27 1279.42 1309.55 1278.61 1308.8C1256.9 1288.27 1245.07 1257.68 1243.84 1228.14C1243.82 1226.8 1243.81 1225.46 1243.8 1224.12C1243.79 1223.39 1243.78 1222.66 1243.78 1221.91C1243.76 1219.56 1243.75 1217.22 1243.75 1214.87C1243.75 1213.67 1243.75 1213.67 1243.75 1212.44C1243.77 1199.43 1244.35 1186.78 1247 1174C1247.16 1173.22 1247.32 1172.44 1247.49 1171.64C1257.35 1126.14 1285.69 1059.12 1326.19 1032.87C1344.78 1021.39 1364.29 1021.6 1385 1026C1398.29 1029.17 1410.75 1034 1423 1040C1423.86 1040.42 1424.72 1040.84 1425.6 1041.27C1461.31 1058.92 1487.68 1085.68 1500.75 1123.95C1510.57 1154.46 1511.34 1185.11 1510.88 1216.92C1510.84 1220.59 1510.81 1224.27 1510.78 1227.95C1510.76 1229.06 1510.73 1230.17 1510.71 1231.31C1510.67 1237.35 1511.03 1241.7 1514 1247C1521.9 1254.64 1536.78 1258.16 1547.5 1258.56C1556.84 1258.08 1563.7 1253.72 1570 1247C1591.65 1220.6 1598.69 1179.82 1607.06 1147.43C1615.91 1113.26 1628.92 1082.49 1654 1057C1654.79 1056.18 1654.79 1056.18 1655.6 1055.33C1677.34 1033 1709.99 1015.53 1741.65 1014.77C1749.37 1014.7 1756.85 1015.45 1764.48 1016.56C1767.73 1016.97 1770.73 1017.23 1774 1017C1778.7 1012.3 1777.24 1004.39 1777.25 998.187C1777.2 943.923 1754.76 881.358 1718 841C1717.3 840.225 1716.6 839.45 1715.88 838.652C1702.46 824.573 1681.65 808.298 1661.58 807.762C1636.07 807.222 1614.2 815.481 1595.39 833.145C1590.58 837.852 1586.32 842.911 1582.31 848.312C1581.71 849.127 1581.71 849.127 1581.09 849.957C1572.36 862.17 1565.87 875.115 1560 888.875C1556.02 898.168 1551.96 907.357 1547.23 916.305C1546.68 917.35 1546.68 917.35 1546.12 918.416C1542.12 925.871 1537.21 932.234 1531 938C1530.35 938.628 1529.71 939.255 1529.04 939.902C1519.27 949.09 1508.77 953.594 1495.27 953.301C1485.42 952.395 1478.51 947.214 1472 940C1466.38 932.953 1462.03 925.73 1458.25 917.562C1457.5 915.971 1457.5 915.971 1456.73 914.347C1453.98 908.467 1451.35 902.543 1448.81 896.57C1448.55 895.952 1448.28 895.335 1448.01 894.698C1446.75 891.719 1445.5 888.735 1444.27 885.742C1437.48 869.44 1429.68 856.443 1413.02 849.133C1410.98 848.354 1408.93 847.641 1406.86 846.961C1405.7 846.58 1405.7 846.58 1404.52 846.191C1395.91 843.477 1387.11 841.985 1378.21 840.529C1341 834.394 1311.42 824.237 1283 799C1282.02 798.13 1282.02 798.13 1281.02 797.242C1257.39 774.902 1242.68 742.837 1241.65 710.428C1241.45 690.733 1246.8 673.387 1260.18 658.594C1278.7 640.413 1308.04 635.771 1333 636C1361.38 636.976 1388.13 646.693 1414.12 657.312C1435.11 665.781 1453.59 667.487 1476.16 665.225C1479.31 664.976 1482.43 664.902 1485.59 664.859C1486.7 664.84 1487.82 664.821 1488.96 664.801C1491.26 664.766 1493.56 664.749 1495.86 664.746C1502.44 664.674 1502.44 664.674 1508.18 661.746C1515.36 650.928 1514.23 635.241 1511.82 622.942C1510.95 618.882 1509.98 614.847 1509 610.812C1508.59 609.069 1508.18 607.325 1507.78 605.581C1504.91 593.354 1501.83 581.173 1498.56 569.046C1493.66 550.71 1490.31 531.405 1499.78 513.906C1506.46 503.453 1515.37 498.211 1527.28 495.476C1570.04 487.983 1626.15 507.031 1661.41 530.609C1662.96 531.707 1664.49 532.846 1666 534C1667.21 509.951 1660.67 485.062 1649.1 464.013C1647.96 461.925 1646.86 459.82 1645.76 457.711C1639.45 445.796 1631.95 434.872 1624 424C1623.45 423.254 1622.91 422.507 1622.35 421.739C1606.19 399.555 1606.19 399.555 1586.75 380.312C1585.84 379.549 1584.94 378.786 1584 378C1584 377.34 1584 376.68 1584 376C1583.43 375.752 1582.86 375.505 1582.27 375.25C1579.65 373.807 1577.88 372.09 1575.75 370C1561.64 357.148 1543.92 349.373 1525.94 343.562C1525.18 343.315 1524.42 343.068 1523.63 342.813C1516.62 340.659 1509.56 338.622 1502.62 341.875C1501.81 342.244 1501 342.612 1500.16 342.992C1499.09 343.491 1499.09 343.491 1498 344C1492.32 345.893 1488.16 345.327 1482.81 342.812C1477.96 340.2 1475.37 337.531 1472.75 332.687C1471.28 327.409 1471.31 322.93 1473.5 317.937C1477.89 310.154 1484.3 306.42 1492.58 303.629C1495 303 1495 303 1498 303C1499.68 299.05 1500.88 295.08 1502 290.937C1502.33 289.73 1502.66 288.522 1503 287.277C1508.17 266.221 1509.04 241.818 1499.31 221.937C1491.25 208.785 1477.61 203.593 1463.31 199.75C1442.59 194.827 1418.19 190.545 1398.62 201.125C1386.96 208.554 1380.4 219.417 1377.19 232.75C1367.33 279.357 1382.99 333.133 1393.54 378.506C1396.9 393.057 1398.75 407.942 1390.68 421.164C1376.29 442.16 1333.73 452.974 1309.76 457.629C1299.88 458.957 1291.88 457.399 1283.19 452.375C1266.89 434.681 1267.71 403.472 1265.98 380.908C1259.41 296.195 1243.95 211.947 1216.21 131.521C1214.78 127.357 1213.38 123.181 1212 119C1209.5 125.947 1207.88 132.804 1206.56 140.062C1206.35 141.235 1206.14 142.408 1205.92 143.616C1202.35 163.849 1200.1 184.215 1198.51 204.687C1198.45 205.498 1198.38 206.308 1198.32 207.143C1196.94 224.857 1195.94 242.585 1195.06 260.331C1194.9 263.443 1194.74 266.556 1194.57 269.668C1194.06 279.524 1193.58 289.382 1193.13 299.241C1192.99 302.11 1192.86 304.978 1192.72 307.846C1191.24 339.503 1190.71 371.09 1190.8 402.78C1190.82 407.225 1190.81 411.67 1190.81 416.115C1190.82 468.846 1191.99 521.533 1193.74 574.233C1193.85 577.581 1193.97 580.928 1194.08 584.276C1195.58 630.052 1195.58 630.052 1197.5 675.812C1197.57 677.423 1197.57 677.423 1197.64 679.066C1199.35 716.66 1203.53 754.071 1208.09 791.407C1209.45 802.551 1210.77 813.699 1212.08 824.848C1212.21 825.945 1212.34 827.043 1212.47 828.174C1215.84 856.74 1218.71 885.327 1221 914C1221.08 914.987 1221.16 915.975 1221.24 916.992C1223.77 948.086 1224.64 979.265 1225.62 1010.44C1225.66 1011.43 1225.69 1012.43 1225.72 1013.46C1226.16 1027.32 1226.56 1041.17 1226.92 1055.03C1227 1057.96 1227.08 1060.88 1227.16 1063.8C1227.85 1089.3 1228.06 1114.78 1227.97 1140.29C1227.96 1142.57 1227.95 1144.86 1227.94 1147.14C1227.9 1161.14 1227.84 1175.14 1227.75 1189.14C1227.38 1237.23 1227.38 1237.23 1231.53 1285.11C1232.36 1292.03 1232.77 1298.98 1233.19 1305.94C1233.3 1307.82 1233.3 1307.82 1233.42 1309.74C1233.63 1313.49 1233.82 1317.25 1234 1321C1234.04 1321.85 1234.08 1322.71 1234.12 1323.59C1234.8 1338 1235.18 1352.4 1235.39 1366.82C1235.62 1382.77 1235.91 1398.71 1236.51 1414.64C1236.55 1415.86 1236.6 1417.08 1236.65 1418.33C1236.74 1420.81 1236.83 1423.28 1236.92 1425.76C1237.79 1449.23 1238.19 1472.66 1238.19 1496.14C1238.19 1498.39 1238.19 1500.64 1238.19 1502.88C1238.19 1517.49 1238.05 1532.06 1237.49 1546.66C1236.22 1580.85 1237.19 1615.04 1238.12 1649.22C1238.25 1654.07 1238.37 1658.92 1238.49 1663.78C1239.06 1687.22 1239.65 1710.64 1241.49 1734.03C1241.55 1734.81 1241.61 1735.58 1241.67 1736.38C1242.88 1771.3 1242.88 1771.3 1258 1801C1284.15 1822.68 1332.84 1822.84 1365.42 1826.06C1366.72 1826.19 1366.72 1826.19 1368.04 1826.32C1372.15 1826.72 1376.27 1827.12 1380.39 1827.48C1402.95 1829.56 1426.67 1833.88 1443 1851C1462.87 1874.96 1465.08 1907.15 1468.12 1936.81C1468.5 1940.44 1468.88 1944.07 1469.27 1947.7C1469.5 1949.93 1469.74 1952.16 1469.96 1954.4C1470.56 1960.1 1471.45 1965.47 1473 1971C1473.94 1970.61 1474.87 1970.22 1475.84 1969.82C1478.77 1968.6 1481.71 1967.4 1484.65 1966.2C1488.38 1964.67 1492.1 1963.12 1495.82 1961.55C1538.34 1943.86 1584.91 1935.82 1630.88 1935.69C1631.77 1935.68 1632.67 1935.68 1633.59 1935.68C1659.03 1935.67 1684.25 1938.25 1709.54 1940.74C1713.63 1941.15 1717.72 1941.54 1721.81 1941.94C1722.64 1942.02 1723.47 1942.1 1724.32 1942.18C1777.37 1947.23 1830.66 1949.8 1883.91 1951.47C1968.62 1954.12 2052.94 1958.72 2137.45 1965.06C2201.77 1969.89 2266.11 1973.93 2330.56 1976.69C2331.28 1976.72 2332 1976.75 2332.74 1976.78C2342.82 1977.21 2352.91 1977.61 2363 1978C2364.25 1978.05 2365.5 1978.1 2366.79 1978.15C2388.82 1979 2410.83 1979.24 2432.88 1979.25C2434.2 1979.25 2434.2 1979.25 2435.55 1979.25C2469.52 1979.27 2503.3 1978.25 2537.2 1976.22C2540.97 1976 2544.74 1975.79 2548.51 1975.58C2608.84 1972.19 2668.87 1965.85 2728.91 1959.28C2757.32 1956.18 2785.73 1953.38 2814.2 1950.91C2816.79 1950.69 2819.38 1950.47 2821.97 1950.24C2823.2 1950.14 2824.42 1950.03 2825.68 1949.92C2840.33 1948.64 2854.93 1947.05 2869.54 1945.39C2874.61 1944.82 2879.68 1944.27 2884.75 1943.75C2885.49 1943.67 2886.23 1943.59 2886.99 1943.51C2892.02 1942.99 2896.95 1942.94 2902 1943C2902 1944.32 2902 1945.64 2902 1947C2884.79 1954.8 2867.29 1959.96 2848.88 1964.12C2846.15 1964.74 2843.43 1965.36 2840.71 1966C2767.33 1983.04 2692.27 1991.83 2617.66 2001.63C2612.99 2002.25 2608.32 2002.87 2603.64 2003.49C2540.35 2011.88 2477.83 2016.42 2413.99 2016.32C2410.44 2016.31 2406.89 2016.31 2403.34 2016.31C2366.04 2016.27 2328.89 2015.55 2291.67 2013.23C2287.99 2013 2284.31 2012.78 2280.64 2012.56C2231.64 2009.64 2182.68 2005.7 2133.78 2001.42C2132.27 2001.29 2130.77 2001.16 2129.26 2001.03C2122.33 2000.42 2115.4 1999.81 2108.48 1999.18C2061.97 1995.02 2015.31 1992.66 1968.69 1990.26C1953.07 1989.45 1937.45 1988.63 1921.84 1987.79C1921.13 1987.75 1920.42 1987.71 1919.68 1987.67C1892.97 1986.24 1866.26 1984.72 1839.56 1983C1838.64 1982.94 1837.71 1982.88 1836.75 1982.82C1807.52 1980.93 1778.34 1978.59 1749.15 1976.08C1670.07 1968.28 1670.07 1968.28 1591 1972C1589.84 1972.16 1588.69 1972.31 1587.5 1972.47C1559.28 1976.4 1531.83 1982.49 1505.78 1994.23C1505.14 1994.51 1504.5 1994.8 1503.84 1995.1C1500.66 1996.54 1497.48 1997.99 1494.31 1999.47C1472.66 2009.44 1472.66 2009.44 1462.72 2006.27C1455.89 2003.47 1450.32 1999.82 1447 1993C1446.07 1989.97 1445.87 1987.23 1445.88 1984.06C1445.87 1983.23 1445.87 1982.39 1445.87 1981.54C1446 1979 1446 1979 1446.49 1976.72C1447.49 1971.42 1447.44 1966 1447.62 1960.62C1447.67 1959.37 1447.72 1958.12 1447.76 1956.83C1448.03 1948.14 1447.96 1939.64 1447 1931C1446.94 1932.32 1446.94 1932.32 1446.89 1933.68C1445.79 1953.71 1445.79 1953.71 1440.12 1958.94C1437.71 1961.73 1437.71 1961.73 1438.21 1964.57C1438.99 1967.78 1439.95 1970.87 1441 1974C1445.71 1988.71 1447.64 2000.55 1445.44 2015.94C1444.92 2019.6 1445.04 2023.18 1445.12 2026.87C1445.18 2037.28 1442.45 2045.84 1435.51 2053.69C1427.96 2060.91 1418.1 2062.61 1408 2063C1406.14 2074.66 1404.58 2086.32 1403.27 2098.06C1401.92 2110.04 1400.32 2121.98 1398.71 2133.93C1398.13 2138.28 1397.56 2142.64 1397 2147C1396.88 2147.88 1396.77 2148.77 1396.65 2149.68C1395.63 2158.4 1395.68 2167.23 1395.5 2176C1395.43 2179.35 1395.36 2182.71 1395.28 2186.06C1395.26 2186.86 1395.24 2187.66 1395.22 2188.48C1395.09 2193.35 1394.73 2198.13 1394.17 2202.97C1393.9 2206.23 1394.28 2209.38 1394.62 2212.62C1395.54 2223.82 1394.23 2235.42 1387.81 2244.94C1384.45 2248.76 1380.01 2252.52 1374.85 2253.34C1374.24 2253.56 1373.63 2253.78 1373 2254C1371.94 2256.31 1371.94 2256.31 1371 2259C1368.23 2262.85 1365.1 2266.41 1362 2270C1361.15 2271 1360.3 2272 1359.42 2273.03C1326.7 2310.66 1272.38 2325.03 1224.55 2328.4C1215.53 2329 1206.54 2329.2 1197.5 2329.19C1196.76 2329.19 1196.03 2329.19 1195.27 2329.18C1164.95 2329.1 1133.54 2326.01 1105.07 2314.85C1100.62 2313.62 1096.28 2313.66 1091.69 2313.56C1041.19 2311.89 1041.19 2311.89 1024.62 2296.12C1014.6 2285.32 1011.36 2272.51 1011 2258C1011.29 2250.99 1012.1 2243.77 1014 2237C1013.27 2237.03 1012.54 2237.07 1011.79 2237.11C991.692 2237.63 969.053 2233.14 953.625 2219.56C952.064 2218.06 950.52 2216.54 949 2215C948.12 2214.14 948.12 2214.14 947.223 2213.25C938.084 2203.56 935.159 2189.93 935 2177C936.094 2157 944.342 2137.76 951.95 2119.53C952.297 2118.69 952.643 2117.86 953 2117C953.379 2116.12 953.758 2115.24 954.148 2114.33C955.223 2111.39 954.953 2109.96 954 2107C953.093 2105.3 952.13 2103.64 951.125 2102C941.696 2084.84 943.377 2063.3 947.664 2044.78C949.37 2037.32 948.567 2032.84 945 2026C940.768 2012.96 945.163 1998.57 951.02 1986.82C955.424 1978.45 960.594 1970.98 967 1964C967.442 1963.51 967.884 1963.02 968.339 1962.52C993.083 1935.36 1028.82 1930.76 1063.86 1929.09C1069.78 1928.84 1075.7 1928.76 1081.62 1928.75C1082.36 1928.75 1083.1 1928.75 1083.86 1928.75C1129.14 1928.79 1174.49 1933.1 1219.59 1936.78C1266.61 1940.61 1313.51 1943.29 1360.69 1943.25C1361.47 1943.25 1362.24 1943.25 1363.05 1943.25C1387.04 1943.28 1387.04 1943.28 1411 1942C1411.45 1940.89 1411.45 1940.89 1411.9 1939.76C1412.61 1938 1413.32 1936.24 1414.03 1934.48C1418.41 1923.31 1416.4 1909.94 1412 1899C1407.72 1893.41 1401.59 1893.13 1395 1892C1380.76 1890.38 1366.3 1890.8 1352 1890.81C1351.3 1890.81 1350.6 1890.81 1349.88 1890.81C1285.32 1890.83 1220.75 1892.47 1156.23 1894.79C1125.43 1895.9 1094.62 1896.69 1063.8 1897.35C1043.06 1897.79 1043.06 1897.79 1022.34 1898.47C1020.99 1898.52 1020.99 1898.52 1019.61 1898.57C998.386 1898.96 998.386 1898.96 979 1906C976.378 1910.38 975.632 1913.62 975.629 1918.69C975.612 1919.97 975.594 1921.24 975.576 1922.56C975.563 1925.2 975.562 1927.84 975.561 1930.49C975.384 1942.6 973.596 1953.95 965 1963C964.475 1963.55 963.951 1964.11 963.41 1964.68C952.791 1974.74 937.521 1975.28 923.688 1975.35C921.684 1975.37 919.679 1975.39 917.674 1975.41C915.514 1975.43 913.354 1975.45 911.194 1975.47C904.069 1975.52 896.945 1975.61 889.821 1975.7C888.117 1975.72 886.414 1975.74 884.71 1975.76C863.3 1976.01 841.895 1976.45 820.488 1976.9C818.512 1976.94 816.537 1976.99 814.561 1977.03C803.52 1977.26 792.479 1977.5 781.438 1977.74C774.323 1977.89 767.209 1978.05 760.094 1978.19C703.871 1979.38 647.666 1980.69 591.484 1983.2C556.423 1984.76 521.347 1985.85 486.27 1986.94C432.786 1988.59 432.785 1988.59 379.312 1990.56C378.56 1990.59 377.808 1990.62 377.033 1990.65C361.046 1991.29 345.061 1991.99 329.078 1992.75C324.407 1992.97 319.736 1993.19 315.066 1993.41C313.077 1993.5 311.089 1993.59 309.1 1993.69C278.138 1995.14 247.155 1995.99 216.171 1996.82C180.691 1997.79 145.28 1999.07 109.91 2002.12C106.031 2002.45 102.151 2002.78 98.2705 2003.1C87.2402 2004.02 76.2127 2004.97 65.1914 2005.99C52.4686 2007.17 39.7874 2008.26 27 2008.37C25.5484 2008.4 25.5484 2008.4 24.0674 2008.42C16.8393 2008.37 8.43608 2007.93 2.73828 2003.07C0.445907 2000.34 0.141853 1998.55 0 1995C0.5 1991.87 0.5 1991.87 2 1989C7.30466 1985.33 11.6838 1984.26 18.0381 1983.69C18.921 1983.6 19.8039 1983.51 20.7136 1983.41C23.6358 1983.11 26.5598 1982.84 29.4844 1982.56C31.5538 1982.36 33.623 1982.15 35.6921 1981.94C41.2276 1981.39 46.765 1980.85 52.3032 1980.33C55.7627 1980 59.2215 1979.66 62.6803 1979.33C97.0171 1975.99 131.328 1972.97 165.781 1971.12C168.154 1970.99 170.527 1970.86 172.899 1970.73C211.921 1968.6 250.952 1966.64 289.984 1964.71C292.139 1964.6 294.293 1964.5 296.447 1964.39C298.042 1964.31 298.042 1964.31 299.669 1964.23C301.811 1964.12 303.952 1964.02 306.093 1963.91C311.425 1963.65 316.757 1963.38 322.089 1963.12C347.776 1961.85 373.453 1960.49 399.125 1958.94C425.055 1957.37 450.991 1956.17 476.944 1955.07C512.233 1953.57 547.499 1951.72 582.766 1949.79C664.558 1945.3 746.294 1941.61 859.628 1940.34C876.87 1940.19 894.109 1939.98 911.347 1939.6C913.187 1939.56 915.027 1939.52 916.867 1939.48C919.417 1939.42 921.967 1939.36 924.517 1939.3C925.631 1939.28 925.631 1939.28 926.769 1939.25C931.572 1939.13 936.24 1938.66 941 1938C941.07 1937.45 941.14 1936.9 941.212 1936.33C946.671 1893.96 946.671 1893.96 962 1882C989.454 1864.39 1034.35 1868.97 1065.44 1868.69C1104.67 1868.33 1143.88 1867.28 1183.09 1866.1C1229.4 1864.72 1275.68 1863.81 1322 1863.81C1326.51 1863.81 1331.01 1863.81 1335.52 1863.79C1383.66 1863.65 1383.66 1863.65 1405 1866C1395.66 1862.5 1386.43 1859.65 1376.58 1858.02C1375.59 1857.85 1374.61 1857.68 1373.6 1857.51C1361.22 1855.47 1348.77 1853.97 1336.31 1852.5C1334.43 1852.28 1334.43 1852.28 1332.52 1852.05C1315.61 1850.03 1298.7 1848.17 1281.75 1846.62C1280.89 1846.55 1280.03 1846.47 1279.15 1846.38C1259.42 1844.58 1239.74 1843.94 1219.93 1843.76C1194.31 1843.52 1169.07 1842.32 1143.62 1839.31C1140.85 1838.98 1138.08 1838.66 1135.32 1838.34C1126.95 1837.37 1118.59 1836.38 1110.23 1835.35C1086.78 1832.47 1064.87 1832.28 1041.5 1835.87C943.092 1850.96 943.092 1850.96 909.234 1827.05C902.784 1822.11 898.225 1818.07 897 1809.75C896.636 1802.69 898.254 1797.12 902.957 1791.77C907.439 1787.58 914.505 1781 921 1781C920.515 1780.41 920.031 1779.81 919.531 1779.2C917.334 1776.48 915.162 1773.75 913 1771C912.353 1770.18 911.706 1769.36 911.039 1768.52C899.309 1753.08 891.568 1735.15 883.622 1717.58C882.577 1715.28 881.529 1712.97 880.476 1710.67C874.09 1696.7 868.164 1682.59 862.507 1668.31C844.557 1623.02 826.321 1577.15 801.993 1534.85C797.799 1527.53 793.9 1520.08 790.062 1512.56C784.534 1501.76 778.616 1491.27 772.434 1480.83C769.03 1475.08 765.76 1469.27 762.5 1463.44C749.171 1439.74 734.605 1417.61 717.787 1396.27C714.823 1392.5 711.88 1388.72 708.938 1384.94C708.072 1383.83 708.072 1383.83 707.189 1382.69C702.091 1376.13 697.043 1369.54 692.004 1362.93C689.408 1359.53 686.8 1356.14 684.188 1352.75C672.292 1337.29 660.494 1321.76 649 1306C648.187 1304.89 648.187 1304.89 647.357 1303.75C643.546 1298.52 639.764 1293.27 636 1288C635.197 1286.88 635.197 1286.88 634.378 1285.74C619.614 1265.07 605.832 1243.71 592.365 1222.17C590.987 1219.98 589.597 1217.79 588.203 1215.61C574.877 1194.69 561.976 1173.61 550.41 1151.66C549.125 1149.24 547.82 1146.82 546.504 1144.41C532.808 1119.15 521.385 1092.77 511 1066C510.58 1064.93 510.16 1063.86 509.728 1062.75C485.16 999.473 473.932 928.666 473 861C472.98 859.795 472.959 858.59 472.938 857.348C471.472 758.88 486.382 659.424 638 245C638.523 244.301 639.046 243.602 639.585 242.882C658.383 217.838 678.645 194.359 700.688 172.125C701.969 170.823 701.969 170.823 703.277 169.496C708.434 164.332 713.772 159.582 719.486 155.04C722.017 152.986 724.42 150.837 726.812 148.625C731.782 144.103 737.009 139.987 742.316 135.875C744.747 133.989 747.148 132.075 749.527 130.125C758.908 122.449 768.672 115.436 778.674 108.593C780.711 107.198 782.739 105.792 784.766 104.383C802.404 92.2404 821.32 82.1123 840.357 72.3685C842.802 71.1023 845.227 69.8054 847.645 68.4882C924.296 26.8151 1008.5 5.76634 1095.22 0.874382ZM1249 57.9999C1247.94 58.835 1246.88 59.6686 1245.81 60.4999C1240.05 65.6237 1235.37 71.6984 1230.62 77.7499C1230.18 78.3048 1229.74 78.8598 1229.29 79.4315C1226.23 83.3373 1226.23 83.3373 1225 87.9999C1225.98 90.9009 1225.98 90.9009 1227.58 94.0038C1227.86 94.59 1228.14 95.1763 1228.43 95.7803C1229.04 97.0477 1229.66 98.3127 1230.28 99.5757C1231.94 102.968 1233.55 106.382 1235.16 109.797C1235.49 110.491 1235.82 111.185 1236.16 111.9C1273.75 191.744 1289.18 284.184 1293.3 371.742C1293.35 400.66 1293.35 400.66 1301 428C1308.59 426.6 1315.3 424.044 1322.38 421C1323.51 420.514 1324.65 420.029 1325.82 419.529C1332.93 416.443 1339.93 413.198 1346.81 409.625C1347.58 409.233 1348.34 408.841 1349.12 408.437C1353.39 406.156 1357.14 403.993 1360 400C1360.89 393.526 1359.46 386.998 1358.21 380.668C1357.82 378.649 1357.44 376.629 1357.05 374.61C1356.75 373.037 1356.75 373.037 1356.44 371.432C1353.25 354.903 1350.27 338.37 1348 321.687C1347.9 320.964 1347.8 320.24 1347.7 319.494C1346.01 307.102 1344.85 294.818 1344.8 282.305C1344.79 281.232 1344.79 280.16 1344.78 279.055C1344.77 276.801 1344.76 274.548 1344.76 272.294C1344.75 268.904 1344.72 265.515 1344.69 262.125C1344.55 233.641 1349.48 205.285 1370 184C1387.66 167.214 1410.26 162.585 1433.91 163.022C1466.46 164.088 1501.72 170.146 1525.17 194.832C1543.26 216.239 1547.57 244.846 1545.38 271.937C1544.37 282.581 1541.94 292.743 1539 303C1538.8 303.699 1538.6 304.398 1538.4 305.118C1537.93 306.746 1537.47 308.373 1537 310C1537.54 310.17 1538.08 310.34 1538.64 310.516C1564.31 318.645 1585.99 328.78 1606 347C1607.15 348.026 1608.3 349.052 1609.45 350.078C1621.49 360.916 1631.35 373.029 1641 386C1641.55 386.733 1642.09 387.466 1642.66 388.222C1651.02 399.462 1658.77 410.999 1666 423C1666.66 424.089 1666.66 424.089 1667.33 425.201C1686.77 457.676 1697.19 494.013 1697.19 531.807C1697.19 534.062 1697.21 536.317 1697.22 538.572C1697.27 550.474 1697.14 561.435 1688.55 570.535C1683.21 575.347 1677.73 576.498 1670.75 576.301C1656.19 574.707 1642.38 565.354 1630.44 557.437C1603.45 539.576 1567.63 527.075 1535 529C1531.46 529.698 1531.46 529.698 1529 531C1523.4 542.201 1530.09 561.267 1533.73 572.184C1536.35 579.876 1539.05 587.537 1541.83 595.172C1551.89 622.939 1560.3 652.696 1547.51 681.152C1540.73 693.951 1531.24 703.412 1517.32 707.856C1509.82 709.835 1502.79 710.459 1495.06 710.562C1486.76 710.762 1478.57 711.139 1470.31 712.062C1436.75 715.612 1409.36 707.885 1378.1 696.581C1361.46 690.578 1345.79 686.81 1328 686.76C1325.97 686.75 1323.94 686.719 1321.91 686.687C1310.12 686.591 1296.16 686.983 1287.25 695.687C1281.2 703.719 1281.97 715.537 1283.29 725.083C1287.39 748.248 1302.57 764.987 1321.15 778.25C1337.99 789.241 1356.52 792.131 1375.91 795.622C1442.06 807.575 1442.06 807.575 1462.18 835.652C1473.71 852.675 1479.66 872.426 1485.51 891.923C1486.31 894.591 1487.13 897.254 1487.95 899.918C1488.3 901.112 1488.3 901.112 1488.66 902.33C1490.34 907.798 1492.75 912.293 1496 917C1501.23 915.614 1504.15 912.404 1507 908C1511.33 899.526 1514.57 890.545 1518.01 881.684C1522.49 870.14 1527.03 858.856 1533 848C1533.5 847.09 1534 846.18 1534.51 845.242C1546.48 824.379 1564.64 805.758 1585 793C1585.89 792.434 1585.89 792.434 1586.79 791.856C1610.76 776.734 1641.31 769.5 1669.31 775.562C1708.86 785.091 1745.33 815.402 1767 849.105C1792.02 890.984 1809.05 938.307 1809.3 987.332C1809.31 988.893 1809.33 990.455 1809.36 992.016C1809.68 1009.32 1807.41 1025.95 1795.11 1039.02C1788.07 1045.62 1779.33 1046.41 1770 1047C1767.18 1046.89 1764.42 1046.62 1761.61 1046.31C1747.41 1045.1 1733.47 1044.89 1720 1050C1718.86 1050.43 1718.86 1050.43 1717.7 1050.86C1702.02 1056.86 1689.45 1064.81 1677 1076C1676.2 1076.72 1675.39 1077.44 1674.56 1078.18C1653.72 1097.9 1644.03 1125.31 1636.74 1152.36C1635.98 1155.2 1635.2 1158.04 1634.42 1160.87C1633.39 1164.6 1632.37 1168.33 1631.35 1172.06C1607.41 1259.64 1607.41 1259.64 1574 1279C1554.63 1288.03 1536.19 1285.74 1516.67 1278.88C1501.96 1273.47 1491.54 1267.81 1484.36 1253.55C1479.44 1240.7 1478.96 1227.55 1478 1213.94C1476.62 1194.53 1474.94 1175.55 1469.69 1156.75C1469.38 1155.64 1469.08 1154.53 1468.76 1153.39C1461.4 1127.29 1448.24 1100.02 1424.05 1085.67C1389.87 1066.45 1389.87 1066.45 1352.31 1064C1347.16 1066.07 1343.12 1069.33 1339 1073C1338.22 1073.69 1337.44 1074.37 1336.63 1075.08C1322.69 1088.15 1313.62 1105.18 1305 1122C1304.46 1123.05 1303.91 1124.1 1303.35 1125.18C1284.77 1161.38 1271.57 1201.94 1284.07 1242.46C1292.38 1266.03 1311.07 1281.02 1332.73 1291.92C1356.22 1303.14 1383.11 1305.53 1408.54 1309.33C1409.69 1309.5 1409.69 1309.5 1410.85 1309.68C1411.56 1309.78 1412.27 1309.89 1413 1310C1447.72 1315.2 1483.88 1325.65 1511 1349C1511.89 1349.75 1512.78 1350.5 1513.69 1351.27C1531.62 1366.88 1546.66 1387.65 1549.32 1411.89C1550.05 1429.65 1542.13 1444.95 1530.49 1457.76C1509.74 1479.43 1481.09 1485.07 1452.81 1490.81C1450.24 1491.34 1447.66 1491.87 1445.09 1492.4C1427.35 1496.02 1409.58 1499.36 1391.73 1502.33C1365.06 1506.81 1333.54 1513.56 1316.44 1536.5C1305.6 1552.96 1299.02 1571.58 1296 1591C1295.8 1592.29 1295.59 1593.58 1295.38 1594.91C1289.58 1635.72 1294.34 1681.84 1319.16 1715.96C1333.3 1733.72 1351.85 1749.54 1375.05 1752.66C1391.04 1754.02 1404.07 1750.38 1417 1741C1417.7 1740.5 1418.39 1740 1419.11 1739.48C1434.34 1727.4 1445.05 1704.95 1448 1686C1448.11 1682.66 1448.09 1679.34 1448 1676C1447.39 1675.83 1446.77 1675.66 1446.14 1675.48C1429.26 1670.74 1413.43 1665.72 1400 1654C1399.01 1653.24 1399.01 1653.24 1398 1652.46C1388.59 1644.98 1382.22 1634.5 1379 1623C1378.81 1622.33 1378.62 1621.66 1378.42 1620.98C1376.05 1609.87 1379.8 1599.04 1385.35 1589.5C1390.91 1581.07 1399.25 1575.51 1408.94 1572.62C1421.68 1570.14 1434.27 1572.65 1445.19 1579.62C1465.5 1594.28 1478.02 1613.78 1488.21 1636.29C1489.1 1638.21 1490.03 1640.11 1491 1642C1516.38 1639.51 1543.15 1621.46 1559.23 1602.33C1575.22 1581.3 1582.85 1557.29 1590.19 1532.19C1594.72 1516.81 1600.8 1499.98 1614.48 1490.37C1627.66 1483.21 1639 1484.39 1652.79 1488.33C1658.08 1489.93 1663.27 1491.82 1668.45 1493.73C1683.24 1499.02 1704.18 1497.06 1718.51 1491.24C1737.59 1481.72 1745.41 1458.48 1752.44 1439.69C1752.85 1438.59 1752.85 1438.59 1753.27 1437.48C1774.14 1382.13 1785.32 1330.89 1761.77 1274.65C1761.11 1273 1761.11 1273 1760 1272C1757.99 1271.9 1755.98 1271.82 1753.97 1271.76C1736.68 1271.26 1720.12 1268 1707.06 1255.69C1698.85 1246.77 1694.87 1237.42 1693.62 1225.37C1694.73 1215.47 1698.33 1207.57 1706.12 1201.19C1714.21 1195.93 1723.76 1195.2 1733 1197C1753.51 1201.48 1767.75 1212.2 1782 1227C1790.27 1223.24 1796.67 1217.42 1803.38 1211.44C1804.79 1210.19 1806.22 1208.95 1807.65 1207.72C1811.91 1204.05 1815.69 1200.22 1819.32 1195.93C1820.97 1194.03 1822.7 1192.26 1824.5 1190.5C1869.32 1146.18 1874.69 1083.32 1875.06 1023.11C1875.04 1014.11 1874.69 1005.12 1874.25 996.125C1874.21 995.264 1874.17 994.403 1874.12 993.516C1873.32 977.436 1871.73 961.545 1869.5 945.6C1869.15 943.068 1868.81 940.538 1868.5 938.001C1868.33 936.724 1868.17 935.448 1868 934.133C1867.86 932.979 1867.71 931.826 1867.56 930.637C1867.38 929.767 1867.19 928.897 1867 928C1864.48 926.742 1862.45 927.015 1859.69 927.117C1849.01 927.472 1840.26 925.634 1831.78 918.687C1824.82 912.096 1821.06 904.467 1820.62 894.812C1821.12 882.722 1823.68 869.798 1832.62 861.125C1838.55 856.393 1846.23 853.198 1853.92 853.683C1862.05 854.919 1868.71 857.623 1875.79 861.793C1877.87 863.159 1877.87 863.159 1880 863C1894.26 839.666 1907.1 811.797 1908 784C1908.02 783.371 1908.04 782.743 1908.06 782.095C1909.16 742.056 1902.84 695.18 1874.51 665.125C1869.56 660.021 1864.42 655.513 1858.5 651.562C1857.64 650.969 1857.64 650.969 1856.76 650.363C1854.92 649.146 1854.92 649.146 1852 648C1849.4 648.496 1849.4 648.496 1847 650C1825.33 659.914 1802.11 665.389 1779 657C1767.82 652.614 1758.68 646.668 1752.94 635.812C1749.99 628.474 1749.49 620.62 1751.96 613.062C1754.22 608.234 1756.87 604.438 1761 601C1761.97 600.154 1762.94 599.309 1763.94 598.437C1778.8 588.273 1803.03 588.583 1820.07 591.531C1828.43 593.123 1836.75 594.909 1845 597C1857.48 580.221 1861.02 564.568 1858.75 543.681C1857.92 538.342 1856.51 533.181 1855 528C1854.56 526.464 1854.56 526.464 1854.1 524.897C1838.83 472.713 1819.51 415.676 1788 371C1787.42 370.149 1786.84 369.298 1786.25 368.422C1780.85 361.331 1771.86 357.176 1763.35 355.117C1759.41 354.979 1758.36 355.581 1755.38 358.062C1742.92 367.574 1729.43 371.226 1714 370C1706.57 368.242 1699.68 363.262 1695.61 356.793C1693.36 352.148 1692.18 348.191 1693 343C1696.03 334.612 1700.15 329.458 1708.07 325.445C1716.17 321.802 1724.4 319.214 1733 317C1733.88 316.773 1734.75 316.546 1735.66 316.312C1737.43 315.862 1739.22 315.428 1741 315C1739.42 281.871 1719.66 246.274 1698 222C1697.39 221.264 1696.77 220.528 1696.14 219.769C1679.81 200.249 1653.68 181.948 1628 179C1606 177.388 1585.81 176.863 1567 190C1561 193.681 1557.1 194.872 1550 194C1544.85 192.283 1541.75 189.387 1539.31 184.562C1536.78 177.167 1539.48 170.023 1541.66 162.82C1544.66 152.457 1543.99 141.573 1539 132C1531.63 119.637 1521.95 110.174 1510.65 101.306C1508.84 99.8721 1507.04 98.4146 1505.25 96.9569C1479.8 76.5036 1452.05 58.4985 1421 47.9999C1420.24 47.7351 1419.48 47.4704 1418.7 47.1976C1407.12 43.1949 1395.25 40.6652 1383.25 38.2499C1382.15 38.0264 1382.15 38.0264 1381.02 37.7984C1363.94 34.3661 1347.39 32.6461 1329.96 32.6842C1326.94 32.6874 1323.91 32.6638 1320.89 32.6385C1294.18 32.5511 1269.33 40.0551 1249 57.9999ZM1003 50.9999C1001.9 51.2172 1000.8 51.4346 999.673 51.6586C967.714 58.1444 937.976 70.5012 908 82.9999C907.26 83.3077 906.52 83.6155 905.758 83.9327C886.755 91.8439 868.28 100.552 850 110C849.118 110.455 848.236 110.909 847.328 111.378C842.683 113.78 838.059 116.22 833.449 118.69C831.714 119.618 829.977 120.542 828.238 121.462C777.306 148.433 723.69 184.284 688.02 230.445C686.285 232.639 684.494 234.724 682.641 236.816C679.23 240.691 676.051 244.697 672.938 248.812C672.379 249.55 671.82 250.287 671.244 251.047C670.071 252.598 668.899 254.151 667.729 255.705C666.622 257.174 665.511 258.64 664.396 260.103C646.559 283.485 630.208 308.252 616 334C615.515 334.869 615.031 335.738 614.531 336.634C571.514 414.223 551.276 511.64 517 737C516.915 737.926 516.831 738.852 516.744 739.806C514.211 767.889 513.696 795.954 513.632 824.133C513.625 826.695 513.614 829.257 513.601 831.819C513.465 864.04 515.494 895.863 520.25 927.75C520.474 929.287 520.474 929.287 520.703 930.855C523.376 949.092 526.649 967.086 531 985C531.3 986.241 531.6 987.482 531.909 988.76C546.769 1049.26 572.123 1106.61 604 1160C604.815 1161.37 604.815 1161.37 605.646 1162.78C618.11 1183.78 631.689 1204.07 645.252 1224.38C647.052 1227.08 648.839 1229.79 650.625 1232.5C663.725 1252.14 677.496 1271.38 692 1290C693.584 1292.06 695.168 1294.12 696.75 1296.19C699.557 1299.84 702.377 1303.49 705.215 1307.12C711.455 1315.1 717.626 1323.13 723.688 1331.25C729.672 1339.27 735.777 1347.17 742 1355C755.866 1372.45 769.173 1390.09 781 1409C781.398 1409.63 781.797 1410.26 782.208 1410.91C805.177 1447.44 823.922 1487.56 841.584 1526.87C843.102 1530.23 844.649 1533.57 846.199 1536.92C859.879 1566.63 870.5 1597.25 880.873 1628.23C890.206 1656.1 900.128 1683.68 911 1711C911.297 1711.75 911.593 1712.49 911.899 1713.26C923.357 1744.2 923.357 1744.2 945 1768C948.456 1767.74 948.456 1767.74 952.141 1766.48C953.574 1766.07 955.008 1765.66 956.443 1765.26C957.19 1765.05 957.937 1764.83 958.707 1764.61C962.492 1763.6 966.322 1762.87 970.172 1762.15C970.948 1762 971.724 1761.86 972.524 1761.7C974.932 1761.25 977.341 1760.81 979.75 1760.37C980.583 1760.22 981.417 1760.07 982.276 1759.91C994.494 1757.68 1006.6 1755.83 1019 1755C1019.68 1754.95 1020.36 1754.91 1021.07 1754.86C1032.2 1754.14 1043.31 1753.79 1054.46 1753.76C1057 1753.75 1059.54 1753.72 1062.08 1753.69C1085.32 1753.54 1105.35 1759.49 1126.7 1768.23C1127.83 1768.69 1127.83 1768.69 1128.99 1769.16C1130.6 1769.83 1132.19 1770.56 1133.77 1771.3C1137.57 1772.49 1140.1 1771.45 1143.58 1769.72C1156.93 1761.43 1165.58 1750.03 1170 1735C1171.3 1729.24 1171.26 1723.44 1171.31 1717.56C1171.34 1716.59 1171.37 1715.62 1171.4 1714.62C1171.55 1695.72 1166.22 1676.71 1162.12 1658.37C1161.65 1656.23 1161.17 1654.08 1160.7 1651.93C1156.61 1633.55 1152.39 1615.2 1148.16 1596.85C1144.05 1579 1139.98 1561.13 1136 1543.25C1135.76 1542.18 1135.52 1541.1 1135.27 1539.99C1132.41 1527.11 1129.61 1514.22 1126.88 1501.31C1126.42 1499.13 1125.96 1496.95 1125.5 1494.77C1125.34 1494.05 1125.19 1493.33 1125.03 1492.58C1124.72 1491.13 1124.42 1489.68 1124.11 1488.23C1123.37 1484.73 1122.63 1481.23 1121.9 1477.72C1118.12 1459.53 1113.63 1441.72 1108 1424C1107.64 1422.86 1107.64 1422.86 1107.27 1421.69C1105.99 1417.67 1104.64 1413.67 1103.25 1409.69C1102.84 1408.51 1102.43 1407.33 1102.01 1406.11C1094.52 1384.89 1085.94 1364.13 1076.32 1343.79C1075.01 1341.02 1073.72 1338.25 1072.44 1335.48C1068.4 1326.8 1064.19 1318.23 1059.62 1309.81C1059.22 1309.05 1058.82 1308.29 1058.4 1307.51C1057.82 1306.46 1057.82 1306.46 1057.23 1305.39C1056.89 1304.78 1056.56 1304.17 1056.21 1303.55C1053.32 1299.85 1049.01 1299.56 1044.62 1298.81C1032.48 1296.31 1020.48 1290.74 1013.25 1280.31C1009.43 1273.72 1007.05 1265.6 1008 1258C1012.25 1244.06 1012.25 1244.06 1015.75 1241.94C1016.49 1241.63 1017.23 1241.32 1018 1241C1018.85 1240.48 1019.69 1239.97 1020.56 1239.44C1027.75 1236.43 1035.12 1236.21 1042.47 1238.81C1056.24 1245.29 1065.55 1257.79 1074 1270C1079.14 1266.1 1081.67 1262.33 1083 1256C1086.56 1219.42 1058.38 1171.61 1036.38 1144.06C1033.07 1140.13 1029.59 1136.47 1025.9 1132.9C1023.97 1130.97 1022.2 1128.96 1020.44 1126.87C1018.24 1124.3 1016.02 1122.11 1013.38 1120C1006.98 1114.69 1004.27 1107.81 1002.24 1099.95C1001.76 1098.19 1001.28 1096.44 1000.8 1094.69C1000.56 1093.78 1000.32 1092.87 1000.07 1091.94C992.745 1064.71 982.484 1039.52 970.833 1013.89C966.125 1003.53 961.51 993.134 957 982.687C956.678 981.941 956.355 981.194 956.023 980.425C950.571 967.78 945.245 955.082 939.938 942.375C936.96 935.249 933.982 928.124 931 921C930.668 920.207 930.336 919.414 929.994 918.597C909.602 869.926 887.483 821.3 857 778C856.505 777.293 856.011 776.585 855.501 775.857C848.487 765.906 841.201 757.891 831.746 750.156C825.388 744.848 820.135 739.295 818.938 730.812C818.749 726.467 819.44 723.619 822 720C825.238 716.647 828.413 716.15 833 716C840.035 717.373 844.026 720.366 848.688 725.625C854.64 731.928 860.679 736.641 868.177 740.951C870.056 742.032 871.912 743.147 873.77 744.266C908.891 765.07 948.078 771.597 988 762C989.435 761.67 989.435 761.67 990.899 761.333C1008.05 757.349 1024.76 752.036 1041.47 746.531C1059.84 740.526 1077.43 734.965 1095.75 744.187C1107.67 751.397 1113.15 764.719 1116.46 777.707C1116.67 778.529 1116.89 779.35 1117.1 780.197C1119.46 789.515 1121.28 798.923 1123 808.375C1123.25 809.757 1123.25 809.757 1123.51 811.167C1129.31 842.719 1132.88 874.406 1135.63 906.357C1142.84 991.851 1142.84 991.851 1159 1076C1159.32 1077.28 1159.32 1077.28 1159.64 1078.59C1160.09 1080.39 1160.55 1082.2 1161 1084C1161.33 1084 1161.66 1084 1162 1084C1161.96 1082.79 1161.91 1081.58 1161.86 1080.33C1161.55 1071.73 1161.23 1063.13 1160.92 1054.53C1160.85 1052.56 1160.78 1050.59 1160.71 1048.62C1160.66 1047.24 1160.61 1045.86 1160.56 1044.48C1160.27 1036.23 1159.96 1027.98 1159.64 1019.73C1157.73 970.318 1156.53 920.926 1155.76 871.487C1155.66 865.346 1155.57 859.206 1155.47 853.066C1155.44 851.283 1155.44 851.283 1155.41 849.465C1155.08 829.054 1154.59 808.652 1153.94 788.25C1153.9 787.237 1153.9 787.237 1153.87 786.205C1153.83 784.856 1153.78 783.507 1153.74 782.158C1153.23 766.34 1152.84 750.528 1152.61 734.702C1152.23 708.444 1151.38 682.212 1150.46 655.968C1149.45 626.981 1148.62 597.998 1148 569C1147.34 538.388 1146.47 507.789 1145.44 477.187C1145.41 476.23 1145.37 475.272 1145.34 474.285C1145.12 467.892 1144.9 461.499 1144.68 455.105C1144.66 454.31 1144.63 453.514 1144.6 452.694C1144.52 450.374 1144.44 448.055 1144.36 445.735C1144.32 444.582 1144.32 444.582 1144.28 443.407C1144.12 439.017 1143.94 434.629 1143.76 430.24C1143.14 415.713 1142.75 401.192 1142.49 386.654C1142.37 379.927 1142.23 373.201 1142.1 366.475C1142.08 365.424 1142.08 365.424 1142.06 364.352C1141.01 312.03 1139.37 259.863 1135.79 207.641C1133.89 179.996 1133.71 152.385 1133.47 124.684C1133.42 118.657 1133.37 112.63 1133.31 106.603C1133.28 103.83 1133.26 101.057 1133.24 98.2845C1133.17 89.7727 1133 81.2702 1132.61 72.7665C1132.58 72.0154 1132.55 71.2644 1132.52 70.4907C1132.04 61.1878 1130.57 51.1355 1123.38 44.6249C1092.1 29.5647 1035.42 44.5353 1003 50.9999ZM1187 65.9999C1176.61 78.1906 1170.63 94.2477 1170.82 110.254C1170.82 111.062 1170.83 111.869 1170.83 112.702C1170.97 124.75 1171.67 136.783 1172.31 148.812C1172.45 151.405 1172.58 153.998 1172.72 156.591C1173.93 179.741 1175.4 202.873 1177 226C1178.89 223.158 1179.3 222.231 1179.7 219.036C1179.8 218.238 1179.91 217.439 1180.01 216.616C1180.12 215.749 1180.22 214.882 1180.33 213.988C1180.45 213.08 1180.57 212.172 1180.69 211.237C1180.94 209.282 1181.18 207.326 1181.43 205.37C1182.07 200.223 1182.75 195.081 1183.43 189.937C1183.56 188.911 1183.69 187.884 1183.83 186.826C1186.22 168.616 1188.81 150.436 1192.81 132.5C1193.05 131.445 1193.28 130.389 1193.52 129.302C1194.79 123.931 1196.34 118.983 1198.58 113.933C1203.87 101.842 1203.87 101.842 1202.01 89.1171C1198.3 80.6391 1194.09 72.1316 1187 65.9999ZM1069.2 772.523C1061.32 774.707 1053.95 777.614 1046.44 780.812C1003.95 798.841 956.789 809.643 911.595 795.538C907.329 794.16 907.329 794.16 903 795C903.69 796.053 904.379 797.106 905.09 798.191C938.032 848.676 965.003 902.785 989 958C989.557 959.28 990.114 960.56 990.671 961.84C993.056 967.32 995.435 972.804 997.802 978.292C998.067 978.907 998.332 979.522 998.605 980.156C998.873 980.777 999.141 981.398 999.417 982.038C1001.26 986.313 1003.13 990.579 1005.01 994.841C1032.99 1058.46 1032.99 1058.46 1034.66 1092.22C1035.01 1095.06 1035.37 1096.67 1037 1099C1039.15 1100.58 1039.15 1100.58 1041.75 1102C1048.56 1106.15 1054.36 1111.24 1060.3 1116.51C1062.09 1118.08 1063.9 1119.61 1065.71 1121.15C1078.43 1132.04 1087.35 1147.29 1095 1162C1095.34 1162.65 1095.67 1163.29 1096.02 1163.96C1110.59 1192.37 1125.19 1230.02 1115 1262C1109.57 1275.7 1101.31 1286.34 1088 1293C1089.71 1298.87 1092.44 1304.16 1095.12 1309.62C1107.69 1335.55 1119.33 1361.84 1129 1389C1129.59 1390.64 1129.59 1390.64 1130.19 1392.32C1134.77 1405.21 1138.77 1418.25 1142.28 1431.47C1142.47 1432.19 1142.66 1432.92 1142.86 1433.66C1147.41 1450.88 1150.95 1468.27 1154.42 1485.73C1155.87 1492.97 1157.34 1500.2 1158.8 1507.43C1159.18 1509.31 1159.56 1511.19 1159.94 1513.06C1164.13 1533.79 1168.51 1554.47 1172.92 1575.15C1182.9 1622.01 1182.9 1622.01 1187.44 1644.56C1187.61 1645.41 1187.78 1646.26 1187.96 1647.13C1195.34 1683.57 1201.77 1723.21 1182 1757C1175.38 1766.84 1166.27 1774.71 1157 1782C1167.49 1788.68 1178.11 1795 1189 1801C1200.4 1789.97 1199.3 1773.29 1200.06 1758.31C1200.15 1756.72 1200.23 1755.12 1200.32 1753.53C1200.89 1742.58 1201.23 1731.63 1201.49 1720.67C1201.8 1707.16 1202.53 1693.69 1203.29 1680.21C1204.42 1660.38 1205.3 1640.59 1205.66 1620.74C1205.93 1605.78 1206.44 1590.83 1207 1575.87C1207.63 1558.79 1208.22 1541.71 1208.62 1524.62C1208.65 1523.79 1208.67 1522.96 1208.69 1522.1C1210.88 1431.63 1207.52 1339.42 1196.86 1242.96C1195.33 1229.12 1193.86 1215.28 1192.43 1201.43C1192.26 1199.83 1192.26 1199.83 1192.09 1198.2C1191.42 1191.74 1190.75 1185.28 1190.08 1178.81C1189.54 1173.62 1189 1168.43 1188.46 1163.25C1188.31 1161.75 1188.31 1161.75 1188.15 1160.23C1187.65 1155.4 1187.15 1150.56 1186.64 1145.72C1186.45 1143.89 1186.26 1142.06 1186.06 1140.23C1185.97 1139.35 1185.88 1138.48 1185.79 1137.57C1185.29 1132.78 1184.79 1127.98 1184.32 1123.19C1184.12 1121.15 1183.91 1119.12 1183.7 1117.08C1183.46 1114.72 1183.23 1112.35 1183 1109.98C1182.9 1108.97 1182.79 1107.96 1182.68 1106.91C1182.6 1106.05 1182.51 1105.19 1182.43 1104.3C1181.98 1101.9 1181.2 1100.12 1180 1098C1179.77 1099.02 1179.54 1100.05 1179.3 1101.11C1178.97 1102.47 1178.64 1103.83 1178.31 1105.19C1178.16 1105.86 1178.01 1106.53 1177.86 1107.23C1176.66 1112.06 1175.02 1114.81 1171 1118C1167.44 1118.56 1167.44 1118.56 1164 1118C1160.01 1114.95 1158.82 1111.34 1157.52 1106.66C1157.31 1105.92 1157.09 1105.19 1156.87 1104.43C1156.17 1101.98 1155.49 1099.52 1154.81 1097.06C1154.57 1096.2 1154.33 1095.34 1154.09 1094.46C1144.89 1061.23 1139.41 1027.15 1133.53 993.222C1130.75 977.193 1127.87 961.198 1124.65 945.251C1124.01 942.062 1123.39 938.869 1122.76 935.676C1113.28 887.897 1101.82 840.275 1087.56 793.687C1087.27 792.703 1087.27 792.703 1086.96 791.698C1084.04 781.036 1084.04 781.036 1078 772C1074.7 771.343 1072.47 771.912 1069.2 772.523ZM1199 938C1200 941 1200 941 1200 941L1199 938ZM1200 957C1201 960 1201 960 1201 960L1200 957ZM1201 973C1202 975 1202 975 1202 975L1201 973ZM1415 1612C1415.16 1618.37 1418.62 1621.79 1423 1626C1427.03 1629.62 1427.03 1629.62 1432 1631C1430.48 1626.24 1427.82 1622.99 1424.62 1619.25C1424.14 1618.66 1423.66 1618.07 1423.16 1617.46C1420.58 1614.41 1418.95 1612.71 1415 1612ZM1226 1749C1225.9 1749.98 1225.8 1750.95 1225.7 1751.96C1225.31 1755.67 1224.91 1759.37 1224.51 1763.07C1224.34 1764.66 1224.17 1766.25 1224.01 1767.84C1222.36 1783.89 1219.44 1798.51 1212 1813C1215.36 1814.68 1219.17 1814.39 1222.88 1814.56C1223.73 1814.6 1224.58 1814.65 1225.46 1814.69C1231.97 1815 1238.48 1815.12 1245 1815C1243.48 1811.76 1241.62 1808.9 1239.62 1805.94C1228.89 1789.03 1228.44 1768.45 1227 1749C1226.67 1749 1226.34 1749 1226 1749ZM1024 1780.87C1022.92 1780.93 1022.92 1780.93 1021.81 1780.99C1013.1 1781.48 1004.57 1782.35 996 1784C996 1784.33 996 1784.66 996 1785C1005.16 1786.06 1014.29 1786.2 1023.5 1786.19C1024.28 1786.19 1025.06 1786.19 1025.86 1786.19C1039.82 1786.17 1053.75 1785.74 1067.69 1785.12C1068.64 1785.09 1069.6 1785.05 1070.58 1785.01C1073.29 1784.89 1075.99 1784.77 1078.7 1784.63C1079.51 1784.6 1080.32 1784.57 1081.16 1784.53C1085.55 1784.44 1085.55 1784.44 1089 1782C1080.25 1779.67 1071.55 1779.69 1062.56 1779.75C1061.4 1779.75 1061.4 1779.75 1060.21 1779.76C1048.13 1779.8 1036.07 1780.2 1024 1780.87ZM1111.75 1797.87C1102.21 1799.89 1092.7 1801.11 1083 1802C1083 1802.33 1083 1802.66 1083 1803C1091.78 1804.05 1100.56 1805.09 1109.34 1806.13C1113.42 1806.61 1117.49 1807.1 1121.57 1807.58C1125.51 1808.05 1129.44 1808.52 1133.38 1808.98C1134.88 1809.16 1136.38 1809.34 1137.88 1809.52C1139.98 1809.77 1142.09 1810.02 1144.19 1810.27C1145.39 1810.41 1146.58 1810.55 1147.82 1810.7C1150.57 1810.96 1153.23 1811.06 1156 1811C1152.41 1808.04 1148.47 1806.1 1144.31 1804.06C1143.6 1803.71 1142.88 1803.36 1142.15 1803C1140.73 1802.3 1139.32 1801.61 1137.91 1800.93C1136.32 1800.16 1134.74 1799.37 1133.16 1798.59C1132.41 1798.23 1131.65 1797.87 1130.88 1797.5C1130.25 1797.2 1129.63 1796.9 1128.99 1796.59C1123.23 1794.88 1117.44 1796.63 1111.75 1797.87ZM926 1804C935.614 1813.28 949.573 1813.14 962.102 1812.98C964.61 1812.92 967.118 1812.84 969.625 1812.75C970.615 1812.72 970.615 1812.72 971.624 1812.68C987.089 1812.16 1002.83 1811.18 1018 1808C1018 1807.67 1018 1807.34 1018 1807C1017.13 1806.95 1016.26 1806.91 1015.36 1806.86C974.392 1804.69 974.392 1804.69 955.785 1798.77C945.983 1796.06 933.895 1797.72 926 1804ZM1004 1968C1008.38 1969.46 1011.78 1967.59 1015.96 1966.09C1029.97 1961.36 1044.92 1960.38 1059.56 1959.31C1061.27 1959.18 1062.97 1959.05 1064.68 1958.92C1068.78 1958.6 1072.89 1958.3 1077 1958C1077 1957.67 1077 1957.34 1077 1957C1052.48 1956.54 1026.23 1956.29 1004 1968ZM1057.12 1981.87C1056.03 1982 1056.03 1982 1054.91 1982.13C1016.66 1986.29 1016.66 1986.29 986 2008C983.39 2011.65 983.39 2011.65 983 2016C996.241 2016.02 1009.48 2016.04 1022.72 2016.05C1028.88 2016.06 1035.03 2016.06 1041.18 2016.08C1047.14 2016.09 1053.1 2016.09 1059.05 2016.09C1061.3 2016.1 1063.55 2016.1 1065.81 2016.11C1079.89 2016.14 1093.94 2015.86 1108.01 2015.25C1116.14 2014.9 1124.28 2014.68 1132.41 2014.51C1135.46 2014.44 1138.5 2014.38 1141.55 2014.3C1180.34 2013.28 1219.14 2015.47 1257.88 2017.42C1263.1 2017.68 1268.33 2017.94 1273.56 2018.19C1303.1 2019.61 1332.6 2021.21 1362.07 2023.74C1372.63 2024.63 1383.17 2025.22 1393.76 2025.36C1394.83 2025.39 1395.9 2025.42 1396.99 2025.44C1402.67 2025.55 1402.67 2025.55 1407.67 2023.2C1410.72 2018.14 1408.98 2012.26 1407.81 2006.81C1406.46 2001.89 1405.39 1998.93 1401 1996C1393.97 1992.98 1386.92 1991.12 1379.38 1989.94C1378.34 1989.77 1377.3 1989.61 1376.24 1989.44C1326.65 1981.91 1275.52 1980.65 1225.46 1979.11C1222.99 1979.03 1220.52 1978.95 1218.04 1978.87C1196.58 1978.18 1175.13 1977.81 1153.65 1977.81C1150.55 1977.81 1147.45 1977.81 1144.35 1977.79C1115.23 1977.67 1086.07 1978.4 1057.12 1981.87ZM974 2048C972.869 2054.1 972.816 2060 972.812 2066.19C972.8 2067.28 972.788 2068.37 972.775 2069.5C972.773 2070.54 972.772 2071.59 972.77 2072.67C972.765 2073.62 972.761 2074.57 972.757 2075.55C972.832 2078.26 972.832 2078.26 975 2081C975.887 2080.03 976.774 2079.06 977.688 2078.06C992.186 2063.62 1012.09 2056.21 1032 2053C1032 2052.67 1032 2052.34 1032 2052C1030.88 2051.95 1029.77 2051.9 1028.61 2051.85C1024.38 2051.66 1020.14 2051.46 1015.9 2051.26C1014.08 2051.17 1012.26 2051.09 1010.45 2051.01C998.228 2050.46 986.139 2049.51 974 2048ZM1352 2061C1355.04 2064.04 1357.97 2066.65 1361.31 2069.31C1365.83 2072.97 1370.02 2076.77 1374 2081C1376.16 2080.21 1376.16 2080.21 1376.59 2078.23C1376.75 2077.49 1376.91 2076.74 1377.07 2075.96C1377.23 2075.24 1377.39 2074.51 1377.55 2073.76C1377.74 2072.83 1377.93 2071.9 1378.12 2070.94C1378.74 2067.99 1379.36 2065.04 1380 2062C1366.14 2061.5 1366.14 2061.5 1352 2061ZM1168.81 2081.94C1154.96 2082.86 1141.09 2083.58 1127.22 2084.27C1125.06 2084.38 1122.89 2084.49 1120.72 2084.6C1112.13 2085.03 1103.54 2085.45 1094.95 2085.86C1044.49 2085.74 1044.49 2085.74 1001 2107C1001.33 2107.99 1001.66 2108.98 1002 2110C1004.53 2111.13 1006.93 2112.04 1009.56 2112.87C1010.37 2113.13 1011.17 2113.39 1012 2113.66C1027.32 2118.41 1042.98 2121.03 1058.89 2122.92C1059.59 2123 1060.29 2123.09 1061.01 2123.17C1078.38 2125.25 1095.79 2126.87 1113.22 2128.46C1116.55 2128.77 1119.89 2129.08 1123.22 2129.39C1127.28 2129.76 1131.33 2130.14 1135.39 2130.51C1136.13 2130.58 1136.87 2130.65 1137.64 2130.72C1142.42 2131.16 1147.21 2131.59 1152 2132C1153.14 2132.1 1154.29 2132.21 1155.47 2132.32C1164.51 2133.07 1173.48 2133.08 1182.53 2132.98C1187.21 2132.94 1191.88 2132.91 1196.55 2132.88C1197.53 2132.88 1198.5 2132.87 1199.51 2132.87C1232 2132.66 1264.15 2132.79 1296.51 2135.95C1320.47 2138.28 1344.61 2132.97 1364 2118C1344.87 2095.13 1321.94 2082.49 1292.39 2079.29C1281.49 2078.36 1270.51 2078.5 1259.58 2078.55C1257.33 2078.56 1255.08 2078.57 1252.83 2078.57C1224.74 2078.63 1196.82 2080.06 1168.81 2081.94ZM987 2133C983.918 2139.95 981.233 2146.98 978.812 2154.19C978.563 2154.92 978.313 2155.66 978.056 2156.42C975.624 2163.77 973.716 2170.95 973.688 2178.75C973.671 2179.82 973.654 2180.88 973.637 2181.98C974.054 2185.44 974.892 2187.24 977 2190C990.208 2200.3 1012.19 2199.96 1028 2201C1028.46 2200.15 1028.92 2199.3 1029.4 2198.43C1039.59 2179.98 1052.85 2158.97 1072 2149C1072 2148.67 1072 2148.34 1072 2148C1070.83 2147.89 1070.83 2147.89 1069.63 2147.79C1041.54 2145.24 1014.04 2141.34 987 2133ZM1073.97 2183.66C1071.2 2186.95 1068.62 2190.36 1066.06 2193.81C1065.57 2194.48 1065.07 2195.15 1064.56 2195.85C1061.92 2199.09 1061.92 2199.09 1061 2203C1061.82 2203.06 1062.64 2203.11 1063.49 2203.17C1101.82 2205.87 1140.11 2208.76 1178.31 2212.87C1179.09 2212.96 1179.86 2213.04 1180.65 2213.13C1190.06 2214.14 1199.45 2215.17 1208.85 2216.21C1217.81 2217.2 1226.78 2218.18 1235.74 2219.15C1236.55 2219.24 1237.36 2219.32 1238.2 2219.42C1243.84 2220.03 1249.48 2220.64 1255.12 2221.25C1255.91 2221.33 1256.69 2221.42 1257.49 2221.51C1284.61 2224.46 1284.61 2224.46 1311.74 2227.24C1313.4 2227.41 1315.05 2227.58 1316.71 2227.75C1328.83 2229 1340.82 2229.16 1353 2229C1353.64 2227.75 1354.27 2226.49 1354.91 2225.24C1355.26 2224.54 1355.62 2223.84 1355.98 2223.13C1357.5 2219.94 1358.59 2216.73 1359.69 2213.37C1360.1 2212.12 1360.52 2210.87 1360.95 2209.59C1363.65 2200.38 1362.27 2194.12 1357.75 2185.66C1349.81 2173.9 1335.34 2170.96 1322.26 2168.4C1321.35 2168.23 1320.44 2168.05 1319.5 2167.87C1318.68 2167.72 1317.86 2167.56 1317.01 2167.39C1297.11 2163.84 1276.71 2163.28 1256.56 2162.37C1255.85 2162.34 1255.14 2162.31 1254.41 2162.28C1231.27 2161.23 1208.14 2160.68 1184.97 2160.63C1182.79 2160.62 1180.61 2160.61 1178.43 2160.6C1122.05 2159.11 1122.05 2159.11 1073.97 2183.66ZM1044 2238C1039.99 2253.95 1039.99 2253.95 1042.19 2270.12C1045.67 2275.65 1049.11 2278.39 1055.13 2280.62C1057.21 2281.21 1057.21 2281.21 1060 2280C1059.75 2279.23 1059.75 2279.23 1059.5 2278.44C1057.99 2271.08 1059.52 2265.45 1063.08 2259.07C1068.1 2251.54 1076.21 2245.85 1083.9 2241.27C1084.59 2240.85 1085.29 2240.43 1086 2240C1086 2239.67 1086 2239.34 1086 2239C1072.14 2238.67 1058.28 2238.34 1044 2238ZM1082.72 2267.79C1080.77 2270.3 1080.15 2271.83 1080 2275C1081.64 2277.36 1082.95 2279.06 1085 2281C1085.65 2281.68 1086.31 2282.35 1086.98 2283.05C1091.27 2285.82 1094.92 2285.67 1099.93 2285.74C1100.94 2285.77 1101.94 2285.79 1102.98 2285.82C1106.32 2285.91 1109.66 2285.96 1113 2286C1114.14 2286.02 1115.28 2286.03 1116.45 2286.05C1124.66 2286.15 1132.86 2286.19 1141.06 2286.2C1143.16 2286.2 1145.26 2286.21 1147.36 2286.21C1153.99 2286.23 1160.61 2286.23 1167.24 2286.24C1174.79 2286.24 1182.34 2286.26 1189.89 2286.29C1195.8 2286.31 1201.71 2286.32 1207.62 2286.32C1211.12 2286.32 1214.62 2286.33 1218.12 2286.35C1255.34 2287.36 1255.34 2287.36 1288.81 2273.33C1290.22 2272.05 1290.22 2272.05 1290 2270C1263.87 2256.17 1228.21 2250.56 1199 2248C1197.96 2247.91 1196.92 2247.82 1195.85 2247.72C1186.65 2246.99 1177.47 2246.76 1168.25 2246.75C1167.11 2246.75 1167.11 2246.75 1165.95 2246.75C1138.32 2246.77 1104.19 2247.94 1082.72 2267.79ZM1325 2257C1325.66 2259.31 1326.32 2261.62 1327 2264C1330.8 2262.51 1332.61 2260.24 1335 2257C1331.7 2257 1328.4 2257 1325 2257Z" fill="#1B1817"/>
</svg>
