<svg width="44" height="44" viewBox="0 0 44 44" fill="none" xmlns="http://www.w3.org/2000/svg">
<mask id="path-1-inside-1_1395_872" fill="white">
<path d="M42.426 7.22121C42.1853 6.60136 41.6634 6.15171 41.0299 6.01836C40.3825 5.88167 39.7061 6.09043 39.2207 6.57591L34.6944 11.1021L32.4842 8.89198L37.2982 4.078C37.7994 3.57684 38.0145 2.87891 37.8739 2.21099C37.7365 1.55797 37.2726 1.01996 36.6333 0.771695C32.4321 -0.860331 27.6585 0.144303 24.4721 3.33063C22.7944 5.00833 21.699 7.12669 21.3034 9.45801C21.2188 9.85453 21.1368 10.2756 21.0502 10.721C20.5441 13.3226 19.9142 16.5605 18.0673 18.4072L1.53137 34.9432C-0.510458 36.985 -0.510458 40.3075 1.53137 42.3495C2.55238 43.3704 3.89346 43.8808 5.23454 43.8808C6.57554 43.8808 7.9167 43.3704 8.93762 42.3495L25.4735 25.8135C27.3204 23.9666 30.5581 23.3368 33.1597 22.8306C33.6052 22.744 34.0262 22.662 34.4228 22.5775C36.7541 22.1818 38.8725 21.0864 40.5502 19.4087C41.0452 18.9136 41.1885 18.2417 40.9835 17.6443C43.23 14.6683 43.7892 10.731 42.426 7.22121ZM40.4326 7.78776C40.5081 7.71235 40.5972 7.67858 40.6769 7.69555C40.7454 7.70995 40.7963 7.75914 40.8285 7.84166C41.9241 10.6627 41.5454 13.812 39.8626 16.2704L35.9063 12.3141L40.4326 7.78776ZM39.3382 18.1969C37.9096 19.6254 36.1051 20.5568 34.1198 20.8905C34.1073 20.8926 34.0949 20.895 34.0825 20.8976C33.6962 20.9802 33.2766 21.0618 32.8323 21.1483C30.0017 21.699 26.4786 22.3843 24.2614 24.6016L7.72568 41.1374C6.35221 42.5111 4.11713 42.511 2.7434 41.1373C1.36983 39.7638 1.36983 37.5288 2.7434 36.1551L19.2794 19.6192C21.4966 17.402 22.1819 13.8791 22.7326 11.0483C22.8191 10.604 22.9007 10.1845 22.9833 9.79814C22.9859 9.78572 22.9883 9.77338 22.9905 9.76078C23.3239 7.77568 24.2554 5.97114 25.6841 4.54248C27.5292 2.69732 30.0005 1.71386 32.5177 1.71386C33.6923 1.71386 34.8774 1.92818 36.0128 2.36918C36.1161 2.40929 36.178 2.47476 36.1968 2.5638C36.2179 2.66433 36.1776 2.77445 36.0863 2.86572L30.6663 8.28566C30.3317 8.62031 30.3317 9.16295 30.6663 9.49769L39.3429 18.1742C39.346 18.1772 39.3486 18.1801 39.3509 18.1827C39.3476 18.1871 39.3434 18.1916 39.3382 18.1969Z"/>
</mask>
<path d="M42.426 7.22121C42.1853 6.60136 41.6634 6.15171 41.0299 6.01836C40.3825 5.88167 39.7061 6.09043 39.2207 6.57591L34.6944 11.1021L32.4842 8.89198L37.2982 4.078C37.7994 3.57684 38.0145 2.87891 37.8739 2.21099C37.7365 1.55797 37.2726 1.01996 36.6333 0.771695C32.4321 -0.860331 27.6585 0.144303 24.4721 3.33063C22.7944 5.00833 21.699 7.12669 21.3034 9.45801C21.2188 9.85453 21.1368 10.2756 21.0502 10.721C20.5441 13.3226 19.9142 16.5605 18.0673 18.4072L1.53137 34.9432C-0.510458 36.985 -0.510458 40.3075 1.53137 42.3495C2.55238 43.3704 3.89346 43.8808 5.23454 43.8808C6.57554 43.8808 7.9167 43.3704 8.93762 42.3495L25.4735 25.8135C27.3204 23.9666 30.5581 23.3368 33.1597 22.8306C33.6052 22.744 34.0262 22.662 34.4228 22.5775C36.7541 22.1818 38.8725 21.0864 40.5502 19.4087C41.0452 18.9136 41.1885 18.2417 40.9835 17.6443C43.23 14.6683 43.7892 10.731 42.426 7.22121ZM40.4326 7.78776C40.5081 7.71235 40.5972 7.67858 40.6769 7.69555C40.7454 7.70995 40.7963 7.75914 40.8285 7.84166C41.9241 10.6627 41.5454 13.812 39.8626 16.2704L35.9063 12.3141L40.4326 7.78776ZM39.3382 18.1969C37.9096 19.6254 36.1051 20.5568 34.1198 20.8905C34.1073 20.8926 34.0949 20.895 34.0825 20.8976C33.6962 20.9802 33.2766 21.0618 32.8323 21.1483C30.0017 21.699 26.4786 22.3843 24.2614 24.6016L7.72568 41.1374C6.35221 42.5111 4.11713 42.511 2.7434 41.1373C1.36983 39.7638 1.36983 37.5288 2.7434 36.1551L19.2794 19.6192C21.4966 17.402 22.1819 13.8791 22.7326 11.0483C22.8191 10.604 22.9007 10.1845 22.9833 9.79814C22.9859 9.78572 22.9883 9.77338 22.9905 9.76078C23.3239 7.77568 24.2554 5.97114 25.6841 4.54248C27.5292 2.69732 30.0005 1.71386 32.5177 1.71386C33.6923 1.71386 34.8774 1.92818 36.0128 2.36918C36.1161 2.40929 36.178 2.47476 36.1968 2.5638C36.2179 2.66433 36.1776 2.77445 36.0863 2.86572L30.6663 8.28566C30.3317 8.62031 30.3317 9.16295 30.6663 9.49769L39.3429 18.1742C39.346 18.1772 39.3486 18.1801 39.3509 18.1827C39.3476 18.1871 39.3434 18.1916 39.3382 18.1969Z" fill="#DB322B"/>
<path d="M42.426 7.22121L40.5617 7.94525L40.5617 7.9453L42.426 7.22121ZM41.0299 6.01836L40.6168 7.97523L40.618 7.97547L41.0299 6.01836ZM39.2207 6.57591L40.6349 7.99014L40.635 7.99L39.2207 6.57591ZM34.6944 11.1021L33.2802 12.5163L34.6944 13.9305L36.1086 12.5163L34.6944 11.1021ZM32.4842 8.89198L31.07 7.47776L29.6558 8.89197L31.07 10.3062L32.4842 8.89198ZM37.2982 4.078L35.884 2.66378L35.884 2.66378L37.2982 4.078ZM37.8739 2.21099L39.8311 1.79917L39.8311 1.79902L37.8739 2.21099ZM36.6333 0.771695L35.9091 2.63597L35.9093 2.63605L36.6333 0.771695ZM24.4721 3.33063L23.0579 1.91639L23.0579 1.91641L24.4721 3.33063ZM21.3034 9.45801L23.2594 9.87525L23.2681 9.83412L23.2752 9.79266L21.3034 9.45801ZM21.0502 10.721L23.0134 11.1029L23.0134 11.1029L21.0502 10.721ZM18.0673 18.4072L16.6532 16.9929L16.6531 16.9929L18.0673 18.4072ZM1.53137 34.9432L2.94559 36.3574L2.94559 36.3574L1.53137 34.9432ZM1.53137 42.3495L0.11713 43.7636L0.11722 43.7637L1.53137 42.3495ZM8.93762 42.3495L10.3518 43.7637L10.3518 43.7637L8.93762 42.3495ZM25.4735 25.8135L24.0593 24.3993L24.0593 24.3993L25.4735 25.8135ZM33.1597 22.8306L32.7779 20.8674L32.7777 20.8674L33.1597 22.8306ZM34.4228 22.5775L34.0882 20.6057L34.0467 20.6127L34.0057 20.6214L34.4228 22.5775ZM40.5502 19.4087L41.9644 20.8229L41.9645 20.8228L40.5502 19.4087ZM40.9835 17.6443L39.3872 16.4393L38.7467 17.2878L39.0917 18.2934L40.9835 17.6443ZM40.4326 7.78776L39.0192 6.37274L39.0184 6.37355L40.4326 7.78776ZM40.6769 7.69555L40.2609 9.6518L40.2654 9.65275L40.6769 7.69555ZM40.8285 7.84166L42.6928 7.1176L42.6921 7.11593L40.8285 7.84166ZM39.8626 16.2704L38.4484 17.6846L40.1521 19.3883L41.513 17.4001L39.8626 16.2704ZM35.9063 12.3141L34.4921 10.8998L33.0779 12.3141L34.4921 13.7283L35.9063 12.3141ZM39.3382 18.1969L40.7524 19.6111L39.3382 18.1969ZM34.1198 20.8905L34.4442 22.864L34.4513 22.8628L34.1198 20.8905ZM34.0825 20.8976L33.6644 18.9418L33.6643 18.9418L34.0825 20.8976ZM32.8323 21.1483L33.2143 23.1115L33.2145 23.1114L32.8323 21.1483ZM24.2614 24.6016L22.8472 23.1873L22.8472 23.1873L24.2614 24.6016ZM7.72568 41.1374L6.31146 39.7232L6.31138 39.7233L7.72568 41.1374ZM2.7434 41.1373L1.32918 42.5516L1.32923 42.5516L2.7434 41.1373ZM2.7434 36.1551L1.32918 34.7409L1.32914 34.741L2.7434 36.1551ZM19.2794 19.6192L17.8652 18.2049L17.8651 18.205L19.2794 19.6192ZM22.7326 11.0483L20.7695 10.6662L20.7694 10.6664L22.7326 11.0483ZM22.9833 9.79814L24.9391 10.2164L24.9391 10.2163L22.9833 9.79814ZM22.9905 9.76078L24.9622 10.0961L24.9629 10.0921L22.9905 9.76078ZM25.6841 4.54248L27.0983 5.95673L27.0984 5.95666L25.6841 4.54248ZM36.0128 2.36918L35.2887 4.2335L35.2888 4.23351L36.0128 2.36918ZM36.1968 2.5638L38.1538 2.1517L38.1538 2.15131L36.1968 2.5638ZM36.0863 2.86572L34.6727 1.45084L34.6721 1.4515L36.0863 2.86572ZM30.6663 8.28566L32.0806 9.69988L32.0806 9.69988L30.6663 8.28566ZM30.6663 9.49769L29.2519 10.9117L29.2521 10.9119L30.6663 9.49769ZM39.3429 18.1742L37.9287 19.5884L37.9386 19.5984L37.9487 19.6082L39.3429 18.1742ZM39.3509 18.1827L40.9397 19.3976L41.9316 18.1005L40.8591 16.8692L39.3509 18.1827ZM44.2904 6.49718C43.813 5.26797 42.7582 4.33832 41.4419 4.06125L40.618 7.97547C40.5972 7.9711 40.5802 7.96151 40.5698 7.95254C40.5597 7.9438 40.5592 7.9389 40.5617 7.94525L44.2904 6.49718ZM41.4431 4.0615C40.1035 3.77869 38.7476 4.22044 37.8063 5.16182L40.635 7.99C40.6501 7.97495 40.6582 7.97368 40.6538 7.97506C40.6517 7.97569 40.6471 7.97681 40.6402 7.97715C40.633 7.9775 40.6249 7.97694 40.6168 7.97523L41.4431 4.0615ZM37.8065 5.16168L33.2802 9.68789L36.1086 12.5163L40.6349 7.99014L37.8065 5.16168ZM36.1086 9.68791L33.8985 7.47776L31.07 10.3062L33.2802 12.5163L36.1086 9.68791ZM33.8985 10.3062L38.7124 5.49221L35.884 2.66378L31.07 7.47776L33.8985 10.3062ZM38.7124 5.49221C39.6697 4.53499 40.117 3.15802 39.8311 1.79917L35.9168 2.62281C35.9153 2.61558 35.9171 2.61263 35.9155 2.61776C35.9138 2.62336 35.9069 2.64088 35.884 2.66378L38.7124 5.49221ZM39.8311 1.79902C39.5497 0.462446 38.6052 -0.608041 37.3573 -1.09266L35.9093 2.63605C35.9178 2.63935 35.9228 2.64244 35.9251 2.64411C35.9276 2.64584 35.9279 2.64652 35.927 2.64542C35.926 2.64431 35.924 2.64168 35.9218 2.63734C35.9196 2.63286 35.9179 2.62781 35.9168 2.62296L39.8311 1.79902ZM37.3575 -1.09258C32.4173 -3.01165 26.805 -1.83058 23.0579 1.91639L25.8863 4.74486C28.5121 2.11918 32.4468 1.29099 35.9091 2.63597L37.3575 -1.09258ZM23.0579 1.91641C21.0879 3.88644 19.7969 6.38168 19.3316 9.12336L23.2752 9.79266C23.6012 7.8717 24.501 6.13022 25.8863 4.74484L23.0579 1.91641ZM19.3474 9.04077C19.2583 9.45817 19.1729 9.89766 19.087 10.3391L23.0134 11.1029C23.1008 10.6536 23.1792 10.2509 23.2594 9.87525L19.3474 9.04077ZM19.087 10.3391C18.8299 11.6607 18.5676 12.9948 18.1627 14.2192C17.7547 15.453 17.2594 16.3867 16.6532 16.9929L19.4815 19.8214C20.7221 18.5809 21.4652 16.9724 21.9604 15.4752C22.4586 13.9686 22.7644 12.383 23.0134 11.1029L19.087 10.3391ZM16.6531 16.9929L0.117157 33.529L2.94559 36.3574L19.4815 19.8214L16.6531 16.9929ZM0.11716 33.529C-2.70574 36.3519 -2.70569 40.9407 0.11713 43.7636L2.94562 40.9353C1.68478 39.6744 1.68482 37.6182 2.94559 36.3574L0.11716 33.529ZM0.11722 43.7637C1.5296 45.176 3.38657 45.8808 5.23454 45.8808V41.8808C4.40035 41.8808 3.57515 41.5648 2.94553 40.9352L0.11722 43.7637ZM5.23454 45.8808C7.08239 45.8808 8.9395 45.176 10.3518 43.7637L7.52341 40.9352C6.89391 41.5647 6.06868 41.8808 5.23454 41.8808V45.8808ZM10.3518 43.7637L26.8877 27.2277L24.0593 24.3993L7.5234 40.9352L10.3518 43.7637ZM26.8877 27.2277C27.494 26.6214 28.4278 26.1262 29.6615 25.7182C30.886 25.3132 32.2201 25.051 33.5417 24.7938L32.7777 20.8674C31.4977 21.1165 29.9121 21.4222 28.4056 21.9205C26.9084 22.4156 25.2999 23.1587 24.0593 24.3993L26.8877 27.2277ZM33.5416 24.7938C33.9832 24.7079 34.4225 24.6225 34.84 24.5335L34.0057 20.6214C33.6299 20.7016 33.2271 20.78 32.7779 20.8674L33.5416 24.7938ZM34.7575 24.5493C37.4991 24.084 39.9944 22.7929 41.9644 20.8229L39.136 17.9945C37.7506 19.3799 36.0091 20.2796 34.0882 20.6057L34.7575 24.5493ZM41.9645 20.8228C42.9884 19.7987 43.3332 18.3298 42.8752 16.9952L39.0917 18.2934C39.072 18.2357 39.0679 18.1684 39.0831 18.1043C39.0987 18.0384 39.1279 18.0025 39.1359 17.9946L41.9645 20.8228ZM42.5797 18.8493C45.2431 15.3212 45.9049 10.6542 44.2903 6.49713L40.5617 7.9453C41.6735 10.8079 41.217 14.0155 39.3872 16.4393L42.5797 18.8493ZM41.846 9.20278C41.6113 9.43725 41.0468 9.81894 40.2609 9.6518L41.093 5.7393C40.1475 5.53823 39.4049 5.98744 39.0192 6.37275L41.846 9.20278ZM40.2654 9.65275C39.928 9.5818 39.6201 9.4163 39.3776 9.18232C39.1486 8.96133 39.0274 8.7283 38.9648 8.5674L42.6921 7.11593C42.4897 6.59601 41.9969 5.92935 41.0885 5.73835L40.2654 9.65275ZM38.9641 8.56573C39.82 10.7695 39.5233 13.2253 38.2122 15.1407L41.513 17.4001C43.5675 14.3987 44.0282 10.556 42.6928 7.1176L38.9641 8.56573ZM41.2769 14.8562L37.3205 10.8998L34.4921 13.7283L38.4484 17.6846L41.2769 14.8562ZM37.3205 13.7283L41.8468 9.20197L39.0184 6.37355L34.4921 10.8998L37.3205 13.7283ZM37.924 16.7826C36.7884 17.9182 35.3619 18.6537 33.7883 18.9182L34.4513 22.8628C36.8482 22.4599 39.0308 21.3327 40.7524 19.6111L37.924 16.7826ZM33.7954 18.917C33.745 18.9253 33.7007 18.934 33.6644 18.9418L34.5006 22.8534C34.4891 22.8559 34.4695 22.8599 34.4442 22.864L33.7954 18.917ZM33.6643 18.9418C33.2995 19.0198 32.8992 19.0977 32.4502 19.1851L33.2145 23.1114C33.654 23.0259 34.0928 22.9406 34.5007 22.8534L33.6643 18.9418ZM32.4504 19.1851C31.0555 19.4565 29.3324 19.7886 27.6693 20.3577C26.002 20.9282 24.2528 21.7817 22.8472 23.1873L25.6756 26.0158C26.4872 25.2042 27.6082 24.6063 28.9644 24.1422C30.3248 23.6767 31.7786 23.3908 33.2143 23.1115L32.4504 19.1851ZM22.8472 23.1873L6.31146 39.7232L9.13991 42.5516L25.6756 26.0158L22.8472 23.1873ZM6.31138 39.7233C5.71911 40.3156 4.7504 40.3159 4.15757 39.7231L1.32923 42.5516C3.48386 44.7061 6.98531 44.7065 9.13999 42.5516L6.31138 39.7233ZM4.15761 39.7231C3.56512 39.1306 3.56506 38.1619 4.15765 37.5693L1.32914 34.741C-0.825389 36.8956 -0.825452 40.3969 1.32918 42.5516L4.15761 39.7231ZM4.15761 37.5693L20.6936 21.0334L17.8651 18.205L1.32918 34.7409L4.15761 37.5693ZM20.6935 21.0334C22.0992 19.6278 22.9527 17.8787 23.5232 16.2114C24.0923 14.5483 24.4244 12.8252 24.6958 11.4302L20.7694 10.6664C20.4901 12.1021 20.2042 13.5559 19.7387 14.9163C19.2746 16.2725 18.6768 17.3934 17.8652 18.2049L20.6935 21.0334ZM24.6958 11.4304C24.7832 10.9814 24.8611 10.5811 24.9391 10.2164L21.0275 9.37991C20.9403 9.7878 20.855 10.2266 20.7695 10.6662L24.6958 11.4304ZM24.9391 10.2163C24.9469 10.1796 24.9548 10.1395 24.9622 10.0961L21.0188 9.42546C21.0219 9.4073 21.025 9.39188 21.0275 9.38001L24.9391 10.2163ZM24.9629 10.0921C25.2271 8.51886 25.9626 7.09242 27.0983 5.95673L24.27 3.12822C22.5482 4.84987 21.4208 7.0325 21.0181 9.42947L24.9629 10.0921ZM27.0984 5.95666C28.5605 4.49447 30.5197 3.71386 32.5177 3.71386V-0.286145C29.4813 -0.286145 26.4979 0.90017 24.2699 3.1283L27.0984 5.95666ZM32.5177 3.71386C33.4488 3.71386 34.388 3.88366 35.2887 4.2335L36.737 0.504872C35.3668 -0.0272913 33.9359 -0.286145 32.5177 -0.286145V3.71386ZM35.2888 4.23351C35.1271 4.17073 34.8979 4.04937 34.6828 3.8218C34.4568 3.58262 34.3053 3.28726 34.2398 2.9763L38.1538 2.15131C37.9641 1.25143 37.3127 0.728478 36.7369 0.504856L35.2888 4.23351ZM34.2397 2.97591C34.0852 2.24247 34.4252 1.69812 34.6727 1.45084L37.4998 4.28059C37.9301 3.85078 38.3506 3.08619 38.1538 2.1517L34.2397 2.97591ZM34.6721 1.4515L29.2521 6.87145L32.0806 9.69988L37.5005 4.27993L34.6721 1.4515ZM29.2521 6.87145C28.1363 7.98725 28.1366 9.79608 29.2519 10.9117L32.0807 8.08365C32.5268 8.52983 32.5271 9.25338 32.0806 9.69988L29.2521 6.87145ZM29.2521 10.9119L37.9287 19.5884L40.7571 16.76L32.0806 8.08347L29.2521 10.9119ZM37.9487 19.6082C37.9123 19.5728 37.877 19.5355 37.8428 19.4963L40.8591 16.8692C40.8203 16.8246 40.7796 16.7816 40.737 16.7402L37.9487 19.6082ZM37.7622 16.9678C37.8025 16.9151 37.8387 16.8735 37.8649 16.8446C37.8909 16.816 37.9122 16.7944 37.924 16.7826L40.7524 19.6111C40.7807 19.5828 40.857 19.5058 40.9397 19.3976L37.7622 16.9678Z" fill="#DB322B" mask="url(#path-1-inside-1_1395_872)"/>
<mask id="path-3-inside-2_1395_872" fill="white">
<path d="M29.4536 10.71C29.2928 10.5493 29.0749 10.459 28.8476 10.459C28.6204 10.459 28.4023 10.5493 28.2417 10.71L25.8179 13.1339C25.4832 13.4685 25.4832 14.0112 25.8179 14.3459L29.24 17.7681C29.4006 17.9287 29.6187 18.0191 29.8459 18.0191C30.0732 18.0191 30.2912 17.9287 30.4519 17.7681L32.8758 15.3442C33.2104 15.0095 33.2104 14.4669 32.8758 14.1322L29.4536 10.71ZM29.8458 15.95L27.6357 13.7398L28.8476 12.5279L31.0578 14.738L29.8458 15.95Z"/>
</mask>
<path d="M29.4536 10.71C29.2928 10.5493 29.0749 10.459 28.8476 10.459C28.6204 10.459 28.4023 10.5493 28.2417 10.71L25.8179 13.1339C25.4832 13.4685 25.4832 14.0112 25.8179 14.3459L29.24 17.7681C29.4006 17.9287 29.6187 18.0191 29.8459 18.0191C30.0732 18.0191 30.2912 17.9287 30.4519 17.7681L32.8758 15.3442C33.2104 15.0095 33.2104 14.4669 32.8758 14.1322L29.4536 10.71ZM29.8458 15.95L27.6357 13.7398L28.8476 12.5279L31.0578 14.738L29.8458 15.95Z" fill="#DB322B"/>
<path d="M29.4536 10.71L30.8678 9.29578L30.8674 9.2954L29.4536 10.71ZM28.2417 10.71L26.8275 9.29578L26.8274 9.2958L28.2417 10.71ZM25.8179 13.1339L27.2321 14.5481L27.2321 14.5481L25.8179 13.1339ZM25.8179 14.3459L24.4035 15.7599L24.4036 15.7601L25.8179 14.3459ZM29.24 17.7681L27.8257 19.1822L27.8257 19.1823L29.24 17.7681ZM32.8758 14.1322L34.2902 12.7181L34.29 12.7179L32.8758 14.1322ZM29.8458 15.95L28.4316 17.3642L29.8458 18.7784L31.2601 17.3642L29.8458 15.95ZM27.6357 13.7398L26.2215 12.3256L24.8073 13.7398L26.2215 15.154L27.6357 13.7398ZM28.8476 12.5279L30.2618 11.1137L28.8476 9.69947L27.4334 11.1137L28.8476 12.5279ZM31.0578 14.738L32.472 16.1523L33.8862 14.738L32.472 13.3238L31.0578 14.738ZM30.8674 9.2954C30.332 8.76028 29.6057 8.45898 28.8476 8.45898V12.459C28.5441 12.459 28.2536 12.3383 28.0398 12.1246L30.8674 9.2954ZM28.8476 8.45898C28.0898 8.45898 27.3631 8.76009 26.8275 9.29578L29.6559 12.1242C29.4416 12.3385 29.1509 12.459 28.8476 12.459V8.45898ZM26.8274 9.2958L24.4036 11.7197L27.2321 14.5481L29.6559 12.1242L26.8274 9.2958ZM24.4037 11.7197C23.2879 12.8354 23.2881 14.6443 24.4035 15.7599L27.2323 12.9319C27.6783 13.378 27.6786 14.1016 27.2321 14.5481L24.4037 11.7197ZM24.4036 15.7601L27.8257 19.1822L30.6542 16.3539L27.2321 12.9317L24.4036 15.7601ZM27.8257 19.1823C28.3614 19.718 29.0881 20.0191 29.8459 20.0191V16.0191C30.1492 16.0191 30.4398 16.1395 30.6542 16.3538L27.8257 19.1823ZM29.8459 20.0191C30.6037 20.0191 31.3304 19.718 31.8661 19.1823L29.0377 16.3538C29.252 16.1395 29.5427 16.0191 29.8459 16.0191V20.0191ZM31.8661 19.1823L34.29 16.7584L31.4615 13.93L29.0377 16.3538L31.8661 19.1823ZM34.29 16.7584C35.4058 15.6426 35.4055 13.8338 34.2902 12.7181L31.4614 15.5462C31.0153 15.1 31.015 14.3765 31.4615 13.93L34.29 16.7584ZM34.29 12.7179L30.8678 9.29578L28.0394 12.1242L31.4615 15.5464L34.29 12.7179ZM31.2601 14.5358L29.0499 12.3256L26.2215 15.154L28.4316 17.3642L31.2601 14.5358ZM29.0499 15.154L30.2618 13.9421L27.4334 11.1137L26.2215 12.3256L29.0499 15.154ZM27.4334 13.9421L29.6436 16.1523L32.472 13.3238L30.2618 11.1137L27.4334 13.9421ZM29.6436 13.3238L28.4316 14.5358L31.2601 17.3642L32.472 16.1523L29.6436 13.3238Z" fill="#DB322B" mask="url(#path-3-inside-2_1395_872)"/>
<path d="M5.23402 38.647L5.133 38.748C5.1331 38.7481 5.1332 38.7482 5.1333 38.7483M5.23402 38.647L5.13325 38.7483L4.62855 39.2533L5.13349 38.7485M5.23402 38.647L5.23429 38.6473M5.23402 38.647L5.23429 38.6473M5.1333 38.7483C5.13336 38.7484 5.13343 38.7484 5.13349 38.7485M5.1333 38.7483L5.13891 38.7427L5.23429 38.6473M5.1333 38.7483L5.23429 38.6473M5.13349 38.7485C5.16158 38.7763 5.19809 38.7901 5.23448 38.79C5.27115 38.79 5.30769 38.776 5.33536 38.7484L5.23452 38.6475M5.13349 38.7485L5.23448 38.6475L5.23452 38.6475M5.23452 38.6475L5.23448 38.6474L5.23433 38.6473L5.23429 38.6473M5.23452 38.6475L5.23456 38.6475L5.84045 39.2533C5.67308 39.4206 5.45378 39.5044 5.23448 39.5044C5.01518 39.5044 4.79588 39.4206 4.62851 39.2533C4.29386 38.9186 4.29369 38.3758 4.62834 38.0412C4.96299 37.7066 5.50537 37.7062 5.84011 38.0409L5.23429 38.6473M5.0917 38.6387C5.09372 38.6051 5.10758 38.572 5.13332 38.5463L5.16623 38.5792L5.0917 38.6387ZM5.23448 38.5044C5.24205 38.5044 5.24975 38.505 5.25746 38.5063L5.23448 38.5247L5.16645 38.579L5.13353 38.5461C5.16101 38.5186 5.1992 38.5044 5.23448 38.5044ZM5.23421 38.6468L5.23448 38.6465L5.33519 38.5458C5.33528 38.5459 5.33536 38.546 5.33544 38.5461L5.23448 38.6471L5.23421 38.6468ZM5.33571 38.5463C5.39113 38.6018 5.39163 38.692 5.33554 38.7482L5.23472 38.6473L5.33571 38.5463Z" fill="#DB322B" stroke="#DB322B" stroke-width="2"/>
<mask id="path-6-inside-3_1395_872" fill="white">
<path d="M21.165 21.5049L7.35597 35.3139C7.02132 35.6485 7.02132 36.1912 7.35597 36.5259C7.52333 36.6932 7.74264 36.7769 7.96194 36.7769C8.18124 36.7769 8.40054 36.6932 8.5679 36.5259L22.377 22.7168C22.7116 22.3822 22.7116 21.8396 22.377 21.5048C22.0422 21.1703 21.4998 21.1703 21.165 21.5049Z"/>
</mask>
<path d="M21.165 21.5049L7.35597 35.3139C7.02132 35.6485 7.02132 36.1912 7.35597 36.5259C7.52333 36.6932 7.74264 36.7769 7.96194 36.7769C8.18124 36.7769 8.40054 36.6932 8.5679 36.5259L22.377 22.7168C22.7116 22.3822 22.7116 21.8396 22.377 21.5048C22.0422 21.1703 21.4998 21.1703 21.165 21.5049Z" fill="#DB322B"/>
<path d="M21.165 21.5049L19.751 20.0905L19.7508 20.0907L21.165 21.5049ZM7.35597 35.3139L5.94176 33.8997L5.94175 33.8997L7.35597 35.3139ZM7.35597 36.5259L5.94157 37.9399L5.94212 37.9405L7.35597 36.5259ZM8.5679 36.5259L9.98175 37.9405L9.98212 37.9401L8.5679 36.5259ZM22.377 22.7168L23.7912 24.1311L23.7912 24.1311L22.377 22.7168ZM22.377 21.5048L23.7914 20.0908L23.7908 20.0902L22.377 21.5048ZM19.7508 20.0907L5.94176 33.8997L8.77018 36.7281L22.5792 22.9191L19.7508 20.0907ZM5.94175 33.8997C4.82596 35.0155 4.82622 36.8243 5.94157 37.9399L8.77036 35.1119C9.21642 35.558 9.21668 36.2816 8.77018 36.7281L5.94175 33.8997ZM5.94212 37.9405C6.49918 38.4972 7.23347 38.7769 7.96194 38.7769V34.7769C8.2518 34.7769 8.54749 34.8891 8.76982 35.1113L5.94212 37.9405ZM7.96194 38.7769C8.6904 38.7769 9.42469 38.4972 9.98175 37.9405L7.15405 35.1113C7.37638 34.8891 7.67207 34.7769 7.96194 34.7769V38.7769ZM9.98212 37.9401L23.7912 24.1311L20.9627 21.3026L7.15369 35.1117L9.98212 37.9401ZM23.7912 24.1311C24.907 23.0153 24.9067 21.2064 23.7914 20.0908L20.9626 22.9189C20.5165 22.4727 20.5162 21.7491 20.9627 21.3026L23.7912 24.1311ZM23.7908 20.0902C22.6751 18.9751 20.8667 18.9751 19.751 20.0905L22.5791 22.9193C22.1328 23.3654 21.4094 23.3654 20.9631 22.9194L23.7908 20.0902Z" fill="#DB322B" mask="url(#path-6-inside-3_1395_872)"/>
</svg>
