<svg width="15" height="15" viewBox="0 0 15 15" fill="none" xmlns="http://www.w3.org/2000/svg">
<path d="M13.125 13.125V3.125H1.875V8.125H0.625V3.125C0.625 2.78125 0.747396 2.48698 0.992188 2.24219C1.23698 1.9974 1.53125 1.875 1.875 1.875H13.125C13.4688 1.875 13.763 1.9974 14.0078 2.24219C14.2526 2.48698 14.375 2.78125 14.375 3.125V11.875C14.375 12.2188 14.2526 12.513 14.0078 12.7578C13.763 13.0026 13.4688 13.125 13.125 13.125ZM5.625 8.75C4.9375 8.75 4.34896 8.50521 3.85938 8.01562C3.36979 7.52604 3.125 6.9375 3.125 6.25C3.125 5.5625 3.36979 4.97396 3.85938 4.48438C4.34896 3.99479 4.9375 3.75 5.625 3.75C6.3125 3.75 6.90104 3.99479 7.39062 4.48438C7.88021 4.97396 8.125 5.5625 8.125 6.25C8.125 6.9375 7.88021 7.52604 7.39062 8.01562C6.90104 8.50521 6.3125 8.75 5.625 8.75ZM5.625 7.5C5.96875 7.5 6.26302 7.3776 6.50781 7.13281C6.7526 6.88802 6.875 6.59375 6.875 6.25C6.875 5.90625 6.7526 5.61198 6.50781 5.36719C6.26302 5.1224 5.96875 5 5.625 5C5.28125 5 4.98698 5.1224 4.74219 5.36719C4.4974 5.61198 4.375 5.90625 4.375 6.25C4.375 6.59375 4.4974 6.88802 4.74219 7.13281C4.98698 7.3776 5.28125 7.5 5.625 7.5ZM0.625 13.75V12C0.625 11.6458 0.716146 11.3203 0.898438 11.0234C1.08073 10.7266 1.32292 10.5 1.625 10.3438C2.27083 10.0208 2.92708 9.77865 3.59375 9.61719C4.26042 9.45573 4.9375 9.375 5.625 9.375C6.3125 9.375 6.98958 9.45573 7.65625 9.61719C8.32292 9.77865 8.97917 10.0208 9.625 10.3438C9.92708 10.5 10.1693 10.7266 10.3516 11.0234C10.5339 11.3203 10.625 11.6458 10.625 12V13.75H0.625ZM1.875 12.5H9.375V12C9.375 11.8854 9.34635 11.7812 9.28906 11.6875C9.23177 11.5938 9.15625 11.5208 9.0625 11.4688C8.5 11.1875 7.93229 10.9766 7.35938 10.8359C6.78646 10.6953 6.20833 10.625 5.625 10.625C5.04167 10.625 4.46354 10.6953 3.89062 10.8359C3.31771 10.9766 2.75 11.1875 2.1875 11.4688C2.09375 11.5208 2.01823 11.5938 1.96094 11.6875C1.90365 11.7812 1.875 11.8854 1.875 12V12.5Z" fill="#1B1817"/>
</svg>
