<svg width="2970" height="1668" viewBox="0 0 2970 1668" fill="none" xmlns="http://www.w3.org/2000/svg">
<path d="M2683 17.9983C2695.63 28.0866 2702.68 44.5982 2706 59.9983C2706.69 59.6 2707.38 59.2017 2708.09 58.7913C2724.17 49.7269 2738.11 48.0501 2756 52.9983C2785.92 63.1581 2808.82 88.2556 2822.94 115.835C2836.65 143.805 2843.34 175.143 2846 205.998C2846.15 207.616 2846.15 207.616 2846.31 209.265C2846.91 216.9 2847.01 224.445 2846.89 232.103C2846.8 237.178 2846.77 242.252 2846.73 247.326C2846.7 249.949 2846.65 252.571 2846.57 255.192C2845.41 270.621 2845.41 270.621 2851.03 284.283C2853.87 286.944 2856.94 288.982 2860.3 290.918C2869.15 296.55 2877.06 308.359 2879.64 318.451C2880.41 323.942 2879.78 328.604 2876.43 333.112C2871.6 337.837 2866.69 339.658 2860 339.998C2856.63 339.86 2853.33 339.523 2850 338.998C2850.35 339.97 2850.7 340.942 2851.07 341.944C2858.87 363.661 2865.27 385.711 2871.23 407.995C2871.82 410.219 2872.42 412.442 2873.01 414.666C2881.82 447.582 2889.57 480.621 2896.44 513.998C2896.65 515.019 2896.86 516.04 2897.07 517.091C2905.6 558.67 2914.5 606.664 2897 646.998C2896.61 647.943 2896.22 648.888 2895.82 649.862C2891.42 659.647 2884.47 666.779 2875.07 671.842C2872.87 672.949 2872.87 672.949 2871 674.998C2871.67 675.652 2872.34 676.306 2873.03 676.979C2896.9 700.362 2896.9 700.362 2906 712.998C2907.08 714.369 2907.08 714.369 2908.18 715.768C2944.59 762.174 2967.32 822.963 2969 881.998C2969.02 882.668 2969.04 883.337 2969.07 884.027C2971.13 955.841 2950.25 1030.23 2928 1098C2927.56 1099.35 2927.56 1099.35 2927.1 1100.74C2922.46 1114.9 2917.74 1129.04 2912.96 1143.15C2912.04 1145.87 2911.13 1148.59 2910.21 1151.31C2904.85 1167.18 2899.32 1182.91 2892.56 1198.25C2892.09 1199.32 2891.62 1200.39 2891.13 1201.49C2887.95 1208.47 2884.48 1215.52 2879 1221C2873.75 1221.56 2873.75 1221.56 2871.3 1219.74C2869.63 1217.5 2869.75 1216.53 2870.14 1213.8C2870.81 1209.32 2872.1 1205.32 2873.78 1201.13C2874.37 1199.59 2874.97 1198.06 2875.56 1196.53C2875.87 1195.72 2876.19 1194.91 2876.51 1194.08C2883.03 1177.42 2888.98 1160.58 2894.69 1143.62C2895.05 1142.56 2895.4 1141.5 2895.77 1140.4C2896.31 1138.81 2896.31 1138.81 2896.85 1137.19C2897.56 1135.08 2898.27 1132.98 2898.98 1130.87C2899.32 1129.85 2899.67 1128.83 2900.02 1127.78C2902.85 1119.39 2905.78 1111.04 2908.76 1102.71C2938.39 1019.62 2966.37 920.331 2925.37 778.827C2913.49 754.275 2898.94 730.304 2880.21 710.362C2878.33 708.353 2876.57 706.302 2874.81 704.186C2869.11 697.608 2862.47 691.803 2856 685.998C2855.12 685.198 2854.23 684.397 2853.32 683.573C2850.61 681.733 2849.64 681.602 2846.44 682.061C2845.49 682.186 2844.54 682.311 2843.56 682.44C2842.38 682.624 2841.21 682.808 2840 682.998C2838.41 683.238 2836.82 683.476 2835.22 683.713C2832.6 684.106 2829.98 684.501 2827.37 684.906C2821.92 685.744 2816.5 686.418 2811 686.787C2808.79 686.948 2808.79 686.948 2806 687.998C2806.02 689.131 2806.02 689.131 2806.04 690.287C2806.41 736.128 2806.41 736.128 2797 746.998C2796.57 747.526 2796.13 748.053 2795.68 748.596C2780.96 763.631 2748.55 765.201 2729.19 767.686C2725.81 768.126 2722.43 768.57 2719.06 769.021C2716.98 769.298 2714.9 769.569 2712.82 769.833C2707.99 770.469 2703.57 771.222 2699 772.998C2700.75 775.501 2702.5 778.001 2704.25 780.498C2704.79 781.263 2705.32 782.027 2705.88 782.815C2709.12 787.419 2712.45 791.942 2715.88 796.41C2729.05 813.589 2729.05 813.589 2728.41 822.971C2727.02 829.866 2721.39 833.259 2716 836.998C2702.09 846.736 2702.09 846.736 2690.08 858.659C2684.53 864.9 2678.56 870.914 2672.19 876.311C2667.39 880.385 2663.03 884.915 2658.63 889.406C2655.74 892.336 2652.84 895.17 2649.68 897.815C2643.62 903.094 2638.03 908.863 2632.36 914.562C2630.24 916.693 2628.12 918.82 2626 920.946C2621.5 925.461 2617 929.979 2612.5 934.498C2607.28 939.74 2602.06 944.979 2596.84 950.215C2594.76 952.299 2592.69 954.387 2590.61 956.475C2579.22 967.91 2579.22 967.91 2573.6 972.619C2570.39 975.387 2567.47 978.47 2564.5 981.498C2560.85 985.23 2557.19 988.883 2553.22 992.28C2547.86 996.896 2542.96 1001.97 2538 1007C2532.49 1012.59 2526.99 1018.1 2521.02 1023.2C2516.82 1026.93 2512.94 1031 2509 1035C2503.73 1040.35 2498.47 1045.62 2492.74 1050.48C2490.91 1052.08 2489.2 1053.76 2487.5 1055.5C2485.11 1057.93 2482.65 1060.21 2480.06 1062.44C2477.25 1064.85 2474.6 1067.36 2472 1070C2468.8 1073.25 2465.46 1076.25 2462 1079.22C2459.21 1081.7 2456.62 1084.37 2454 1087.03C2451.42 1089.57 2448.68 1091.92 2445.93 1094.28C2444.05 1095.96 2442.27 1097.7 2440.5 1099.5C2438.15 1101.89 2435.74 1104.13 2433.19 1106.31C2429.98 1109.07 2426.98 1111.98 2424 1115C2419.82 1119.21 2415.54 1123.19 2411 1127C2410.1 1127.77 2409.2 1128.53 2408.27 1129.32C2406.84 1130.52 2406.84 1130.52 2405.38 1131.75C2404.5 1132.49 2403.62 1133.22 2402.71 1133.98C2398.45 1137.15 2395.37 1139 2390 1139C2388.63 1140.97 2387.3 1142.97 2386 1145C2383.75 1146.37 2383.75 1146.37 2382 1147C2389.71 1152.56 2398.55 1152.75 2407.75 1151.31C2412.16 1150.38 2415.95 1148.75 2420.01 1146.83C2422.89 1145.62 2424.92 1145.45 2428 1146C2431.46 1147.76 2433.56 1149.43 2435.94 1152.5C2437.97 1159.2 2436.43 1166.26 2435 1173C2448.16 1169.43 2455.81 1158.62 2463.61 1148.19C2476.16 1131.44 2497.09 1105.98 2519.25 1102.66C2524.69 1102.57 2527.73 1103.32 2532 1107C2537.46 1112.31 2539.11 1119.7 2539.44 1127.12C2538.31 1159.45 2515.8 1204.4 2492.55 1226.57C2472.63 1244.92 2443.43 1254.95 2418.76 1265.4C2415.28 1266.87 2411.82 1268.38 2408.35 1269.9C2380.53 1281.84 2351.11 1289.64 2321.91 1297.42C2313.37 1299.69 2304.85 1302.07 2296.33 1304.44C2290.57 1306.03 2284.81 1307.58 2279 1309C2278.86 1316.25 2279.29 1323.34 2280 1330.56C2280.67 1337.41 2281.11 1344.11 2281 1351C2299.43 1341.39 2316.73 1331.19 2332.77 1317.89C2341.35 1310.79 2350.07 1305.05 2360 1300C2360.9 1299.53 2361.8 1299.07 2362.73 1298.59C2368.82 1295.66 2374.04 1294.16 2380.75 1296.06C2385.78 1299.06 2387.48 1302.1 2389 1307.69C2389.95 1320.59 2379.48 1333.37 2371.5 1342.62C2370.56 1343.7 2369.63 1344.78 2368.69 1345.86C2363.1 1352.31 2357.88 1358.9 2355 1367C2361.69 1368.55 2367.97 1369.29 2374.83 1369.27C2375.77 1369.27 2376.7 1369.27 2377.67 1369.28C2380.78 1369.29 2383.89 1369.29 2387 1369.29C2389.24 1369.29 2391.48 1369.3 2393.72 1369.31C2399.79 1369.33 2405.86 1369.33 2411.93 1369.33C2415.72 1369.33 2419.51 1369.34 2423.31 1369.34C2435.87 1369.36 2448.43 1369.37 2461 1369.37C2461.67 1369.37 2462.35 1369.37 2463.04 1369.37C2464.06 1369.37 2464.06 1369.37 2465.09 1369.37C2476.06 1369.37 2487.03 1369.39 2498 1369.42C2509.29 1369.44 2520.57 1369.46 2531.86 1369.46C2538.18 1369.46 2544.51 1369.46 2550.84 1369.48C2556.79 1369.5 2562.74 1369.5 2568.69 1369.49C2570.87 1369.49 2573.04 1369.49 2575.22 1369.5C2578.21 1369.52 2581.19 1369.51 2584.17 1369.49C2585.45 1369.51 2585.45 1369.51 2586.76 1369.52C2603.32 1369.34 2616.94 1356.73 2629.79 1347.57C2631.92 1346.05 2634.06 1344.55 2636.2 1343.05C2667.77 1320.93 2696.76 1297.28 2724.06 1270.06C2724.8 1269.33 2724.8 1269.33 2725.56 1268.57C2730.69 1263.46 2735.7 1258.3 2740.42 1252.8C2742.97 1249.89 2745.73 1247.2 2748.5 1244.5C2752.61 1240.44 2756.59 1236.35 2760.34 1231.94C2762.3 1229.65 2764.34 1227.42 2766.38 1225.19C2770.63 1220.47 2774.65 1215.6 2778.65 1210.66C2780.19 1208.77 2781.74 1206.89 2783.29 1205.01C2789.27 1197.79 2795.2 1190.55 2800.96 1183.16C2803.24 1180.24 2805.53 1177.34 2807.86 1174.46C2867.89 1100.41 2924.12 1005.17 2916.36 893.339C2912.39 856.428 2906.36 810.314 2876.36 784.752C2865.98 777.027 2854.73 774.829 2842 775.998C2833.48 777.543 2826.21 780.463 2818.62 784.561C2817.63 785.092 2816.63 785.623 2815.6 786.169C2807.56 790.525 2800.17 795.345 2793 800.998C2792.07 801.724 2791.13 802.45 2790.17 803.198C2774.32 815.824 2758.7 830.314 2746.18 846.256C2744.13 848.834 2742 851.306 2739.82 853.778C2727.95 867.312 2717.77 882.204 2707.45 896.932C2705.55 899.646 2703.63 902.352 2701.71 905.058C2699.67 907.937 2697.64 910.823 2695.61 913.708C2694.54 915.233 2693.46 916.756 2692.38 918.277C2682.36 932.394 2672.78 946.795 2663.25 961.248C2662.63 962.18 2662.02 963.112 2661.39 964.073C2650.04 981.275 2638.85 998.55 2628.5 1016.37C2627.77 1017.63 2627.04 1018.88 2626.3 1020.14C2620.68 1029.79 2615.12 1039.47 2609.6 1049.18C2607.8 1052.36 2605.98 1055.53 2604.16 1058.71C2602.8 1061.09 2601.43 1063.48 2600.06 1065.87C2599.72 1066.47 2599.38 1067.07 2599.03 1067.68C2594.99 1074.73 2590.98 1081.8 2587.01 1088.88C2581.86 1098.06 2576.61 1107.19 2571.25 1116.25C2570.66 1117.26 2570.07 1118.27 2569.46 1119.31C2564 1128.48 2557.68 1138.89 2548 1144C2544.62 1143.94 2544.62 1143.94 2542 1143C2539.68 1138.35 2541.44 1132.03 2542.76 1127.22C2549.21 1109.34 2559.1 1092.53 2568.53 1076.1C2571 1071.77 2573.43 1067.43 2575.82 1063.06C2576.14 1062.46 2576.47 1061.87 2576.8 1061.25C2577.13 1060.65 2577.46 1060.05 2577.8 1059.43C2586.19 1044.08 2594.96 1028.99 2604 1014C2604.62 1012.96 2605.24 1011.93 2605.88 1010.86C2613.37 998.426 2621 986.112 2629 973.998C2629.61 973.068 2630.22 972.139 2630.85 971.18C2637.68 960.811 2644.49 950.459 2651.92 940.511C2655.68 935.475 2659.29 930.342 2662.88 925.186C2673.57 909.852 2684.53 894.764 2696 879.998C2696.49 879.364 2696.99 878.729 2697.49 878.076C2705.74 867.477 2714.2 857.071 2722.91 846.845C2725.89 843.335 2728.8 839.777 2731.69 836.186C2734.88 832.257 2738.21 828.627 2741.88 825.143C2743.74 823.267 2745.44 821.347 2747.16 819.35C2751.33 814.555 2755.76 810.049 2760.25 805.561C2761.09 804.722 2761.93 803.883 2762.79 803.019C2768.6 797.267 2774.51 791.971 2781 786.998C2781.78 786.354 2782.55 785.709 2783.36 785.045C2804.95 767.148 2832.11 751.434 2861 753.998C2878.34 756.312 2891.96 764.669 2904 776.998C2905.09 778.058 2905.09 778.058 2906.2 779.139C2919.96 793.33 2927.58 814.517 2933.62 832.998C2933.86 833.712 2934.1 834.427 2934.34 835.162C2961.75 918.489 2943.84 1002.2 2905.59 1078.89C2884.95 1119.25 2858.52 1157.63 2829.13 1192.11C2826.24 1195.51 2823.42 1198.95 2820.62 1202.44C2816 1208.13 2811.01 1213.45 2805.99 1218.8C2803.8 1221.13 2801.65 1223.5 2799.56 1225.94C2791.46 1235.3 2782.87 1244.24 2774.05 1252.92C2771.37 1255.59 2768.81 1258.3 2766.38 1261.19C2763.15 1264.97 2759.54 1268.16 2755.81 1271.44C2752.56 1274.4 2749.47 1277.49 2746.38 1280.62C2742.42 1284.62 2738.44 1288.49 2734.14 1292.14C2731.84 1294.14 2729.61 1296.21 2727.38 1298.3C2722.04 1303.28 2716.62 1308.04 2710.92 1312.6C2708.15 1314.88 2705.45 1317.22 2702.75 1319.59C2694.15 1327.17 2685.19 1334.16 2676 1341C2675.23 1341.57 2674.46 1342.15 2673.67 1342.74C2664.65 1349.46 2655.56 1356.07 2646.35 1362.52C2641.89 1365.65 2637.47 1368.84 2633.07 1372.06C2604.22 1393.11 2604.22 1393.11 2587.26 1393.13C2585.88 1393.13 2585.88 1393.13 2584.48 1393.14C2583.49 1393.14 2582.5 1393.13 2581.49 1393.13C2580.45 1393.13 2579.41 1393.13 2578.33 1393.13C2576.12 1393.13 2573.9 1393.13 2571.69 1393.13C2568.4 1393.12 2565.11 1393.13 2561.81 1393.14C2559.64 1393.13 2557.47 1393.13 2555.3 1393.13C2553.89 1393.13 2553.89 1393.13 2552.44 1393.14C2547.15 1393.12 2541.88 1393 2536.6 1392.77C2519.72 1392.01 2502.88 1391.9 2485.99 1391.98C2481.12 1392.01 2476.26 1392.02 2471.39 1392.03C2457.57 1392.06 2443.76 1392.11 2429.94 1392.17C2422.26 1392.2 2414.58 1392.23 2406.9 1392.24C2402.86 1392.25 2398.82 1392.26 2394.78 1392.28C2352.87 1392.55 2352.87 1392.55 2338.25 1383.25C2333.31 1378.3 2331.74 1373.6 2331.5 1366.62C2331.82 1357.19 2335.27 1350.32 2341 1343C2339.99 1343.78 2338.98 1344.57 2337.94 1345.37C2327.92 1352.83 2317.56 1359.41 2306.62 1365.44C2305.71 1365.94 2304.8 1366.45 2303.85 1366.98C2290.89 1374 2290.89 1374 2284 1374C2292.32 1432.37 2303.76 1488.63 2322.54 1544.61C2322.92 1545.75 2323.29 1546.89 2323.68 1548.06C2324.36 1550.09 2325.05 1552.11 2325.77 1554.13C2327.86 1560.38 2328.93 1566.4 2328 1573C2326.37 1576.25 2324.05 1578.23 2321.12 1580.37C2314.13 1582.43 2308.19 1580.27 2302 1577C2293.27 1571.37 2286.24 1564.36 2279 1557C2278.58 1558.89 2278.58 1558.89 2278.15 1560.82C2277.09 1565.52 2276.02 1570.23 2274.95 1574.93C2274.49 1576.96 2274.03 1578.99 2273.57 1581.02C2272.92 1583.95 2272.25 1586.88 2271.58 1589.81C2271.38 1590.71 2271.18 1591.61 2270.98 1592.54C2269.28 1599.84 2267.04 1607.13 2261 1612C2253.62 1614.46 2246.29 1612.79 2239 1610.81C2214.77 1604.84 2189.24 1603.37 2164.44 1601.16C2163.06 1601.04 2163.06 1601.04 2161.65 1600.91C2133.28 1598.4 2104.87 1596.44 2076.46 1594.43C2071.11 1594.05 2065.76 1593.66 2060.42 1593.28C2010.12 1589.65 1959.79 1586.17 1909.39 1584.47C1908.3 1584.43 1907.21 1584.4 1906.09 1584.36C1902.4 1584.24 1898.7 1584.12 1895 1584C1893.96 1583.97 1893.96 1583.97 1892.9 1583.93C1818.08 1581.55 1742.77 1579.53 1668 1584C1666.67 1584.08 1665.33 1584.16 1664 1584.23C1580.85 1589.15 1498.09 1597.88 1403.19 1608.78C1373.85 1612.16 1344.48 1615.3 1315.1 1618.33C1310.61 1618.8 1306.12 1619.26 1301.63 1619.73C1300.3 1619.87 1300.3 1619.87 1298.93 1620.01C1285.29 1621.42 1271.66 1622.9 1258.03 1624.42C1257.13 1624.52 1256.23 1624.62 1255.31 1624.73C1251.72 1625.13 1248.14 1625.53 1244.55 1625.93C1194.99 1631.46 1194.99 1631.46 1170.94 1633.44C1170.07 1633.51 1169.2 1633.58 1168.3 1633.65C1163.21 1634.07 1158.12 1634.44 1153.02 1634.79C1150.84 1634.94 1148.65 1635.1 1146.47 1635.25C1125.47 1636.75 1104.57 1637.37 1083.52 1637.32C1081.14 1637.31 1078.75 1637.31 1076.37 1637.31C1050.81 1637.26 1025.45 1636.5 1000 1634C998.192 1633.82 996.383 1633.65 994.575 1633.48C973.337 1631.42 952.155 1628.91 930.973 1626.35C906.526 1623.38 906.526 1623.38 882.039 1620.77C881.239 1620.69 880.44 1620.61 879.616 1620.53C862.054 1618.84 844.454 1617.64 826.844 1616.62C825.261 1616.52 825.261 1616.52 823.647 1616.43C792.423 1614.6 761.179 1613.18 729.937 1611.72C723.279 1611.41 716.621 1611.1 709.964 1610.78C701.823 1610.4 693.682 1610.01 685.541 1609.63C683.263 1609.52 680.984 1609.42 678.705 1609.31C651.97 1608.05 625.265 1606.84 598.496 1606.8C596.84 1606.79 596.84 1606.79 595.15 1606.79C589.289 1606.77 583.428 1606.76 577.567 1606.76C572.855 1606.75 568.143 1606.74 563.431 1606.72C530.507 1606.56 497.834 1607.51 465 1610C464.264 1610.05 463.528 1610.11 462.77 1610.17C455.684 1610.71 448.609 1611.32 441.538 1612.03C438.722 1612.31 435.904 1612.58 433.086 1612.84C396 1616.4 359.199 1622.1 322.457 1628.17C280.006 1635.19 237.498 1641.7 194.903 1647.76C191.121 1648.3 187.339 1648.84 183.557 1649.38C145.15 1654.86 106.74 1660.29 68.0605 1663.46C64.4095 1663.76 60.7594 1664.07 57.1094 1664.38C23.5983 1667.21 23.5983 1667.21 8.9375 1667.06C8.06029 1667.06 7.18309 1667.05 6.2793 1667.05C4.18617 1667.04 2.09307 1667.02 0 1667C0 1665.02 0 1663.04 0 1661C45.6856 1649.45 92.4402 1642.7 138.935 1635.33C150.854 1633.43 162.772 1631.54 174.688 1629.62C175.39 1629.51 176.093 1629.4 176.817 1629.28C199.231 1625.68 221.596 1621.84 243.938 1617.81C244.644 1617.68 245.351 1617.56 246.079 1617.43C258.196 1615.24 270.31 1613.04 282.421 1610.82C383.274 1592.34 484.244 1583.1 623.988 1584.77C625.337 1584.81 626.686 1584.85 628.035 1584.9C662.296 1585.98 696.526 1587.71 730.757 1589.48C736.741 1589.79 742.726 1590.09 748.711 1590.39C858.387 1595.87 858.387 1595.87 902.625 1600.87C904.945 1601.13 907.266 1601.38 909.586 1601.63C915.523 1602.28 921.459 1602.93 927.394 1603.6C937.232 1604.69 947.07 1605.78 956.909 1606.86C960.293 1607.23 963.676 1607.61 967.059 1607.99C999.155 1611.58 1031.09 1613.24 1063.38 1613.25C1064.07 1613.25 1064.77 1613.25 1065.49 1613.25C1087.63 1613.26 1109.67 1612.78 1131.76 1611C1132.73 1610.92 1133.71 1610.85 1134.72 1610.77C1146.09 1609.84 1157.45 1608.81 1168.82 1607.74C1169.95 1607.63 1171.09 1607.53 1172.26 1607.42C1193.92 1605.37 1215.52 1602.97 1237.12 1600.43C1316.87 1591.1 1396.77 1583.78 1476.8 1577.3C1478.97 1577.13 1481.15 1576.95 1483.33 1576.77C1513.93 1574.3 1544.53 1571.91 1575.16 1569.75C1576.32 1569.67 1577.48 1569.59 1578.67 1569.5C1662.73 1563.57 1746.75 1564.3 1830.88 1568.19C1833.29 1568.3 1835.71 1568.41 1838.13 1568.52C1931.81 1572.83 2025.27 1579.11 2127.56 1586.9C2146.91 1588.37 2166.27 1589.82 2185.62 1591.25C2189.73 1591.55 2193.83 1591.86 2197.93 1592.16C2217.37 1593.63 2217.37 1593.63 2236.83 1594.77C2239.94 1594.99 2242.94 1595.43 2246 1596C2246.04 1595.39 2246.09 1594.78 2246.14 1594.16C2249.36 1551.51 2249.36 1551.51 2257.72 1535.76C2259.17 1532.63 2259.1 1532.12 2258 1529C2257.24 1527.6 2256.41 1526.23 2255.55 1524.89C2255.04 1524.09 2254.53 1523.28 2254 1522.45C2253.17 1521.15 2253.17 1521.15 2252.31 1519.81C2236.53 1494.63 2223.22 1468.51 2212 1441C2211.52 1467.47 2212.5 1493.8 2213.93 1520.23C2214.04 1522.15 2214.04 1522.15 2214.14 1524.12C2214.27 1526.52 2214.41 1528.93 2214.54 1531.33C2216.13 1560.26 2216.13 1560.26 2209.56 1568.53C2201.51 1576.11 2190.78 1575.34 2180.5 1575.1C2164.82 1574.48 2146.41 1572.98 2134.31 1561.94C2103.68 1528.28 2103.54 1451.61 2105.2 1408.9C2106.17 1388.31 2108.56 1367.6 2118 1349C2116.7 1349.16 2115.41 1349.32 2114.07 1349.48C2094.38 1351.65 2075.47 1349.91 2059.03 1337.81C2035.19 1317.42 2024.87 1284.93 2020 1255C2019.81 1253.94 2019.62 1252.89 2019.42 1251.8C2016.53 1225.72 2019.1 1201.06 2034.82 1179.51C2037.14 1176.83 2039.39 1175.14 2042.38 1173.25C2043.75 1172.36 2043.75 1172.36 2045.15 1171.45C2048.16 1169.92 2050.66 1169.37 2054 1169C2053.7 1167.77 2053.4 1166.55 2053.09 1165.28C2051.78 1159.38 2051.22 1153.44 2050.62 1147.44C2046.23 1106.65 2035.42 1067.56 2023.76 1028.34C2020.38 1016.93 2017.07 1005.5 2013.81 994.061C2013.51 992.987 2013.2 991.914 2012.89 990.808C2006.97 969.968 2001.55 949.012 1996.15 928.035C1990.37 905.565 1984.32 883.194 1977.91 860.895C1968.67 828.741 1960.17 796.445 1952 763.998C1951.35 761.437 1950.71 758.877 1950.06 756.316C1946.41 741.836 1942.79 727.349 1939.2 712.856C1937.36 705.435 1935.51 698.016 1933.64 690.601C1924.15 652.839 1914.93 615.09 1907.15 576.932C1906.86 575.522 1906.86 575.522 1906.57 574.083C1899.67 539.702 1899.67 539.702 1906.42 528.139C1912.19 520.331 1918.92 515.261 1927 509.998C1927.67 509.563 1928.34 509.128 1929.03 508.679C1953.12 493.353 1980.65 482.391 2007.19 472.061C2008.38 471.595 2009.57 471.13 2010.79 470.651C2024.13 465.59 2037.38 461.83 2051.69 461.686C2052.63 461.657 2053.57 461.628 2054.54 461.598C2063.09 461.522 2070.69 463.62 2077.44 469.061C2078.05 469.547 2078.67 470.033 2079.31 470.533C2080.95 471.956 2082.49 473.439 2084 474.998C2084.04 473.983 2084.07 472.967 2084.11 471.92C2084.75 457.571 2086.7 446.479 2096.31 435.311C2103.49 429.132 2111.14 425.264 2120 421.998C2120.91 421.661 2121.81 421.323 2122.74 420.975C2144.97 413.445 2177.56 406.094 2200.34 414.678C2208.46 418.708 2213.63 424.127 2218 431.998C2218.37 432.639 2218.73 433.28 2219.11 433.94C2225.71 446.953 2226.88 463.509 2228.81 477.811C2228.93 478.702 2229.06 479.593 2229.18 480.511C2234.11 516.599 2238.36 552.818 2241.31 589.123C2241.39 590.042 2241.46 590.96 2241.54 591.906C2242 597.539 2242.4 603.173 2242.78 608.811C2242.93 610.982 2243.08 613.152 2243.24 615.322C2245.39 645.079 2245.7 674.91 2246.26 704.728C2246.56 720.437 2246.88 736.146 2247.21 751.854C2247.24 753.015 2247.24 753.015 2247.26 754.199C2247.86 782.678 2248.72 811.139 2249.85 839.601C2250.01 843.554 2250.17 847.507 2250.32 851.459C2250.35 852.222 2250.38 852.985 2250.41 853.771C2250.89 865.899 2251.22 878.028 2251.49 890.162C2251.52 891.423 2251.52 891.423 2251.55 892.709C2251.62 896.095 2251.7 899.481 2251.77 902.867C2252.6 940.986 2254.42 978.961 2257 1017C2257.11 1018.62 2257.22 1020.24 2257.33 1021.86C2258.77 1043.17 2258.77 1043.17 2260.26 1064.47C2260.47 1067.48 2260.69 1070.5 2260.9 1073.51C2261.04 1075.57 2261.19 1077.64 2261.34 1079.7C2261.77 1085.81 2262.12 1091.87 2262 1098C2262.71 1098.24 2263.42 1098.47 2264.14 1098.72C2267.49 1100.22 2269.88 1102.14 2272.69 1104.5C2273.64 1105.29 2274.59 1106.09 2275.57 1106.9C2278 1109 2278 1109 2280 1111C2278.54 1098.6 2276.56 1086.34 2274.22 1074.09C2270.36 1053.71 2267.14 1033.26 2264.07 1012.76C2263.55 1009.28 2263.02 1005.8 2262.5 1002.33C2261.98 998.903 2261.46 995.478 2260.94 992.054C2260.7 990.457 2260.46 988.861 2260.22 987.265C2258.99 979.16 2257.84 971.052 2256.86 962.914C2256.74 961.903 2256.74 961.903 2256.61 960.872C2255.74 953.406 2255.6 945.945 2255.62 938.436C2255.63 937.706 2255.63 936.976 2255.63 936.223C2255.66 922.844 2257.03 910.068 2260 896.998C2260.18 896.169 2260.36 895.339 2260.55 894.485C2269.22 855.787 2289.65 823.12 2314.49 792.839C2315.81 791.226 2317.13 789.609 2318.45 787.991C2322.36 783.183 2326.31 778.418 2330.31 773.686C2331 772.877 2331 772.877 2331.69 772.051C2334.15 769.146 2336.64 766.266 2339.16 763.412C2344.24 757.631 2348.8 752.084 2352.6 745.354C2358.45 735.51 2366.96 727.894 2375.65 720.615C2383.66 713.826 2390.87 706.162 2398.22 698.683C2405.82 690.958 2413.42 683.639 2422 676.998C2422.71 676.434 2423.42 675.869 2424.15 675.287C2432.19 668.922 2440.42 662.892 2448.94 657.186C2449.71 656.664 2450.49 656.142 2451.29 655.605C2452.37 654.893 2452.37 654.893 2453.46 654.166C2454.1 653.746 2454.74 653.326 2455.39 652.894C2457 651.998 2457 651.998 2459 651.998C2459 651.338 2459 650.678 2459 649.998C2458.13 649.736 2457.26 649.473 2456.37 649.203C2453 647.998 2450.19 646.537 2447.11 644.725C2445.99 644.071 2444.88 643.417 2443.73 642.742C2442.55 642.037 2441.37 641.331 2440.19 640.623C2439.29 640.088 2439.29 640.088 2438.37 639.541C2421.48 629.477 2405.75 618.303 2391.24 605.01C2389.53 603.477 2387.75 602.029 2385.94 600.623C2371.85 588.031 2362 569.875 2360.88 550.892C2359.55 512.754 2373.73 477.809 2390 443.998C2390.46 443.039 2390.92 442.08 2391.39 441.091C2397.18 429.005 2403.53 417.356 2410.41 405.851C2410.97 404.898 2411.54 403.945 2412.13 402.963C2412.89 401.704 2412.89 401.704 2413.66 400.42C2415 398.002 2416.03 395.583 2417 392.998C2416.18 392.318 2415.35 391.637 2414.5 390.936C2410.63 386.093 2411.22 380.384 2411.71 374.521C2413.63 357.658 2417.78 341.033 2421.76 324.559C2422.05 323.353 2422.35 322.147 2422.64 320.905C2422.91 319.835 2423.17 318.766 2423.44 317.664C2424.1 314.963 2424.1 314.963 2424 311.998C2423.28 312.361 2422.55 312.723 2421.81 313.096C2407.83 320.058 2394.08 326.744 2379 330.998C2378.33 331.202 2377.67 331.406 2376.98 331.616C2370.15 332.935 2361.43 333.5 2355.31 329.811C2353.51 328.401 2353.51 328.401 2352 326.998C2350.82 325.946 2350.82 325.946 2349.62 324.873C2346.03 318.518 2345.44 312.082 2347 304.998C2353.69 282.609 2373.09 268.239 2392.78 257.481C2395.88 255.804 2399 254.147 2402.12 252.498C2403.15 251.957 2404.17 251.416 2405.22 250.858C2406.18 250.358 2407.14 249.858 2408.13 249.342C2409 248.89 2409.86 248.438 2410.75 247.973C2413 246.998 2413 246.998 2416 246.998C2416.05 246.411 2416.1 245.823 2416.15 245.218C2416.77 238.562 2417.74 232.009 2418.86 225.42C2419.04 224.332 2419.22 223.244 2419.41 222.124C2419.8 219.827 2420.2 217.531 2420.59 215.236C2421.18 211.801 2421.75 208.365 2422.32 204.928C2428.74 167.096 2440.61 130.92 2464 99.9983C2464.67 99.1091 2464.67 99.1091 2465.35 98.202C2498.76 54.0395 2498.76 54.0395 2518.66 49.2991C2525.95 48.3625 2530.94 50.0408 2537 53.9983C2537.66 54.3283 2538.32 54.6583 2539 54.9983C2539.47 54.3203 2539.95 53.6422 2540.43 52.9436C2545.22 46.2033 2550.33 40.0113 2556 33.9983C2556.61 33.3216 2557.22 32.6448 2557.86 31.9476C2589.38 -1.59778 2646.01 -10.5307 2683 17.9983ZM2560 52.9983C2557.64 55.8494 2555.4 58.7841 2553.19 61.7483C2552.62 62.5024 2552.04 63.2565 2551.46 64.0335C2546.66 70.3843 2544.77 73.9302 2545 82.0608C2545.72 137.248 2545.72 137.248 2532 154.998C2532 155.658 2532 156.318 2532 156.998C2524.93 159.274 2524.93 159.274 2521.25 158.186C2515.35 152.451 2513.91 144.157 2513.71 136.227C2513.53 116.81 2518.41 98.9006 2526.23 81.2249C2527.51 77.5211 2526.74 74.8228 2526 70.9983C2525.34 70.0083 2524.68 69.0183 2524 67.9983C2505.06 70.9859 2490.3 89.744 2479.38 104.182C2478.49 105.347 2477.61 106.507 2476.71 107.662C2447.26 145.716 2439.51 193.643 2433 239.998C2438.84 238.413 2444.68 236.808 2450.51 235.166C2478.64 227.345 2506.99 222.317 2536 218.998C2537.91 218.78 2537.91 218.78 2539.86 218.557C2619.02 209.767 2710.54 212.762 2823.62 264.67C2825.84 266.161 2825.84 266.161 2828 265.998C2829.09 210.124 2816.2 140.832 2777 98.9983C2765.5 87.1496 2750.41 76.1143 2733.38 75.6233C2724.48 75.7157 2718.41 78.3984 2711.88 84.3733C2708.1 89.1485 2708.6 93.501 2708.87 99.3733C2709.8 121.436 2707.95 154.18 2695 172.998C2691.28 175.479 2689.4 175.462 2685 174.998C2681.28 172.064 2680.15 169.981 2679.44 165.311C2677.78 148.335 2678.74 129.833 2682.75 113.248C2687.18 91.8221 2682.89 60.1839 2670.75 41.6858C2662.72 31.047 2653.3 25.2414 2640.19 22.6858C2609.03 18.472 2581.19 30.082 2560 52.9983ZM2527 111.998C2525.04 120.97 2524.44 129.856 2524 138.998C2526.36 135.461 2526.66 132.422 2527.12 128.311C2527.21 127.628 2527.3 126.946 2527.39 126.242C2527.95 121.467 2528.08 116.807 2528 111.998C2527.67 111.998 2527.34 111.998 2527 111.998ZM2430 261.998C2428.7 265.167 2428.7 265.167 2427.88 268.936C2427.71 269.603 2427.55 270.27 2427.38 270.958C2426.01 276.595 2424.93 282.275 2424 287.998C2432.04 286.723 2439.72 284.785 2447.51 282.428C2448.68 282.078 2449.85 281.727 2451.05 281.366C2462.58 277.88 2474.01 274.091 2485.43 270.272C2583.46 237.592 2673.89 230.082 2788.63 284.1C2791.32 285.442 2794.03 286.768 2796.73 288.094C2806.33 292.852 2815.38 297.921 2824.15 304.085C2826.9 306.112 2826.9 306.112 2830 306.998C2830.35 304.648 2830.35 304.648 2830 301.998C2811.61 281.971 2772.32 267.561 2747 258.998C2745.7 258.551 2745.7 258.551 2744.38 258.095C2659.57 229.053 2560.9 228.938 2430 261.998ZM2494.26 281.625C2486.55 284.115 2478.84 286.552 2471.12 289C2468.44 289.854 2465.75 290.711 2463.07 291.569C2454.76 294.222 2446.46 296.837 2438 298.998C2438.42 300.122 2438.84 301.246 2439.27 302.405C2440.99 310.18 2437.85 318.032 2435.75 325.498C2435.32 327.067 2434.9 328.636 2434.47 330.205C2433.67 333.183 2432.86 336.159 2432.04 339.135C2429.38 347.503 2429.38 347.503 2430 355.998C2430.52 355.018 2430.52 355.018 2431.05 354.017C2451.01 316.495 2451.01 316.495 2460 311.998C2464.99 311.621 2468.06 311.804 2472 314.998C2480.74 324.768 2479.79 341.586 2480.65 353.917C2485.7 425.47 2495.74 511.142 2550.13 563.53C2562.74 574.387 2577.6 580.288 2594.21 579.475C2628.63 576.648 2662.19 557.905 2688 535.998C2688.57 535.519 2689.14 535.04 2689.73 534.547C2698.87 526.854 2698.87 526.854 2707.45 518.549C2709.11 516.892 2710.84 515.388 2712.62 513.873C2720.72 506.885 2728.35 499.159 2735.27 491.01C2737.42 488.515 2739.65 486.106 2741.88 483.686C2746.12 479.046 2750.1 474.25 2753.99 469.311C2757.06 465.783 2758.77 464.108 2763.5 463.686C2766.74 463.975 2768.24 464.48 2771 465.998C2770.42 455.534 2768.95 445.328 2767.25 434.998C2767.03 433.672 2767.03 433.672 2766.81 432.318C2763.31 410.855 2759.22 389.495 2755.12 368.139C2752.33 353.58 2749.6 339.017 2747.16 324.393C2746.96 323.159 2746.75 321.925 2746.54 320.654C2743.86 304.291 2743.86 304.291 2743.88 296.873C2743.87 295.901 2743.87 294.929 2743.87 293.928C2744.01 290.883 2744.44 287.992 2745 284.998C2662.91 253.003 2577.44 254.726 2494.26 281.625ZM2410 269.998C2405.38 272.638 2400.76 275.278 2396 277.998C2396 278.658 2396 279.318 2396 279.998C2396.61 280.203 2397.23 280.408 2397.86 280.619C2402.93 282.309 2402.93 282.309 2408 283.998C2408.53 282.231 2409.05 280.459 2409.56 278.686C2409.85 277.7 2410.14 276.714 2410.44 275.698C2411.25 272.918 2411.25 272.918 2410 269.998ZM2388 299.998C2387.67 300.988 2387.34 301.978 2387 302.998C2388.67 304.735 2388.67 304.735 2391 305.998C2394.47 305.305 2395.9 304.096 2398.38 301.561C2398.91 300.715 2399.45 299.87 2400 298.998C2399.67 298.008 2399.34 297.018 2399 295.998C2393.89 295.523 2391.63 296.364 2388 299.998ZM2372 296.998C2371.13 298.241 2370.3 299.519 2369.5 300.811C2369.06 301.519 2368.61 302.226 2368.16 302.955C2365.85 307.023 2365.91 310.409 2366 314.998C2369.63 314.998 2373.26 314.998 2377 314.998C2377.29 311.99 2377.29 311.99 2375.56 309.936C2373.34 305.763 2373.26 301.661 2373 296.998C2372.67 296.998 2372.34 296.998 2372 296.998ZM2782 303.998C2786.84 312.842 2795.19 322.941 2805 325.998C2810.42 326.677 2814.91 326.085 2820 323.998C2816.46 321.004 2812.93 318.746 2808.82 316.616C2808.24 316.315 2807.66 316.015 2807.06 315.705C2805.85 315.076 2804.63 314.449 2803.42 313.825C2801.57 312.876 2799.72 311.916 2797.88 310.955C2796.69 310.341 2795.5 309.728 2794.32 309.116C2793.25 308.565 2792.18 308.014 2791.08 307.447C2788.1 306.045 2785.15 304.97 2782 303.998ZM2759 304.998C2759.46 314.162 2761.02 322.994 2762.86 331.959C2763.37 334.446 2763.87 336.935 2764.37 339.425C2765.08 342.973 2765.8 346.521 2766.51 350.068C2768.37 359.255 2770.2 368.448 2772.02 377.643C2772.2 378.543 2772.38 379.443 2772.56 380.37C2775.35 394.46 2778 408.561 2780.25 422.748C2780.38 423.574 2780.51 424.4 2780.65 425.25C2781.94 433.461 2783.11 441.687 2784.22 449.924C2784.32 450.626 2784.41 451.328 2784.51 452.052C2784.95 455.269 2785.36 458.488 2785.76 461.71C2785.9 462.786 2786.03 463.862 2786.18 464.971C2786.29 465.902 2786.4 466.833 2786.52 467.792C2786.83 470.193 2786.83 470.193 2789 471.998C2818.63 410.094 2818.63 410.094 2830.06 343.498C2830.06 342.771 2830.05 342.044 2830.05 341.295C2830.04 339.53 2830.02 337.764 2830 335.998C2829.28 336.275 2828.57 336.553 2827.83 336.838C2816.03 341.129 2803.14 343.213 2791.34 337.772C2780.4 331.602 2773.35 321.767 2765.68 312.069C2764.96 311.159 2764.24 310.248 2763.5 309.311C2762.53 308.068 2762.53 308.068 2761.53 306.799C2761.03 306.205 2760.52 305.611 2760 304.998C2759.67 304.998 2759.34 304.998 2759 304.998ZM2845 314.998C2845 316.318 2845 317.638 2845 318.998C2846.98 319.658 2848.96 320.318 2851 320.998C2849.36 318.978 2847.69 316.978 2846 314.998C2845.67 314.998 2845.34 314.998 2845 314.998ZM2461 340.998C2460.74 341.495 2460.49 341.992 2460.22 342.504C2454.51 353.573 2448.56 364.405 2442 374.998C2442.8 375.968 2443.61 376.937 2444.44 377.936C2455.88 393.392 2462.56 412.406 2470 429.998C2471.2 426.392 2470.75 424.488 2470.11 420.752C2469.9 419.457 2469.68 418.163 2469.46 416.828C2469.35 416.134 2469.23 415.44 2469.11 414.725C2466.92 401.522 2465.31 388.34 2464.25 374.998C2464.19 374.268 2464.13 373.538 2464.07 372.785C2463.23 362.199 2462.59 351.601 2462 340.998C2461.67 340.998 2461.34 340.998 2461 340.998ZM2839 357.998C2838.71 358.947 2838.43 359.897 2838.13 360.875C2829.47 389.586 2820.15 417.963 2810 446.186C2809.62 447.235 2809.25 448.283 2808.86 449.364C2807.74 452.466 2806.62 455.566 2805.5 458.666C2805.14 459.681 2804.77 460.696 2804.4 461.741C2802.49 467.009 2800.52 472.237 2798.43 477.434C2792.34 492.225 2792.34 492.225 2792 507.998C2792.11 509.024 2792.22 510.05 2792.33 511.107C2792.72 514.561 2793.2 517.995 2793.69 521.436C2798.83 559.754 2801.55 598.428 2804 636.998C2805.03 637.371 2806.07 637.744 2807.13 638.128C2815.17 641.062 2822.95 644.138 2830.5 648.186C2831.81 648.879 2831.81 648.879 2833.15 649.586C2840.45 653.521 2847.23 658.028 2853.95 662.881C2856.85 665.103 2856.85 665.103 2860 665.998C2869.58 663.401 2876.4 658.696 2881.68 650.342C2918.84 581.573 2870.11 461.019 2850.44 392.123C2849.99 390.569 2849.99 390.569 2849.54 388.982C2846.57 378.584 2843.58 368.207 2840 357.998C2839.67 357.998 2839.34 357.998 2839 357.998ZM2436 400.998C2432 410.103 2428.01 419.215 2424.04 428.332C2422.71 431.378 2421.38 434.422 2420.04 437.466C2408.26 464.347 2396.77 491.344 2390 519.998C2389.74 521.057 2389.47 522.115 2389.2 523.205C2387.78 529.959 2387.77 536.809 2387.69 543.686C2387.67 544.661 2387.65 545.636 2387.63 546.641C2387.65 559.805 2392.64 567.508 2401.44 576.873C2411.84 586.969 2424.92 593.794 2437.26 601.218C2448.9 608.226 2460.19 615.676 2471.45 623.284C2475.02 625.687 2478.63 628.043 2482.25 630.373C2483.29 631.041 2484.32 631.709 2485.39 632.397C2487.56 633.726 2489.7 634.916 2492 635.998C2494.04 633.96 2493.23 629.909 2493.25 627.123C2493.27 626.429 2493.29 625.734 2493.31 625.018C2493.42 609.081 2489.09 593.029 2485.44 577.623C2485.22 576.697 2485 575.77 2484.78 574.815C2475.75 536.47 2465.19 498.304 2452.68 460.944C2452.42 460.156 2452.16 459.368 2451.88 458.557C2451.36 457.004 2450.84 455.451 2450.32 453.898C2449.95 452.772 2449.95 452.772 2449.56 451.623C2449.31 450.884 2449.07 450.144 2448.81 449.382C2443.54 433.531 2440.04 417.41 2437 400.998C2436.67 400.998 2436.34 400.998 2436 400.998ZM2143 434.998C2141.65 435.279 2141.65 435.279 2140.27 435.566C2121.12 439.34 2121.12 439.34 2105.75 450.436C2100.22 461.683 2100.92 474.982 2100.31 487.275C2100.12 490.929 2099.88 494.569 2099.56 498.213C2098.71 510.751 2102.08 522.272 2105.24 534.272C2108.2 545.532 2110.72 556.795 2112.81 568.248C2112.97 569.11 2113.13 569.972 2113.29 570.86C2116.9 590.687 2120.11 610.585 2123.38 630.471C2126.32 648.364 2129.36 666.233 2132.64 684.069C2132.79 684.904 2132.94 685.739 2133.1 686.6C2134.58 694.679 2136.08 702.756 2137.6 710.828C2145.78 754.368 2151.29 798.176 2156.03 842.212C2156.45 846.068 2156.86 849.924 2157.28 853.78C2163.85 914.081 2170.08 974.399 2175.19 1034.84C2175.25 1035.54 2175.3 1036.23 2175.37 1036.95C2175.64 1040.17 2175.91 1043.39 2176.18 1046.61C2176.66 1052.43 2177.22 1058.21 2178 1064C2178.93 1064.21 2178.93 1064.21 2179.87 1064.42C2201.64 1069.43 2221.49 1077.33 2242 1086C2241.61 1079.66 2241.21 1073.33 2240.81 1067C2240.75 1065.99 2240.69 1064.98 2240.62 1063.94C2239.77 1050.48 2238.87 1037.04 2237.92 1023.59C2237.76 1021.27 2237.59 1018.95 2237.43 1016.63C2236.78 1007.41 2236.78 1007.41 2236.12 998.188C2233.46 961.51 2231.82 924.861 2231.11 888.094C2230.92 878.477 2230.71 868.861 2230.5 859.244C2230.48 858.305 2230.46 857.366 2230.44 856.399C2230.1 841.113 2229.65 825.837 2229 810.561C2228.96 809.716 2228.93 808.872 2228.89 808.001C2228.53 799.581 2228.12 791.164 2227.65 782.749C2226.01 753.07 2225.44 723.405 2225 693.686C2224.42 654.192 2224.42 654.192 2223.04 614.721C2223 613.839 2222.96 612.956 2222.92 612.047C2222.23 596.997 2221.13 581.987 2219.4 567.018C2219.25 565.712 2219.25 565.712 2219.1 564.379C2217.42 549.848 2215.65 535.329 2213.86 520.813C2213.57 518.482 2213.28 516.152 2213 513.821C2211.11 498.531 2209.15 483.253 2206.78 468.031C2206.48 466.112 2206.19 464.192 2205.9 462.272C2203.56 446.668 2203.56 446.668 2195 433.998C2188.99 431.266 2184 430.483 2177.44 430.561C2176.53 430.568 2175.63 430.575 2174.69 430.582C2163.92 430.828 2153.51 432.755 2143 434.998ZM2772 472.998C2771.8 474.031 2771.61 475.063 2771.41 476.127C2768.58 490.238 2763.82 503.476 2758.92 516.976C2749.24 541.337 2749.24 541.337 2748 566.998C2749.42 568.808 2749.42 568.808 2751 569.998C2752.05 566.374 2753.07 562.751 2754.02 559.1C2758.29 543.294 2764.92 528.47 2771.47 513.505C2771.97 512.348 2772.48 511.191 2773 509.998C2773.28 509.38 2773.56 508.762 2773.85 508.126C2777.52 499.942 2775.75 492.109 2774.5 483.498C2774.36 482.485 2774.21 481.472 2774.07 480.428C2773.72 477.951 2773.36 475.474 2773 472.998C2772.67 472.998 2772.34 472.998 2772 472.998ZM1985.54 505.804C1982.01 507.307 1978.47 508.796 1974.94 510.285C1964.55 514.687 1954.25 519.171 1944.26 524.412C1943.52 524.802 1942.77 525.191 1942.01 525.593C1935.27 529.227 1928.44 533.557 1923 538.998C1922.2 549.283 1923.8 558.876 1926 568.873C1926.32 570.376 1926.64 571.878 1926.96 573.381C1930.08 587.871 1933.65 602.246 1937.38 616.591C1938.04 619.157 1938.7 621.723 1939.37 624.289C1944.43 643.897 1949.54 663.494 1954.73 683.069C1962.4 712.027 1969.78 741.038 1976.91 770.133C1983.74 797.988 1990.76 825.787 1997.93 853.556C1998.72 856.607 1999.51 859.658 2000.3 862.709C2000.49 863.462 2000.69 864.215 2000.89 864.991C2003.87 876.538 2006.8 888.096 2009.7 899.662C2020.14 941.202 2031.1 982.505 2043.47 1023.52C2056.46 1066.59 2067.74 1109.23 2073 1154C2076.83 1150.73 2080.64 1147.44 2084.38 1144.06C2087.44 1141.31 2090.58 1138.77 2093.88 1136.31C2098.42 1132.91 2098.42 1132.91 2101 1128C2099.17 1122.23 2096.69 1119.42 2091.69 1116C2085.19 1111.27 2079.6 1106.88 2077 1099C2076.09 1091.39 2076.58 1084.41 2081 1078C2094.59 1062.43 2116.22 1060.7 2135.53 1059.3C2137.02 1059.19 2138.51 1059.09 2140 1059C2138.36 1052.79 2136.6 1046.62 2134.73 1040.47C2124.18 1005.73 2117.64 970.677 2113.82 934.592C2113.72 933.628 2113.62 932.663 2113.51 931.67C2110.02 898.691 2107.15 865.648 2104.19 832.62C2103.61 826.167 2103.02 819.715 2102.44 813.262C2092.6 704.881 2092.6 704.881 2090.31 659.998C2090.19 657.68 2090.06 655.361 2089.94 653.043C2089.38 642.547 2088.9 632.06 2088.64 621.554C2088.3 607.43 2086.49 593.895 2084 579.998C2083.75 578.558 2083.5 577.117 2083.26 575.676C2077.61 527.806 2077.61 527.806 2058 485.998C2039.75 476.875 2001.83 498.854 1985.54 505.804ZM2751 496.998C2752 498.998 2752 498.998 2752 498.998L2751 496.998ZM2750 498.998C2748.98 500.34 2748.98 500.34 2747.95 501.709C2742.74 508.495 2737.44 514.814 2731.27 520.76C2729.18 522.822 2727.27 524.943 2725.38 527.186C2722.55 530.475 2719.53 533.291 2716.22 536.092C2713.65 538.294 2711.17 540.581 2708.69 542.873C2682.38 566.805 2651.86 587.206 2617 595.998C2615.99 596.259 2615.99 596.259 2614.96 596.524C2591.75 602.295 2570.73 598.621 2550 586.998C2529.76 574.542 2515.43 553.405 2504 532.998C2503.67 532.998 2503.34 532.998 2503 532.998C2503.65 541.156 2505.04 549.111 2506.53 557.146C2508.97 570.393 2511.04 583.547 2512 596.998C2513.1 596.515 2513.1 596.515 2514.22 596.022C2518.22 594.55 2521.79 594.38 2526 594.998C2530.12 597.367 2531.54 599.565 2533 603.998C2534.96 621.601 2530.25 642.594 2520 656.998C2519.5 657.439 2519 657.88 2518.48 658.334C2509.52 668.403 2512.62 696.618 2512.62 709.436C2512.62 710.365 2512.62 711.295 2512.62 712.253C2512.03 733.918 2512.03 733.918 2520.72 753.002C2527.74 759.686 2534.65 761.255 2544.12 761.144C2548.42 760.927 2552.45 760.174 2556.62 759.186C2558 758.865 2558 758.865 2559.4 758.538C2596.35 749.447 2630.51 733.579 2663 713.998C2664.05 713.372 2665.09 712.745 2666.17 712.1C2672.45 708.053 2676.1 703.309 2680 696.998C2680.65 695.992 2681.31 694.985 2681.98 693.948C2685.26 689.752 2685.26 689.752 2687 684.998C2686.11 684.851 2686.11 684.851 2685.21 684.701C2680.22 683.757 2676.5 682.927 2673 678.998C2671.31 675.201 2670.74 673.049 2671.75 668.998C2678.13 660.492 2690.21 654.283 2700.43 651.912C2712.98 648.743 2718.4 642.988 2725.11 632.048C2726.41 629.857 2727.7 627.657 2728.97 625.451C2731.07 621.83 2733.34 618.326 2735.62 614.819C2736.76 613.057 2737.89 611.293 2739.02 609.528C2740.11 607.837 2741.2 606.151 2742.3 604.466C2742.95 603.431 2743.59 602.396 2744.26 601.33C2744.84 600.42 2745.42 599.51 2746.01 598.572C2747.28 596.016 2747.28 596.016 2746.29 593.358C2744.03 589.219 2741.44 585.303 2738.88 581.35C2733.28 571.342 2734.34 561.125 2736.63 550.326C2736.8 549.503 2736.98 548.68 2737.16 547.831C2739.25 538.355 2742.26 529.199 2745.31 519.998C2746.42 516.647 2747.52 513.293 2748.61 509.936C2748.87 509.18 2749.12 508.424 2749.39 507.645C2750.84 503.361 2750.84 503.361 2750 498.998ZM2780 527.998C2778.38 531.888 2776.78 535.786 2775.19 539.686C2774.74 540.769 2774.28 541.853 2773.82 542.969C2767.88 556.159 2767.88 556.159 2768 569.998C2768.99 569.503 2768.99 569.503 2770 568.998C2775.39 568.645 2778.58 568.589 2783 571.998C2784.01 572.989 2785.01 573.987 2786 574.998C2786.25 566.826 2785.41 558.929 2784.35 550.847C2784.06 548.673 2783.78 546.499 2783.51 544.325C2782.48 536.125 2782.48 536.125 2781 527.998C2780.67 527.998 2780.34 527.998 2780 527.998ZM2502 530.998C2503 532.998 2503 532.998 2503 532.998L2502 530.998ZM2786 574.998C2787 577.998 2787 577.998 2787 577.998L2786 574.998ZM2787 584.998C2786.91 585.749 2786.83 586.499 2786.74 587.272C2785.74 594.512 2784.25 600.938 2780 606.998C2778.99 607.658 2777.98 608.318 2776.94 608.998C2773.71 611.199 2773.37 611.976 2772.06 615.498C2770 620.998 2770 620.998 2763 632.998C2772.24 632.998 2781.48 632.998 2791 632.998C2790.36 616.96 2789.32 600.995 2788 584.998C2787.67 584.998 2787.34 584.998 2787 584.998ZM2757 610.998C2758 612.998 2758 612.998 2758 612.998L2757 610.998ZM2756 612.998C2757 614.998 2757 614.998 2757 614.998L2756 612.998ZM2755 614.998C2756 616.998 2756 616.998 2756 616.998L2755 614.998ZM2747.59 655.143C2745.82 657.681 2744.41 660.246 2743 662.998C2741.88 664.541 2740.74 666.065 2739.56 667.561C2737.75 669.569 2737.75 669.569 2737 671.998C2755.15 671.998 2773.3 671.998 2792 671.998C2792 665.398 2792 658.798 2792 651.998C2788.74 648.736 2780.6 649.764 2776.12 649.748C2760.9 649.347 2760.9 649.347 2747.59 655.143ZM2805 654.998C2805 660.938 2805 666.878 2805 672.998C2815.28 673.194 2824.85 672.611 2835 670.998C2832.7 668.45 2830.36 666.959 2827.32 665.369C2826.41 664.892 2825.5 664.414 2824.56 663.922C2823.61 663.432 2822.67 662.941 2821.69 662.436C2820.75 661.941 2819.81 661.447 2818.85 660.938C2814.21 658.523 2810.01 656.669 2805 654.998ZM2467 667.998C2457.59 672.83 2448.68 677.924 2440 683.998C2443.83 685.273 2444.66 684.495 2448.22 682.76C2449.23 682.27 2450.25 681.779 2451.29 681.274C2452.35 680.75 2453.41 680.226 2454.5 679.686C2455.56 679.173 2456.62 678.661 2457.71 678.133C2463.5 675.32 2463.5 675.32 2469 671.998C2468.34 670.678 2467.68 669.358 2467 667.998ZM2762.76 687.211C2758.74 687.274 2754.72 687.317 2750.7 687.314C2746.8 687.312 2742.91 687.363 2739.02 687.45C2737.54 687.474 2736.07 687.48 2734.59 687.465C2728.37 687.413 2723.02 687.402 2717.94 691.422C2715.44 694.177 2713.22 697.02 2711 699.998C2709.72 701.225 2708.42 702.423 2707.06 703.561C2703.81 706.292 2700.68 709.118 2697.56 711.998C2694.3 714.996 2691.06 717.713 2687.44 720.248C2681.87 724.499 2678.33 730.201 2674.44 735.921C2671.8 739.739 2669.02 743.456 2666.25 747.186C2665.04 748.817 2663.84 750.449 2662.63 752.08C2662.03 752.896 2661.43 753.711 2660.81 754.552C2659.05 756.93 2657.3 759.313 2655.55 761.698C2649.41 770.074 2643.2 778.382 2636.88 786.623C2631.57 793.543 2626.42 800.538 2621.43 807.689C2617.73 813 2613.92 818.229 2610.06 823.436C2600.51 836.352 2591.07 849.331 2582.02 862.6C2579.05 866.936 2576.05 871.241 2573.04 875.547C2567.65 883.277 2562.27 891.014 2557.07 898.877C2537.11 929.022 2516.26 958.519 2494.77 987.594C2492.99 990.013 2491.21 992.435 2489.43 994.858C2483.96 1002.29 2478.49 1009.7 2472.94 1017.06C2468.21 1023.34 2463.59 1029.69 2459 1036.07C2455.02 1041.6 2450.99 1047.09 2446.94 1052.56C2437.36 1065.52 2428.14 1078.73 2419 1092C2419.33 1092.66 2419.66 1093.32 2420 1094C2420.48 1093.5 2420.97 1093.01 2421.47 1092.49C2422.14 1091.82 2422.81 1091.14 2423.5 1090.44C2424.15 1089.77 2424.8 1089.11 2425.47 1088.43C2427.51 1086.47 2429.58 1084.63 2431.72 1082.78C2436.37 1078.74 2440.68 1074.39 2445 1070C2453.42 1061.43 2453.42 1061.43 2457.91 1057.59C2463.05 1053.17 2467.74 1048.32 2472.5 1043.5C2474.3 1041.67 2476.1 1039.85 2477.91 1038.03C2479.09 1036.83 2479.09 1036.83 2480.29 1035.61C2482.29 1033.69 2484.28 1031.9 2486.38 1030.11C2493.24 1024.15 2499.55 1017.59 2505.97 1011.16C2507.42 1009.71 2508.88 1008.26 2510.33 1006.81C2513.36 1003.78 2516.39 1000.74 2519.42 997.711C2523.28 993.84 2527.15 989.974 2531.02 986.109C2534.02 983.117 2537.01 980.123 2540 977.129C2541.43 975.703 2542.85 974.278 2544.28 972.853C2553.75 963.477 2553.75 963.477 2562.65 953.564C2564.18 951.784 2565.82 950.144 2567.5 948.498C2569.86 946.178 2572.08 943.801 2574.24 941.291C2577.95 937.026 2581.8 932.91 2585.69 928.811C2589.84 924.431 2593.97 920.038 2598.03 915.579C2605.19 907.751 2612.63 900.219 2620.14 892.73C2622.26 890.609 2624.39 888.481 2626.51 886.354C2627.89 884.977 2629.26 883.601 2630.64 882.225C2631.26 881.602 2631.88 880.979 2632.52 880.337C2636.29 876.589 2640.17 873.028 2644.2 869.561C2646.39 867.655 2648.5 865.672 2650.61 863.676C2657.18 857.476 2664.07 851.851 2671.23 846.362C2673 844.996 2674.76 843.61 2676.5 842.217C2682.39 837.531 2688.33 832.951 2694.44 828.561C2694.99 828.16 2695.55 827.759 2696.12 827.346C2699.95 824.622 2703.89 822.277 2708 819.998C2707.32 804.693 2692.64 790.065 2683.71 778.326C2681.19 774.903 2680.52 772.478 2680.61 768.155C2681.37 763.949 2683.78 761.639 2687 758.998C2694.02 755.118 2701.35 752.83 2709.12 751.061C2710.71 750.688 2710.71 750.688 2712.33 750.307C2720.66 748.401 2729.03 746.889 2737.44 745.429C2748.35 743.535 2759.09 741.467 2769.75 738.436C2770.73 738.167 2771.7 737.898 2772.71 737.622C2778 736.033 2781.5 734.514 2785 729.998C2791.66 717.604 2790.52 700.671 2791 686.998C2781.58 686.998 2772.17 687.059 2762.76 687.211ZM2460.69 692.998C2452.94 697.958 2444.94 702.406 2436.88 706.811C2410.25 721.109 2410.25 721.109 2386 738.998C2385.42 739.492 2384.85 739.985 2384.26 740.493C2382.53 741.981 2380.82 743.484 2379.12 744.998C2378.61 745.456 2378.09 745.913 2377.55 746.384C2376.31 747.526 2375.15 748.757 2374 749.998C2374 750.988 2374 751.978 2374 752.998C2375.06 753.462 2376.13 753.926 2377.23 754.404C2381.19 756.133 2385.15 757.872 2389.11 759.615C2390.82 760.366 2392.53 761.115 2394.24 761.861C2396.71 762.936 2399.17 764.021 2401.64 765.108C2402.4 765.437 2403.16 765.766 2403.94 766.106C2408.77 768.247 2413.33 770.415 2416.29 774.991C2418.23 780.452 2417.5 785.607 2415.12 790.811C2412.61 795.417 2409.43 799.299 2406 803.262C2401.84 808.092 2398.19 813.207 2394.53 818.424C2392.54 821.258 2390.48 824.034 2388.4 826.799C2382.66 834.451 2377.3 842.353 2371.98 850.293C2371.09 851.623 2370.19 852.952 2369.3 854.279C2355.57 874.639 2352.95 887.948 2355.74 912.148C2358.36 935.12 2360.38 958.139 2362.33 981.176C2362.56 983.878 2362.79 986.58 2363.02 989.282C2364.46 1006.14 2365.87 1023 2367.12 1039.87C2369.25 1068.27 2372.25 1096.27 2379 1124C2379.66 1124 2380.32 1124 2381 1124C2381.11 1123.29 2381.23 1122.58 2381.35 1121.85C2383.78 1106.89 2386.34 1091.96 2389.12 1077.06C2391.99 1061.69 2394.71 1046.29 2397.38 1030.88C2416.67 919.61 2416.67 919.61 2428 866.998C2428.24 865.884 2428.48 864.769 2428.72 863.621C2435.53 831.844 2443.05 800.378 2451.76 769.071C2457.01 750.204 2462.1 731.257 2466 712.061C2466.2 711.103 2466.39 710.144 2466.59 709.157C2467.89 702.464 2468.55 695.797 2469 688.998C2465.73 688.998 2463.35 691.256 2460.69 692.998ZM2481 736.998C2479.22 741.087 2478.14 745.234 2477.15 749.569C2476.8 751.101 2476.44 752.633 2476.08 754.165C2475.9 754.971 2475.71 755.777 2475.52 756.608C2472.58 769.303 2469.54 781.959 2466.23 794.561C2448.84 860.822 2435.87 928.265 2422.53 995.431C2417.32 1021.67 2411.95 1047.86 2406.07 1073.96C2405.79 1075.16 2405.79 1075.16 2405.52 1076.39C2404.71 1079.93 2403.89 1083.46 2403.02 1086.98C2402.73 1088.14 2402.45 1089.31 2402.15 1090.51C2401.9 1091.49 2401.65 1092.47 2401.4 1093.47C2400.99 1096.03 2401.16 1097.57 2402 1100C2402.39 1099.43 2402.77 1098.85 2403.17 1098.26C2411.4 1086.1 2419.75 1074.04 2428.41 1062.18C2430.56 1059.23 2432.69 1056.27 2434.82 1053.31C2442.72 1042.34 2450.74 1031.47 2458.77 1020.6C2469.37 1006.26 2479.87 991.856 2490.19 977.311C2490.63 976.695 2491.06 976.079 2491.52 975.445C2496.02 969.063 2500.32 962.54 2504.65 956.033C2506.88 952.678 2509.12 949.331 2511.37 945.983C2523.65 927.665 2523.65 927.665 2535.53 909.088C2541.89 898.917 2548.53 888.924 2555.12 878.903C2558.21 874.206 2561.29 869.502 2564.36 864.795C2580.75 839.726 2597.56 814.998 2615.13 790.743C2619.41 784.841 2623.62 778.898 2627.81 772.934C2631.35 767.895 2634.97 762.927 2638.67 758.002C2640.18 756.121 2640.18 756.121 2640 753.998C2635.37 755.632 2631.42 758.08 2627.25 760.623C2597.79 778.181 2557.44 798.448 2522.48 790.096C2508.94 785.828 2497.77 777.231 2490.53 765.018C2486.03 756.132 2483.35 746.846 2482 736.998C2481.67 736.998 2481.34 736.998 2481 736.998ZM2357 764.998C2356.48 765.642 2355.96 766.285 2355.42 766.948C2351.64 771.591 2347.83 776.209 2343.94 780.76C2338.58 787.037 2333.44 793.459 2328.47 800.055C2326.79 802.279 2325.09 804.49 2323.39 806.701C2315.68 816.79 2308.22 826.911 2302 837.998C2301.5 838.893 2301.5 838.893 2300.98 839.805C2289.69 860.492 2282.07 885.69 2279 908.998C2278.9 909.643 2278.81 910.289 2278.71 910.953C2271.73 963.651 2285.84 1020.03 2295.06 1071.61C2295.69 1075.13 2296.32 1078.66 2296.94 1082.19C2297.08 1083.01 2297.23 1083.84 2297.38 1084.7C2299.96 1099.43 2301.44 1114.04 2302 1129C2306.1 1128.24 2309.62 1126.97 2313.5 1125.44C2325.51 1121.14 2340.39 1120.88 2352.29 1125.65C2357.36 1128.17 2362.2 1131 2367 1134C2368.67 1135 2370.33 1136 2372 1137C2371.82 1136.42 2371.64 1135.84 2371.46 1135.24C2365.32 1115.04 2360.64 1094.52 2356.56 1073.81C2355.81 1070 2355.04 1066.19 2354.28 1062.38C2348.01 1031.1 2344.57 999.891 2341.67 968.155C2340.98 960.672 2340.29 953.189 2339.59 945.707C2339.22 941.748 2338.86 937.789 2338.5 933.829C2337.63 924.458 2336.72 915.098 2335.64 905.75C2330.79 863.604 2357.82 833.417 2381 800.998C2383.21 797.897 2385.42 794.792 2387.62 791.686C2388.14 790.973 2388.64 790.26 2389.17 789.526C2389.64 788.861 2390.11 788.196 2390.6 787.51C2391.02 786.927 2391.43 786.344 2391.86 785.743C2393.07 783.891 2394.05 781.993 2395 779.998C2383.65 774.338 2372.03 770.001 2360 765.998C2359.01 765.668 2358.02 765.338 2357 764.998ZM2124 777.998C2125 780.998 2125 780.998 2125 780.998L2124 777.998ZM2125 783.998C2125 785.978 2125 787.958 2125 789.998C2125.33 789.998 2125.66 789.998 2126 789.998C2126 788.018 2126 786.038 2126 783.998C2125.67 783.998 2125.34 783.998 2125 783.998ZM2126 790.998C2126.67 806.41 2128.08 821.748 2129.49 837.105C2130.11 843.809 2130.71 850.513 2131.32 857.217C2131.39 857.984 2131.46 858.75 2131.53 859.54C2132.59 871.22 2133.59 882.904 2134.55 894.592C2138.96 947.851 2144.02 1000.46 2159 1052C2159.33 1052 2159.66 1052 2160 1052C2158.53 1032.41 2156.71 1012.86 2154.75 993.311C2154.67 992.544 2154.6 991.777 2154.52 990.987C2150.51 950.947 2145.14 911.231 2138.84 871.489C2134.59 844.701 2130.75 817.861 2127 790.998C2126.67 790.998 2126.34 790.998 2126 790.998ZM2096 1091C2096.13 1094.33 2096.76 1095.73 2099 1098.21C2099.85 1098.92 2100.69 1099.64 2101.56 1100.37C2102.46 1101.15 2103.36 1101.93 2104.29 1102.73C2105.96 1104.12 2107.62 1105.51 2109.3 1106.89C2115.58 1112.14 2119.42 1117.32 2120.27 1125.66C2120.57 1134.33 2118.82 1140.27 2113.34 1147.05C2108.41 1152.28 2102.6 1156.51 2096.86 1160.8C2094.7 1162.46 2092.88 1164.06 2091 1166C2091.59 1166.06 2092.18 1166.12 2092.79 1166.18C2105.1 1167.46 2117.24 1169.13 2129.39 1171.54C2141.7 1173.98 2153.97 1175.91 2166.44 1177.31C2167.15 1177.39 2167.86 1177.47 2168.59 1177.56C2184.36 1179.33 2200.07 1180.18 2215.94 1180.19C2217.24 1180.2 2218.53 1180.21 2219.87 1180.22C2230.04 1180.24 2239.93 1179.29 2250 1178C2249.67 1170.05 2249.27 1162.1 2248.77 1154.16C2248.54 1150.47 2248.34 1146.78 2248.19 1143.09C2248.48 1126.44 2248.48 1126.44 2241.95 1112.39C2238.52 1110.09 2234.97 1109.05 2231 1108C2229.53 1107.29 2228.08 1106.55 2226.65 1105.75C2225.42 1105.16 2224.18 1104.57 2222.94 1104C2222.25 1103.68 2221.56 1103.36 2220.85 1103.02C2200.99 1092.93 2200.99 1092.93 2179.82 1089.22C2176.7 1090.55 2176.26 1094 2175 1097C2172.66 1098.85 2171.09 1098.99 2168.12 1099.37C2163.33 1098.8 2160.5 1096.74 2157.36 1093.09C2153.25 1087.75 2153.25 1087.75 2152.27 1084.81C2151.08 1082.69 2151.08 1082.69 2148.17 1082.26C2142.57 1081.77 2136.93 1081.77 2131.31 1081.75C2130.2 1081.73 2129.1 1081.71 2127.96 1081.69C2117.23 1081.64 2104.01 1082.99 2096 1091ZM2400 1100C2401 1102 2401 1102 2401 1102L2400 1100ZM2265 1131C2264.85 1138.96 2265.32 1146.82 2265.94 1154.75C2266.02 1155.94 2266.11 1157.13 2266.2 1158.36C2266.6 1163.63 2267.07 1168.79 2268 1174C2274.43 1173 2280.55 1171.75 2286 1168C2286.66 1167.01 2287.32 1166.02 2288 1165C2286.95 1164.92 2285.9 1164.83 2284.81 1164.75C2280.54 1163.91 2278.81 1163.31 2276 1160C2274.51 1154.8 2274.75 1150.91 2277 1146C2276.7 1141.75 2273.78 1139.19 2271 1136.25C2270.3 1135.49 2270.3 1135.49 2269.59 1134.71C2268.42 1133.45 2267.21 1132.22 2266 1131C2265.67 1131 2265.34 1131 2265 1131ZM2500 1134C2493.6 1140.66 2487.8 1147.81 2482 1155C2476.2 1162.19 2470.28 1169.22 2464 1176C2463.42 1176.65 2462.83 1177.3 2462.23 1177.97C2454.65 1186.06 2446.11 1190.31 2435.12 1191.37C2429.2 1191.16 2423.55 1189.28 2419.1 1185.3C2416.08 1181.67 2414.67 1178.37 2413.84 1173.72C2413.68 1172.84 2413.52 1171.95 2413.35 1171.03C2413.23 1170.36 2413.12 1169.69 2413 1169C2411.95 1169.03 2411.95 1169.03 2410.88 1169.06C2407.65 1169.15 2404.42 1169.2 2401.19 1169.25C2400.09 1169.28 2398.99 1169.32 2397.85 1169.35C2384.35 1169.51 2375.36 1164.98 2365.71 1155.83C2354.52 1145.25 2343.52 1139.3 2327.96 1139.58C2322.98 1139.85 2318.6 1141 2313.94 1142.75C2313.25 1143 2312.57 1143.25 2311.86 1143.51C2308.23 1144.97 2308.23 1144.97 2306.04 1148.06C2305.99 1150.49 2306.5 1152.62 2307 1155C2307.54 1161.97 2305.9 1167.78 2302.38 1173.75C2293.6 1182.06 2280.24 1185.25 2269 1189C2270.36 1218.38 2272.6 1247.68 2275 1277C2284.19 1274.84 2293.2 1272.2 2302.23 1269.47C2313.82 1265.97 2325.41 1262.55 2337.12 1259.5C2357.82 1254.06 2378.39 1247.66 2398.42 1240.13C2406.47 1237.12 2414.62 1234.46 2422.79 1231.79C2436.1 1227.42 2449.32 1223.03 2462 1217C2463.07 1216.49 2464.15 1215.98 2465.25 1215.46C2484.18 1205.83 2493.76 1186.69 2504 1169C2504.38 1168.35 2504.77 1167.7 2505.16 1167.03C2512.67 1154.27 2522.28 1136.37 2522.06 1121.25C2522.05 1120.45 2522.04 1119.65 2522.04 1118.83C2522.02 1118.22 2522.01 1117.62 2522 1117C2514.72 1117 2505.01 1129.02 2500 1134ZM2052.12 1194.94C2041.32 1210.5 2044.43 1231.84 2047.5 1249.39C2052.02 1273.12 2061.92 1298.87 2081.06 1314.5C2108.16 1328.34 2150.68 1313.06 2177.82 1305.6C2180.9 1304.75 2183.98 1303.92 2187.06 1303.09C2191.23 1301.96 2195.39 1300.82 2199.56 1299.69C2200.3 1299.48 2201.05 1299.28 2201.81 1299.07C2220.6 1293.93 2239.29 1288.43 2258 1283C2257.24 1272.58 2256.47 1262.15 2255.7 1251.73C2255.35 1246.89 2254.99 1242.05 2254.64 1237.21C2254.3 1232.53 2253.95 1227.86 2253.61 1223.18C2253.48 1221.4 2253.35 1219.62 2253.22 1217.84C2253.03 1215.34 2252.85 1212.84 2252.66 1210.34C2252.61 1209.61 2252.56 1208.88 2252.51 1208.13C2252.15 1203.4 2251.62 1198.71 2251 1194C2250.28 1194.08 2249.56 1194.17 2248.82 1194.26C2245.48 1194.65 2242.15 1195.04 2238.81 1195.44C2237.68 1195.57 2236.55 1195.71 2235.38 1195.84C2222.82 1197.31 2210.4 1198.19 2197.75 1198.19C2196.77 1198.19 2196.77 1198.19 2195.76 1198.18C2170.41 1198.14 2145.03 1196.51 2120.04 1192.14C2107.77 1190.09 2095.66 1189.68 2083.25 1189.62C2082.42 1189.62 2081.59 1189.61 2080.74 1189.6C2065.74 1189.32 2065.74 1189.32 2052.12 1194.94ZM2252.11 1315.31C2251.18 1315.58 2250.24 1315.85 2249.27 1316.13C2248.29 1316.42 2247.32 1316.7 2246.31 1317C2245.32 1317.28 2244.34 1317.57 2243.32 1317.87C2240.88 1318.57 2238.44 1319.28 2236 1320C2236.75 1320.59 2237.5 1321.18 2238.28 1321.8C2245.75 1327.84 2251.36 1334.89 2256.88 1342.71C2257.37 1343.4 2257.86 1344.08 2258.36 1344.78C2258.8 1345.4 2259.24 1346.02 2259.68 1346.66C2260.12 1347.1 2260.55 1347.54 2261 1348C2261.99 1348 2262.98 1348 2264 1348C2263.6 1343.64 2263.19 1339.28 2262.77 1334.92C2262.63 1333.44 2262.49 1331.95 2262.36 1330.47C2262.16 1328.34 2261.96 1326.2 2261.75 1324.07C2261.63 1322.79 2261.51 1321.51 2261.39 1320.18C2261.11 1316.98 2261.11 1316.98 2260 1314C2257.02 1314 2254.96 1314.48 2252.11 1315.31ZM2198.46 1329.97C2197.59 1330.19 2196.72 1330.4 2195.83 1330.62C2194.9 1330.86 2193.97 1331.1 2193.02 1331.34C2192.05 1331.59 2191.08 1331.84 2190.09 1332.09C2188.04 1332.62 2185.99 1333.15 2183.95 1333.69C2181.87 1334.22 2179.79 1334.75 2177.71 1335.27C2161.25 1339.08 2161.25 1339.08 2148 1349C2147.15 1349.9 2146.29 1350.8 2145.41 1351.73C2140.51 1358.47 2137.83 1364.88 2136 1373C2135.68 1374.4 2135.68 1374.4 2135.36 1375.83C2126.42 1423.81 2137.26 1480.19 2147.69 1527.25C2147.87 1528.06 2148.04 1528.87 2148.23 1529.71C2149.11 1533.4 2150.24 1536.93 2151.71 1540.42C2151.98 1541.06 2152.25 1541.7 2152.52 1542.36C2156.25 1546.5 2163.24 1546.37 2168.46 1546.85C2169.14 1546.91 2169.82 1546.98 2170.52 1547.04C2172.66 1547.24 2174.8 1547.43 2176.94 1547.62C2178.4 1547.76 2179.86 1547.89 2181.32 1548.03C2184.88 1548.36 2188.44 1548.68 2192 1549C2194.84 1539.63 2192.9 1528.29 2192.38 1518.64C2192.31 1517.41 2192.25 1516.18 2192.18 1514.92C2191.98 1511.03 2191.77 1507.14 2191.56 1503.25C2191.43 1500.66 2191.29 1498.07 2191.15 1495.47C2190.41 1481.13 2190.41 1481.13 2189.54 1466.8C2189.02 1458.51 2188.81 1450.26 2188.81 1441.96C2188.81 1439.8 2188.79 1437.64 2188.78 1435.48C2188.67 1409.07 2188.67 1409.07 2196 1399C2199.93 1395.94 2202.94 1395.69 2207.88 1396.19C2214.23 1398.61 2217.31 1403.52 2220.19 1409.31C2220.56 1410.04 2220.94 1410.78 2221.33 1411.53C2224.49 1417.77 2227.37 1424.13 2230.25 1430.5C2240.59 1453.32 2252.77 1474.77 2266 1496C2266.58 1496.93 2267.15 1497.86 2267.75 1498.82C2280.6 1519.57 2294.13 1540.26 2311 1558C2312.32 1555.9 2312.32 1555.9 2311.2 1553.05C2310.77 1551.78 2310.34 1550.5 2309.89 1549.23C2309.66 1548.53 2309.42 1547.84 2309.18 1547.12C2308.67 1545.61 2308.15 1544.09 2307.63 1542.58C2306.8 1540.16 2305.98 1537.73 2305.16 1535.3C2304.02 1531.9 2302.87 1528.49 2301.72 1525.09C2301.29 1523.82 2301.29 1523.82 2300.85 1522.52C2300.3 1520.88 2299.74 1519.24 2299.19 1517.59C2286.81 1480.98 2276.02 1443.5 2271.72 1404.97C2271.38 1402.1 2271.04 1399.22 2270.69 1396.34C2270.38 1393.56 2270.13 1390.77 2269.88 1387.97C2269.12 1378.79 2269.12 1378.79 2264.27 1371.37C2261.15 1369.48 2261.15 1369.48 2257.95 1368.23C2249.29 1364.61 2243.68 1355.19 2238.42 1347.76C2231.29 1337.84 2222.15 1331.72 2210.11 1329.26C2206.04 1328.75 2202.43 1328.98 2198.46 1329.97Z" fill="#1B1817"/>
</svg>
