<svg width="51" height="39" viewBox="0 0 51 39" fill="none" xmlns="http://www.w3.org/2000/svg">
<path d="M9.45964 38.9583V34.375H13.1263L17.6523 19.3073C17.9579 18.3142 18.5213 17.5217 19.3424 16.9297C20.1636 16.3377 21.0707 16.0417 22.0638 16.0417H28.9388C29.9319 16.0417 30.839 16.3377 31.6602 16.9297C32.4813 17.5217 33.0447 18.3142 33.3503 19.3073L37.8763 34.375H41.543V38.9583H9.45964ZM17.9388 34.375H33.0638L28.9388 20.625H22.0638L17.9388 34.375ZM23.2096 11.4583V0H27.793V11.4583H23.2096ZM36.8451 17.1302L33.5794 13.8646L41.7148 5.78646L44.9232 8.99479L36.8451 17.1302ZM39.2513 27.5V22.9167H50.7096V27.5H39.2513ZM14.1576 17.1302L6.07943 8.99479L9.28776 5.78646L17.4232 13.8646L14.1576 17.1302ZM0.292969 27.5V22.9167H11.7513V27.5H0.292969Z" fill="#1B1817"/>
</svg>
