<svg width="1499" height="2754" viewBox="0 0 1499 2754" fill="none" xmlns="http://www.w3.org/2000/svg">
<mask id="path-1-inside-1_3004_4886" fill="white">
<path d="M1474.24 1614.37C1473.4 1613.24 1473.4 1613.24 1472.55 1612.09C1468.1 1606.23 1463.25 1600.76 1458.24 1595.37C1457.69 1594.76 1457.13 1594.15 1456.57 1593.53C1447.98 1584.47 1437.87 1577.92 1426.96 1572.04C1420.48 1568.54 1414.33 1564.67 1408.17 1560.62C1404.33 1558.12 1400.43 1555.69 1396.55 1553.24C1391.65 1550.15 1386.74 1547.06 1381.86 1543.93C1375.71 1540.01 1369.5 1536.18 1363.29 1532.35C1352.54 1525.7 1341.8 1519.01 1331.14 1512.21C1326.83 1509.47 1322.49 1506.77 1318.15 1504.06C1313.4 1501.1 1308.67 1498.09 1303.95 1495.08C1300.88 1493.14 1297.78 1491.25 1294.68 1489.37C1290.68 1486.92 1286.8 1484.4 1282.99 1481.68C1279.29 1479.04 1275.53 1476.82 1271.53 1474.69C1268.08 1472.7 1264.9 1470.36 1261.69 1468.01C1259.24 1466.37 1259.24 1466.37 1256.53 1465.02C1252.1 1462.79 1247.98 1460.15 1243.8 1457.49C1242.98 1456.97 1242.16 1456.46 1241.31 1455.92C1237.61 1453.58 1233.96 1451.2 1230.41 1448.63C1227.94 1446.87 1225.61 1445.38 1222.93 1443.99C1219.52 1442.15 1216.38 1440.12 1213.24 1437.87C1210.27 1435.74 1207.33 1433.78 1204.11 1432.05C1189.3 1424.07 1175.15 1414.43 1161.24 1404.99C1158.57 1403.2 1155.88 1401.58 1153.05 1400.05C1148.59 1397.63 1144.35 1394.92 1140.1 1392.16C1134.97 1388.82 1129.79 1385.56 1124.61 1382.3C1119.23 1378.92 1113.88 1375.49 1108.61 1371.93C1104.68 1369.27 1100.69 1366.89 1096.52 1364.64C1091.96 1362.09 1087.61 1359.21 1083.24 1356.37C1082.53 1355.92 1081.83 1355.47 1081.1 1355.01C1077.55 1352.7 1074.11 1350.29 1070.75 1347.71C1063.14 1341.86 1055.46 1336.5 1047.22 1331.57C1041.56 1328.19 1036.01 1324.67 1030.49 1321.05C1022.52 1315.84 1014.51 1310.7 1006.46 1305.61C1001.93 1302.74 997.42 1299.83 992.964 1296.84C983.748 1290.66 974.785 1285.2 964.415 1281.21C961.966 1280.26 959.537 1279.27 957.105 1278.28C930.405 1267.54 903.397 1265.58 876.398 1276.91C852.47 1287.91 834.718 1305.84 816.238 1324.24C815.353 1325.12 814.469 1326 813.557 1326.91C808.578 1331.9 803.798 1336.99 799.238 1342.37C798.768 1342.91 798.297 1343.46 797.813 1344.03C796.491 1345.57 795.175 1347.12 793.863 1348.68C793.394 1349.23 792.926 1349.78 792.443 1350.35C789.46 1353.89 786.525 1357.46 783.613 1361.05C780.744 1364.58 777.799 1368 774.738 1371.37C770.034 1376.54 765.619 1381.92 761.238 1387.37C760.312 1388.51 759.386 1389.65 758.461 1390.8C752.535 1398.15 746.744 1405.58 741.026 1413.09C737.606 1417.58 734.163 1422.05 730.675 1426.49C730.231 1427.06 729.787 1427.62 729.329 1428.2C727.011 1431.15 724.673 1434.07 722.308 1436.97C716.471 1444.15 710.966 1451.47 705.685 1459.07C700.173 1466.97 694.324 1474.68 687.988 1481.94C686.238 1484.37 686.238 1484.37 685.765 1486.77C685.024 1490.42 682.982 1492.94 680.8 1495.87C680.35 1496.48 679.9 1497.1 679.436 1497.73C676.136 1502.22 672.754 1506.65 669.337 1511.05C665.458 1516.05 661.657 1521.11 657.863 1526.18C657.22 1527.04 656.576 1527.89 655.914 1528.78C652.939 1532.75 649.972 1536.72 647.031 1540.71C633.585 1558.92 618.593 1576.76 601.363 1591.51C599.937 1592.75 598.541 1594.04 597.175 1595.35C589.634 1602.52 581.137 1608.17 572.465 1613.89C570.576 1615.14 568.714 1616.42 566.859 1617.73C560.42 1622.05 553.923 1624.83 546.613 1627.37C545.754 1627.67 544.895 1627.97 544.01 1628.28C538.49 1630.07 533.664 1630.63 527.865 1630.37C524.89 1630.36 522.168 1630.86 519.238 1631.37C485.119 1633.64 459.127 1626.3 433.335 1603.84C400.066 1574.24 379.294 1534.76 365.347 1493.01C362.552 1484.84 359.003 1477.14 355.304 1469.35C352.162 1462.63 349.559 1455.9 347.238 1448.87C335.478 1413.53 314.626 1377.05 285.238 1353.37C284.294 1352.6 283.351 1351.83 282.378 1351.03C253.254 1327.71 218.224 1316.12 180.791 1319.59C136.024 1324.87 96.0123 1352.44 68.2534 1387.06C5.93213 1466.08 2.15002 1552.34 2.15186 1652.96C2.15186 1654.21 2.15173 1654.21 2.15173 1655.49C2.15002 1709.95 2.62842 1764.41 3.05469 1818.87C3.14197 1830.03 3.22607 1841.18 3.30786 1852.33C3.40491 1865.55 3.50378 1878.77 3.60559 1891.99C3.61658 1893.42 3.62756 1894.84 3.63855 1896.27C3.64392 1896.97 3.64941 1897.67 3.65491 1898.39C3.69153 1903.16 3.72693 1907.92 3.76172 1912.69C4.00928 1946.39 4.44019 1980.08 5.06787 2013.77C5.37659 2030.61 5.56677 2047.44 5.74048 2064.28C5.77893 2067.98 5.82056 2071.67 5.86548 2075.36C6.125 2096.77 6.26013 2118.17 6.21411 2139.58C6.10217 2195.25 6.41772 2250.9 6.85889 2306.56C6.86682 2307.56 6.87463 2308.55 6.88281 2309.58C7.0885 2335.53 7.30176 2361.48 7.51746 2387.42C7.64038 2402.21 7.76111 2417 7.88062 2431.79C7.89319 2433.35 7.89331 2433.35 7.90613 2434.94C7.94849 2440.18 7.99072 2445.42 8.03296 2450.66C8.24719 2477.2 8.46228 2503.74 8.68347 2530.29C8.69165 2531.26 8.69971 2532.24 8.70813 2533.25C8.77271 2540.99 8.83728 2548.74 8.90186 2556.49C9.10254 2580.54 9.29541 2604.59 9.47351 2628.64C9.51147 2633.76 9.55005 2638.87 9.58936 2643.99C9.59473 2644.68 9.6001 2645.38 9.60559 2646.09C9.62671 2648.84 9.64771 2651.58 9.66895 2654.33C9.73279 2662.58 9.79309 2670.84 9.84912 2679.09C9.88074 2683.61 9.91602 2688.13 9.95239 2692.65C9.96802 2694.69 9.98206 2696.72 9.99438 2698.76C10.2109 2734.15 10.2109 2734.15 20.6128 2745.37C27.9519 2751.91 35.4213 2753.81 45.2378 2753.37C53.9685 2752.15 62.2004 2749.81 69.2378 2744.37C70.9033 2743.16 72.5702 2741.95 74.2378 2740.74C75.1737 2740.05 76.1095 2739.36 77.0737 2738.65C80.6307 2736.08 84.2385 2733.59 87.8628 2731.12C95.6532 2725.79 103.369 2720.36 111.07 2714.9C113.279 2713.34 115.49 2711.78 117.703 2710.22C129.898 2701.63 129.898 2701.63 135.863 2697.24C140.77 2693.64 145.82 2690.29 150.896 2686.94C154.78 2684.37 158.539 2681.69 162.23 2678.85C164.776 2676.97 167.407 2675.23 170.05 2673.49C175.005 2670.22 179.823 2666.8 184.609 2663.29C190.009 2659.34 195.515 2655.54 201.035 2651.76C202.415 2650.82 203.795 2649.87 205.175 2648.93C205.867 2648.45 206.559 2647.98 207.272 2647.49C212.125 2644.16 216.885 2640.71 221.621 2637.22C225.373 2634.56 229.28 2632.18 233.218 2629.81C234.218 2629.09 234.218 2629.09 235.238 2628.37C235.238 2627.71 235.238 2627.05 235.238 2626.37C235.911 2626.14 236.584 2625.91 237.277 2625.67C241.055 2624 244.24 2621.79 247.613 2619.43C248.317 2618.94 249.021 2618.45 249.746 2617.95C255.026 2614.26 260.213 2610.46 265.384 2606.63C271.171 2602.36 277.097 2598.32 283.043 2594.28C289.089 2590.16 295.073 2585.97 301.036 2581.74C305.719 2578.42 310.436 2575.16 315.175 2571.93C321.774 2567.42 328.259 2562.76 334.727 2558.07C341.164 2553.4 347.681 2548.86 354.238 2544.37C356.469 2542.83 358.697 2541.28 360.925 2539.74C362.534 2538.63 362.534 2538.63 364.175 2537.49C368.539 2534.46 372.89 2531.42 377.238 2528.37C378.904 2527.2 380.571 2526.03 382.238 2524.87C392.238 2517.87 392.238 2517.87 394.742 2516.11C396.394 2514.96 398.047 2513.8 399.703 2512.65C404.081 2509.6 408.427 2506.51 412.738 2503.37C420.017 2498.06 427.408 2492.93 434.849 2487.85C443.238 2482.13 451.573 2476.34 459.859 2470.46C464.638 2467.08 469.437 2463.72 474.238 2460.37C480.623 2455.9 487 2451.42 493.363 2446.93C501.186 2441.4 509.015 2435.89 516.917 2430.47C524.02 2425.6 531.063 2420.66 538.058 2415.64C542.426 2412.51 546.829 2409.44 551.238 2406.37C556.218 2402.9 561.184 2399.41 566.114 2395.87C571.826 2391.77 577.571 2387.72 583.363 2383.74C584.029 2383.28 584.695 2382.82 585.381 2382.35C588.538 2380.19 591.707 2378.05 594.918 2375.96C596.013 2375.25 597.109 2374.54 598.238 2373.8C599.207 2373.18 600.177 2372.56 601.175 2371.92C601.856 2371.41 602.537 2370.89 603.238 2370.37C603.238 2369.71 603.238 2369.05 603.238 2368.37C604.222 2368.04 604.222 2368.04 605.226 2367.71C609.313 2365.88 612.778 2363.38 616.425 2360.8C617.856 2359.8 619.287 2358.8 620.718 2357.8C621.346 2357.36 621.974 2356.91 622.621 2356.46C624.256 2355.3 624.256 2355.3 626.238 2354.37C626.238 2353.71 626.238 2353.05 626.238 2352.37C626.958 2352.11 627.679 2351.85 628.421 2351.59C631.424 2350.28 633.693 2348.71 636.3 2346.74C640.153 2343.88 644.04 2341.13 648.05 2338.49C653.101 2335.16 658.035 2331.69 662.947 2328.15C668.003 2324.52 673.113 2320.97 678.238 2317.44C685.355 2312.52 692.421 2307.54 699.488 2302.55C700.219 2302.04 700.951 2301.52 701.704 2300.99C705.166 2298.55 708.622 2296.09 712.058 2293.62C713.243 2292.76 714.428 2291.91 715.613 2291.05C716.176 2290.65 716.739 2290.24 717.319 2289.82C721.858 2286.57 726.539 2283.61 731.324 2280.74C731.955 2280.29 732.587 2279.83 733.238 2279.37C733.238 2278.71 733.238 2278.05 733.238 2277.37C734.28 2277.01 734.28 2277.01 735.343 2276.64C738.747 2275.14 741.578 2273.13 744.55 2270.93C745.803 2270.02 747.057 2269.11 748.312 2268.2C748.96 2267.73 749.607 2267.26 750.274 2266.77C753.437 2264.5 756.649 2262.31 759.863 2260.12C766.878 2255.32 773.844 2250.45 780.801 2245.57C786.052 2241.89 791.322 2238.24 796.613 2234.62C805.37 2228.61 814.004 2222.45 822.586 2216.2C830.306 2210.59 838.06 2205.08 846.035 2199.83C850.687 2196.76 855.204 2193.54 859.691 2190.23C863.822 2187.2 868.034 2184.29 872.238 2181.37C873.78 2180.28 875.321 2179.2 876.863 2178.12C880.487 2175.58 884.129 2173.06 887.78 2170.56C898.885 2162.95 909.943 2155.27 920.8 2147.3C925.873 2143.59 931.041 2140.03 936.23 2136.48C943.17 2131.74 950.043 2126.91 956.921 2122.08C965.285 2116.21 973.668 2110.37 982.113 2104.62C988.86 2100.02 995.54 2095.34 1002.17 2090.57C1004.91 2088.6 1007.66 2086.67 1010.43 2084.74C1013.71 2082.45 1016.95 2080.11 1020.18 2077.74C1026.11 2073.4 1032.18 2069.28 1038.26 2065.15C1043.39 2061.65 1048.45 2058.07 1053.45 2054.38C1056.94 2051.86 1060.49 2049.42 1064.05 2046.99C1069.28 2043.42 1074.47 2039.8 1079.61 2036.12C1080.19 2035.7 1080.76 2035.29 1081.35 2034.87C1081.91 2034.47 1082.46 2034.07 1083.04 2033.66C1085.95 2031.57 1088.87 2029.49 1091.8 2027.43C1092.54 2026.9 1093.29 2026.38 1094.05 2025.84C1096.3 2024.28 1096.3 2024.28 1099.02 2022.8C1099.75 2022.33 1100.48 2021.85 1101.24 2021.37C1101.24 2020.71 1101.24 2020.05 1101.24 2019.37C1101.9 2019.14 1102.57 2018.92 1103.26 2018.69C1107.16 2016.96 1110.45 2014.63 1113.93 2012.18C1114.64 2011.68 1115.35 2011.19 1116.08 2010.68C1118.13 2009.25 1120.19 2007.81 1122.24 2006.37C1123.68 2005.36 1123.68 2005.36 1125.16 2004.33C1126.77 2003.21 1128.37 2002.08 1129.98 2000.95C1131.46 1999.91 1132.95 1998.87 1134.43 1997.84C1138.48 1995.03 1142.5 1992.18 1146.48 1989.28C1153.84 1983.92 1161.16 1978.64 1168.91 1973.85C1171.9 1971.94 1174.7 1969.82 1177.51 1967.65C1179.39 1966.2 1179.39 1966.2 1182.24 1964.62C1183.23 1964 1183.23 1964 1184.24 1963.37C1184.24 1962.71 1184.24 1962.05 1184.24 1961.37C1184.9 1961.15 1185.56 1960.93 1186.24 1960.71C1190.26 1958.91 1193.62 1956.44 1197.18 1953.87C1197.93 1953.33 1198.68 1952.79 1199.46 1952.23C1201.72 1950.62 1203.98 1948.99 1206.24 1947.37C1208.53 1945.72 1210.82 1944.07 1213.11 1942.43C1213.66 1942.03 1214.21 1941.64 1214.78 1941.23C1220.59 1937.08 1226.51 1933.07 1232.41 1929.05C1236.65 1926.15 1240.86 1923.23 1244.99 1920.18C1249.15 1917.1 1253.42 1914.22 1257.74 1911.37C1262.93 1907.93 1268.01 1904.39 1273.03 1900.7C1279.86 1895.74 1286.81 1890.94 1293.73 1886.11C1297.14 1883.73 1300.55 1881.35 1303.96 1878.96C1306.22 1877.38 1308.48 1875.81 1310.74 1874.24C1314.01 1871.95 1317.26 1869.63 1320.48 1867.28C1327.86 1861.91 1335.2 1856.63 1342.95 1851.82C1345.7 1850.07 1348.26 1848.13 1350.85 1846.14C1354.06 1843.75 1357.37 1841.5 1360.68 1839.24C1367.02 1834.9 1373.32 1830.51 1379.59 1826.07C1385.25 1822.06 1390.93 1818.08 1396.61 1814.12C1402.61 1809.92 1408.57 1805.69 1414.47 1801.35C1418.71 1798.31 1423.02 1795.38 1427.33 1792.44C1432.19 1789.11 1436.95 1785.67 1441.68 1782.17C1444.2 1780.39 1446.77 1778.86 1449.43 1777.3C1472.95 1762.61 1489.5 1738.07 1495.96 1711.38C1496.48 1708.71 1496.89 1706.06 1497.24 1703.37C1497.36 1702.49 1497.48 1701.62 1497.61 1700.72C1501.1 1669.87 1492.62 1639.18 1474.24 1614.37Z"/>
</mask>
<path d="M1474.24 1614.37C1473.4 1613.24 1473.4 1613.24 1472.55 1612.09C1468.1 1606.23 1463.25 1600.76 1458.24 1595.37C1457.69 1594.76 1457.13 1594.15 1456.57 1593.53C1447.98 1584.47 1437.87 1577.92 1426.96 1572.04C1420.48 1568.54 1414.33 1564.67 1408.17 1560.62C1404.33 1558.12 1400.43 1555.69 1396.55 1553.24C1391.65 1550.15 1386.74 1547.06 1381.86 1543.93C1375.71 1540.01 1369.5 1536.18 1363.29 1532.35C1352.54 1525.7 1341.8 1519.01 1331.14 1512.21C1326.83 1509.47 1322.49 1506.77 1318.15 1504.06C1313.4 1501.1 1308.67 1498.09 1303.95 1495.08C1300.88 1493.14 1297.78 1491.25 1294.68 1489.37C1290.68 1486.92 1286.8 1484.4 1282.99 1481.68C1279.29 1479.04 1275.53 1476.82 1271.53 1474.69C1268.08 1472.7 1264.9 1470.36 1261.69 1468.01C1259.24 1466.37 1259.24 1466.37 1256.53 1465.02C1252.1 1462.79 1247.98 1460.15 1243.8 1457.49C1242.98 1456.97 1242.16 1456.46 1241.31 1455.92C1237.61 1453.58 1233.96 1451.2 1230.41 1448.63C1227.94 1446.87 1225.61 1445.38 1222.93 1443.99C1219.52 1442.15 1216.38 1440.12 1213.24 1437.87C1210.27 1435.74 1207.33 1433.78 1204.11 1432.05C1189.3 1424.07 1175.15 1414.43 1161.24 1404.99C1158.57 1403.2 1155.88 1401.58 1153.05 1400.05C1148.59 1397.63 1144.35 1394.92 1140.1 1392.16C1134.97 1388.82 1129.79 1385.56 1124.61 1382.3C1119.23 1378.92 1113.88 1375.49 1108.61 1371.93C1104.68 1369.27 1100.69 1366.89 1096.52 1364.64C1091.96 1362.09 1087.61 1359.21 1083.24 1356.37C1082.53 1355.92 1081.83 1355.47 1081.1 1355.01C1077.55 1352.7 1074.11 1350.29 1070.75 1347.71C1063.14 1341.86 1055.46 1336.5 1047.22 1331.57C1041.56 1328.19 1036.01 1324.67 1030.49 1321.05C1022.52 1315.84 1014.51 1310.7 1006.46 1305.61C1001.93 1302.74 997.42 1299.83 992.964 1296.84C983.748 1290.66 974.785 1285.2 964.415 1281.21C961.966 1280.26 959.537 1279.27 957.105 1278.28C930.405 1267.54 903.397 1265.58 876.398 1276.91C852.47 1287.91 834.718 1305.84 816.238 1324.24C815.353 1325.12 814.469 1326 813.557 1326.91C808.578 1331.9 803.798 1336.99 799.238 1342.37C798.768 1342.91 798.297 1343.46 797.813 1344.03C796.491 1345.57 795.175 1347.12 793.863 1348.68C793.394 1349.23 792.926 1349.78 792.443 1350.35C789.46 1353.89 786.525 1357.46 783.613 1361.05C780.744 1364.58 777.799 1368 774.738 1371.37C770.034 1376.54 765.619 1381.92 761.238 1387.37C760.312 1388.51 759.386 1389.65 758.461 1390.8C752.535 1398.15 746.744 1405.58 741.026 1413.09C737.606 1417.58 734.163 1422.05 730.675 1426.49C730.231 1427.06 729.787 1427.62 729.329 1428.2C727.011 1431.15 724.673 1434.07 722.308 1436.97C716.471 1444.15 710.966 1451.47 705.685 1459.07C700.173 1466.97 694.324 1474.68 687.988 1481.94C686.238 1484.37 686.238 1484.37 685.765 1486.77C685.024 1490.42 682.982 1492.94 680.8 1495.87C680.35 1496.48 679.9 1497.1 679.436 1497.73C676.136 1502.22 672.754 1506.65 669.337 1511.05C665.458 1516.05 661.657 1521.11 657.863 1526.18C657.22 1527.04 656.576 1527.89 655.914 1528.78C652.939 1532.75 649.972 1536.72 647.031 1540.71C633.585 1558.92 618.593 1576.76 601.363 1591.51C599.937 1592.75 598.541 1594.04 597.175 1595.35C589.634 1602.52 581.137 1608.17 572.465 1613.89C570.576 1615.14 568.714 1616.42 566.859 1617.73C560.42 1622.05 553.923 1624.83 546.613 1627.37C545.754 1627.67 544.895 1627.97 544.01 1628.28C538.49 1630.07 533.664 1630.63 527.865 1630.37C524.89 1630.36 522.168 1630.86 519.238 1631.37C485.119 1633.64 459.127 1626.3 433.335 1603.84C400.066 1574.24 379.294 1534.76 365.347 1493.01C362.552 1484.84 359.003 1477.14 355.304 1469.35C352.162 1462.63 349.559 1455.9 347.238 1448.87C335.478 1413.53 314.626 1377.05 285.238 1353.37C284.294 1352.6 283.351 1351.83 282.378 1351.03C253.254 1327.71 218.224 1316.12 180.791 1319.59C136.024 1324.87 96.0123 1352.44 68.2534 1387.06C5.93213 1466.08 2.15002 1552.34 2.15186 1652.96C2.15186 1654.21 2.15173 1654.21 2.15173 1655.49C2.15002 1709.95 2.62842 1764.41 3.05469 1818.87C3.14197 1830.03 3.22607 1841.18 3.30786 1852.33C3.40491 1865.55 3.50378 1878.77 3.60559 1891.99C3.61658 1893.42 3.62756 1894.84 3.63855 1896.27C3.64392 1896.97 3.64941 1897.67 3.65491 1898.39C3.69153 1903.16 3.72693 1907.92 3.76172 1912.69C4.00928 1946.39 4.44019 1980.08 5.06787 2013.77C5.37659 2030.61 5.56677 2047.44 5.74048 2064.28C5.77893 2067.98 5.82056 2071.67 5.86548 2075.36C6.125 2096.77 6.26013 2118.17 6.21411 2139.58C6.10217 2195.25 6.41772 2250.9 6.85889 2306.56C6.86682 2307.56 6.87463 2308.55 6.88281 2309.58C7.0885 2335.53 7.30176 2361.48 7.51746 2387.42C7.64038 2402.21 7.76111 2417 7.88062 2431.79C7.89319 2433.35 7.89331 2433.35 7.90613 2434.94C7.94849 2440.18 7.99072 2445.42 8.03296 2450.66C8.24719 2477.2 8.46228 2503.74 8.68347 2530.29C8.69165 2531.26 8.69971 2532.24 8.70813 2533.25C8.77271 2540.99 8.83728 2548.74 8.90186 2556.49C9.10254 2580.54 9.29541 2604.59 9.47351 2628.64C9.51147 2633.76 9.55005 2638.87 9.58936 2643.99C9.59473 2644.68 9.6001 2645.38 9.60559 2646.09C9.62671 2648.84 9.64771 2651.58 9.66895 2654.33C9.73279 2662.58 9.79309 2670.84 9.84912 2679.09C9.88074 2683.61 9.91602 2688.13 9.95239 2692.65C9.96802 2694.69 9.98206 2696.72 9.99438 2698.76C10.2109 2734.15 10.2109 2734.15 20.6128 2745.37C27.9519 2751.91 35.4213 2753.81 45.2378 2753.37C53.9685 2752.15 62.2004 2749.81 69.2378 2744.37C70.9033 2743.16 72.5702 2741.95 74.2378 2740.74C75.1737 2740.05 76.1095 2739.36 77.0737 2738.65C80.6307 2736.08 84.2385 2733.59 87.8628 2731.12C95.6532 2725.79 103.369 2720.36 111.07 2714.9C113.279 2713.34 115.49 2711.78 117.703 2710.22C129.898 2701.63 129.898 2701.63 135.863 2697.24C140.77 2693.64 145.82 2690.29 150.896 2686.94C154.78 2684.37 158.539 2681.69 162.23 2678.85C164.776 2676.97 167.407 2675.23 170.05 2673.49C175.005 2670.22 179.823 2666.8 184.609 2663.29C190.009 2659.34 195.515 2655.54 201.035 2651.76C202.415 2650.82 203.795 2649.87 205.175 2648.93C205.867 2648.45 206.559 2647.98 207.272 2647.49C212.125 2644.16 216.885 2640.71 221.621 2637.22C225.373 2634.56 229.28 2632.18 233.218 2629.81C234.218 2629.09 234.218 2629.09 235.238 2628.37C235.238 2627.71 235.238 2627.05 235.238 2626.37C235.911 2626.14 236.584 2625.91 237.277 2625.67C241.055 2624 244.24 2621.79 247.613 2619.43C248.317 2618.94 249.021 2618.45 249.746 2617.95C255.026 2614.26 260.213 2610.46 265.384 2606.63C271.171 2602.36 277.097 2598.32 283.043 2594.28C289.089 2590.16 295.073 2585.97 301.036 2581.74C305.719 2578.42 310.436 2575.16 315.175 2571.93C321.774 2567.42 328.259 2562.76 334.727 2558.07C341.164 2553.4 347.681 2548.86 354.238 2544.37C356.469 2542.83 358.697 2541.28 360.925 2539.74C362.534 2538.63 362.534 2538.63 364.175 2537.49C368.539 2534.46 372.89 2531.42 377.238 2528.37C378.904 2527.2 380.571 2526.03 382.238 2524.87C392.238 2517.87 392.238 2517.87 394.742 2516.11C396.394 2514.96 398.047 2513.8 399.703 2512.65C404.081 2509.6 408.427 2506.51 412.738 2503.37C420.017 2498.06 427.408 2492.93 434.849 2487.85C443.238 2482.13 451.573 2476.34 459.859 2470.46C464.638 2467.08 469.437 2463.72 474.238 2460.37C480.623 2455.9 487 2451.42 493.363 2446.93C501.186 2441.4 509.015 2435.89 516.917 2430.47C524.02 2425.6 531.063 2420.66 538.058 2415.64C542.426 2412.51 546.829 2409.44 551.238 2406.37C556.218 2402.9 561.184 2399.41 566.114 2395.87C571.826 2391.77 577.571 2387.72 583.363 2383.74C584.029 2383.28 584.695 2382.82 585.381 2382.35C588.538 2380.19 591.707 2378.05 594.918 2375.96C596.013 2375.25 597.109 2374.54 598.238 2373.8C599.207 2373.18 600.177 2372.56 601.175 2371.92C601.856 2371.41 602.537 2370.89 603.238 2370.37C603.238 2369.71 603.238 2369.05 603.238 2368.37C604.222 2368.04 604.222 2368.04 605.226 2367.71C609.313 2365.88 612.778 2363.38 616.425 2360.8C617.856 2359.8 619.287 2358.8 620.718 2357.8C621.346 2357.36 621.974 2356.91 622.621 2356.46C624.256 2355.3 624.256 2355.3 626.238 2354.37C626.238 2353.71 626.238 2353.05 626.238 2352.37C626.958 2352.11 627.679 2351.85 628.421 2351.59C631.424 2350.28 633.693 2348.71 636.3 2346.74C640.153 2343.88 644.04 2341.13 648.05 2338.49C653.101 2335.16 658.035 2331.69 662.947 2328.15C668.003 2324.52 673.113 2320.97 678.238 2317.44C685.355 2312.52 692.421 2307.54 699.488 2302.55C700.219 2302.04 700.951 2301.52 701.704 2300.99C705.166 2298.55 708.622 2296.09 712.058 2293.62C713.243 2292.76 714.428 2291.91 715.613 2291.05C716.176 2290.65 716.739 2290.24 717.319 2289.82C721.858 2286.57 726.539 2283.61 731.324 2280.74C731.955 2280.29 732.587 2279.83 733.238 2279.37C733.238 2278.71 733.238 2278.05 733.238 2277.37C734.28 2277.01 734.28 2277.01 735.343 2276.64C738.747 2275.14 741.578 2273.13 744.55 2270.93C745.803 2270.02 747.057 2269.11 748.312 2268.2C748.96 2267.73 749.607 2267.26 750.274 2266.77C753.437 2264.5 756.649 2262.31 759.863 2260.12C766.878 2255.32 773.844 2250.45 780.801 2245.57C786.052 2241.89 791.322 2238.24 796.613 2234.62C805.37 2228.61 814.004 2222.45 822.586 2216.2C830.306 2210.59 838.06 2205.08 846.035 2199.83C850.687 2196.76 855.204 2193.54 859.691 2190.23C863.822 2187.2 868.034 2184.29 872.238 2181.37C873.78 2180.28 875.321 2179.2 876.863 2178.12C880.487 2175.58 884.129 2173.06 887.78 2170.56C898.885 2162.95 909.943 2155.27 920.8 2147.3C925.873 2143.59 931.041 2140.03 936.23 2136.48C943.17 2131.74 950.043 2126.91 956.921 2122.08C965.285 2116.21 973.668 2110.37 982.113 2104.62C988.86 2100.02 995.54 2095.34 1002.17 2090.57C1004.91 2088.6 1007.66 2086.67 1010.43 2084.74C1013.71 2082.45 1016.95 2080.11 1020.18 2077.74C1026.11 2073.4 1032.18 2069.28 1038.26 2065.15C1043.39 2061.65 1048.45 2058.07 1053.45 2054.38C1056.94 2051.86 1060.49 2049.42 1064.05 2046.99C1069.28 2043.42 1074.47 2039.8 1079.61 2036.12C1080.19 2035.7 1080.76 2035.29 1081.35 2034.87C1081.91 2034.47 1082.46 2034.07 1083.04 2033.66C1085.95 2031.57 1088.87 2029.49 1091.8 2027.43C1092.54 2026.9 1093.29 2026.38 1094.05 2025.84C1096.3 2024.28 1096.3 2024.28 1099.02 2022.8C1099.75 2022.33 1100.48 2021.85 1101.24 2021.37C1101.24 2020.71 1101.24 2020.05 1101.24 2019.37C1101.9 2019.14 1102.57 2018.92 1103.26 2018.69C1107.16 2016.96 1110.45 2014.63 1113.93 2012.18C1114.64 2011.68 1115.35 2011.19 1116.08 2010.68C1118.13 2009.25 1120.19 2007.81 1122.24 2006.37C1123.68 2005.36 1123.68 2005.36 1125.16 2004.33C1126.77 2003.21 1128.37 2002.08 1129.98 2000.95C1131.46 1999.91 1132.95 1998.87 1134.43 1997.84C1138.48 1995.03 1142.5 1992.18 1146.48 1989.28C1153.84 1983.92 1161.16 1978.64 1168.91 1973.85C1171.9 1971.94 1174.7 1969.82 1177.51 1967.65C1179.39 1966.2 1179.39 1966.2 1182.24 1964.62C1183.23 1964 1183.23 1964 1184.24 1963.37C1184.24 1962.71 1184.24 1962.05 1184.24 1961.37C1184.9 1961.15 1185.56 1960.93 1186.24 1960.71C1190.26 1958.91 1193.62 1956.44 1197.18 1953.87C1197.93 1953.33 1198.68 1952.79 1199.46 1952.23C1201.72 1950.62 1203.98 1948.99 1206.24 1947.37C1208.53 1945.72 1210.82 1944.07 1213.11 1942.43C1213.66 1942.03 1214.21 1941.64 1214.78 1941.23C1220.59 1937.08 1226.51 1933.07 1232.41 1929.05C1236.65 1926.15 1240.86 1923.23 1244.99 1920.18C1249.15 1917.1 1253.42 1914.22 1257.74 1911.37C1262.93 1907.93 1268.01 1904.39 1273.03 1900.7C1279.86 1895.74 1286.81 1890.94 1293.73 1886.11C1297.14 1883.73 1300.55 1881.35 1303.96 1878.96C1306.22 1877.38 1308.48 1875.81 1310.74 1874.24C1314.01 1871.95 1317.26 1869.63 1320.48 1867.28C1327.86 1861.91 1335.2 1856.63 1342.95 1851.82C1345.7 1850.07 1348.26 1848.13 1350.85 1846.14C1354.06 1843.75 1357.37 1841.5 1360.68 1839.24C1367.02 1834.9 1373.32 1830.51 1379.59 1826.07C1385.25 1822.06 1390.93 1818.08 1396.61 1814.12C1402.61 1809.92 1408.57 1805.69 1414.47 1801.35C1418.71 1798.31 1423.02 1795.38 1427.33 1792.44C1432.19 1789.11 1436.95 1785.67 1441.68 1782.17C1444.2 1780.39 1446.77 1778.86 1449.43 1777.3C1472.95 1762.61 1489.5 1738.07 1495.96 1711.38C1496.48 1708.71 1496.89 1706.06 1497.24 1703.37C1497.36 1702.49 1497.48 1701.62 1497.61 1700.72C1501.1 1669.87 1492.62 1639.18 1474.24 1614.37Z" fill="#EAEAEA" stroke="#EAEAEA" stroke-width="2" mask="url(#path-1-inside-1_3004_4886)"/>
<mask id="path-2-inside-2_3004_4886" fill="white">
<path d="M1240.64 837.77C1234.03 831.151 1226.59 825.8 1218.77 820.704C1214.36 817.812 1210.05 814.771 1205.74 811.739C1204.89 811.14 1204.03 810.541 1203.15 809.924C1201.4 808.69 1199.64 807.455 1197.88 806.22C1194.45 803.808 1191.01 801.404 1187.57 798.999C1180.61 794.137 1173.67 789.262 1166.74 784.364C1158.11 778.263 1149.45 772.203 1140.79 766.146C1136.6 763.22 1132.42 760.292 1128.24 757.364C1123.2 753.84 1118.17 750.315 1113.13 746.794C1105.32 741.332 1097.52 735.864 1089.74 730.364C1075.48 720.287 1061.16 710.302 1046.82 700.335C1033.74 691.237 1020.68 682.101 1007.67 672.902C1001.35 668.438 995.014 664.003 988.673 659.571C983.414 655.892 978.165 652.197 972.926 648.489C965.303 643.097 957.639 637.764 949.971 632.436C936.834 623.306 923.728 614.132 910.664 604.898C902.719 599.285 894.746 593.712 886.774 588.138C884.292 586.402 881.812 584.664 879.332 582.927C870.417 576.68 861.491 570.45 852.551 564.239C843.082 557.658 833.649 551.029 824.239 544.364C813.85 537.006 803.426 529.701 792.972 522.436C779.834 513.307 766.728 504.132 753.664 494.898C745.723 489.288 737.755 483.718 729.787 478.146C725.603 475.22 721.421 472.292 717.239 469.364C712.204 465.84 707.169 462.315 702.133 458.794C694.386 453.375 686.644 447.95 678.926 442.489C671.303 437.097 663.639 431.764 655.971 426.436C643.529 417.789 631.112 409.108 618.739 400.364C607.356 392.32 595.944 384.316 584.489 376.376C575.602 370.214 566.733 364.04 557.989 357.677C551.234 352.762 544.388 348.004 537.482 343.307C529.188 337.663 520.977 331.904 512.768 326.139C509.376 323.759 505.98 321.385 502.584 319.01C495.625 314.144 488.673 309.266 481.739 304.364C473.108 298.263 464.449 292.203 455.787 286.146C451.603 283.22 447.421 280.292 443.239 277.364C438.204 273.84 433.169 270.316 428.133 266.794C420.324 261.332 412.52 255.865 404.739 250.364C390.477 240.285 376.152 230.298 361.813 220.33C353.096 214.27 344.398 208.184 335.703 202.091C333.185 200.326 330.665 198.564 328.145 196.802C320.332 191.338 312.524 185.867 304.739 180.364C296.108 174.263 287.449 168.203 278.787 162.146C274.603 159.22 270.421 156.292 266.239 153.364C261.204 149.84 256.169 146.316 251.133 142.794C243.324 137.332 235.52 131.865 227.739 126.364C219.103 120.26 210.44 114.197 201.774 108.138C199.292 106.402 196.812 104.665 194.332 102.927C185.417 96.6799 176.491 90.4506 167.551 84.2391C158.082 77.6583 148.648 71.0292 139.239 64.3641C128.777 56.9541 118.278 49.6002 107.748 42.287C101.396 37.8724 95.0653 33.4286 88.7527 28.9576C81.587 23.8895 74.3773 18.885 67.1663 13.8817C66.2388 13.2378 65.3113 12.594 64.3557 11.9305C63.4713 11.3186 62.5868 10.7068 61.6755 10.0763C59.5602 8.59009 57.4932 7.05664 55.426 5.50476C48.6503 0.954346 39.3439 -0.841309 31.2385 0.364136C23.02 2.21765 17.9757 5.39368 13.2385 12.3641C9.37549 18.6737 9.12402 25.1075 9.05664 32.3718C9.04907 33.0455 9.04163 33.7192 9.03381 34.4135C9.00977 36.668 8.99243 38.9225 8.97498 41.177C8.95886 42.8181 8.94226 44.4592 8.92542 46.1003C8.88 50.6249 8.84033 55.1494 8.80176 59.6741C8.75879 64.5924 8.71033 69.5106 8.6626 74.4288C8.57959 83.056 8.50024 91.6832 8.42297 100.311C8.30811 113.144 8.18787 125.978 8.06653 138.811C7.84985 161.753 7.63855 184.696 7.42957 207.638C7.24609 227.77 7.06104 247.901 6.87402 268.032C6.86145 269.382 6.849 270.732 6.83643 272.082C6.78601 277.507 6.7356 282.933 6.68518 288.359C6.54419 303.533 6.40369 318.708 6.26331 333.882C6.25696 334.573 6.25049 335.264 6.2439 335.976C6.04004 358.018 5.83752 380.06 5.63599 402.102C5.62939 402.817 5.62292 403.532 5.61621 404.269C5.51001 415.881 5.40405 427.493 5.29797 439.106C4.87927 484.935 4.45618 530.765 4.02881 576.595C3.92151 588.099 3.81421 599.603 3.70703 611.107C3.70044 611.816 3.69385 612.525 3.68701 613.255C3.48254 635.197 3.2793 657.14 3.07703 679.082C3.07068 679.774 3.06421 680.466 3.05762 681.179C2.91748 696.389 2.77759 711.6 2.63794 726.811C2.58789 732.258 2.53796 737.706 2.48792 743.154C2.47546 744.509 2.46301 745.864 2.45056 747.219C2.26038 767.934 2.06824 788.649 1.87476 809.364C1.66089 832.268 1.45032 855.171 1.24353 878.074C1.13831 889.719 1.03186 901.364 0.921387 913.009C0.505127 956.996 0.151489 1000.98 0.0751953 1044.97C0.0679932 1049.05 0.0565186 1053.13 0.0410156 1057.21C0.0234375 1061.95 0.0162354 1066.69 0.0167236 1071.43C0.0153809 1073.15 0.0108643 1074.87 0.00244141 1076.59C-0.0692139 1092.25 1.84741 1107.06 5.23853 1122.36C5.41772 1123.29 5.59692 1124.22 5.78149 1125.18C7.91663 1134.35 14.3083 1140.78 22.1135 1145.74C30.6664 1150.4 38.4391 1153.28 48.2385 1152.36C49.0778 1152.33 49.9169 1152.29 50.7815 1152.25C65.2396 1150.8 76.5298 1138.64 85.9392 1128.58C94.7284 1119.23 102.86 1110.99 114.809 1105.84C117.985 1104.47 120.421 1102.99 123.176 1100.93C146.294 1084 175.48 1072.64 203.239 1066.36C204.242 1066.12 204.242 1066.12 205.265 1065.87C225.914 1060.9 251.717 1060.95 272.239 1066.36C273.563 1066.67 274.887 1066.98 276.211 1067.29C294.406 1071.82 311.628 1080.7 326.239 1092.36C327.173 1093.08 328.108 1093.79 329.071 1094.53C383.456 1137.25 405.698 1210.06 413.857 1275.94C414.604 1282.65 415.132 1289.37 415.556 1296.11C416.184 1305.65 418.402 1314.26 421.239 1323.36C421.492 1324.2 421.745 1325.04 422.006 1325.9C427.055 1342.46 432.831 1355.86 445.239 1368.36C446.084 1369.25 446.93 1370.14 447.801 1371.05C448.605 1371.81 449.41 1372.58 450.239 1373.36C450.762 1373.87 451.285 1374.38 451.825 1374.9C472.543 1394.09 500.046 1402.55 527.8 1402.55C529.904 1402.55 532.008 1402.57 534.112 1402.59C542.523 1402.62 551.057 1402.53 559.239 1400.36C559.569 1399.7 559.899 1399.04 560.239 1398.36C561.981 1397.68 561.981 1397.68 564.121 1397.21C565.36 1396.89 565.36 1396.89 566.624 1396.56C567.528 1396.33 568.432 1396.1 569.364 1395.86C586.097 1391.32 601.735 1384.09 616.862 1375.68C620.441 1373.71 623.85 1372.09 627.758 1370.88C632.463 1369.41 636.381 1367.15 640.551 1364.55C648.261 1359.89 656.028 1355.42 664.434 1352.11C669.459 1349.97 673.923 1346.89 678.489 1343.93C680.462 1342.66 682.436 1341.39 684.41 1340.12C685.885 1339.17 685.885 1339.17 687.389 1338.2C691.489 1335.56 695.613 1332.96 699.739 1330.36C715.506 1320.42 731.216 1310.38 746.914 1300.33C753.745 1295.96 760.582 1291.59 767.426 1287.24C768.325 1286.67 769.224 1286.1 770.15 1285.51C774.626 1282.66 779.104 1279.82 783.586 1276.98C794.639 1269.97 805.618 1262.86 816.559 1255.69C824.368 1250.57 832.224 1245.53 840.11 1240.54C847.677 1235.74 855.189 1230.86 862.687 1225.95C867.434 1222.84 872.188 1219.75 876.955 1216.67C887.176 1210.08 897.341 1203.39 907.496 1196.69C910.367 1194.8 913.238 1192.91 916.11 1191.01C924.823 1185.27 933.527 1179.51 942.205 1173.72C947.713 1170.04 953.253 1166.42 958.801 1162.8C975.407 1151.96 991.97 1141.05 1008.53 1130.15C1010.38 1128.93 1012.23 1127.71 1014.08 1126.49C1019.99 1122.6 1025.89 1118.72 1031.79 1114.83C1033.69 1113.58 1035.58 1112.33 1037.47 1111.08C1046.56 1105.1 1055.64 1099.11 1064.69 1093.06C1072.56 1087.81 1080.46 1082.62 1088.36 1077.43C1090.04 1076.32 1091.72 1075.22 1093.39 1074.12C1102.27 1068.28 1111.15 1062.46 1120.03 1056.64C1156.84 1032.57 1156.84 1032.57 1170.24 1022.99C1175.9 1018.95 1181.65 1015.15 1187.57 1011.51C1193.75 1007.7 1199.86 1003.77 1205.94 999.807C1207.63 998.707 1209.32 997.611 1211.02 996.516C1228.29 985.242 1228.29 985.242 1233.66 977.497C1235.42 975.115 1237.38 973.064 1239.43 970.927C1273.54 933.185 1275.35 875.326 1240.64 837.77Z"/>
</mask>
<path d="M1240.64 837.77C1234.03 831.151 1226.59 825.8 1218.77 820.704C1214.36 817.812 1210.05 814.771 1205.74 811.739C1204.89 811.14 1204.03 810.541 1203.15 809.924C1201.4 808.69 1199.64 807.455 1197.88 806.22C1194.45 803.808 1191.01 801.404 1187.57 798.999C1180.61 794.137 1173.67 789.262 1166.74 784.364C1158.11 778.263 1149.45 772.203 1140.79 766.146C1136.6 763.22 1132.42 760.292 1128.24 757.364C1123.2 753.84 1118.17 750.315 1113.13 746.794C1105.32 741.332 1097.52 735.864 1089.74 730.364C1075.48 720.287 1061.16 710.302 1046.82 700.335C1033.74 691.237 1020.68 682.101 1007.67 672.902C1001.35 668.438 995.014 664.003 988.673 659.571C983.414 655.892 978.165 652.197 972.926 648.489C965.303 643.097 957.639 637.764 949.971 632.436C936.834 623.306 923.728 614.132 910.664 604.898C902.719 599.285 894.746 593.712 886.774 588.138C884.292 586.402 881.812 584.664 879.332 582.927C870.417 576.68 861.491 570.45 852.551 564.239C843.082 557.658 833.649 551.029 824.239 544.364C813.85 537.006 803.426 529.701 792.972 522.436C779.834 513.307 766.728 504.132 753.664 494.898C745.723 489.288 737.755 483.718 729.787 478.146C725.603 475.22 721.421 472.292 717.239 469.364C712.204 465.84 707.169 462.315 702.133 458.794C694.386 453.375 686.644 447.95 678.926 442.489C671.303 437.097 663.639 431.764 655.971 426.436C643.529 417.789 631.112 409.108 618.739 400.364C607.356 392.32 595.944 384.316 584.489 376.376C575.602 370.214 566.733 364.04 557.989 357.677C551.234 352.762 544.388 348.004 537.482 343.307C529.188 337.663 520.977 331.904 512.768 326.139C509.376 323.759 505.98 321.385 502.584 319.01C495.625 314.144 488.673 309.266 481.739 304.364C473.108 298.263 464.449 292.203 455.787 286.146C451.603 283.22 447.421 280.292 443.239 277.364C438.204 273.84 433.169 270.316 428.133 266.794C420.324 261.332 412.52 255.865 404.739 250.364C390.477 240.285 376.152 230.298 361.813 220.33C353.096 214.27 344.398 208.184 335.703 202.091C333.185 200.326 330.665 198.564 328.145 196.802C320.332 191.338 312.524 185.867 304.739 180.364C296.108 174.263 287.449 168.203 278.787 162.146C274.603 159.22 270.421 156.292 266.239 153.364C261.204 149.84 256.169 146.316 251.133 142.794C243.324 137.332 235.52 131.865 227.739 126.364C219.103 120.26 210.44 114.197 201.774 108.138C199.292 106.402 196.812 104.665 194.332 102.927C185.417 96.6799 176.491 90.4506 167.551 84.2391C158.082 77.6583 148.648 71.0292 139.239 64.3641C128.777 56.9541 118.278 49.6002 107.748 42.287C101.396 37.8724 95.0653 33.4286 88.7527 28.9576C81.587 23.8895 74.3773 18.885 67.1663 13.8817C66.2388 13.2378 65.3113 12.594 64.3557 11.9305C63.4713 11.3186 62.5868 10.7068 61.6755 10.0763C59.5602 8.59009 57.4932 7.05664 55.426 5.50476C48.6503 0.954346 39.3439 -0.841309 31.2385 0.364136C23.02 2.21765 17.9757 5.39368 13.2385 12.3641C9.37549 18.6737 9.12402 25.1075 9.05664 32.3718C9.04907 33.0455 9.04163 33.7192 9.03381 34.4135C9.00977 36.668 8.99243 38.9225 8.97498 41.177C8.95886 42.8181 8.94226 44.4592 8.92542 46.1003C8.88 50.6249 8.84033 55.1494 8.80176 59.6741C8.75879 64.5924 8.71033 69.5106 8.6626 74.4288C8.57959 83.056 8.50024 91.6832 8.42297 100.311C8.30811 113.144 8.18787 125.978 8.06653 138.811C7.84985 161.753 7.63855 184.696 7.42957 207.638C7.24609 227.77 7.06104 247.901 6.87402 268.032C6.86145 269.382 6.849 270.732 6.83643 272.082C6.78601 277.507 6.7356 282.933 6.68518 288.359C6.54419 303.533 6.40369 318.708 6.26331 333.882C6.25696 334.573 6.25049 335.264 6.2439 335.976C6.04004 358.018 5.83752 380.06 5.63599 402.102C5.62939 402.817 5.62292 403.532 5.61621 404.269C5.51001 415.881 5.40405 427.493 5.29797 439.106C4.87927 484.935 4.45618 530.765 4.02881 576.595C3.92151 588.099 3.81421 599.603 3.70703 611.107C3.70044 611.816 3.69385 612.525 3.68701 613.255C3.48254 635.197 3.2793 657.14 3.07703 679.082C3.07068 679.774 3.06421 680.466 3.05762 681.179C2.91748 696.389 2.77759 711.6 2.63794 726.811C2.58789 732.258 2.53796 737.706 2.48792 743.154C2.47546 744.509 2.46301 745.864 2.45056 747.219C2.26038 767.934 2.06824 788.649 1.87476 809.364C1.66089 832.268 1.45032 855.171 1.24353 878.074C1.13831 889.719 1.03186 901.364 0.921387 913.009C0.505127 956.996 0.151489 1000.98 0.0751953 1044.97C0.0679932 1049.05 0.0565186 1053.13 0.0410156 1057.21C0.0234375 1061.95 0.0162354 1066.69 0.0167236 1071.43C0.0153809 1073.15 0.0108643 1074.87 0.00244141 1076.59C-0.0692139 1092.25 1.84741 1107.06 5.23853 1122.36C5.41772 1123.29 5.59692 1124.22 5.78149 1125.18C7.91663 1134.35 14.3083 1140.78 22.1135 1145.74C30.6664 1150.4 38.4391 1153.28 48.2385 1152.36C49.0778 1152.33 49.9169 1152.29 50.7815 1152.25C65.2396 1150.8 76.5298 1138.64 85.9392 1128.58C94.7284 1119.23 102.86 1110.99 114.809 1105.84C117.985 1104.47 120.421 1102.99 123.176 1100.93C146.294 1084 175.48 1072.64 203.239 1066.36C204.242 1066.12 204.242 1066.12 205.265 1065.87C225.914 1060.9 251.717 1060.95 272.239 1066.36C273.563 1066.67 274.887 1066.98 276.211 1067.29C294.406 1071.82 311.628 1080.7 326.239 1092.36C327.173 1093.08 328.108 1093.79 329.071 1094.53C383.456 1137.25 405.698 1210.06 413.857 1275.94C414.604 1282.65 415.132 1289.37 415.556 1296.11C416.184 1305.65 418.402 1314.26 421.239 1323.36C421.492 1324.2 421.745 1325.04 422.006 1325.9C427.055 1342.46 432.831 1355.86 445.239 1368.36C446.084 1369.25 446.93 1370.14 447.801 1371.05C448.605 1371.81 449.41 1372.58 450.239 1373.36C450.762 1373.87 451.285 1374.38 451.825 1374.9C472.543 1394.09 500.046 1402.55 527.8 1402.55C529.904 1402.55 532.008 1402.57 534.112 1402.59C542.523 1402.62 551.057 1402.53 559.239 1400.36C559.569 1399.7 559.899 1399.04 560.239 1398.36C561.981 1397.68 561.981 1397.68 564.121 1397.21C565.36 1396.89 565.36 1396.89 566.624 1396.56C567.528 1396.33 568.432 1396.1 569.364 1395.86C586.097 1391.32 601.735 1384.09 616.862 1375.68C620.441 1373.71 623.85 1372.09 627.758 1370.88C632.463 1369.41 636.381 1367.15 640.551 1364.55C648.261 1359.89 656.028 1355.42 664.434 1352.11C669.459 1349.97 673.923 1346.89 678.489 1343.93C680.462 1342.66 682.436 1341.39 684.41 1340.12C685.885 1339.17 685.885 1339.17 687.389 1338.2C691.489 1335.56 695.613 1332.96 699.739 1330.36C715.506 1320.42 731.216 1310.38 746.914 1300.33C753.745 1295.96 760.582 1291.59 767.426 1287.24C768.325 1286.67 769.224 1286.1 770.15 1285.51C774.626 1282.66 779.104 1279.82 783.586 1276.98C794.639 1269.97 805.618 1262.86 816.559 1255.69C824.368 1250.57 832.224 1245.53 840.11 1240.54C847.677 1235.74 855.189 1230.86 862.687 1225.95C867.434 1222.84 872.188 1219.75 876.955 1216.67C887.176 1210.08 897.341 1203.39 907.496 1196.69C910.367 1194.8 913.238 1192.91 916.11 1191.01C924.823 1185.27 933.527 1179.51 942.205 1173.72C947.713 1170.04 953.253 1166.42 958.801 1162.8C975.407 1151.96 991.97 1141.05 1008.53 1130.15C1010.38 1128.93 1012.23 1127.71 1014.08 1126.49C1019.99 1122.6 1025.89 1118.72 1031.79 1114.83C1033.69 1113.58 1035.58 1112.33 1037.47 1111.08C1046.56 1105.1 1055.64 1099.11 1064.69 1093.06C1072.56 1087.81 1080.46 1082.62 1088.36 1077.43C1090.04 1076.32 1091.72 1075.22 1093.39 1074.12C1102.27 1068.28 1111.15 1062.46 1120.03 1056.64C1156.84 1032.57 1156.84 1032.57 1170.24 1022.99C1175.9 1018.95 1181.65 1015.15 1187.57 1011.51C1193.75 1007.7 1199.86 1003.77 1205.94 999.807C1207.63 998.707 1209.32 997.611 1211.02 996.516C1228.29 985.242 1228.29 985.242 1233.66 977.497C1235.42 975.115 1237.38 973.064 1239.43 970.927C1273.54 933.185 1275.35 875.326 1240.64 837.77Z" fill="#EAEAEA" stroke="#EAEAEA" stroke-width="2" mask="url(#path-2-inside-2_3004_4886)"/>
</svg>
