<svg width="1499" height="2754" viewBox="0 0 1499 2754" fill="none" xmlns="http://www.w3.org/2000/svg">
<mask id="path-1-inside-1_3003_4880" fill="white">
<path d="M24.1411 1614.37C24.9744 1613.24 24.9744 1613.24 25.8247 1612.09C30.2804 1606.23 35.1274 1600.76 40.1411 1595.37C40.6928 1594.76 41.2445 1594.15 41.8129 1593.53C50.4038 1584.47 60.5066 1577.92 71.4179 1572.04C77.9012 1568.54 84.0514 1564.67 90.2055 1560.62C94.0528 1558.12 97.9441 1555.69 101.829 1553.24C106.733 1550.15 111.635 1547.06 116.516 1543.93C122.668 1540.01 128.882 1536.18 135.087 1532.35C145.844 1525.7 156.577 1519.01 167.235 1512.21C171.553 1509.47 175.893 1506.77 180.232 1504.06C184.984 1501.1 189.712 1498.09 194.43 1495.08C197.501 1493.14 200.601 1491.25 203.704 1489.37C207.698 1486.92 211.581 1484.4 215.391 1481.68C219.086 1479.04 222.848 1476.82 226.848 1474.69C230.297 1472.7 233.476 1470.36 236.684 1468.01C239.141 1466.37 239.141 1466.37 241.852 1465.02C246.28 1462.79 250.399 1460.15 254.579 1457.49C255.399 1456.97 256.22 1456.46 257.065 1455.92C260.767 1453.58 264.42 1451.2 267.969 1448.63C270.438 1446.87 272.771 1445.38 275.454 1443.99C278.86 1442.15 281.994 1440.12 285.141 1437.87C288.113 1435.74 291.05 1433.78 294.266 1432.05C309.08 1424.07 323.225 1414.43 337.141 1404.99C339.808 1403.2 342.502 1401.58 345.329 1400.05C349.784 1397.63 354.029 1394.92 358.28 1392.16C363.412 1388.82 368.585 1385.56 373.766 1382.3C379.151 1378.92 384.496 1375.49 389.766 1371.93C393.703 1369.27 397.686 1366.89 401.864 1364.64C406.419 1362.09 410.767 1359.21 415.141 1356.37C415.846 1355.92 416.551 1355.47 417.278 1355.01C420.833 1352.7 424.267 1350.29 427.625 1347.71C435.236 1341.86 442.916 1336.5 451.155 1331.57C456.819 1328.19 462.372 1324.67 467.891 1321.05C475.858 1315.84 483.867 1310.7 491.916 1305.61C496.452 1302.74 500.959 1299.83 505.414 1296.84C514.631 1290.66 523.594 1285.2 533.964 1281.21C536.413 1280.26 538.842 1279.27 541.274 1278.28C567.974 1267.54 594.982 1265.58 621.981 1276.91C645.909 1287.91 663.661 1305.84 682.141 1324.24C683.026 1325.12 683.91 1326 684.821 1326.91C689.801 1331.9 694.581 1336.99 699.141 1342.37C699.611 1342.91 700.081 1343.46 700.566 1344.03C701.888 1345.57 703.203 1347.12 704.516 1348.68C704.984 1349.23 705.453 1349.78 705.935 1350.35C708.919 1353.89 711.854 1357.46 714.766 1361.05C717.635 1364.58 720.58 1368 723.641 1371.37C728.345 1376.54 732.76 1381.92 737.141 1387.37C738.067 1388.51 738.993 1389.65 739.918 1390.8C745.844 1398.15 751.635 1405.58 757.353 1413.09C760.773 1417.58 764.216 1422.05 767.704 1426.49C768.148 1427.06 768.592 1427.62 769.05 1428.2C771.367 1431.15 773.706 1434.07 776.071 1436.97C781.908 1444.15 787.412 1451.47 792.694 1459.07C798.206 1466.97 804.055 1474.68 810.391 1481.94C812.141 1484.37 812.141 1484.37 812.614 1486.77C813.355 1490.42 815.397 1492.94 817.579 1495.87C818.029 1496.48 818.479 1497.1 818.943 1497.73C822.243 1502.22 825.625 1506.65 829.042 1511.05C832.921 1516.05 836.722 1521.11 840.516 1526.18C841.159 1527.04 841.803 1527.89 842.465 1528.78C845.44 1532.75 848.407 1536.72 851.348 1540.71C864.794 1558.92 879.786 1576.76 897.016 1591.51C898.442 1592.75 899.838 1594.04 901.204 1595.35C908.745 1602.52 917.242 1608.17 925.914 1613.89C927.803 1615.14 929.665 1616.42 931.52 1617.73C937.959 1622.05 944.456 1624.83 951.766 1627.37C952.625 1627.67 953.484 1627.97 954.369 1628.28C959.889 1630.07 964.715 1630.63 970.514 1630.37C973.489 1630.36 976.211 1630.86 979.141 1631.37C1013.26 1633.64 1039.25 1626.3 1065.04 1603.84C1098.31 1574.24 1119.08 1534.76 1133.03 1493.01C1135.83 1484.84 1139.38 1477.14 1143.07 1469.35C1146.22 1462.63 1148.82 1455.9 1151.14 1448.87C1162.9 1413.53 1183.75 1377.05 1213.14 1353.37C1214.08 1352.6 1215.03 1351.83 1216 1351.03C1245.12 1327.71 1280.15 1316.12 1317.59 1319.59C1362.35 1324.87 1402.37 1352.44 1430.13 1387.06C1492.45 1466.08 1496.23 1552.34 1496.23 1652.96C1496.23 1654.21 1496.23 1654.21 1496.23 1655.49C1496.23 1709.95 1495.75 1764.41 1495.32 1818.87C1495.24 1830.03 1495.15 1841.18 1495.07 1852.33C1494.97 1865.55 1494.88 1878.77 1494.77 1891.99C1494.76 1893.42 1494.75 1894.84 1494.74 1896.27C1494.73 1896.97 1494.73 1897.67 1494.72 1898.39C1494.69 1903.16 1494.65 1907.92 1494.62 1912.69C1494.37 1946.39 1493.94 1980.08 1493.31 2013.77C1493 2030.61 1492.81 2047.44 1492.64 2064.28C1492.6 2067.98 1492.56 2071.67 1492.51 2075.36C1492.25 2096.77 1492.12 2118.17 1492.16 2139.58C1492.28 2195.25 1491.96 2250.9 1491.52 2306.56C1491.51 2307.56 1491.5 2308.55 1491.5 2309.58C1491.29 2335.53 1491.08 2361.48 1490.86 2387.42C1490.74 2402.21 1490.62 2417 1490.5 2431.79C1490.49 2433.35 1490.49 2433.35 1490.47 2434.94C1490.43 2440.18 1490.39 2445.42 1490.35 2450.66C1490.13 2477.2 1489.92 2503.74 1489.7 2530.29C1489.69 2531.26 1489.68 2532.24 1489.67 2533.25C1489.61 2540.99 1489.54 2548.74 1489.48 2556.49C1489.28 2580.54 1489.08 2604.59 1488.91 2628.64C1488.87 2633.76 1488.83 2638.87 1488.79 2643.99C1488.78 2644.68 1488.78 2645.38 1488.77 2646.09C1488.75 2648.84 1488.73 2651.58 1488.71 2654.33C1488.65 2662.58 1488.59 2670.84 1488.53 2679.09C1488.5 2683.61 1488.46 2688.13 1488.43 2692.65C1488.41 2694.69 1488.4 2696.72 1488.38 2698.76C1488.17 2734.15 1488.17 2734.15 1477.77 2745.37C1470.43 2751.91 1462.96 2753.81 1453.14 2753.37C1444.41 2752.15 1436.18 2749.81 1429.14 2744.37C1427.48 2743.16 1425.81 2741.95 1424.14 2740.74C1423.21 2740.05 1422.27 2739.36 1421.31 2738.65C1417.75 2736.08 1414.14 2733.59 1410.52 2731.12C1402.73 2725.79 1395.01 2720.36 1387.31 2714.9C1385.1 2713.34 1382.89 2711.78 1380.68 2710.22C1368.48 2701.63 1368.48 2701.63 1362.52 2697.24C1357.61 2693.64 1352.56 2690.29 1347.48 2686.94C1343.6 2684.37 1339.84 2681.69 1336.15 2678.85C1333.6 2676.97 1330.97 2675.23 1328.33 2673.49C1323.37 2670.22 1318.56 2666.8 1313.77 2663.29C1308.37 2659.34 1302.86 2655.54 1297.34 2651.76C1295.96 2650.82 1294.58 2649.87 1293.2 2648.93C1292.51 2648.45 1291.82 2647.98 1291.11 2647.49C1286.25 2644.16 1281.49 2640.71 1276.76 2637.22C1273.01 2634.56 1269.1 2632.18 1265.16 2629.81C1264.16 2629.09 1264.16 2629.09 1263.14 2628.37C1263.14 2627.71 1263.14 2627.05 1263.14 2626.37C1262.47 2626.14 1261.8 2625.91 1261.1 2625.67C1257.32 2624 1254.14 2621.79 1250.77 2619.43C1250.06 2618.94 1249.36 2618.45 1248.63 2617.95C1243.35 2614.26 1238.17 2610.46 1232.99 2606.63C1227.21 2602.36 1221.28 2598.32 1215.34 2594.28C1209.29 2590.16 1203.31 2585.97 1197.34 2581.74C1192.66 2578.42 1187.94 2575.16 1183.2 2571.93C1176.6 2567.42 1170.12 2562.76 1163.65 2558.07C1157.21 2553.4 1150.7 2548.86 1144.14 2544.37C1141.91 2542.83 1139.68 2541.28 1137.45 2539.74C1135.84 2538.63 1135.84 2538.63 1134.2 2537.49C1129.84 2534.46 1125.49 2531.42 1121.14 2528.37C1119.47 2527.2 1117.81 2526.03 1116.14 2524.87C1106.14 2517.87 1106.14 2517.87 1103.64 2516.11C1101.98 2514.96 1100.33 2513.8 1098.68 2512.65C1094.3 2509.6 1089.95 2506.51 1085.64 2503.37C1078.36 2498.06 1070.97 2492.93 1063.53 2487.85C1055.14 2482.13 1046.81 2476.34 1038.52 2470.46C1033.74 2467.08 1028.94 2463.72 1024.14 2460.37C1017.76 2455.9 1011.38 2451.42 1005.02 2446.93C997.193 2441.4 989.364 2435.89 981.462 2430.47C974.359 2425.6 967.316 2420.66 960.321 2415.64C955.953 2412.51 951.55 2409.44 947.141 2406.37C942.161 2402.9 937.195 2399.41 932.265 2395.87C926.553 2391.77 920.808 2387.72 915.016 2383.74C914.35 2383.28 913.684 2382.82 912.998 2382.35C909.841 2380.19 906.672 2378.05 903.461 2375.96C902.366 2375.25 901.27 2374.54 900.141 2373.8C899.172 2373.18 898.202 2372.56 897.204 2371.92C896.523 2371.41 895.842 2370.89 895.141 2370.37C895.141 2369.71 895.141 2369.05 895.141 2368.37C894.157 2368.04 894.157 2368.04 893.153 2367.71C889.066 2365.88 885.601 2363.38 881.954 2360.8C880.523 2359.8 879.092 2358.8 877.661 2357.8C877.033 2357.36 876.405 2356.91 875.758 2356.46C874.123 2355.3 874.123 2355.3 872.141 2354.37C872.141 2353.71 872.141 2353.05 872.141 2352.37C871.42 2352.11 870.7 2351.85 869.957 2351.59C866.955 2350.28 864.686 2348.71 862.079 2346.74C858.226 2343.88 854.339 2341.13 850.329 2338.49C845.278 2335.16 840.344 2331.69 835.432 2328.15C830.376 2324.52 825.266 2320.97 820.141 2317.44C813.023 2312.52 805.958 2307.54 798.891 2302.55C798.16 2302.04 797.428 2301.52 796.675 2300.99C793.213 2298.55 789.757 2296.09 786.321 2293.62C785.136 2292.76 783.951 2291.91 782.766 2291.05C782.203 2290.65 781.64 2290.24 781.06 2289.82C776.521 2286.57 771.84 2283.61 767.055 2280.74C766.423 2280.29 765.792 2279.83 765.141 2279.37C765.141 2278.71 765.141 2278.05 765.141 2277.37C764.099 2277.01 764.099 2277.01 763.036 2276.64C759.632 2275.14 756.8 2273.13 753.829 2270.93C752.576 2270.02 751.322 2269.11 750.067 2268.2C749.419 2267.73 748.772 2267.26 748.104 2266.77C744.942 2264.5 741.73 2262.31 738.516 2260.12C731.501 2255.32 724.535 2250.45 717.578 2245.57C712.327 2241.89 707.057 2238.24 701.766 2234.62C693.009 2228.61 684.375 2222.45 675.793 2216.2C668.073 2210.59 660.319 2205.08 652.344 2199.83C647.692 2196.76 643.175 2193.54 638.688 2190.23C634.557 2187.2 630.345 2184.29 626.141 2181.37C624.599 2180.28 623.058 2179.2 621.516 2178.12C617.892 2175.58 614.25 2173.06 610.599 2170.56C599.494 2162.95 588.435 2155.27 577.579 2147.3C572.506 2143.59 567.338 2140.03 562.149 2136.48C555.209 2131.74 548.336 2126.91 541.457 2122.08C533.094 2116.21 524.711 2110.37 516.266 2104.62C509.518 2100.02 502.839 2095.34 496.211 2090.57C493.473 2088.6 490.72 2086.67 487.954 2084.74C484.669 2082.45 481.428 2080.11 478.204 2077.74C472.271 2073.4 466.194 2069.28 460.119 2065.15C454.986 2061.65 449.932 2058.07 444.93 2054.38C441.437 2051.86 437.886 2049.42 434.329 2046.99C429.103 2043.42 423.91 2039.8 418.766 2036.12C418.193 2035.7 417.619 2035.29 417.029 2034.87C416.472 2034.47 415.914 2034.07 415.34 2033.66C412.427 2031.57 409.508 2029.49 406.579 2027.43C405.835 2026.9 405.091 2026.38 404.325 2025.84C402.083 2024.28 402.083 2024.28 399.364 2022.8C398.63 2022.33 397.897 2021.85 397.141 2021.37C397.141 2020.71 397.141 2020.05 397.141 2019.37C396.475 2019.14 395.808 2018.92 395.122 2018.69C391.223 2016.96 387.932 2014.63 384.454 2012.18C383.743 2011.68 383.033 2011.19 382.301 2010.68C380.244 2009.25 378.192 2007.81 376.141 2006.37C374.697 2005.36 374.697 2005.36 373.223 2004.33C371.613 2003.21 370.005 2002.08 368.399 2000.95C366.917 1999.91 365.433 1998.87 363.946 1997.84C359.898 1995.03 355.879 1992.18 351.895 1989.28C344.538 1983.92 337.215 1978.64 329.469 1973.85C326.476 1971.94 323.676 1969.82 320.868 1967.65C318.986 1966.2 318.986 1966.2 316.141 1964.62C315.151 1964 315.151 1964 314.141 1963.37C314.141 1962.71 314.141 1962.05 314.141 1961.37C313.48 1961.15 312.818 1960.93 312.137 1960.71C308.118 1958.91 304.764 1956.44 301.204 1953.87C300.45 1953.33 299.696 1952.79 298.92 1952.23C296.657 1950.62 294.398 1948.99 292.141 1947.37C289.851 1945.72 287.559 1944.07 285.266 1942.43C284.716 1942.03 284.166 1941.64 283.599 1941.23C277.786 1937.08 271.874 1933.07 265.967 1929.05C261.725 1926.15 257.524 1923.23 253.391 1920.18C249.224 1917.1 244.96 1914.22 240.641 1911.37C235.446 1907.93 230.365 1904.39 225.352 1900.7C218.522 1895.74 211.57 1890.94 204.646 1886.11C201.235 1883.73 197.827 1881.35 194.419 1878.96C192.163 1877.38 189.902 1875.81 187.641 1874.24C184.367 1871.95 181.123 1869.63 177.895 1867.28C170.523 1861.91 163.181 1856.63 155.426 1851.82C152.674 1850.07 150.118 1848.13 147.532 1846.14C144.314 1843.75 141.011 1841.5 137.704 1839.24C131.361 1834.9 125.063 1830.51 118.793 1826.07C113.133 1822.06 107.452 1818.08 101.766 1814.12C95.765 1809.92 89.8071 1805.69 83.9067 1801.35C79.6724 1798.31 75.36 1795.38 71.0534 1792.44C66.1926 1789.11 61.4302 1785.67 56.6958 1782.17C54.1819 1780.39 51.6059 1778.86 48.9536 1777.3C25.4252 1762.61 8.8814 1738.07 2.41841 1711.38C1.89799 1708.71 1.48796 1706.06 1.14106 1703.37C1.0186 1702.49 0.896143 1701.62 0.769971 1700.72C-2.72016 1669.87 5.75583 1639.18 24.1411 1614.37Z"/>
</mask>
<path d="M24.1411 1614.37C24.9744 1613.24 24.9744 1613.24 25.8247 1612.09C30.2804 1606.23 35.1274 1600.76 40.1411 1595.37C40.6928 1594.76 41.2445 1594.15 41.8129 1593.53C50.4038 1584.47 60.5066 1577.92 71.4179 1572.04C77.9012 1568.54 84.0514 1564.67 90.2055 1560.62C94.0528 1558.12 97.9441 1555.69 101.829 1553.24C106.733 1550.15 111.635 1547.06 116.516 1543.93C122.668 1540.01 128.882 1536.18 135.087 1532.35C145.844 1525.7 156.577 1519.01 167.235 1512.21C171.553 1509.47 175.893 1506.77 180.232 1504.06C184.984 1501.1 189.712 1498.09 194.43 1495.08C197.501 1493.14 200.601 1491.25 203.704 1489.37C207.698 1486.92 211.581 1484.4 215.391 1481.68C219.086 1479.04 222.848 1476.82 226.848 1474.69C230.297 1472.7 233.476 1470.36 236.684 1468.01C239.141 1466.37 239.141 1466.37 241.852 1465.02C246.28 1462.79 250.399 1460.15 254.579 1457.49C255.399 1456.97 256.22 1456.46 257.065 1455.92C260.767 1453.58 264.42 1451.2 267.969 1448.63C270.438 1446.87 272.771 1445.38 275.454 1443.99C278.86 1442.15 281.994 1440.12 285.141 1437.87C288.113 1435.74 291.05 1433.78 294.266 1432.05C309.08 1424.07 323.225 1414.43 337.141 1404.99C339.808 1403.2 342.502 1401.58 345.329 1400.05C349.784 1397.63 354.029 1394.92 358.28 1392.16C363.412 1388.82 368.585 1385.56 373.766 1382.3C379.151 1378.92 384.496 1375.49 389.766 1371.93C393.703 1369.27 397.686 1366.89 401.864 1364.64C406.419 1362.09 410.767 1359.21 415.141 1356.37C415.846 1355.92 416.551 1355.47 417.278 1355.01C420.833 1352.7 424.267 1350.29 427.625 1347.71C435.236 1341.86 442.916 1336.5 451.155 1331.57C456.819 1328.19 462.372 1324.67 467.891 1321.05C475.858 1315.84 483.867 1310.7 491.916 1305.61C496.452 1302.74 500.959 1299.83 505.414 1296.84C514.631 1290.66 523.594 1285.2 533.964 1281.21C536.413 1280.26 538.842 1279.27 541.274 1278.28C567.974 1267.54 594.982 1265.58 621.981 1276.91C645.909 1287.91 663.661 1305.84 682.141 1324.24C683.026 1325.12 683.91 1326 684.821 1326.91C689.801 1331.9 694.581 1336.99 699.141 1342.37C699.611 1342.91 700.081 1343.46 700.566 1344.03C701.888 1345.57 703.203 1347.12 704.516 1348.68C704.984 1349.23 705.453 1349.78 705.935 1350.35C708.919 1353.89 711.854 1357.46 714.766 1361.05C717.635 1364.58 720.58 1368 723.641 1371.37C728.345 1376.54 732.76 1381.92 737.141 1387.37C738.067 1388.51 738.993 1389.65 739.918 1390.8C745.844 1398.15 751.635 1405.58 757.353 1413.09C760.773 1417.58 764.216 1422.05 767.704 1426.49C768.148 1427.06 768.592 1427.62 769.05 1428.2C771.367 1431.15 773.706 1434.07 776.071 1436.97C781.908 1444.15 787.412 1451.47 792.694 1459.07C798.206 1466.97 804.055 1474.68 810.391 1481.94C812.141 1484.37 812.141 1484.37 812.614 1486.77C813.355 1490.42 815.397 1492.94 817.579 1495.87C818.029 1496.48 818.479 1497.1 818.943 1497.73C822.243 1502.22 825.625 1506.65 829.042 1511.05C832.921 1516.05 836.722 1521.11 840.516 1526.18C841.159 1527.04 841.803 1527.89 842.465 1528.78C845.44 1532.75 848.407 1536.72 851.348 1540.71C864.794 1558.92 879.786 1576.76 897.016 1591.51C898.442 1592.75 899.838 1594.04 901.204 1595.35C908.745 1602.52 917.242 1608.17 925.914 1613.89C927.803 1615.14 929.665 1616.42 931.52 1617.73C937.959 1622.05 944.456 1624.83 951.766 1627.37C952.625 1627.67 953.484 1627.97 954.369 1628.28C959.889 1630.07 964.715 1630.63 970.514 1630.37C973.489 1630.36 976.211 1630.86 979.141 1631.37C1013.26 1633.64 1039.25 1626.3 1065.04 1603.84C1098.31 1574.24 1119.08 1534.76 1133.03 1493.01C1135.83 1484.84 1139.38 1477.14 1143.07 1469.35C1146.22 1462.63 1148.82 1455.9 1151.14 1448.87C1162.9 1413.53 1183.75 1377.05 1213.14 1353.37C1214.08 1352.6 1215.03 1351.83 1216 1351.03C1245.12 1327.71 1280.15 1316.12 1317.59 1319.59C1362.35 1324.87 1402.37 1352.44 1430.13 1387.06C1492.45 1466.08 1496.23 1552.34 1496.23 1652.96C1496.23 1654.21 1496.23 1654.21 1496.23 1655.49C1496.23 1709.95 1495.75 1764.41 1495.32 1818.87C1495.24 1830.03 1495.15 1841.18 1495.07 1852.33C1494.97 1865.55 1494.88 1878.77 1494.77 1891.99C1494.76 1893.42 1494.75 1894.84 1494.74 1896.27C1494.73 1896.97 1494.73 1897.67 1494.72 1898.39C1494.69 1903.16 1494.65 1907.92 1494.62 1912.69C1494.37 1946.39 1493.94 1980.08 1493.31 2013.77C1493 2030.61 1492.81 2047.44 1492.64 2064.28C1492.6 2067.98 1492.56 2071.67 1492.51 2075.36C1492.25 2096.77 1492.12 2118.17 1492.16 2139.58C1492.28 2195.25 1491.96 2250.9 1491.52 2306.56C1491.51 2307.56 1491.5 2308.55 1491.5 2309.58C1491.29 2335.53 1491.08 2361.48 1490.86 2387.42C1490.74 2402.21 1490.62 2417 1490.5 2431.79C1490.49 2433.35 1490.49 2433.35 1490.47 2434.94C1490.43 2440.18 1490.39 2445.42 1490.35 2450.66C1490.13 2477.2 1489.92 2503.74 1489.7 2530.29C1489.69 2531.26 1489.68 2532.24 1489.67 2533.25C1489.61 2540.99 1489.54 2548.74 1489.48 2556.49C1489.28 2580.54 1489.08 2604.59 1488.91 2628.64C1488.87 2633.76 1488.83 2638.87 1488.79 2643.99C1488.78 2644.68 1488.78 2645.38 1488.77 2646.09C1488.75 2648.84 1488.73 2651.58 1488.71 2654.33C1488.65 2662.58 1488.59 2670.84 1488.53 2679.09C1488.5 2683.61 1488.46 2688.13 1488.43 2692.65C1488.41 2694.69 1488.4 2696.72 1488.38 2698.76C1488.17 2734.15 1488.17 2734.15 1477.77 2745.37C1470.43 2751.91 1462.96 2753.81 1453.14 2753.37C1444.41 2752.15 1436.18 2749.81 1429.14 2744.37C1427.48 2743.16 1425.81 2741.95 1424.14 2740.74C1423.21 2740.05 1422.27 2739.36 1421.31 2738.65C1417.75 2736.08 1414.14 2733.59 1410.52 2731.12C1402.73 2725.79 1395.01 2720.36 1387.31 2714.9C1385.1 2713.34 1382.89 2711.78 1380.68 2710.22C1368.48 2701.63 1368.48 2701.63 1362.52 2697.24C1357.61 2693.64 1352.56 2690.29 1347.48 2686.94C1343.6 2684.37 1339.84 2681.69 1336.15 2678.85C1333.6 2676.97 1330.97 2675.23 1328.33 2673.49C1323.37 2670.22 1318.56 2666.8 1313.77 2663.29C1308.37 2659.34 1302.86 2655.54 1297.34 2651.76C1295.96 2650.82 1294.58 2649.87 1293.2 2648.93C1292.51 2648.45 1291.82 2647.98 1291.11 2647.49C1286.25 2644.16 1281.49 2640.71 1276.76 2637.22C1273.01 2634.56 1269.1 2632.18 1265.16 2629.81C1264.16 2629.09 1264.16 2629.09 1263.14 2628.37C1263.14 2627.71 1263.14 2627.05 1263.14 2626.37C1262.47 2626.14 1261.8 2625.91 1261.1 2625.67C1257.32 2624 1254.14 2621.79 1250.77 2619.43C1250.06 2618.94 1249.36 2618.45 1248.63 2617.95C1243.35 2614.26 1238.17 2610.46 1232.99 2606.63C1227.21 2602.36 1221.28 2598.32 1215.34 2594.28C1209.29 2590.16 1203.31 2585.97 1197.34 2581.74C1192.66 2578.42 1187.94 2575.16 1183.2 2571.93C1176.6 2567.42 1170.12 2562.76 1163.65 2558.07C1157.21 2553.4 1150.7 2548.86 1144.14 2544.37C1141.91 2542.83 1139.68 2541.28 1137.45 2539.74C1135.84 2538.63 1135.84 2538.63 1134.2 2537.49C1129.84 2534.46 1125.49 2531.42 1121.14 2528.37C1119.47 2527.2 1117.81 2526.03 1116.14 2524.87C1106.14 2517.87 1106.14 2517.87 1103.64 2516.11C1101.98 2514.96 1100.33 2513.8 1098.68 2512.65C1094.3 2509.6 1089.95 2506.51 1085.64 2503.37C1078.36 2498.06 1070.97 2492.93 1063.53 2487.85C1055.14 2482.13 1046.81 2476.34 1038.52 2470.46C1033.74 2467.08 1028.94 2463.72 1024.14 2460.37C1017.76 2455.9 1011.38 2451.42 1005.02 2446.93C997.193 2441.4 989.364 2435.89 981.462 2430.47C974.359 2425.6 967.316 2420.66 960.321 2415.64C955.953 2412.51 951.55 2409.44 947.141 2406.37C942.161 2402.9 937.195 2399.41 932.265 2395.87C926.553 2391.77 920.808 2387.72 915.016 2383.74C914.35 2383.28 913.684 2382.82 912.998 2382.35C909.841 2380.19 906.672 2378.05 903.461 2375.96C902.366 2375.25 901.27 2374.54 900.141 2373.8C899.172 2373.18 898.202 2372.56 897.204 2371.92C896.523 2371.41 895.842 2370.89 895.141 2370.37C895.141 2369.71 895.141 2369.05 895.141 2368.37C894.157 2368.04 894.157 2368.04 893.153 2367.71C889.066 2365.88 885.601 2363.38 881.954 2360.8C880.523 2359.8 879.092 2358.8 877.661 2357.8C877.033 2357.36 876.405 2356.91 875.758 2356.46C874.123 2355.3 874.123 2355.3 872.141 2354.37C872.141 2353.71 872.141 2353.05 872.141 2352.37C871.42 2352.11 870.7 2351.85 869.957 2351.59C866.955 2350.28 864.686 2348.71 862.079 2346.74C858.226 2343.88 854.339 2341.13 850.329 2338.49C845.278 2335.16 840.344 2331.69 835.432 2328.15C830.376 2324.52 825.266 2320.97 820.141 2317.44C813.023 2312.52 805.958 2307.54 798.891 2302.55C798.16 2302.04 797.428 2301.52 796.675 2300.99C793.213 2298.55 789.757 2296.09 786.321 2293.62C785.136 2292.76 783.951 2291.91 782.766 2291.05C782.203 2290.65 781.64 2290.24 781.06 2289.82C776.521 2286.57 771.84 2283.61 767.055 2280.74C766.423 2280.29 765.792 2279.83 765.141 2279.37C765.141 2278.71 765.141 2278.05 765.141 2277.37C764.099 2277.01 764.099 2277.01 763.036 2276.64C759.632 2275.14 756.8 2273.13 753.829 2270.93C752.576 2270.02 751.322 2269.11 750.067 2268.2C749.419 2267.73 748.772 2267.26 748.104 2266.77C744.942 2264.5 741.73 2262.31 738.516 2260.12C731.501 2255.32 724.535 2250.45 717.578 2245.57C712.327 2241.89 707.057 2238.24 701.766 2234.62C693.009 2228.61 684.375 2222.45 675.793 2216.2C668.073 2210.59 660.319 2205.08 652.344 2199.83C647.692 2196.76 643.175 2193.54 638.688 2190.23C634.557 2187.2 630.345 2184.29 626.141 2181.37C624.599 2180.28 623.058 2179.2 621.516 2178.12C617.892 2175.58 614.25 2173.06 610.599 2170.56C599.494 2162.95 588.435 2155.27 577.579 2147.3C572.506 2143.59 567.338 2140.03 562.149 2136.48C555.209 2131.74 548.336 2126.91 541.457 2122.08C533.094 2116.21 524.711 2110.37 516.266 2104.62C509.518 2100.02 502.839 2095.34 496.211 2090.57C493.473 2088.6 490.72 2086.67 487.954 2084.74C484.669 2082.45 481.428 2080.11 478.204 2077.74C472.271 2073.4 466.194 2069.28 460.119 2065.15C454.986 2061.65 449.932 2058.07 444.93 2054.38C441.437 2051.86 437.886 2049.42 434.329 2046.99C429.103 2043.42 423.91 2039.8 418.766 2036.12C418.193 2035.7 417.619 2035.29 417.029 2034.87C416.472 2034.47 415.914 2034.07 415.34 2033.66C412.427 2031.57 409.508 2029.49 406.579 2027.43C405.835 2026.9 405.091 2026.38 404.325 2025.84C402.083 2024.28 402.083 2024.28 399.364 2022.8C398.63 2022.33 397.897 2021.85 397.141 2021.37C397.141 2020.71 397.141 2020.05 397.141 2019.37C396.475 2019.14 395.808 2018.92 395.122 2018.69C391.223 2016.96 387.932 2014.63 384.454 2012.18C383.743 2011.68 383.033 2011.19 382.301 2010.68C380.244 2009.25 378.192 2007.81 376.141 2006.37C374.697 2005.36 374.697 2005.36 373.223 2004.33C371.613 2003.21 370.005 2002.08 368.399 2000.95C366.917 1999.91 365.433 1998.87 363.946 1997.84C359.898 1995.03 355.879 1992.18 351.895 1989.28C344.538 1983.92 337.215 1978.64 329.469 1973.85C326.476 1971.94 323.676 1969.82 320.868 1967.65C318.986 1966.2 318.986 1966.2 316.141 1964.62C315.151 1964 315.151 1964 314.141 1963.37C314.141 1962.71 314.141 1962.05 314.141 1961.37C313.48 1961.15 312.818 1960.93 312.137 1960.71C308.118 1958.91 304.764 1956.44 301.204 1953.87C300.45 1953.33 299.696 1952.79 298.92 1952.23C296.657 1950.62 294.398 1948.99 292.141 1947.37C289.851 1945.72 287.559 1944.07 285.266 1942.43C284.716 1942.03 284.166 1941.64 283.599 1941.23C277.786 1937.08 271.874 1933.07 265.967 1929.05C261.725 1926.15 257.524 1923.23 253.391 1920.18C249.224 1917.1 244.96 1914.22 240.641 1911.37C235.446 1907.93 230.365 1904.39 225.352 1900.7C218.522 1895.74 211.57 1890.94 204.646 1886.11C201.235 1883.73 197.827 1881.35 194.419 1878.96C192.163 1877.38 189.902 1875.81 187.641 1874.24C184.367 1871.95 181.123 1869.63 177.895 1867.28C170.523 1861.91 163.181 1856.63 155.426 1851.82C152.674 1850.07 150.118 1848.13 147.532 1846.14C144.314 1843.75 141.011 1841.5 137.704 1839.24C131.361 1834.9 125.063 1830.51 118.793 1826.07C113.133 1822.06 107.452 1818.08 101.766 1814.12C95.765 1809.92 89.8071 1805.69 83.9067 1801.35C79.6724 1798.31 75.36 1795.38 71.0534 1792.44C66.1926 1789.11 61.4302 1785.67 56.6958 1782.17C54.1819 1780.39 51.6059 1778.86 48.9536 1777.3C25.4252 1762.61 8.8814 1738.07 2.41841 1711.38C1.89799 1708.71 1.48796 1706.06 1.14106 1703.37C1.0186 1702.49 0.896143 1701.62 0.769971 1700.72C-2.72016 1669.87 5.75583 1639.18 24.1411 1614.37Z" fill="#EAEAEA" stroke="#EAEAEA" stroke-width="2" mask="url(#path-1-inside-1_3003_4880)"/>
<mask id="path-2-inside-2_3003_4880" fill="white">
<path d="M257.734 837.77C264.354 831.151 271.784 825.8 279.605 820.704C284.017 817.812 288.324 814.771 292.64 811.739C293.493 811.14 294.346 810.541 295.225 809.924C296.983 808.69 298.741 807.455 300.498 806.22C303.932 803.808 307.371 801.404 310.81 798.999C317.765 794.137 324.711 789.262 331.64 784.364C340.271 778.263 348.93 772.203 357.592 766.146C361.776 763.22 365.958 760.292 370.14 757.364C375.175 753.84 380.209 750.315 385.246 746.794C393.055 741.332 400.859 735.864 408.64 730.364C422.9 720.287 437.223 710.302 451.559 700.335C464.642 691.237 477.697 682.101 490.708 672.902C497.026 668.438 503.365 664.003 509.706 659.571C514.965 655.892 520.213 652.197 525.453 648.489C533.076 643.097 540.74 637.764 548.408 632.436C561.545 623.306 574.651 614.132 587.715 604.898C595.66 599.285 603.633 593.712 611.605 588.138C614.087 586.402 616.567 584.664 619.047 582.927C627.962 576.68 636.888 570.45 645.828 564.239C655.297 557.658 664.73 551.029 674.14 544.364C684.529 537.006 694.953 529.701 705.407 522.436C718.545 513.307 731.65 504.132 744.715 494.898C752.656 489.288 760.624 483.718 768.592 478.146C772.776 475.22 776.958 472.292 781.14 469.364C786.175 465.84 791.209 462.315 796.246 458.794C803.993 453.375 811.735 447.95 819.453 442.489C827.076 437.097 834.74 431.764 842.408 426.436C854.85 417.789 867.267 409.108 879.64 400.364C891.023 392.32 902.435 384.316 913.89 376.376C922.777 370.214 931.646 364.04 940.39 357.677C947.144 352.762 953.991 348.004 960.897 343.307C969.191 337.663 977.402 331.904 985.611 326.139C989.003 323.759 992.399 321.385 995.795 319.01C1002.75 314.144 1009.71 309.266 1016.64 304.364C1025.27 298.263 1033.93 292.203 1042.59 286.146C1046.78 283.22 1050.96 280.292 1055.14 277.364C1060.17 273.84 1065.21 270.316 1070.25 266.794C1078.05 261.332 1085.86 255.865 1093.64 250.364C1107.9 240.285 1122.23 230.298 1136.57 220.33C1145.28 214.27 1153.98 208.184 1162.68 202.091C1165.19 200.326 1167.71 198.564 1170.23 196.802C1178.05 191.338 1185.85 185.867 1193.64 180.364C1202.27 174.263 1210.93 168.203 1219.59 162.146C1223.78 159.22 1227.96 156.292 1232.14 153.364C1237.17 149.84 1242.21 146.316 1247.25 142.794C1255.05 137.332 1262.86 131.865 1270.64 126.364C1279.28 120.26 1287.94 114.197 1296.61 108.138C1299.09 106.402 1301.57 104.665 1304.05 102.927C1312.96 96.6799 1321.89 90.4506 1330.83 84.2391C1340.3 77.6583 1349.73 71.0292 1359.14 64.3641C1369.6 56.9541 1380.1 49.6002 1390.63 42.287C1396.98 37.8724 1403.31 33.4286 1409.63 28.9576C1416.79 23.8895 1424 18.885 1431.21 13.8817C1432.14 13.2378 1433.07 12.594 1434.02 11.9305C1434.91 11.3186 1435.79 10.7068 1436.7 10.0763C1438.82 8.59009 1440.89 7.05664 1442.95 5.50476C1449.73 0.954346 1459.04 -0.841309 1467.14 0.364136C1475.36 2.21765 1480.4 5.39368 1485.14 12.3641C1489 18.6737 1489.25 25.1075 1489.32 32.3718C1489.33 33.0455 1489.34 33.7192 1489.35 34.4135C1489.37 36.668 1489.39 38.9225 1489.4 41.177C1489.42 42.8181 1489.44 44.4592 1489.45 46.1003C1489.5 50.6249 1489.54 55.1494 1489.58 59.6741C1489.62 64.5924 1489.67 69.5106 1489.72 74.4288C1489.8 83.056 1489.88 91.6832 1489.96 100.311C1490.07 113.144 1490.19 125.978 1490.31 138.811C1490.53 161.753 1490.74 184.696 1490.95 207.638C1491.13 227.77 1491.32 247.901 1491.5 268.032C1491.52 269.382 1491.53 270.732 1491.54 272.082C1491.59 277.507 1491.64 282.933 1491.69 288.359C1491.83 303.533 1491.98 318.708 1492.12 333.882C1492.12 334.573 1492.13 335.264 1492.14 335.976C1492.34 358.018 1492.54 380.06 1492.74 402.102C1492.75 402.817 1492.76 403.532 1492.76 404.269C1492.87 415.881 1492.97 427.493 1493.08 439.106C1493.5 484.935 1493.92 530.765 1494.35 576.595C1494.46 588.099 1494.56 599.603 1494.67 611.107C1494.68 611.816 1494.69 612.525 1494.69 613.255C1494.9 635.197 1495.1 657.14 1495.3 679.082C1495.31 679.774 1495.31 680.466 1495.32 681.179C1495.46 696.389 1495.6 711.6 1495.74 726.811C1495.79 732.258 1495.84 737.706 1495.89 743.154C1495.9 744.509 1495.92 745.864 1495.93 747.219C1496.12 767.934 1496.31 788.649 1496.5 809.364C1496.72 832.268 1496.93 855.171 1497.14 878.074C1497.24 889.719 1497.35 901.364 1497.46 913.009C1497.87 956.996 1498.23 1000.98 1498.3 1044.97C1498.31 1049.05 1498.32 1053.13 1498.34 1057.21C1498.36 1061.95 1498.36 1066.69 1498.36 1071.43C1498.36 1073.15 1498.37 1074.87 1498.38 1076.59C1498.45 1092.25 1496.53 1107.06 1493.14 1122.36C1492.96 1123.29 1492.78 1124.22 1492.6 1125.18C1490.46 1134.35 1484.07 1140.78 1476.27 1145.74C1467.71 1150.4 1459.94 1153.28 1450.14 1152.36C1449.3 1152.33 1448.46 1152.29 1447.6 1152.25C1433.14 1150.8 1421.85 1138.64 1412.44 1128.58C1403.65 1119.23 1395.52 1110.99 1383.57 1105.84C1380.39 1104.47 1377.96 1102.99 1375.2 1100.93C1352.08 1084 1322.9 1072.64 1295.14 1066.36C1294.14 1066.12 1294.14 1066.12 1293.11 1065.87C1272.47 1060.9 1246.66 1060.95 1226.14 1066.36C1224.82 1066.67 1223.49 1066.98 1222.17 1067.29C1203.97 1071.82 1186.75 1080.7 1172.14 1092.36C1171.21 1093.08 1170.27 1093.79 1169.31 1094.53C1114.92 1137.25 1092.68 1210.06 1084.52 1275.94C1083.77 1282.65 1083.25 1289.37 1082.82 1296.11C1082.19 1305.65 1079.98 1314.26 1077.14 1323.36C1076.89 1324.2 1076.63 1325.04 1076.37 1325.9C1071.32 1342.46 1065.55 1355.86 1053.14 1368.36C1052.29 1369.25 1051.45 1370.14 1050.58 1371.05C1049.77 1371.81 1048.97 1372.58 1048.14 1373.36C1047.62 1373.87 1047.09 1374.38 1046.55 1374.9C1025.84 1394.09 998.333 1402.55 970.579 1402.55C968.475 1402.55 966.371 1402.57 964.267 1402.59C955.856 1402.62 947.322 1402.53 939.14 1400.36C938.81 1399.7 938.48 1399.04 938.14 1398.36C936.398 1397.68 936.398 1397.68 934.258 1397.21C933.019 1396.89 933.019 1396.89 931.755 1396.56C930.851 1396.33 929.947 1396.1 929.015 1395.86C912.282 1391.32 896.644 1384.09 881.517 1375.68C877.938 1373.71 874.529 1372.09 870.621 1370.88C865.916 1369.41 861.998 1367.15 857.828 1364.55C850.118 1359.89 842.351 1355.42 833.945 1352.11C828.92 1349.97 824.456 1346.89 819.89 1343.93C817.917 1342.66 815.943 1341.39 813.968 1340.12C812.494 1339.17 812.494 1339.17 810.99 1338.2C806.89 1335.56 802.766 1332.96 798.64 1330.36C782.873 1320.42 767.163 1310.38 751.465 1300.33C744.634 1295.96 737.797 1291.59 730.953 1287.24C730.054 1286.67 729.155 1286.1 728.229 1285.51C723.753 1282.66 719.275 1279.82 714.793 1276.98C703.74 1269.97 692.761 1262.86 681.82 1255.69C674.011 1250.57 666.155 1245.53 658.269 1240.54C650.702 1235.74 643.19 1230.86 635.692 1225.95C630.945 1222.84 626.191 1219.75 621.424 1216.67C611.203 1210.08 601.038 1203.39 590.883 1196.69C588.012 1194.8 585.141 1192.91 582.269 1191.01C573.556 1185.27 564.852 1179.51 556.174 1173.72C550.666 1170.04 545.126 1166.42 539.578 1162.8C522.972 1151.96 506.409 1141.05 489.847 1130.15C487.997 1128.93 486.147 1127.71 484.297 1126.49C478.393 1122.6 472.49 1118.72 466.587 1114.83C464.693 1113.58 462.799 1112.33 460.905 1111.08C451.818 1105.1 442.738 1099.11 433.69 1093.06C425.824 1087.81 417.918 1082.62 410.015 1077.43C408.339 1076.32 406.662 1075.22 404.986 1074.12C396.112 1068.28 387.233 1062.46 378.345 1056.64C341.542 1032.57 341.542 1032.57 328.14 1022.99C322.482 1018.95 316.729 1015.15 310.806 1011.51C304.626 1007.7 298.523 1003.77 292.439 999.807C290.749 998.707 289.056 997.611 287.363 996.516C270.089 985.242 270.089 985.242 264.715 977.497C262.957 975.115 261 973.064 258.953 970.927C224.836 933.185 223.031 875.326 257.734 837.77Z"/>
</mask>
<path d="M257.734 837.77C264.354 831.151 271.784 825.8 279.605 820.704C284.017 817.812 288.324 814.771 292.64 811.739C293.493 811.14 294.346 810.541 295.225 809.924C296.983 808.69 298.741 807.455 300.498 806.22C303.932 803.808 307.371 801.404 310.81 798.999C317.765 794.137 324.711 789.262 331.64 784.364C340.271 778.263 348.93 772.203 357.592 766.146C361.776 763.22 365.958 760.292 370.14 757.364C375.175 753.84 380.209 750.315 385.246 746.794C393.055 741.332 400.859 735.864 408.64 730.364C422.9 720.287 437.223 710.302 451.559 700.335C464.642 691.237 477.697 682.101 490.708 672.902C497.026 668.438 503.365 664.003 509.706 659.571C514.965 655.892 520.213 652.197 525.453 648.489C533.076 643.097 540.74 637.764 548.408 632.436C561.545 623.306 574.651 614.132 587.715 604.898C595.66 599.285 603.633 593.712 611.605 588.138C614.087 586.402 616.567 584.664 619.047 582.927C627.962 576.68 636.888 570.45 645.828 564.239C655.297 557.658 664.73 551.029 674.14 544.364C684.529 537.006 694.953 529.701 705.407 522.436C718.545 513.307 731.65 504.132 744.715 494.898C752.656 489.288 760.624 483.718 768.592 478.146C772.776 475.22 776.958 472.292 781.14 469.364C786.175 465.84 791.209 462.315 796.246 458.794C803.993 453.375 811.735 447.95 819.453 442.489C827.076 437.097 834.74 431.764 842.408 426.436C854.85 417.789 867.267 409.108 879.64 400.364C891.023 392.32 902.435 384.316 913.89 376.376C922.777 370.214 931.646 364.04 940.39 357.677C947.144 352.762 953.991 348.004 960.897 343.307C969.191 337.663 977.402 331.904 985.611 326.139C989.003 323.759 992.399 321.385 995.795 319.01C1002.75 314.144 1009.71 309.266 1016.64 304.364C1025.27 298.263 1033.93 292.203 1042.59 286.146C1046.78 283.22 1050.96 280.292 1055.14 277.364C1060.17 273.84 1065.21 270.316 1070.25 266.794C1078.05 261.332 1085.86 255.865 1093.64 250.364C1107.9 240.285 1122.23 230.298 1136.57 220.33C1145.28 214.27 1153.98 208.184 1162.68 202.091C1165.19 200.326 1167.71 198.564 1170.23 196.802C1178.05 191.338 1185.85 185.867 1193.64 180.364C1202.27 174.263 1210.93 168.203 1219.59 162.146C1223.78 159.22 1227.96 156.292 1232.14 153.364C1237.17 149.84 1242.21 146.316 1247.25 142.794C1255.05 137.332 1262.86 131.865 1270.64 126.364C1279.28 120.26 1287.94 114.197 1296.61 108.138C1299.09 106.402 1301.57 104.665 1304.05 102.927C1312.96 96.6799 1321.89 90.4506 1330.83 84.2391C1340.3 77.6583 1349.73 71.0292 1359.14 64.3641C1369.6 56.9541 1380.1 49.6002 1390.63 42.287C1396.98 37.8724 1403.31 33.4286 1409.63 28.9576C1416.79 23.8895 1424 18.885 1431.21 13.8817C1432.14 13.2378 1433.07 12.594 1434.02 11.9305C1434.91 11.3186 1435.79 10.7068 1436.7 10.0763C1438.82 8.59009 1440.89 7.05664 1442.95 5.50476C1449.73 0.954346 1459.04 -0.841309 1467.14 0.364136C1475.36 2.21765 1480.4 5.39368 1485.14 12.3641C1489 18.6737 1489.25 25.1075 1489.32 32.3718C1489.33 33.0455 1489.34 33.7192 1489.35 34.4135C1489.37 36.668 1489.39 38.9225 1489.4 41.177C1489.42 42.8181 1489.44 44.4592 1489.45 46.1003C1489.5 50.6249 1489.54 55.1494 1489.58 59.6741C1489.62 64.5924 1489.67 69.5106 1489.72 74.4288C1489.8 83.056 1489.88 91.6832 1489.96 100.311C1490.07 113.144 1490.19 125.978 1490.31 138.811C1490.53 161.753 1490.74 184.696 1490.95 207.638C1491.13 227.77 1491.32 247.901 1491.5 268.032C1491.52 269.382 1491.53 270.732 1491.54 272.082C1491.59 277.507 1491.64 282.933 1491.69 288.359C1491.83 303.533 1491.98 318.708 1492.12 333.882C1492.12 334.573 1492.13 335.264 1492.14 335.976C1492.34 358.018 1492.54 380.06 1492.74 402.102C1492.75 402.817 1492.76 403.532 1492.76 404.269C1492.87 415.881 1492.97 427.493 1493.08 439.106C1493.5 484.935 1493.92 530.765 1494.35 576.595C1494.46 588.099 1494.56 599.603 1494.67 611.107C1494.68 611.816 1494.69 612.525 1494.69 613.255C1494.9 635.197 1495.1 657.14 1495.3 679.082C1495.31 679.774 1495.31 680.466 1495.32 681.179C1495.46 696.389 1495.6 711.6 1495.74 726.811C1495.79 732.258 1495.84 737.706 1495.89 743.154C1495.9 744.509 1495.92 745.864 1495.93 747.219C1496.12 767.934 1496.31 788.649 1496.5 809.364C1496.72 832.268 1496.93 855.171 1497.14 878.074C1497.24 889.719 1497.35 901.364 1497.46 913.009C1497.87 956.996 1498.23 1000.98 1498.3 1044.97C1498.31 1049.05 1498.32 1053.13 1498.34 1057.21C1498.36 1061.95 1498.36 1066.69 1498.36 1071.43C1498.36 1073.15 1498.37 1074.87 1498.38 1076.59C1498.45 1092.25 1496.53 1107.06 1493.14 1122.36C1492.96 1123.29 1492.78 1124.22 1492.6 1125.18C1490.46 1134.35 1484.07 1140.78 1476.27 1145.74C1467.71 1150.4 1459.94 1153.28 1450.14 1152.36C1449.3 1152.33 1448.46 1152.29 1447.6 1152.25C1433.14 1150.8 1421.85 1138.64 1412.44 1128.58C1403.65 1119.23 1395.52 1110.99 1383.57 1105.84C1380.39 1104.47 1377.96 1102.99 1375.2 1100.93C1352.08 1084 1322.9 1072.64 1295.14 1066.36C1294.14 1066.12 1294.14 1066.12 1293.11 1065.87C1272.47 1060.9 1246.66 1060.95 1226.14 1066.36C1224.82 1066.67 1223.49 1066.98 1222.17 1067.29C1203.97 1071.82 1186.75 1080.7 1172.14 1092.36C1171.21 1093.08 1170.27 1093.79 1169.31 1094.53C1114.92 1137.25 1092.68 1210.06 1084.52 1275.94C1083.77 1282.65 1083.25 1289.37 1082.82 1296.11C1082.19 1305.65 1079.98 1314.26 1077.14 1323.36C1076.89 1324.2 1076.63 1325.04 1076.37 1325.9C1071.32 1342.46 1065.55 1355.86 1053.14 1368.36C1052.29 1369.25 1051.45 1370.14 1050.58 1371.05C1049.77 1371.81 1048.97 1372.58 1048.14 1373.36C1047.62 1373.87 1047.09 1374.38 1046.55 1374.9C1025.84 1394.09 998.333 1402.55 970.579 1402.55C968.475 1402.55 966.371 1402.57 964.267 1402.59C955.856 1402.62 947.322 1402.53 939.14 1400.36C938.81 1399.7 938.48 1399.04 938.14 1398.36C936.398 1397.68 936.398 1397.68 934.258 1397.21C933.019 1396.89 933.019 1396.89 931.755 1396.56C930.851 1396.33 929.947 1396.1 929.015 1395.86C912.282 1391.32 896.644 1384.09 881.517 1375.68C877.938 1373.71 874.529 1372.09 870.621 1370.88C865.916 1369.41 861.998 1367.15 857.828 1364.55C850.118 1359.89 842.351 1355.42 833.945 1352.11C828.92 1349.97 824.456 1346.89 819.89 1343.93C817.917 1342.66 815.943 1341.39 813.968 1340.12C812.494 1339.17 812.494 1339.17 810.99 1338.2C806.89 1335.56 802.766 1332.96 798.64 1330.36C782.873 1320.42 767.163 1310.38 751.465 1300.33C744.634 1295.96 737.797 1291.59 730.953 1287.24C730.054 1286.67 729.155 1286.1 728.229 1285.51C723.753 1282.66 719.275 1279.82 714.793 1276.98C703.74 1269.97 692.761 1262.86 681.82 1255.69C674.011 1250.57 666.155 1245.53 658.269 1240.54C650.702 1235.74 643.19 1230.86 635.692 1225.95C630.945 1222.84 626.191 1219.75 621.424 1216.67C611.203 1210.08 601.038 1203.39 590.883 1196.69C588.012 1194.8 585.141 1192.91 582.269 1191.01C573.556 1185.27 564.852 1179.51 556.174 1173.72C550.666 1170.04 545.126 1166.42 539.578 1162.8C522.972 1151.96 506.409 1141.05 489.847 1130.15C487.997 1128.93 486.147 1127.71 484.297 1126.49C478.393 1122.6 472.49 1118.72 466.587 1114.83C464.693 1113.58 462.799 1112.33 460.905 1111.08C451.818 1105.1 442.738 1099.11 433.69 1093.06C425.824 1087.81 417.918 1082.62 410.015 1077.43C408.339 1076.32 406.662 1075.22 404.986 1074.12C396.112 1068.28 387.233 1062.46 378.345 1056.64C341.542 1032.57 341.542 1032.57 328.14 1022.99C322.482 1018.95 316.729 1015.15 310.806 1011.51C304.626 1007.7 298.523 1003.77 292.439 999.807C290.749 998.707 289.056 997.611 287.363 996.516C270.089 985.242 270.089 985.242 264.715 977.497C262.957 975.115 261 973.064 258.953 970.927C224.836 933.185 223.031 875.326 257.734 837.77Z" fill="#EAEAEA" stroke="#EAEAEA" stroke-width="2" mask="url(#path-2-inside-2_3003_4880)"/>
</svg>
